<?xml version="1.0" encoding="UTF-8" standalone="no"?>
<svg width="308px" height="48px" viewBox="0 0 308 48" version="1.1" xmlns="http://www.w3.org/2000/svg" xmlns:xlink="http://www.w3.org/1999/xlink" xmlns:sketch="http://www.bohemiancoding.com/sketch/ns">
    <!-- Generator: Sketch 3.4.4 (17249) - http://www.bohemiancoding.com/sketch -->
    <title>logo-es</title>
    <desc>Created with Sketch.</desc>
    <defs></defs>
    <g id="logo" stroke="none" stroke-width="1" fill="none" fill-rule="evenodd" sketch:type="MSPage">
        <g id="logo-es" sketch:type="MSArtboardGroup">
            <g id="Fill-1-+-Fill-2-+-Fill-3" sketch:type="MSLayerGroup" transform="translate(5.000000, 4.000000)">
                <path d="M20.333,40 C17.707,40 15.154,39.499 12.745,38.51 L13.504,36.66 C15.671,37.549 17.969,38 20.333,38 C30.258,38 38.333,29.925 38.333,20 C38.333,10.075 30.258,2 20.333,2 C10.408,2 2.333,10.075 2.333,20 L0.333,20 C0.333,8.972 9.305,0 20.333,0 C31.361,0 40.333,8.972 40.333,20 C40.333,31.028 31.361,40 20.333,40" id="Fill-1" fill="#56B879" sketch:type="MSShapeGroup"></path>
                <path d="M9.781,34.584 C5.117,31.204 2.333,25.752 2.333,20 C2.333,19.447 1.885,19 1.333,19 C0.781,19 0.333,19.447 0.333,20 C0.333,26.391 3.426,32.448 8.607,36.203 L9.781,34.584" id="Fill-2" fill="#9ED16B" sketch:type="MSShapeGroup"></path>
                <path d="M13.124,38.585 C12.998,38.585 12.869,38.562 12.745,38.51 C11.283,37.91 9.891,37.134 8.607,36.203 C8.16,35.879 8.06,35.254 8.384,34.807 C8.71,34.359 9.335,34.26 9.781,34.584 C10.936,35.422 12.189,36.12 13.504,36.66 C14.015,36.869 14.259,37.453 14.05,37.965 C13.891,38.352 13.518,38.585 13.124,38.585" id="Fill-3" fill="#F0ED1F" sketch:type="MSShapeGroup"></path>
            </g>
            <path d="M68.276,13.696 L68.276,12.608 L60.468,12.608 L60.468,13.696 L63.764,13.696 L63.764,24 L64.98,24 L64.98,13.696 L68.276,13.696 Z M75.876,21.696 C75.876,20.208 74.932,19.696 73.556,19.568 L72.324,19.456 C71.348,19.36 70.916,19.008 70.916,18.304 C70.916,17.488 71.524,17.008 72.676,17.008 C73.492,17.008 74.212,17.2 74.772,17.632 L75.524,16.88 C74.804,16.304 73.828,16.032 72.692,16.032 C70.996,16.032 69.796,16.896 69.796,18.336 C69.796,19.648 70.612,20.32 72.148,20.448 L73.444,20.56 C74.372,20.64 74.756,21.008 74.756,21.712 C74.756,22.64 73.972,23.104 72.66,23.104 C71.684,23.104 70.82,22.832 70.212,22.192 L69.444,22.96 C70.292,23.792 71.332,24.096 72.676,24.096 C74.596,24.096 75.876,23.216 75.876,21.696 L75.876,21.696 Z M83.748,24 L83.748,18.656 C83.748,16.96 82.724,16.032 80.596,16.032 C79.3,16.032 78.5,16.304 77.812,17.216 L78.596,17.936 C79.076,17.28 79.588,17.024 80.58,17.024 C82.036,17.024 82.596,17.616 82.596,18.752 L82.596,19.504 L80.244,19.504 C78.484,19.504 77.508,20.384 77.508,21.776 C77.508,22.4 77.7,22.992 78.1,23.376 C78.644,23.904 79.236,24.096 80.324,24.096 C81.38,24.096 81.972,23.872 82.596,23.248 L82.596,24 L83.748,24 Z M82.596,21.216 C82.596,21.872 82.468,22.32 82.196,22.576 C81.684,23.04 81.108,23.104 80.452,23.104 C79.188,23.104 78.628,22.672 78.628,21.76 C78.628,20.832 79.22,20.368 80.404,20.368 L82.596,20.368 L82.596,21.216 Z M87.7,24 L87.7,16.128 L86.548,16.128 L86.548,24 L87.7,24 Z M87.78,13.888 L87.78,12.592 L86.484,12.592 L86.484,13.888 L87.78,13.888 Z M95.988,24 L95.988,12.608 L94.772,12.608 L94.772,24 L95.988,24 Z M105.268,24 L105.268,18.96 C105.268,18.048 105.012,17.312 104.452,16.768 C103.972,16.288 103.284,16.032 102.436,16.032 C101.556,16.032 100.788,16.352 100.228,16.992 L100.228,16.128 L99.076,16.128 L99.076,24 L100.228,24 L100.228,19.152 C100.228,17.776 100.996,17.056 102.18,17.056 C103.364,17.056 104.116,17.76 104.116,19.152 L104.116,24 L105.268,24 Z M113.876,24.24 L113.876,16.128 L112.74,16.128 L112.74,17.056 C112.1,16.224 111.396,16.032 110.532,16.032 C109.732,16.032 109.028,16.304 108.612,16.72 C107.828,17.504 107.652,18.72 107.652,20 C107.652,21.28 107.828,22.496 108.612,23.28 C109.028,23.696 109.716,23.984 110.516,23.984 C111.364,23.984 112.084,23.776 112.724,22.96 L112.724,24.192 C112.724,25.536 112.084,26.608 110.564,26.608 C109.652,26.608 109.252,26.336 108.676,25.824 L107.924,26.56 C108.756,27.312 109.412,27.616 110.596,27.616 C112.66,27.616 113.876,26.192 113.876,24.24 L113.876,24.24 Z M112.724,20 C112.724,21.472 112.484,22.944 110.772,22.944 C109.06,22.944 108.804,21.472 108.804,20 C108.804,18.528 109.06,17.056 110.772,17.056 C112.484,17.056 112.724,18.528 112.724,20 L112.724,20 Z M120.916,20.224 L120.916,19.152 L116.532,19.152 L116.532,20.224 L120.916,20.224 Z M133.54,16.128 L132.292,16.128 L130.5,22.448 L128.42,16.128 L127.428,16.128 L125.364,22.448 L123.556,16.128 L122.308,16.128 L124.804,24 L125.876,24 L127.924,17.888 L129.988,24 L131.06,24 L133.54,16.128 Z M141.188,20.368 L141.188,19.856 C141.188,17.488 140.004,16.032 137.956,16.032 C135.956,16.032 134.724,17.504 134.724,20.064 C134.724,22.848 136.068,24.096 138.164,24.096 C139.492,24.096 140.244,23.68 141.044,22.88 L140.26,22.192 C139.636,22.816 139.108,23.088 138.196,23.088 C136.676,23.088 135.876,22.096 135.876,20.368 L141.188,20.368 Z M140.052,19.504 L135.876,19.504 C135.908,18.864 135.924,18.608 136.116,18.192 C136.452,17.472 137.108,17.008 137.956,17.008 C138.804,17.008 139.46,17.472 139.796,18.192 C139.988,18.608 140.004,18.864 140.052,19.504 L140.052,19.504 Z M149.828,24 L149.828,18.96 C149.828,18.048 149.572,17.312 149.012,16.768 C148.532,16.288 147.844,16.032 146.996,16.032 C146.116,16.032 145.348,16.352 144.788,16.992 L144.788,16.128 L143.636,16.128 L143.636,24 L144.788,24 L144.788,19.152 C144.788,17.776 145.556,17.056 146.74,17.056 C147.924,17.056 148.676,17.76 148.676,19.152 L148.676,24 L149.828,24 Z M157.988,25.04 L157.988,22.592 L156.58,22.592 L156.58,26.304 L157.988,25.04 Z M172.532,20.704 L171.316,20.704 C171.012,22.112 170.004,23.008 168.58,23.008 C167.812,23.008 167.14,22.736 166.612,22.208 C165.892,21.472 165.812,20.64 165.812,18.304 C165.812,15.968 165.892,15.136 166.612,14.4 C167.14,13.872 167.812,13.6 168.58,13.6 C170.004,13.6 170.98,14.496 171.284,15.904 L172.532,15.904 C172.132,13.776 170.644,12.512 168.58,12.512 C167.396,12.512 166.436,12.928 165.732,13.632 C164.66,14.704 164.596,15.696 164.596,18.304 C164.596,20.912 164.66,21.904 165.732,22.976 C166.436,23.68 167.396,24.096 168.58,24.096 C170.628,24.096 172.132,22.832 172.532,20.704 L172.532,20.704 Z M181.204,24 L181.204,18.944 C181.204,17.168 180.164,16.032 178.372,16.032 C177.476,16.032 176.74,16.352 176.164,16.992 L176.164,12.608 L175.012,12.608 L175.012,24 L176.164,24 L176.164,19.136 C176.164,17.744 176.932,17.056 178.132,17.056 C179.332,17.056 180.052,17.744 180.052,19.136 L180.052,24 L181.204,24 Z M190.036,20.368 L190.036,19.856 C190.036,17.488 188.852,16.032 186.804,16.032 C184.804,16.032 183.572,17.504 183.572,20.064 C183.572,22.848 184.916,24.096 187.012,24.096 C188.34,24.096 189.092,23.68 189.892,22.88 L189.108,22.192 C188.484,22.816 187.956,23.088 187.044,23.088 C185.524,23.088 184.724,22.096 184.724,20.368 L190.036,20.368 Z M188.9,19.504 L184.724,19.504 C184.756,18.864 184.772,18.608 184.964,18.192 C185.3,17.472 185.956,17.008 186.804,17.008 C187.652,17.008 188.308,17.472 188.644,18.192 C188.836,18.608 188.852,18.864 188.9,19.504 L188.9,19.504 Z M198.676,24 L198.676,18.96 C198.676,18.048 198.42,17.312 197.86,16.768 C197.38,16.288 196.692,16.032 195.844,16.032 C194.964,16.032 194.196,16.352 193.636,16.992 L193.636,16.128 L192.484,16.128 L192.484,24 L193.636,24 L193.636,19.152 C193.636,17.776 194.404,17.056 195.588,17.056 C196.772,17.056 197.524,17.76 197.524,19.152 L197.524,24 L198.676,24 Z M213.172,20.704 L211.956,20.704 C211.652,22.112 210.644,23.008 209.22,23.008 C208.452,23.008 207.78,22.736 207.252,22.208 C206.532,21.472 206.452,20.64 206.452,18.304 C206.452,15.968 206.532,15.136 207.252,14.4 C207.78,13.872 208.452,13.6 209.22,13.6 C210.644,13.6 211.62,14.496 211.924,15.904 L213.172,15.904 C212.772,13.776 211.284,12.512 209.22,12.512 C208.036,12.512 207.076,12.928 206.372,13.632 C205.3,14.704 205.236,15.696 205.236,18.304 C205.236,20.912 205.3,21.904 206.372,22.976 C207.076,23.68 208.036,24.096 209.22,24.096 C211.268,24.096 212.772,22.832 213.172,20.704 L213.172,20.704 Z M221.844,24 L221.844,18.944 C221.844,17.168 220.804,16.032 219.012,16.032 C218.116,16.032 217.38,16.352 216.804,16.992 L216.804,12.608 L215.652,12.608 L215.652,24 L216.804,24 L216.804,19.136 C216.804,17.744 217.572,17.056 218.772,17.056 C219.972,17.056 220.692,17.744 220.692,19.136 L220.692,24 L221.844,24 Z M225.796,24 L225.796,16.128 L224.644,16.128 L224.644,24 L225.796,24 Z M225.876,13.888 L225.876,12.592 L224.58,12.592 L224.58,13.888 L225.876,13.888 Z M234.708,20.368 L234.708,19.856 C234.708,17.488 233.524,16.032 231.476,16.032 C229.476,16.032 228.244,17.504 228.244,20.064 C228.244,22.848 229.588,24.096 231.684,24.096 C233.012,24.096 233.764,23.68 234.564,22.88 L233.78,22.192 C233.156,22.816 232.628,23.088 231.716,23.088 C230.196,23.088 229.396,22.096 229.396,20.368 L234.708,20.368 Z M233.572,19.504 L229.396,19.504 C229.428,18.864 229.444,18.608 229.636,18.192 C229.972,17.472 230.628,17.008 231.476,17.008 C232.324,17.008 232.98,17.472 233.316,18.192 C233.508,18.608 233.524,18.864 233.572,19.504 L233.572,19.504 Z M243.348,24 L243.348,18.96 C243.348,18.048 243.092,17.312 242.532,16.768 C242.052,16.288 241.364,16.032 240.516,16.032 C239.636,16.032 238.868,16.352 238.308,16.992 L238.308,16.128 L237.156,16.128 L237.156,24 L238.308,24 L238.308,19.152 C238.308,17.776 239.076,17.056 240.26,17.056 C241.444,17.056 242.196,17.76 242.196,19.152 L242.196,24 L243.348,24 Z M250.308,20.224 L250.308,19.152 L245.924,19.152 L245.924,20.224 L250.308,20.224 Z M258.052,20.544 L258.052,12.608 L256.836,12.608 L256.836,20.384 C256.836,22.064 255.988,23.008 254.5,23.008 C253.556,23.008 253.124,22.672 252.708,22.256 L251.892,23.072 C252.596,23.776 253.412,24.096 254.5,24.096 C256.58,24.096 258.052,22.736 258.052,20.544 L258.052,20.544 Z M267.012,20.368 L267.012,19.856 C267.012,17.488 265.828,16.032 263.78,16.032 C261.78,16.032 260.548,17.504 260.548,20.064 C260.548,22.848 261.892,24.096 263.988,24.096 C265.316,24.096 266.068,23.68 266.868,22.88 L266.084,22.192 C265.46,22.816 264.932,23.088 264.02,23.088 C262.5,23.088 261.7,22.096 261.7,20.368 L267.012,20.368 Z M265.876,19.504 L261.7,19.504 C261.732,18.864 261.748,18.608 261.94,18.192 C262.276,17.472 262.932,17.008 263.78,17.008 C264.628,17.008 265.284,17.472 265.62,18.192 C265.812,18.608 265.828,18.864 265.876,19.504 L265.876,19.504 Z M275.652,24 L275.652,18.96 C275.652,18.048 275.396,17.312 274.836,16.768 C274.356,16.288 273.668,16.032 272.82,16.032 C271.94,16.032 271.172,16.352 270.612,16.992 L270.612,16.128 L269.46,16.128 L269.46,24 L270.612,24 L270.612,19.152 C270.612,17.776 271.38,17.056 272.564,17.056 C273.748,17.056 274.5,17.76 274.5,19.152 L274.5,24 L275.652,24 Z" id="Tsai-Ing-wen-,-Chen-" fill="#000000" sketch:type="MSShapeGroup"></path>
            <path d="M63.251,40.559 L63.251,34.151 L62,34.151 L62,40.559 L63.251,40.559 Z M70.903,40.559 L70.903,39.443 L67.996,39.443 L67.996,34.151 L66.745,34.151 L66.745,40.559 L70.903,40.559 Z M78.222,38.363 L78.222,34.151 L76.98,34.151 L76.98,38.318 C76.98,39.056 76.539,39.497 75.864,39.497 C75.189,39.497 74.757,39.056 74.757,38.318 L74.757,34.151 L73.506,34.151 L73.506,38.363 C73.506,39.722 74.55,40.613 75.864,40.613 C77.178,40.613 78.222,39.722 78.222,38.363 L78.222,38.363 Z M87.422,40.559 L87.422,34.151 L86.189,34.151 L84.524,37.616 L82.85,34.151 L81.617,34.151 L81.617,40.559 L82.868,40.559 L82.868,36.824 L84.101,39.254 L84.947,39.254 L86.171,36.824 L86.171,40.559 L87.422,40.559 Z M92.167,40.559 L92.167,34.151 L90.916,34.151 L90.916,40.559 L92.167,40.559 Z M100.566,40.559 L100.566,34.151 L99.315,34.151 L99.315,38.075 L96.777,34.151 L95.661,34.151 L95.661,40.559 L96.912,40.559 L96.912,36.626 L99.45,40.559 L100.566,40.559 Z M108.281,40.559 L108.281,39.443 L105.311,39.443 L105.311,37.886 L107.84,37.886 L107.84,36.77 L105.311,36.77 L105.311,35.267 L108.281,35.267 L108.281,34.151 L104.06,34.151 L104.06,40.559 L108.281,40.559 Z M117.31,40.559 L117.31,34.151 L116.077,34.151 L114.412,37.616 L112.738,34.151 L111.505,34.151 L111.505,40.559 L112.756,40.559 L112.756,36.824 L113.989,39.254 L114.835,39.254 L116.059,36.824 L116.059,40.559 L117.31,40.559 Z M125.322,37.355 C125.322,36.131 125.304,35.411 124.665,34.772 C124.233,34.34 123.693,34.097 122.955,34.097 C122.217,34.097 121.668,34.34 121.236,34.772 C120.597,35.411 120.588,36.131 120.588,37.355 C120.588,38.579 120.597,39.299 121.236,39.938 C121.668,40.37 122.217,40.613 122.955,40.613 C123.693,40.613 124.233,40.37 124.665,39.938 C125.304,39.299 125.322,38.579 125.322,37.355 L125.322,37.355 Z M124.071,37.355 C124.071,38.579 123.99,38.876 123.756,39.146 C123.576,39.353 123.297,39.497 122.955,39.497 C122.613,39.497 122.334,39.353 122.145,39.146 C121.911,38.876 121.839,38.579 121.839,37.355 C121.839,36.131 121.911,35.825 122.145,35.555 C122.334,35.348 122.613,35.213 122.955,35.213 C123.297,35.213 123.576,35.348 123.756,35.555 C123.99,35.825 124.071,36.131 124.071,37.355 L124.071,37.355 Z M132.74,38.669 C132.74,38.093 132.587,37.634 132.245,37.319 C131.966,37.049 131.606,36.896 131.021,36.815 L130.256,36.698 C129.986,36.662 129.797,36.572 129.671,36.455 C129.536,36.329 129.491,36.167 129.491,35.996 C129.491,35.555 129.806,35.186 130.472,35.186 C130.895,35.186 131.39,35.24 131.786,35.627 L132.578,34.844 C132.029,34.313 131.39,34.097 130.508,34.097 C129.122,34.097 128.276,34.898 128.276,36.041 C128.276,36.581 128.429,37.004 128.735,37.301 C129.023,37.58 129.41,37.751 129.977,37.832 L130.742,37.949 C131.066,37.994 131.192,38.048 131.318,38.165 C131.453,38.3 131.516,38.48 131.516,38.696 C131.516,39.209 131.12,39.497 130.373,39.497 C129.788,39.497 129.239,39.362 128.834,38.957 L128.024,39.767 C128.654,40.406 129.392,40.613 130.364,40.613 C131.714,40.613 132.74,39.911 132.74,38.669 L132.74,38.669 Z M144.957,40.559 L142.617,34.151 L141.636,34.151 L139.305,40.559 L140.61,40.559 L140.997,39.425 L143.274,39.425 L143.652,40.559 L144.957,40.559 Z M142.941,38.372 L141.348,38.372 L142.158,36.041 L142.941,38.372 Z M155.959,35.267 L155.959,34.151 L151.36,34.151 L151.36,35.267 L153.034,35.267 L153.034,40.559 L154.285,40.559 L154.285,35.267 L155.959,35.267 Z M163.296,40.559 L160.956,34.151 L159.975,34.151 L157.644,40.559 L158.949,40.559 L159.336,39.425 L161.613,39.425 L161.991,40.559 L163.296,40.559 Z M161.28,38.372 L159.687,38.372 L160.497,36.041 L161.28,38.372 Z M167.339,40.559 L167.339,34.151 L166.088,34.151 L166.088,40.559 L167.339,40.559 Z M178.015,34.151 L176.71,34.151 L175.711,38.192 L174.541,34.151 L173.605,34.151 L172.435,38.192 L171.445,34.151 L170.14,34.151 L171.85,40.559 L172.894,40.559 L174.073,36.671 L175.252,40.559 L176.296,40.559 L178.015,34.151 Z M185.586,40.559 L183.246,34.151 L182.265,34.151 L179.934,40.559 L181.239,40.559 L181.626,39.425 L183.903,39.425 L184.281,40.559 L185.586,40.559 Z M183.57,38.372 L181.977,38.372 L182.787,36.041 L183.57,38.372 Z M184.056,32 L182.823,32 L182.247,33.53 L183.03,33.53 L184.056,32 Z M193.283,40.559 L193.283,34.151 L192.032,34.151 L192.032,38.075 L189.494,34.151 L188.378,34.151 L188.378,40.559 L189.629,40.559 L189.629,36.626 L192.167,40.559 L193.283,40.559 Z" id="ILUMINEMOS-A-TAIWÃN-Copy" fill="#000000" sketch:type="MSShapeGroup"></path>
        </g>
    </g>
</svg>