<?xml version="1.0" encoding="UTF-8" standalone="no"?>
<svg width="311px" height="48px" viewBox="0 0 311 48" version="1.1" xmlns="http://www.w3.org/2000/svg" xmlns:xlink="http://www.w3.org/1999/xlink" xmlns:sketch="http://www.bohemiancoding.com/sketch/ns">
    <!-- Generator: Sketch 3.4.4 (17249) - http://www.bohemiancoding.com/sketch -->
    <title>logo-en</title>
    <desc>Created with Sketch.</desc>
    <defs></defs>
    <g id="logo" stroke="none" stroke-width="1" fill="none" fill-rule="evenodd" sketch:type="MSPage">
        <g id="logo-en" sketch:type="MSArtboardGroup">
            <g id="logo" sketch:type="MSLayerGroup" transform="translate(5.000000, 4.000000)">
                <path d="M20.333,40 C17.707,40 15.154,39.499 12.745,38.51 L13.504,36.66 C15.671,37.549 17.969,38 20.333,38 C30.258,38 38.333,29.925 38.333,20 C38.333,10.075 30.258,2 20.333,2 C10.408,2 2.333,10.075 2.333,20 L0.333,20 C0.333,8.972 9.305,0 20.333,0 C31.361,0 40.333,8.972 40.333,20 C40.333,31.028 31.361,40 20.333,40" id="Fill-1" fill="#56B879" sketch:type="MSShapeGroup"></path>
                <path d="M9.781,34.584 C5.117,31.204 2.333,25.752 2.333,20 C2.333,19.447 1.885,19 1.333,19 C0.781,19 0.333,19.447 0.333,20 C0.333,26.391 3.426,32.448 8.607,36.203 L9.781,34.584" id="Fill-2" fill="#9ED16B" sketch:type="MSShapeGroup"></path>
                <path d="M13.124,38.585 C12.998,38.585 12.869,38.562 12.745,38.51 C11.283,37.91 9.891,37.134 8.607,36.203 C8.16,35.879 8.06,35.254 8.384,34.807 C8.71,34.359 9.335,34.26 9.781,34.584 C10.936,35.422 12.189,36.12 13.504,36.66 C14.015,36.869 14.259,37.453 14.05,37.965 C13.891,38.352 13.518,38.585 13.124,38.585" id="Fill-3" fill="#F0ED1F" sketch:type="MSShapeGroup"></path>
            </g>
            <g id="light-up" sketch:type="MSLayerGroup" transform="translate(61.000000, 34.000000)" fill="#000000">
                <path d="M0.232,6.155 L0.232,0.393 L1.356,0.393 L1.356,5.151 L3.969,5.151 L3.969,6.155 L0.232,6.155" id="Fill-48" sketch:type="MSShapeGroup"></path>
                <path d="M7.307,0.393 L8.432,0.393 L8.432,6.154 L7.307,6.154 L7.307,0.393 Z" id="Fill-49" sketch:type="MSShapeGroup"></path>
                <path d="M15.749,5.548 C15.289,6.025 14.739,6.203 14.124,6.203 C13.493,6.203 12.976,5.976 12.571,5.572 C11.989,4.99 12.005,4.269 12.005,3.274 C12.005,2.279 11.989,1.559 12.571,0.976 C12.976,0.571 13.477,0.345 14.124,0.345 C15.458,0.345 16.138,1.219 16.292,2.19 L15.159,2.19 C15.029,1.648 14.698,1.348 14.124,1.348 C13.817,1.348 13.566,1.47 13.405,1.656 C13.186,1.899 13.129,2.165 13.129,3.274 C13.129,4.382 13.186,4.658 13.405,4.901 C13.566,5.087 13.817,5.2 14.124,5.2 C14.464,5.2 14.739,5.079 14.925,4.876 C15.111,4.666 15.183,4.407 15.183,4.107 L15.183,3.889 L14.124,3.889 L14.124,2.95 L16.3,2.95 L16.3,3.792 C16.3,4.625 16.154,5.127 15.749,5.548" id="Fill-50" sketch:type="MSShapeGroup"></path>
                <path d="M22.938,6.155 L22.938,3.743 L20.988,3.743 L20.988,6.155 L19.864,6.155 L19.864,0.393 L20.988,0.393 L20.988,2.748 L22.938,2.748 L22.938,0.393 L24.062,0.393 L24.062,6.155 L22.938,6.155" id="Fill-51" sketch:type="MSShapeGroup"></path>
                <path d="M30.029,1.397 L30.029,6.155 L28.904,6.155 L28.904,1.397 L27.4,1.397 L27.4,0.393 L31.533,0.393 L31.533,1.397 L30.029,1.397" id="Fill-52" sketch:type="MSShapeGroup"></path>
                <path d="M41.203,6.203 C40.022,6.203 39.084,5.402 39.084,4.18 L39.084,0.393 L40.208,0.393 L40.208,4.14 C40.208,4.803 40.596,5.2 41.203,5.2 C41.809,5.2 42.205,4.803 42.205,4.14 L42.205,0.393 L43.321,0.393 L43.321,4.18 C43.321,5.402 42.383,6.203 41.203,6.203" id="Fill-53" sketch:type="MSShapeGroup"></path>
                <path d="M49.232,3.986 L48.124,3.986 L48.124,6.155 L47,6.155 L47,0.393 L49.232,0.393 C50.421,0.393 51.133,1.211 51.133,2.19 C51.133,3.169 50.421,3.986 49.232,3.986 M49.176,1.397 L48.124,1.397 L48.124,2.974 L49.176,2.974 C49.685,2.974 50.009,2.659 50.009,2.19 C50.009,1.72 49.685,1.397 49.176,1.397" id="Fill-54" sketch:type="MSShapeGroup"></path>
                <path d="M61.004,1.397 L61.004,6.155 L59.88,6.155 L59.88,1.397 L58.376,1.397 L58.376,0.393 L62.508,0.393 L62.508,1.397 L61.004,1.397" id="Fill-55" sketch:type="MSShapeGroup"></path>
                <path d="M68.637,6.155 L68.297,5.135 L66.251,5.135 L65.903,6.155 L64.731,6.155 L66.826,0.393 L67.707,0.393 L69.809,6.155 L68.637,6.155 L68.637,6.155 Z M67.295,2.093 L66.567,4.188 L67.998,4.188 L67.295,2.093 L67.295,2.093 Z" id="Fill-56" sketch:type="MSShapeGroup"></path>
                <path d="M72.946,0.393 L74.07,0.393 L74.07,6.154 L72.946,6.154 L72.946,0.393 Z" id="Fill-57" sketch:type="MSShapeGroup"></path>
                <path d="M82.747,6.155 L81.809,6.155 L80.749,2.659 L79.69,6.155 L78.752,6.155 L77.215,0.393 L78.388,0.393 L79.278,4.026 L80.329,0.393 L81.17,0.393 L82.221,4.026 L83.119,0.393 L84.291,0.393 L82.747,6.155" id="Fill-58" sketch:type="MSShapeGroup"></path>
                <path d="M90.58,6.155 L90.241,5.135 L88.195,5.135 L87.847,6.155 L86.674,6.155 L88.769,0.393 L89.65,0.393 L91.753,6.155 L90.58,6.155 L90.58,6.155 Z M89.238,2.093 L88.51,4.188 L89.941,4.188 L89.238,2.093 L89.238,2.093 Z" id="Fill-59" sketch:type="MSShapeGroup"></path>
                <path d="M98.294,6.155 L96.013,2.619 L96.013,6.155 L94.889,6.155 L94.889,0.393 L95.892,0.393 L98.172,3.921 L98.172,0.393 L99.297,0.393 L99.297,6.155 L98.294,6.155" id="Fill-60" sketch:type="MSShapeGroup"></path>
            </g>
            <path d="M68.496,13.696 L68.496,12.608 L60.688,12.608 L60.688,13.696 L63.984,13.696 L63.984,24 L65.2,24 L65.2,13.696 L68.496,13.696 Z M76.096,21.696 C76.096,20.208 75.152,19.696 73.776,19.568 L72.544,19.456 C71.568,19.36 71.136,19.008 71.136,18.304 C71.136,17.488 71.744,17.008 72.896,17.008 C73.712,17.008 74.432,17.2 74.992,17.632 L75.744,16.88 C75.024,16.304 74.048,16.032 72.912,16.032 C71.216,16.032 70.016,16.896 70.016,18.336 C70.016,19.648 70.832,20.32 72.368,20.448 L73.664,20.56 C74.592,20.64 74.976,21.008 74.976,21.712 C74.976,22.64 74.192,23.104 72.88,23.104 C71.904,23.104 71.04,22.832 70.432,22.192 L69.664,22.96 C70.512,23.792 71.552,24.096 72.896,24.096 C74.816,24.096 76.096,23.216 76.096,21.696 L76.096,21.696 Z M83.968,24 L83.968,18.656 C83.968,16.96 82.944,16.032 80.816,16.032 C79.52,16.032 78.72,16.304 78.032,17.216 L78.816,17.936 C79.296,17.28 79.808,17.024 80.8,17.024 C82.256,17.024 82.816,17.616 82.816,18.752 L82.816,19.504 L80.464,19.504 C78.704,19.504 77.728,20.384 77.728,21.776 C77.728,22.4 77.92,22.992 78.32,23.376 C78.864,23.904 79.456,24.096 80.544,24.096 C81.6,24.096 82.192,23.872 82.816,23.248 L82.816,24 L83.968,24 Z M82.816,21.216 C82.816,21.872 82.688,22.32 82.416,22.576 C81.904,23.04 81.328,23.104 80.672,23.104 C79.408,23.104 78.848,22.672 78.848,21.76 C78.848,20.832 79.44,20.368 80.624,20.368 L82.816,20.368 L82.816,21.216 Z M87.92,24 L87.92,16.128 L86.768,16.128 L86.768,24 L87.92,24 Z M88,13.888 L88,12.592 L86.704,12.592 L86.704,13.888 L88,13.888 Z M96.208,24 L96.208,12.608 L94.992,12.608 L94.992,24 L96.208,24 Z M105.488,24 L105.488,18.96 C105.488,18.048 105.232,17.312 104.672,16.768 C104.192,16.288 103.504,16.032 102.656,16.032 C101.776,16.032 101.008,16.352 100.448,16.992 L100.448,16.128 L99.296,16.128 L99.296,24 L100.448,24 L100.448,19.152 C100.448,17.776 101.216,17.056 102.4,17.056 C103.584,17.056 104.336,17.76 104.336,19.152 L104.336,24 L105.488,24 Z M114.096,24.24 L114.096,16.128 L112.96,16.128 L112.96,17.056 C112.32,16.224 111.616,16.032 110.752,16.032 C109.952,16.032 109.248,16.304 108.832,16.72 C108.048,17.504 107.872,18.72 107.872,20 C107.872,21.28 108.048,22.496 108.832,23.28 C109.248,23.696 109.936,23.984 110.736,23.984 C111.584,23.984 112.304,23.776 112.944,22.96 L112.944,24.192 C112.944,25.536 112.304,26.608 110.784,26.608 C109.872,26.608 109.472,26.336 108.896,25.824 L108.144,26.56 C108.976,27.312 109.632,27.616 110.816,27.616 C112.88,27.616 114.096,26.192 114.096,24.24 L114.096,24.24 Z M112.944,20 C112.944,21.472 112.704,22.944 110.992,22.944 C109.28,22.944 109.024,21.472 109.024,20 C109.024,18.528 109.28,17.056 110.992,17.056 C112.704,17.056 112.944,18.528 112.944,20 L112.944,20 Z M121.136,20.224 L121.136,19.152 L116.752,19.152 L116.752,20.224 L121.136,20.224 Z M135.76,12.608 L134.464,12.608 L132.24,21.792 L129.728,12.608 L128.64,12.608 L126.128,21.792 L123.904,12.608 L122.608,12.608 L125.52,24 L126.656,24 L129.184,14.88 L131.712,24 L132.848,24 L135.76,12.608 Z M143.488,20.368 L143.488,19.856 C143.488,17.488 142.304,16.032 140.256,16.032 C138.256,16.032 137.024,17.504 137.024,20.064 C137.024,22.848 138.368,24.096 140.464,24.096 C141.792,24.096 142.544,23.68 143.344,22.88 L142.56,22.192 C141.936,22.816 141.408,23.088 140.496,23.088 C138.976,23.088 138.176,22.096 138.176,20.368 L143.488,20.368 Z M142.352,19.504 L138.176,19.504 C138.208,18.864 138.224,18.608 138.416,18.192 C138.752,17.472 139.408,17.008 140.256,17.008 C141.104,17.008 141.76,17.472 142.096,18.192 C142.288,18.608 142.304,18.864 142.352,19.504 L142.352,19.504 Z M152.128,24 L152.128,18.96 C152.128,18.048 151.872,17.312 151.312,16.768 C150.832,16.288 150.144,16.032 149.296,16.032 C148.416,16.032 147.648,16.352 147.088,16.992 L147.088,16.128 L145.936,16.128 L145.936,24 L147.088,24 L147.088,19.152 C147.088,17.776 147.856,17.056 149.04,17.056 C150.224,17.056 150.976,17.76 150.976,19.152 L150.976,24 L152.128,24 Z M160.288,25.04 L160.288,22.592 L158.88,22.592 L158.88,26.304 L160.288,25.04 Z M174.832,20.704 L173.616,20.704 C173.312,22.112 172.304,23.008 170.88,23.008 C170.112,23.008 169.44,22.736 168.912,22.208 C168.192,21.472 168.112,20.64 168.112,18.304 C168.112,15.968 168.192,15.136 168.912,14.4 C169.44,13.872 170.112,13.6 170.88,13.6 C172.304,13.6 173.28,14.496 173.584,15.904 L174.832,15.904 C174.432,13.776 172.944,12.512 170.88,12.512 C169.696,12.512 168.736,12.928 168.032,13.632 C166.96,14.704 166.896,15.696 166.896,18.304 C166.896,20.912 166.96,21.904 168.032,22.976 C168.736,23.68 169.696,24.096 170.88,24.096 C172.928,24.096 174.432,22.832 174.832,20.704 L174.832,20.704 Z M183.504,24 L183.504,18.944 C183.504,17.168 182.464,16.032 180.672,16.032 C179.776,16.032 179.04,16.352 178.464,16.992 L178.464,12.608 L177.312,12.608 L177.312,24 L178.464,24 L178.464,19.136 C178.464,17.744 179.232,17.056 180.432,17.056 C181.632,17.056 182.352,17.744 182.352,19.136 L182.352,24 L183.504,24 Z M192.336,20.368 L192.336,19.856 C192.336,17.488 191.152,16.032 189.104,16.032 C187.104,16.032 185.872,17.504 185.872,20.064 C185.872,22.848 187.216,24.096 189.312,24.096 C190.64,24.096 191.392,23.68 192.192,22.88 L191.408,22.192 C190.784,22.816 190.256,23.088 189.344,23.088 C187.824,23.088 187.024,22.096 187.024,20.368 L192.336,20.368 Z M191.2,19.504 L187.024,19.504 C187.056,18.864 187.072,18.608 187.264,18.192 C187.6,17.472 188.256,17.008 189.104,17.008 C189.952,17.008 190.608,17.472 190.944,18.192 C191.136,18.608 191.152,18.864 191.2,19.504 L191.2,19.504 Z M200.976,24 L200.976,18.96 C200.976,18.048 200.72,17.312 200.16,16.768 C199.68,16.288 198.992,16.032 198.144,16.032 C197.264,16.032 196.496,16.352 195.936,16.992 L195.936,16.128 L194.784,16.128 L194.784,24 L195.936,24 L195.936,19.152 C195.936,17.776 196.704,17.056 197.888,17.056 C199.072,17.056 199.824,17.76 199.824,19.152 L199.824,24 L200.976,24 Z M215.472,20.704 L214.256,20.704 C213.952,22.112 212.944,23.008 211.52,23.008 C210.752,23.008 210.08,22.736 209.552,22.208 C208.832,21.472 208.752,20.64 208.752,18.304 C208.752,15.968 208.832,15.136 209.552,14.4 C210.08,13.872 210.752,13.6 211.52,13.6 C212.944,13.6 213.92,14.496 214.224,15.904 L215.472,15.904 C215.072,13.776 213.584,12.512 211.52,12.512 C210.336,12.512 209.376,12.928 208.672,13.632 C207.6,14.704 207.536,15.696 207.536,18.304 C207.536,20.912 207.6,21.904 208.672,22.976 C209.376,23.68 210.336,24.096 211.52,24.096 C213.568,24.096 215.072,22.832 215.472,20.704 L215.472,20.704 Z M224.144,24 L224.144,18.944 C224.144,17.168 223.104,16.032 221.312,16.032 C220.416,16.032 219.68,16.352 219.104,16.992 L219.104,12.608 L217.952,12.608 L217.952,24 L219.104,24 L219.104,19.136 C219.104,17.744 219.872,17.056 221.072,17.056 C222.272,17.056 222.992,17.744 222.992,19.136 L222.992,24 L224.144,24 Z M228.096,24 L228.096,16.128 L226.944,16.128 L226.944,24 L228.096,24 Z M228.176,13.888 L228.176,12.592 L226.88,12.592 L226.88,13.888 L228.176,13.888 Z M237.008,20.368 L237.008,19.856 C237.008,17.488 235.824,16.032 233.776,16.032 C231.776,16.032 230.544,17.504 230.544,20.064 C230.544,22.848 231.888,24.096 233.984,24.096 C235.312,24.096 236.064,23.68 236.864,22.88 L236.08,22.192 C235.456,22.816 234.928,23.088 234.016,23.088 C232.496,23.088 231.696,22.096 231.696,20.368 L237.008,20.368 Z M235.872,19.504 L231.696,19.504 C231.728,18.864 231.744,18.608 231.936,18.192 C232.272,17.472 232.928,17.008 233.776,17.008 C234.624,17.008 235.28,17.472 235.616,18.192 C235.808,18.608 235.824,18.864 235.872,19.504 L235.872,19.504 Z M245.648,24 L245.648,18.96 C245.648,18.048 245.392,17.312 244.832,16.768 C244.352,16.288 243.664,16.032 242.816,16.032 C241.936,16.032 241.168,16.352 240.608,16.992 L240.608,16.128 L239.456,16.128 L239.456,24 L240.608,24 L240.608,19.152 C240.608,17.776 241.376,17.056 242.56,17.056 C243.744,17.056 244.496,17.76 244.496,19.152 L244.496,24 L245.648,24 Z M252.608,20.224 L252.608,19.152 L248.224,19.152 L248.224,20.224 L252.608,20.224 Z M263.44,24 L260.736,18.832 C262.208,18.528 263.216,17.44 263.216,15.776 C263.216,13.808 261.824,12.608 259.84,12.608 L255.472,12.608 L255.472,24 L256.688,24 L256.688,18.944 L259.424,18.944 L262.016,24 L263.44,24 Z M262,15.792 C262,17.184 261.056,17.872 259.728,17.872 L256.688,17.872 L256.688,13.696 L259.728,13.696 C261.056,13.696 262,14.4 262,15.792 L262,15.792 Z M271.792,20.368 L271.792,19.856 C271.792,17.488 270.608,16.032 268.56,16.032 C266.56,16.032 265.328,17.504 265.328,20.064 C265.328,22.848 266.672,24.096 268.768,24.096 C270.096,24.096 270.848,23.68 271.648,22.88 L270.864,22.192 C270.24,22.816 269.712,23.088 268.8,23.088 C267.28,23.088 266.48,22.096 266.48,20.368 L271.792,20.368 Z M270.656,19.504 L266.48,19.504 C266.512,18.864 266.528,18.608 266.72,18.192 C267.056,17.472 267.712,17.008 268.56,17.008 C269.408,17.008 270.064,17.472 270.4,18.192 C270.592,18.608 270.608,18.864 270.656,19.504 L270.656,19.504 Z M280.432,24 L280.432,18.96 C280.432,18.048 280.176,17.312 279.616,16.768 C279.136,16.288 278.448,16.032 277.6,16.032 C276.72,16.032 275.952,16.352 275.392,16.992 L275.392,16.128 L274.24,16.128 L274.24,24 L275.392,24 L275.392,19.152 C275.392,17.776 276.16,17.056 277.344,17.056 C278.528,17.056 279.28,17.76 279.28,19.152 L279.28,24 L280.432,24 Z" id="Tsai-Ing-Wen-,-Chen-" fill="#000000" sketch:type="MSShapeGroup"></path>
        </g>
    </g>
</svg>