<?xml version="1.0" encoding="UTF-8" standalone="no"?>
<svg width="240px" height="48px" viewBox="0 0 240 48" version="1.1" xmlns="http://www.w3.org/2000/svg" xmlns:xlink="http://www.w3.org/1999/xlink" xmlns:sketch="http://www.bohemiancoding.com/sketch/ns">
    <!-- Generator: Sketch 3.4.4 (17249) - http://www.bohemiancoding.com/sketch -->
    <title>logo-jp</title>
    <desc>Created with Sketch.</desc>
    <defs></defs>
    <g id="logo" stroke="none" stroke-width="1" fill="none" fill-rule="evenodd" sketch:type="MSPage">
        <g id="logo-jp" sketch:type="MSArtboardGroup">
            <g id="logo" sketch:type="MSLayerGroup" transform="translate(5.000000, 4.000000)">
                <path d="M20.333,40 C17.707,40 15.154,39.499 12.745,38.51 L13.504,36.66 C15.671,37.549 17.969,38 20.333,38 C30.258,38 38.333,29.925 38.333,20 C38.333,10.075 30.258,2 20.333,2 C10.408,2 2.333,10.075 2.333,20 L0.333,20 C0.333,8.972 9.305,0 20.333,0 C31.361,0 40.333,8.972 40.333,20 C40.333,31.028 31.361,40 20.333,40" id="Fill-1" fill="#56B879" sketch:type="MSShapeGroup"></path>
                <path d="M9.781,34.584 C5.117,31.204 2.333,25.752 2.333,20 C2.333,19.447 1.885,19 1.333,19 C0.781,19 0.333,19.447 0.333,20 C0.333,26.391 3.426,32.448 8.607,36.203 L9.781,34.584" id="Fill-2" fill="#9ED16B" sketch:type="MSShapeGroup"></path>
                <path d="M13.124,38.585 C12.998,38.585 12.869,38.562 12.745,38.51 C11.283,37.91 9.891,37.134 8.607,36.203 C8.16,35.879 8.06,35.254 8.384,34.807 C8.71,34.359 9.335,34.26 9.781,34.584 C10.936,35.422 12.189,36.12 13.504,36.66 C14.015,36.869 14.259,37.453 14.05,37.965 C13.891,38.352 13.518,38.585 13.124,38.585" id="Fill-3" fill="#F0ED1F" sketch:type="MSShapeGroup"></path>
            </g>
            <path d="M67.138,34.898 C67.021,34.943 66.805,34.979 66.562,34.979 L61.954,34.979 C61.693,34.979 61.351,34.952 61,34.916 L61,35.852 C61.342,35.825 61.738,35.816 61.954,35.816 L66.535,35.816 C66.373,36.41 66.049,37.085 65.536,37.616 C64.798,38.381 63.691,38.966 62.386,39.236 L63.088,40.046 C64.24,39.722 65.383,39.155 66.31,38.129 C66.976,37.391 67.372,36.482 67.633,35.6 C67.651,35.528 67.723,35.393 67.768,35.294 L67.138,34.898 Z M61.819,33.746 C62.071,33.728 62.395,33.719 62.674,33.719 L66.175,33.719 C66.481,33.719 66.841,33.728 67.066,33.746 L67.066,32.819 C66.841,32.846 66.472,32.864 66.184,32.864 L62.674,32.864 C62.386,32.864 62.062,32.846 61.819,32.819 L61.819,33.746 Z M76.212,35.096 C77.121,34.511 77.967,33.809 78.615,33.161 L77.85,32.468 C77.346,33.116 76.41,33.917 75.501,34.484 C74.502,35.105 72.981,35.771 71.442,36.122 L71.955,36.995 C73.071,36.68 74.268,36.176 75.213,35.672 L75.213,38.876 C75.213,39.245 75.186,39.74 75.159,39.938 L76.275,39.938 C76.23,39.74 76.212,39.245 76.212,38.876 L76.212,35.096 Z M89.48,36.419 C88.58,35.978 86.861,35.339 85.673,34.979 L85.673,33.575 C85.673,33.26 85.709,32.864 85.736,32.567 L84.629,32.567 C84.683,32.873 84.71,33.287 84.71,33.575 L84.71,38.777 C84.71,39.128 84.683,39.614 84.638,39.929 L85.745,39.929 C85.7,39.605 85.673,39.056 85.673,38.777 L85.673,35.996 C86.663,36.32 88.121,36.887 89.075,37.4 L89.48,36.419 Z M96.583,34.718 C96.628,34.979 96.637,35.195 96.637,35.438 C96.637,36.932 96.43,38.066 95.143,38.894 C94.855,39.101 94.54,39.245 94.279,39.335 L95.107,40.01 C97.474,38.795 97.609,37.067 97.609,34.718 L96.583,34.718 Z M100.678,32.99 C100.534,33.026 100.129,33.053 99.922,33.053 L94.891,33.053 C94.54,33.053 94.171,33.017 93.838,32.972 L93.838,33.971 C94.225,33.944 94.54,33.917 94.891,33.917 L99.832,33.917 C99.571,34.43 98.779,35.321 97.996,35.78 L98.743,36.383 C99.706,35.699 100.561,34.556 100.948,33.899 C101.02,33.791 101.164,33.62 101.245,33.521 L100.678,32.99 Z M108.204,34.349 L107.358,34.628 C107.565,35.06 107.97,36.185 108.078,36.608 L108.924,36.302 C108.807,35.906 108.366,34.727 108.204,34.349 L108.204,34.349 Z M110.499,34.61 C110.373,35.744 109.923,36.914 109.302,37.688 C108.555,38.615 107.367,39.299 106.35,39.587 L107.097,40.352 C108.114,39.956 109.23,39.236 110.058,38.174 C110.688,37.373 111.075,36.419 111.318,35.465 C111.354,35.312 111.408,35.15 111.489,34.925 L110.499,34.61 Z M106.107,34.817 L105.261,35.123 C105.459,35.474 105.927,36.698 106.08,37.175 L106.935,36.86 C106.764,36.374 106.314,35.231 106.107,34.817 L106.107,34.817 Z M122.561,33.638 C122.255,33.638 122.003,33.395 122.003,33.08 C122.003,32.774 122.255,32.522 122.561,32.522 C122.876,32.522 123.128,32.774 123.128,33.08 C123.128,33.395 122.876,33.638 122.561,33.638 L122.561,33.638 Z M116.81,33.341 C116.513,33.341 116.09,33.314 115.838,33.278 L115.838,34.277 C116.063,34.268 116.423,34.25 116.81,34.25 L121.229,34.25 C121.112,35.069 120.725,36.221 120.104,37.013 C119.366,37.949 118.349,38.723 116.585,39.155 L117.359,40.001 C118.988,39.488 120.113,38.624 120.932,37.562 C121.661,36.599 122.084,35.177 122.282,34.259 L122.327,34.088 C122.399,34.106 122.48,34.115 122.561,34.115 C123.137,34.115 123.605,33.656 123.605,33.08 C123.605,32.513 123.137,32.045 122.561,32.045 C121.994,32.045 121.526,32.513 121.526,33.08 C121.526,33.161 121.535,33.242 121.553,33.323 C121.418,33.341 121.283,33.341 121.175,33.341 L116.81,33.341 Z M132.265,37.247 L132.265,39.119 L128.233,39.119 L128.233,37.247 L132.265,37.247 Z M127.378,40.307 L128.233,40.307 L128.233,39.929 L132.265,39.929 L132.265,40.298 L133.165,40.298 L133.165,36.446 L127.378,36.446 L127.378,40.307 Z M131.284,33.512 C131.626,33.8 131.977,34.133 132.319,34.475 C131.086,34.529 129.844,34.574 128.719,34.619 C129.187,33.917 129.682,33.08 130.078,32.324 L129.142,32 C128.8,32.819 128.242,33.863 127.72,34.655 L126.361,34.7 L126.424,35.546 C128.08,35.474 130.618,35.375 133.021,35.258 C133.273,35.555 133.48,35.843 133.624,36.095 L134.362,35.537 C133.894,34.781 132.832,33.746 131.941,33.026 L131.284,33.512 Z M139.584,33.026 C139.26,32.711 138.576,32.333 138.045,32.108 L137.577,32.729 C138.108,32.981 138.783,33.404 139.089,33.71 L139.584,33.026 Z M140.259,33.71 C140.043,34.178 139.647,34.628 139.215,34.943 C139.377,35.051 139.665,35.267 139.782,35.384 C140.232,35.024 140.7,34.466 140.97,33.899 L140.259,33.71 Z M139.125,35.357 C138.792,35.069 138.108,34.709 137.577,34.502 L137.109,35.132 C137.658,35.366 138.324,35.762 138.639,36.059 L139.125,35.357 Z M138.09,40.199 C138.549,39.353 139.053,38.282 139.449,37.337 L138.801,36.833 C138.36,37.859 137.766,39.011 137.352,39.704 L138.09,40.199 Z M140.727,38.138 L140.862,37.634 L144.705,37.634 L144.705,35.825 L141.114,35.825 C141.942,35.312 142.095,34.52 142.095,33.998 L142.095,33.521 L142.761,33.521 L142.761,35.006 C142.761,35.087 142.734,35.105 142.653,35.105 C142.563,35.114 142.329,35.114 142.041,35.105 C142.131,35.285 142.23,35.528 142.275,35.726 C142.707,35.726 143.004,35.717 143.238,35.618 C143.454,35.519 143.499,35.348 143.499,35.024 L143.499,33.521 L145.335,33.521 L145.335,32.819 L142.815,32.819 L142.815,32.045 L141.969,32.045 L141.969,32.819 L139.638,32.819 L139.638,33.521 L141.357,33.521 L141.357,33.971 C141.357,34.403 141.222,35.051 140.412,35.465 C140.556,35.546 140.763,35.708 140.907,35.825 L139.764,35.825 L139.764,36.455 L143.922,36.455 L143.922,37.004 L140.187,37.004 C140.061,37.652 139.836,38.444 139.647,38.993 L140.448,39.11 L140.547,38.786 L144.138,38.786 C144.03,39.236 143.904,39.47 143.778,39.578 C143.688,39.641 143.616,39.65 143.454,39.65 C143.283,39.65 142.842,39.641 142.419,39.596 C142.536,39.785 142.626,40.082 142.635,40.289 C143.103,40.325 143.553,40.316 143.778,40.298 C144.048,40.289 144.228,40.235 144.417,40.091 C144.66,39.875 144.849,39.416 145.029,38.471 C145.056,38.363 145.083,38.138 145.083,38.138 L140.727,38.138 Z M143.715,34.052 C144.129,34.466 144.588,35.033 144.777,35.42 L145.434,35.051 C145.218,34.664 144.75,34.115 144.318,33.728 L143.715,34.052 Z" id="ライトアップ台湾-copy" fill="#000000" sketch:type="MSShapeGroup"></path>
            <g id="name" sketch:type="MSLayerGroup" transform="translate(61.000000, 7.000000)">
                <path d="M64.685,8.475 L66.44,8.475 L64.46,12.57 L63.47,12.57 L64.685,8.475 Z" id="，" fill="#000000" sketch:type="MSShapeGroup"></path>
                <g id="英文" fill="#050101" sketch:type="MSShapeGroup">
                    <path d="M20.2061647,4.2354 L24.6098118,4.2354 L24.6098118,5.81834118 C24.6098118,5.86916471 24.6521647,5.91045882 24.7029882,5.91045882 L25.6612235,5.91045882 C25.7120471,5.91045882 25.7533412,5.86916471 25.7533412,5.81834118 L25.7533412,4.2354 L29.9388706,4.2354 L29.9388706,5.81834118 C29.9388706,5.86916471 29.9801647,5.91045882 30.0309882,5.91045882 L30.9892235,5.91045882 C31.0411059,5.91045882 31.0824,5.86916471 31.0824,5.81834118 L31.0824,4.2354 L35.4860471,4.2354 C35.5379294,4.2354 35.5792235,4.19410588 35.5792235,4.14222353 L35.5792235,3.18504706 C35.5792235,3.13422353 35.5379294,3.09292941 35.4860471,3.09292941 L31.0824,3.09292941 L31.0824,1.50998824 C31.0824,1.45916471 31.0411059,1.41681176 30.9892235,1.41681176 L30.0309882,1.41681176 C29.9801647,1.41681176 29.9388706,1.45916471 29.9388706,1.50998824 L29.9388706,3.09292941 L25.7533412,3.09292941 L25.7533412,1.50998824 C25.7533412,1.45916471 25.7120471,1.41681176 25.6612235,1.41681176 L24.7029882,1.41681176 C24.6521647,1.41681176 24.6098118,1.45916471 24.6098118,1.50998824 L24.6098118,3.09292941 L20.2061647,3.09292941 C20.1553412,3.09292941 20.1129882,3.13422353 20.1129882,3.18504706 L20.1129882,4.14222353 C20.1129882,4.19410588 20.1553412,4.2354 20.2061647,4.2354" id="Fill-5"></path>
                    <path d="M31.4458941,11.3424353 L28.4250706,11.3424353 L28.4250706,11.3233765 L28.4367176,8.77796471 L31.2849529,8.77796471 C31.3738941,8.77796471 31.4458941,8.84996471 31.4458941,8.93890588 L31.4458941,11.3424353 Z M27.2487176,8.79702353 L27.2455412,11.3424353 L24.2247176,11.3424353 L24.2247176,8.93890588 C24.2247176,8.84996471 24.2977765,8.77796471 24.3856588,8.77796471 L27.2497765,8.77796471 L27.2487176,8.79702353 Z M35.4863647,11.3424353 L32.6423647,11.3424353 L32.6423647,7.77631765 C32.6423647,7.66937647 32.5555412,7.58149412 32.4486,7.58149412 L28.4420118,7.58149412 L28.4420118,7.56243529 L28.4494235,6.11502353 C28.4494235,6.03878824 28.3890706,5.97737647 28.3128353,5.97737647 L27.3906,5.97631765 L27.3895412,5.97631765 C27.3535412,5.97631765 27.3196588,5.99008235 27.2931882,6.01549412 C27.2677765,6.04196471 27.2529529,6.07584706 27.2529529,6.11290588 L27.2508353,7.58149412 L23.2230706,7.58149412 C23.1161294,7.58149412 23.0282471,7.66937647 23.0282471,7.77631765 L23.0282471,11.3424353 L20.2064824,11.3424353 C20.1397765,11.3424353 20.0868353,11.3964353 20.0868353,11.4620824 L20.0868353,12.4192588 C20.0868353,12.4849059 20.1397765,12.5389059 20.2064824,12.5389059 L26.8844824,12.5389059 L26.8696588,12.5674941 C26.1761294,13.9460824 24.5476588,15.7767882 20.7327176,16.6619647 C20.6670706,16.6767882 20.6257765,16.7413765 20.6406,16.8049059 L20.8481294,17.7377294 C20.8555412,17.7694941 20.8746,17.7959647 20.9021294,17.8139647 C20.9296588,17.8309059 20.9635412,17.8362 20.9963647,17.8298471 C25.2062471,16.8536118 27.0708353,14.7687882 27.8935412,13.1900824 L27.9115412,13.1562 L27.9284824,13.1911412 C28.5351882,14.4289059 30.1943647,16.6450235 34.4900118,17.5651412 C34.5217765,17.5714941 34.5546,17.5662 34.5821294,17.5482 C34.6096588,17.5302 34.6276588,17.5026706 34.6350706,17.4719647 L34.8267176,16.5349059 C34.8394235,16.4713765 34.7970706,16.4089059 34.7335412,16.3940824 C30.6930706,15.5258471 29.3462471,13.4272588 28.9544824,12.5664353 L28.9417765,12.5389059 L35.4863647,12.5389059 C35.5520118,12.5389059 35.6060118,12.4849059 35.6060118,12.4192588 L35.6060118,11.4620824 C35.6060118,11.3964353 35.5520118,11.3424353 35.4863647,11.3424353 L35.4863647,11.3424353 Z" id="Fill-7"></path>
                    <path d="M10.6338706,2.57812941 L10.6338706,0.958129412 L9.51469412,0.958129412 L9.51469412,2.57812941 L6.08092941,2.57812941 L6.08092941,0.958129412 L4.96281176,0.958129412 L4.96281176,2.57812941 L0.0382235294,2.57812941 L0.0382235294,3.69730588 L4.96281176,3.69730588 L4.96281176,4.99542353 L6.08092941,4.99542353 L6.08092941,3.69730588 L9.51469412,3.69730588 L9.51469412,4.99542353 L10.6338706,4.99542353 L10.6338706,3.69730588 L15.5574,3.69730588 L15.5574,2.57812941 L10.6338706,2.57812941 Z" id="Fill-9"></path>
                    <path d="M7.53278824,6.71124706 L7.76149412,6.09818824 C7.76255294,6.09712941 7.78902353,6.03042353 7.76149412,5.98912941 C7.74667059,5.96795294 7.71702353,5.95630588 7.67361176,5.95630588 L3.65749412,5.95630588 L3.67337647,5.92771765 C3.83961176,5.62701176 3.97831765,5.33689412 4.0842,5.06477647 C4.10008235,5.0256 4.1022,4.99383529 4.08949412,4.9716 C4.07361176,4.94407059 4.04078824,4.93771765 4.04078824,4.93771765 L3.12172941,4.65924706 C3.10478824,4.66348235 3.03490588,4.67830588 3.01478824,4.72807059 C2.85384706,5.13677647 2.17831765,6.60218824 0.234317647,8.33018824 C0.211023529,8.35136471 0.198317647,8.37254118 0.198317647,8.39477647 C0.197258824,8.42442353 0.218435294,8.4456 0.218435294,8.4456 L0.855847059,9.17936471 C0.855847059,9.17936471 0.873847059,9.2016 0.901376471,9.20371765 C0.920435294,9.20583529 0.942670588,9.19736471 0.964905882,9.17830588 C1.74208235,8.49642353 2.41655294,7.77112941 2.96714118,7.02148235 L2.97349412,7.01407059 L5.91808235,7.01407059 C5.97208235,7.01407059 6.02078824,7.0416 6.04725882,7.08712941 C6.07372941,7.13265882 6.07478824,7.18771765 6.04831765,7.23430588 C5.74231765,7.77748235 5.36431765,8.33865882 4.95455294,8.85642353 L4.94078824,8.87336471 L4.92490588,8.85748235 L3.97090588,7.89395294 L3.17572941,8.68065882 L4.20384706,9.71936471 L4.19114118,9.73312941 C3.98255294,9.95336471 3.76443529,10.1672471 3.54314118,10.3684235 L3.52937647,10.3811294 L3.51561176,10.3673647 L2.48325882,9.32442353 L1.68808235,10.1121882 L2.66325882,11.0979529 L2.64525882,11.1106588 C1.83631765,11.7194824 0.960670588,12.2192471 0.0416117647,12.5983059 C0.00772941176,12.6120706 -0.00921176471,12.6512471 0.00455294118,12.6840706 L0.371964706,13.5925412 C0.378317647,13.6105412 0.393141176,13.6243059 0.4122,13.6327765 C0.431258824,13.6401882 0.451376471,13.6401882 0.469376471,13.6327765 C5.70208235,11.4759529 7.51478824,6.75889412 7.53278824,6.71124706" id="Fill-11"></path>
                    <path d="M11.4089294,9.30610588 C11.4046941,9.30610588 11.4004588,9.30716471 11.3962235,9.30716471 C11.3581059,9.30716471 11.3210471,9.28916471 11.2977529,9.25951765 C10.8054,8.64010588 10.3892824,7.96245882 10.0599882,7.24563529 C10.0430471,7.20857647 10.0451647,7.16728235 10.0674,7.1334 C10.0906941,7.0974 10.1309294,7.07516471 10.1743412,7.07516471 L12.4391647,7.07516471 C12.4825765,7.07516471 12.5217529,7.0974 12.5450471,7.13445882 C12.5672824,7.17151765 12.5683412,7.21598824 12.5482235,7.25516471 L11.5063412,9.24151765 C11.4872824,9.27751765 11.4512824,9.30187059 11.4089294,9.30610588 M12.3057529,10.1277529 L14.3259882,6.27151765 C14.3619882,6.20481176 14.3598706,6.1254 14.3196353,6.06081176 C14.2804588,5.99516471 14.2116353,5.95704706 14.1354,5.95704706 L8.51834118,5.95704706 C8.48657647,5.95704706 8.46434118,5.96551765 8.45163529,5.98351765 C8.42834118,6.01634118 8.44104706,6.07775294 8.44845882,6.09892941 L8.63904706,6.68869412 C9.00010588,7.80151765 10.5226941,11.5635176 14.9686941,13.2936353 L15.3721059,12.2506941 C13.9818706,11.8028118 12.5905765,10.5216353 12.3248118,10.2685765 C12.2866941,10.2325765 12.2792824,10.1785765 12.3057529,10.1277529" id="Fill-14"></path>
                    <path d="M5.94487059,10.1960471 L5.94487059,11.1691059 C5.94487059,11.2093412 5.97769412,11.2421647 6.01792941,11.2421647 L9.70898824,11.2421647 C9.74816471,11.2421647 9.78204706,11.2093412 9.78204706,11.1691059 L9.78204706,10.1960471 C9.78204706,10.1558118 9.74816471,10.1229882 9.70898824,10.1229882 L6.01792941,10.1229882 C5.97769412,10.1229882 5.94487059,10.1558118 5.94487059,10.1960471" id="Fill-16"></path>
                    <path d="M11.9351647,13.6746 L11.9351647,12.7026 C11.9351647,12.6623647 11.9023412,12.6284824 11.8621059,12.6284824 L3.97916471,12.6284824 C3.93892941,12.6284824 3.90610588,12.6623647 3.90610588,12.7026 L3.90610588,13.6746 C3.90610588,13.7148353 3.93892941,13.7476588 3.97916471,13.7476588 L7.37798824,13.7476588 L7.37798824,16.7091882 C7.37798824,16.8044824 7.30069412,16.8807176 7.2054,16.8807176 L6.41445882,16.8807176 C6.3414,16.8807176 6.28210588,16.9410706 6.28210588,17.0130706 L6.28210588,17.8675412 C6.28210588,17.9406 6.3414,17.9998941 6.41445882,17.9998941 L8.00375294,17.9998941 C8.27481176,17.9998941 8.49610588,17.7786 8.49610588,17.5064824 L8.49610588,13.7476588 L11.8621059,13.7476588 C11.9023412,13.7476588 11.9351647,13.7148353 11.9351647,13.6746" id="Fill-18"></path>
                    <path d="M10.9971529,14.7865765 C10.9812706,14.7770471 10.9643294,14.7717529 10.9463294,14.7717529 C10.9399765,14.7717529 10.9325647,14.7728118 10.9262118,14.7738706 C10.9018588,14.7791647 10.8806824,14.7939882 10.8669176,14.8151647 L10.3671529,15.5997529 C10.3385647,15.6442235 10.3523294,15.7024588 10.3957412,15.7299882 L13.8220941,17.9143412 C13.8665647,17.9408118 13.9248,17.9281059 13.9533882,17.8846941 L14.4531529,17.1001059 C14.4806824,17.0566941 14.4679765,16.9984588 14.4235059,16.9698706 L10.9971529,14.7865765 Z" id="Fill-20"></path>
                    <path d="M4.43212941,14.6079529 C4.41836471,14.5867765 4.39718824,14.5730118 4.37177647,14.5677176 C4.36542353,14.5666588 4.36012941,14.5656 4.35377647,14.5656 C4.33471765,14.5656 4.31671765,14.5708941 4.30083529,14.5814824 L0.792952941,16.9225412 C0.771776471,16.9363059 0.758011765,16.9574824 0.752717647,16.9818353 C0.747423529,17.0072471 0.752717647,17.0326588 0.766482353,17.0527765 L1.28318824,17.8267765 C1.29695294,17.8479529 1.31812941,17.8627765 1.34354118,17.8670118 C1.36789412,17.8723059 1.39330588,17.8670118 1.41448235,17.8532471 L4.92236471,15.5121882 C4.94354118,15.4984235 4.95730588,15.4772471 4.9626,15.4528941 C4.96683529,15.4274824 4.9626,15.4031294 4.94883529,15.3819529 L4.43212941,14.6079529 Z" id="Fill-22"></path>
                    <path d="M54.6848471,4.14307059 L40.1292,4.14307059 C40.0688471,4.14307059 40.0190824,4.19283529 40.0190824,4.25318824 L40.0190824,5.23895294 C40.0190824,5.30036471 40.0688471,5.34907059 40.1292,5.34907059 L54.6848471,5.34907059 C54.7462588,5.34907059 54.7949647,5.30036471 54.7949647,5.23895294 L54.7949647,4.25318824 C54.7949647,4.19283529 54.7462588,4.14307059 54.6848471,4.14307059" id="Fill-24"></path>
                    <path d="M46.9147765,2.81234118 L47.8994824,2.81234118 C47.9672471,2.81234118 48.0233647,2.75622353 48.0233647,2.68845882 L48.0233647,0.748694118 C48.0233647,0.679870588 47.9672471,0.624811765 47.8994824,0.624811765 L46.9147765,0.624811765 C46.8470118,0.624811765 46.7908941,0.679870588 46.7908941,0.748694118 L46.7908941,2.68845882 C46.7908941,2.75622353 46.8470118,2.81234118 46.9147765,2.81234118" id="Fill-26"></path>
                    <path d="M54.5529176,16.4316706 C52.1811529,15.4024941 50.0698588,13.9921412 48.2772706,12.2397882 L48.2635059,12.2270824 L48.2762118,12.2122588 C49.4620941,10.9088471 50.5135059,9.43496471 51.3997412,7.83190588 C51.4156235,7.80225882 51.4198588,7.76837647 51.4103294,7.73555294 C51.4008,7.70378824 51.3796235,7.67731765 51.3499765,7.66143529 L50.4859765,7.19025882 C50.4266824,7.15849412 50.3525647,7.17967059 50.3197412,7.23896471 C49.4970353,8.72661176 48.5218588,10.0988471 47.4217412,11.3175529 L47.4069176,11.3344941 L47.3931529,11.3175529 C46.2930353,10.0988471 45.3178588,8.72661176 44.4951529,7.23896471 C44.4718588,7.19872941 44.4305647,7.17543529 44.3871529,7.17543529 C44.3670353,7.17543529 44.3469176,7.17967059 44.3289176,7.19025882 L43.4638588,7.66143529 C43.4352706,7.67731765 43.4140941,7.70378824 43.4045647,7.73555294 C43.3950353,7.76837647 43.3982118,7.80225882 43.4151529,7.83190588 C44.3013882,9.43496471 45.3528,10.9088471 46.5376235,12.2122588 L46.5513882,12.2270824 L46.5376235,12.2397882 C44.7450353,13.9921412 42.6326824,15.4024941 40.2619765,16.4316706 C40.1995059,16.4581412 40.1709176,16.5301412 40.1973882,16.5915529 L40.5838588,17.4979059 C40.5965647,17.5286118 40.6209176,17.5529647 40.6516235,17.5646118 C40.6833882,17.5773176 40.7172706,17.5773176 40.7479765,17.5635529 C43.2605647,16.4740235 45.4968,14.9810824 47.3931529,13.1281412 L47.4069176,13.1143765 L47.4217412,13.1281412 C49.3180941,14.9810824 51.5532706,16.4740235 54.0669176,17.5635529 C54.0965647,17.5773176 54.1304471,17.5773176 54.1622118,17.5646118 C54.1939765,17.5529647 54.2183294,17.5286118 54.2310353,17.4979059 L54.6175059,16.5915529 C54.6439765,16.5301412 54.6153882,16.4581412 54.5529176,16.4316706" id="Fill-28"></path>
                </g>
                <g id="建仁" transform="translate(76.000000, 0.000000)" fill="#050101" sketch:type="MSShapeGroup">
                    <path d="M36.5193765,16.2890471 C32.2046706,16.3959882 30.0203176,16.4224588 28.6046706,16.2096353 C27.7406706,16.0794 27.0736118,15.8517529 26.3377294,15.5510471 C25.5997294,15.2482235 24.8479647,14.6775176 24.1025529,13.8548118 L24.0570235,13.8029294 L24.0834941,13.7372824 C25.0629059,11.3464588 25.3403176,8.90163529 25.3869059,8.43681176 L25.4313765,7.97516471 C25.4345529,7.94022353 25.4239647,7.9074 25.4006706,7.88198824 C25.3773765,7.85657647 25.3445529,7.84281176 25.3106706,7.84281176 L23.2671412,7.84281176 C23.2099647,7.84281176 23.1612588,7.8174 23.1337294,7.77398824 C23.1072588,7.72845882 23.1072588,7.67128235 23.1347882,7.61516471 L25.2556118,2.92351765 C25.2725529,2.8854 25.2683176,2.84410588 25.2460824,2.80916471 C25.2217294,2.77316471 25.1857294,2.75410588 25.1433765,2.75410588 L21.1007882,2.75410588 L21.1007882,3.84151765 L23.6790235,3.8394 L23.6154941,3.99398824 L21.4597294,8.75869412 C21.4449059,8.79575294 21.4480824,8.83810588 21.4703176,8.87198824 C21.4936118,8.90692941 21.5306706,8.92704706 21.5719647,8.92704706 L24.1237294,8.92704706 C24.1840824,8.92704706 24.2190235,8.95245882 24.2370235,8.97363529 C24.2783176,9.02234118 24.2709059,9.08692941 24.2698471,9.09434118 C24.0792588,10.4051647 23.7414941,11.7371647 23.3391412,12.7494 L23.2957294,12.8605765 L23.1485529,12.6488118 C22.5418471,11.7805765 22.0960824,10.9366941 21.8980824,10.4771647 L21.0171412,10.8488118 C21.3104353,11.5539882 21.9383176,12.6265765 22.7822,13.8632824 L22.8362,13.9479882 L22.8213765,13.9797529 C22.3406706,14.9845765 21.7276118,15.8326941 21.0510235,16.4319882 L21.7551412,17.2568118 C22.4105529,16.6818706 23.0024353,15.9057529 23.5149059,14.9528118 L23.5869059,14.8162235 L23.6927882,14.9274 C24.4392588,15.6950471 25.2100824,16.2456353 25.9830235,16.5611647 C26.8279647,16.9084588 27.5024353,17.1361059 28.4511412,17.2779882 C29.3077294,17.4071647 30.4523176,17.4643412 32.1612588,17.4643412 L32.2184353,17.4643412 C32.4651412,17.4632824 32.7266706,17.4622235 33.0019647,17.4611647 C34.0226706,17.4590471 35.1789059,17.4548118 36.5469059,17.4209294 L36.5204353,16.2890471 L36.5193765,16.2890471 Z" id="Fill-1"></path>
                    <path d="M31.4568235,6.23954118 L33.7788235,6.23954118 L33.7788235,7.55671765 C33.7788235,7.65201176 33.7015294,7.73036471 33.6062353,7.73036471 L31.4568235,7.73036471 L31.4568235,6.23954118 Z M31.4568235,3.75448235 L33.6062353,3.75448235 C33.7015294,3.75448235 33.7788235,3.83283529 33.7788235,3.92812941 L33.7788235,5.15530588 L31.4568235,5.15530588 L31.4568235,3.75448235 Z M26.1118824,12.7280118 L26.1129412,13.8143647 L30.308,13.8122471 L30.3715294,13.8122471 L30.3715294,15.4830706 L31.4578824,15.4809529 L31.4568235,13.8122471 L35.9568235,13.8122471 L35.9557647,12.7258941 L31.4568235,12.7280118 L31.4568235,11.4341294 L35.2823529,11.4341294 L35.2802353,10.3477765 L31.4568235,10.3498941 L31.4568235,8.8146 L34.7074118,8.8146 C34.7942353,8.8146 34.8651765,8.74471765 34.8651765,8.65789412 L34.8651765,6.23954118 L36.6990588,6.23954118 L36.6969412,5.15530588 L34.8651765,5.15530588 L34.8651765,2.82695294 C34.8651765,2.74012941 34.7942353,2.67024706 34.7074118,2.67024706 L31.4568235,2.67024706 L31.4568235,0.939070588 L30.3694118,0.941188235 L30.3715294,2.67024706 L27.1071765,2.67024706 L27.1092941,3.7566 L30.3715294,3.75448235 L30.3715294,5.15530588 L26.1118824,5.15530588 L26.1129412,6.2406 L30.3715294,6.23954118 L30.3715294,7.73036471 L27.1071765,7.73036471 L27.1092941,8.81671765 L30.3715294,8.8146 L30.3715294,10.3498941 L26.7609412,10.3498941 L26.7630588,11.4362471 L30.3715294,11.4341294 L30.3715294,12.7280118 L26.1118824,12.7280118 Z" id="Fill-3"></path>
                    <path d="M55.5957765,4.73484706 L55.5894235,4.72849412 L48.5175412,4.72849412 L48.5122471,5.92072941 L55.5894235,5.92708235 L55.5957765,4.73484706 Z" id="Fill-30"></path>
                    <path d="M56.8768471,14.1192 L47.2309647,14.1192 L47.2246118,15.3114353 L56.8768471,15.3177882 L56.8832,14.1255529 L56.8768471,14.1192 Z" id="Fill-32"></path>
                    <path d="M43.6363647,4.54118824 C43.4733059,5.07695294 43.2530706,5.59683529 42.9820118,6.08495294 L41.2381294,9.18518824 L42.1720118,9.71036471 C42.1698941,9.71671765 42.1688353,9.71883529 42.1688353,9.71883529 C42.1698941,9.71883529 42.1720118,9.7146 42.1751882,9.70824706 L43.3526,7.56307059 L43.3526,17.4387176 L44.5226,17.4249529 C44.5120118,17.4260118 44.5151882,5.66036471 44.5151882,5.66036471 L44.5151882,5.60424706 C44.5162471,5.57989412 44.5162471,5.56083529 44.5151882,5.55024706 C44.5141294,5.52271765 44.5194235,5.49624706 44.5236588,5.47718824 L45.5295412,2.05612941 L44.4897765,1.76071765 L43.6363647,4.54118824 Z" id="Fill-34"></path>
                    <path d="M4.16003529,7.09676471 L5.01556471,2.64335294 C5.02403529,2.58935294 5.00815294,2.53323529 4.97321176,2.49088235 C4.93615294,2.44852941 4.88427059,2.42417647 4.82815294,2.42417647 L0.625682353,2.42417647 C0.551564706,2.42417647 0.491211765,2.48452941 0.491211765,2.55864706 L0.491211765,17.5219412 C0.491211765,17.5346471 0.502858824,17.5462941 0.515564706,17.5462941 L1.55638824,17.5462941 C1.57015294,17.5462941 1.58074118,17.5357059 1.58074118,17.5219412 L1.58074118,3.65664706 C1.58074118,3.57829412 1.64532941,3.51370588 1.72474118,3.51370588 L3.65709412,3.51370588 C3.72168235,3.51370588 3.75768235,3.54017647 3.77674118,3.56135294 C3.81697647,3.609 3.81062353,3.67358824 3.80744706,3.69158824 L3.09274118,7.10311765 L3.66556471,10.9307647 C3.66662353,10.9784118 3.66662353,11.079 3.54909412,11.079 L2.32827059,11.079 C2.31556471,11.079 2.30391765,11.0895882 2.30391765,11.1033529 L2.30391765,12.0965294 C2.30391765,12.1018235 2.30497647,12.1060588 2.30497647,12.1102941 C2.30603529,12.1134706 2.30709412,12.1177059 2.30709412,12.1219412 L4.36015294,12.1219412 C4.51050588,12.1219412 4.62803529,12.0732353 4.70956471,11.9779412 C4.80274118,11.8688824 4.82921176,11.7142941 4.81332941,11.6179412 L4.81332941,11.6168824 L4.15897647,7.10311765 L4.16003529,7.09676471 Z" id="Fill-36"></path>
                    <path id="Fill-38"></path>
                    <path d="M11.0579529,10.2561882 L11.0579529,8.79924706 L13.8553647,8.79924706 L13.8553647,10.0941882 C13.8553647,10.1831294 13.7823059,10.2561882 13.6923059,10.2561882 L11.0579529,10.2561882 Z M11.0579529,6.46665882 L13.6923059,6.46665882 C13.7823059,6.46665882 13.8553647,6.53971765 13.8553647,6.62971765 L13.8553647,7.74148235 L11.0579529,7.74148235 L11.0579529,6.46665882 Z M9.90171765,7.74148235 L7.09265882,7.74148235 L7.09265882,6.62971765 C7.09265882,6.53971765 7.16465882,6.46665882 7.25465882,6.46665882 L9.90171765,6.46665882 L9.90171765,7.74148235 Z M9.90171765,10.2561882 L7.25465882,10.2561882 C7.16465882,10.2561882 7.09265882,10.1831294 7.09265882,10.0941882 L7.09265882,8.96230588 C7.09265882,8.87230588 7.16465882,8.79924706 7.25465882,8.79924706 L9.90171765,8.79924706 L9.90171765,10.2561882 Z M16.4325412,15.6381882 C14.6431294,14.4946588 12.8907765,12.5908941 12.2300706,11.4113647 L12.1400706,11.2599529 L14.7458353,11.2599529 C14.8379529,11.2599529 14.9131294,11.1837176 14.9131294,11.0926588 L14.9131294,5.62277647 C14.9131294,5.53065882 14.8379529,5.45548235 14.7458353,5.45548235 L11.0579529,5.45548235 L11.0579529,3.80054118 L15.4150118,3.80054118 L15.4234824,2.75124706 L11.0579529,2.74277647 L11.0579529,0.715129412 L9.91124706,0.706658824 L9.90171765,2.74277647 L5.58277647,2.74277647 L5.57430588,3.79207059 L9.90171765,3.80054118 L9.90171765,5.45548235 L6.20112941,5.45548235 C6.10901176,5.45548235 6.03383529,5.53065882 6.03383529,5.62277647 L6.03383529,11.0926588 C6.03383529,11.1837176 6.10901176,11.2599529 6.20112941,11.2599529 L8.84289412,11.2599529 L8.74442353,11.4145412 C7.91430588,12.6628941 6.41289412,14.5423059 4.91148235,15.7334824 C4.90407059,15.7398353 4.90195294,15.7472471 4.90089412,15.7525412 C4.89983529,15.7599529 4.90195294,15.7684235 4.90724706,15.7737176 L5.53830588,16.5371294 C5.54571765,16.5456 5.55524706,16.5477176 5.56054118,16.5477176 C5.56265882,16.5519529 5.57430588,16.5477176 5.58171765,16.5413647 C7.79148235,14.7127765 9.17536471,12.6660706 9.80324706,11.6083059 L9.90171765,11.4431294 L9.90171765,17.5821882 L11.0484235,17.5917176 L11.0579529,11.4156 L11.1585412,11.6114824 C11.8584235,12.9816 13.7081882,15.1479529 15.7570118,16.4630118 C15.7686588,16.4704235 15.7866588,16.4693647 15.7983059,16.4566588 L16.4399529,15.6816 C16.4463059,15.6720706 16.4463059,15.6625412 16.4463059,15.6583059 C16.4452471,15.6530118 16.4420706,15.6445412 16.4325412,15.6381882 L16.4325412,15.6381882 Z" id="Fill-40"></path>
                </g>
            </g>
        </g>
    </g>
</svg>