<?xml version="1.0" encoding="UTF-8" standalone="no"?>
<svg width="240px" height="48px" viewBox="0 0 240 48" version="1.1" xmlns="http://www.w3.org/2000/svg" xmlns:xlink="http://www.w3.org/1999/xlink" xmlns:sketch="http://www.bohemiancoding.com/sketch/ns">
    <!-- Generator: Sketch 3.4.4 (17249) - http://www.bohemiancoding.com/sketch -->
    <title>logo-jp-mobile</title>
    <desc>Created with Sketch.</desc>
    <defs></defs>
    <g id="logo" stroke="none" stroke-width="1" fill="none" fill-rule="evenodd" sketch:type="MSPage">
        <g id="logo-jp-mobile" sketch:type="MSArtboardGroup">
            <g id="logo" sketch:type="MSLayerGroup" transform="translate(5.000000, 4.000000)">
                <path d="M20.333,40 C17.707,40 15.154,39.499 12.745,38.51 L13.504,36.66 C15.671,37.549 17.969,38 20.333,38 C30.258,38 38.333,29.925 38.333,20 C38.333,10.075 30.258,2 20.333,2 C10.408,2 2.333,10.075 2.333,20 L0.333,20 C0.333,8.972 9.305,0 20.333,0 C31.361,0 40.333,8.972 40.333,20 C40.333,31.028 31.361,40 20.333,40" id="Fill-1" fill="#56B879" sketch:type="MSShapeGroup"></path>
                <path d="M9.781,34.584 C5.117,31.204 2.333,25.752 2.333,20 C2.333,19.447 1.885,19 1.333,19 C0.781,19 0.333,19.447 0.333,20 C0.333,26.391 3.426,32.448 8.607,36.203 L9.781,34.584" id="Fill-2" fill="#9ED16B" sketch:type="MSShapeGroup"></path>
                <path d="M13.124,38.585 C12.998,38.585 12.869,38.562 12.745,38.51 C11.283,37.91 9.891,37.134 8.607,36.203 C8.16,35.879 8.06,35.254 8.384,34.807 C8.71,34.359 9.335,34.26 9.781,34.584 C10.936,35.422 12.189,36.12 13.504,36.66 C14.015,36.869 14.259,37.453 14.05,37.965 C13.891,38.352 13.518,38.585 13.124,38.585" id="Fill-3" fill="#F0ED1F" sketch:type="MSShapeGroup"></path>
            </g>
            <path d="M67.3134357,22.4698276 C67.17403,22.5237069 66.9166657,22.5668103 66.6271308,22.5668103 L61.1366923,22.5668103 C60.8257105,22.5668103 60.418217,22.5344828 60,22.4913793 L60,23.612069 C60.4074935,23.5797414 60.879328,23.5689655 61.1366923,23.5689655 L66.5949603,23.5689655 C66.4019371,24.2801724 66.0158906,25.0883621 65.4046504,25.7241379 C64.5253224,26.6400862 63.2063303,27.3405172 61.651421,27.6637931 L62.4878549,28.6336207 C63.8604646,28.2456897 65.2223507,27.5668103 66.3268725,26.3383621 C67.1204124,25.4547414 67.592247,24.3663793 67.9032289,23.3103448 C67.9246759,23.2241379 68.010464,23.0625 68.0640815,22.9439655 L67.3134357,22.4698276 Z M60.9758397,21.0905172 C61.276098,21.0689655 61.6621445,21.0581897 61.9945734,21.0581897 L66.1660198,21.0581897 C66.5306192,21.0581897 66.9595597,21.0689655 67.2276476,21.0905172 L67.2276476,19.9806034 C66.9595597,20.012931 66.5198957,20.0344828 66.1767433,20.0344828 L61.9945734,20.0344828 C61.651421,20.0344828 61.2653745,20.012931 60.9758397,19.9806034 L60.9758397,21.0905172 Z M78.1251194,22.7068966 C79.2081942,22.0064655 80.2162044,21.1659483 80.9882973,20.3900862 L80.0767988,19.5603448 C79.476282,20.3362069 78.3610367,21.2952586 77.2779619,21.9741379 C76.087652,22.7176724 74.2753784,23.5150862 72.4416577,23.9353448 L73.0528979,24.9806034 C74.3826135,24.6034483 75.8088407,24 76.9348095,23.3965517 L76.9348095,27.2327586 C76.9348095,27.674569 76.902639,28.2672414 76.8704685,28.5043103 L78.200184,28.5043103 C78.1465665,28.2672414 78.1251194,27.674569 78.1251194,27.2327586 L78.1251194,22.7068966 Z M93.9339601,24.2909483 C92.8616089,23.762931 90.813418,22.9978448 89.3979143,22.5668103 L89.3979143,20.8857759 C89.3979143,20.5086207 89.4408083,20.0344828 89.4729789,19.6788793 L88.1539868,19.6788793 C88.2183279,20.0452586 88.2504984,20.5409483 88.2504984,20.8857759 L88.2504984,27.1142241 C88.2504984,27.5344828 88.2183279,28.1163793 88.1647103,28.4935345 L89.4837024,28.4935345 C89.4300848,28.1056034 89.3979143,27.4482759 89.3979143,27.1142241 L89.3979143,23.7844828 C90.5775007,24.1724138 92.3147097,24.8512931 93.4514021,25.4655172 L93.9339601,24.2909483 Z M102.397195,22.2543103 C102.450812,22.5668103 102.461536,22.825431 102.461536,23.1163793 C102.461536,24.9051724 102.214895,26.262931 100.681433,27.2543103 C100.33828,27.5021552 99.9629573,27.674569 99.6519754,27.7823276 L100.638539,28.5905172 C103.458822,27.1357759 103.619675,25.0668103 103.619675,22.2543103 L102.397195,22.2543103 Z M107.276393,20.1853448 C107.104817,20.2284483 106.622259,20.2607759 106.375618,20.2607759 L100.381174,20.2607759 C99.9629573,20.2607759 99.5232933,20.2176724 99.1265233,20.1637931 L99.1265233,21.3599138 C99.5876343,21.3275862 99.9629573,21.2952586 100.381174,21.2952586 L106.268383,21.2952586 C105.957401,21.9094828 105.013732,22.9762931 104.080786,23.5258621 L104.970838,24.2478448 C106.118254,23.4288793 107.136987,22.0603448 107.598098,21.2737069 C107.683886,21.1443966 107.855463,20.9396552 107.951974,20.8211207 L107.276393,20.1853448 Z M116.243633,21.8125 L115.235622,22.1465517 C115.482263,22.6637931 115.964821,24.0107759 116.093503,24.5172414 L117.101514,24.1508621 C116.962108,23.6767241 116.436656,22.2650862 116.243633,21.8125 L116.243633,21.8125 Z M118.978128,22.125 C118.827999,23.4827586 118.291823,24.8836207 117.551901,25.8103448 C116.66185,26.9202586 115.246346,27.7392241 114.034589,28.0840517 L114.92464,29 C116.136397,28.5258621 117.466113,27.6637931 118.452676,26.3922414 C119.203322,25.4331897 119.664433,24.2909483 119.953968,23.1487069 C119.996862,22.9655172 120.061203,22.7715517 120.157715,22.5021552 L118.978128,22.125 Z M113.745054,22.3728448 L112.737044,22.7392241 C112.972961,23.1594828 113.530584,24.625 113.712884,25.1961207 L114.731617,24.8189655 C114.527871,24.237069 113.991695,22.8685345 113.745054,22.3728448 L113.745054,22.3728448 Z M133.350018,20.9612069 C132.985419,20.9612069 132.68516,20.6702586 132.68516,20.2931034 C132.68516,19.9267241 132.985419,19.625 133.350018,19.625 C133.725341,19.625 134.0256,19.9267241 134.0256,20.2931034 C134.0256,20.6702586 133.725341,20.9612069 133.350018,20.9612069 L133.350018,20.9612069 Z M126.497694,20.6056034 C126.143818,20.6056034 125.639813,20.5732759 125.339554,20.5301724 L125.339554,21.7262931 C125.607642,21.7155172 126.036583,21.6939655 126.497694,21.6939655 L131.762938,21.6939655 C131.623533,22.674569 131.162422,24.0538793 130.422499,25.0021552 C129.543171,26.1228448 128.331414,27.049569 126.229606,27.5668103 L127.151828,28.5797414 C129.092784,27.9655172 130.433223,26.9310345 131.409062,25.6594828 C132.277667,24.5064655 132.781672,22.8038793 133.017589,21.7047414 L133.071207,21.5 C133.156995,21.5215517 133.253507,21.5323276 133.350018,21.5323276 C134.036323,21.5323276 134.593946,20.9827586 134.593946,20.2931034 C134.593946,19.6142241 134.036323,19.0538793 133.350018,19.0538793 C132.674437,19.0538793 132.116814,19.6142241 132.116814,20.2931034 C132.116814,20.3900862 132.127538,20.487069 132.148985,20.5840517 C131.988132,20.6056034 131.827279,20.6056034 131.698597,20.6056034 L126.497694,20.6056034 Z M144.912348,25.2823276 L144.912348,27.5237069 L140.108214,27.5237069 L140.108214,25.2823276 L144.912348,25.2823276 Z M139.089481,28.9461207 L140.108214,28.9461207 L140.108214,28.4935345 L144.912348,28.4935345 L144.912348,28.9353448 L145.984699,28.9353448 L145.984699,24.3232759 L139.089481,24.3232759 L139.089481,28.9461207 Z M143.743485,20.8103448 C144.150979,21.1551724 144.569196,21.5538793 144.976689,21.9633621 C143.507568,22.0280172 142.027723,22.0818966 140.687284,22.1357759 C141.244907,21.2952586 141.8347,20.2931034 142.306534,19.387931 L141.191289,19 C140.783796,19.9806034 140.118938,21.2306034 139.496974,22.1788793 L137.877724,22.2327586 L137.952788,23.2456897 C139.925915,23.1594828 142.949945,23.0409483 145.813123,22.9008621 C146.113381,23.2564655 146.360022,23.6012931 146.531598,23.9030172 L147.410926,23.2349138 C146.853304,22.3297414 145.587929,21.0905172 144.526302,20.2284483 L143.743485,20.8103448 Z M153.632947,20.2284483 C153.2469,19.8512931 152.431913,19.3987069 151.799226,19.1293103 L151.241603,19.8728448 C151.874291,20.174569 152.678554,20.6810345 153.043154,21.0474138 L153.632947,20.2284483 Z M154.43721,21.0474138 C154.179846,21.6077586 153.708011,22.1465517 153.193283,22.5237069 C153.386306,22.6530172 153.729458,22.9116379 153.868864,23.0517241 C154.40504,22.6206897 154.962662,21.9525862 155.284368,21.2737069 L154.43721,21.0474138 Z M153.086048,23.0193966 C152.689278,22.674569 151.874291,22.2435345 151.241603,21.9956897 L150.683981,22.75 C151.338115,23.0301724 152.131655,23.5043103 152.506978,23.8599138 L153.086048,23.0193966 Z M151.852844,28.8168103 C152.399743,27.8038793 153.00026,26.5215517 153.472094,25.3900862 L152.700001,24.7866379 C152.174549,26.0150862 151.466797,27.3943966 150.973516,28.2241379 L151.852844,28.8168103 Z M154.994833,26.3491379 L155.155686,25.7456897 L159.734626,25.7456897 L159.734626,23.5797414 L155.455944,23.5797414 C156.442507,22.9655172 156.624807,22.0172414 156.624807,21.3922414 L156.624807,20.8211207 L157.418347,20.8211207 L157.418347,22.5991379 C157.418347,22.6961207 157.386176,22.7176724 157.289665,22.7176724 C157.182429,22.7284483 156.903618,22.7284483 156.560466,22.7176724 C156.667701,22.9331897 156.78566,23.2241379 156.839277,23.4612069 C157.354006,23.4612069 157.707882,23.450431 157.986693,23.3318966 C158.244057,23.2133621 158.297675,23.0086207 158.297675,22.6206897 L158.297675,20.8211207 L160.485271,20.8211207 L160.485271,19.9806034 L157.482688,19.9806034 L157.482688,19.0538793 L156.474678,19.0538793 L156.474678,19.9806034 L153.697288,19.9806034 L153.697288,20.8211207 L155.745479,20.8211207 L155.745479,21.3599138 C155.745479,21.8771552 155.584626,22.6530172 154.61951,23.1487069 C154.791086,23.2456897 155.037727,23.4396552 155.209303,23.5797414 L153.847417,23.5797414 L153.847417,24.3340517 L158.80168,24.3340517 L158.80168,24.9913793 L154.351422,24.9913793 C154.201293,25.7672414 153.933205,26.7155172 153.708011,27.3728448 L154.662404,27.512931 L154.780363,27.125 L159.059044,27.125 C158.930362,27.6637931 158.780233,27.9439655 158.630104,28.0732759 C158.522869,28.1487069 158.43708,28.1594828 158.244057,28.1594828 C158.04031,28.1594828 157.514858,28.1487069 157.010853,28.0948276 C157.150259,28.3211207 157.257494,28.6767241 157.268218,28.924569 C157.82584,28.9676724 158.362016,28.9568966 158.630104,28.9353448 C158.951809,28.924569 159.166279,28.8599138 159.391473,28.6875 C159.681008,28.4288793 159.906202,27.8793103 160.120672,26.7478448 C160.152842,26.6185345 160.185013,26.3491379 160.185013,26.3491379 L154.994833,26.3491379 Z M158.555039,21.4568966 C159.048321,21.9525862 159.59522,22.6314655 159.820414,23.0948276 L160.60323,22.6530172 C160.345866,22.1896552 159.788243,21.5323276 159.273514,21.0689655 L158.555039,21.4568966 Z" id="ライトアップ台湾-copy" fill="#000000" sketch:type="MSShapeGroup"></path>
        </g>
    </g>
</svg>