<?xml version="1.0" encoding="UTF-8" standalone="no"?>
<svg width="100px" height="301px" viewBox="0 0 100 301" version="1.1" xmlns="http://www.w3.org/2000/svg" xmlns:xlink="http://www.w3.org/1999/xlink" xmlns:sketch="http://www.bohemiancoding.com/sketch/ns">
    <!-- Generator: Sketch 3.4.4 (17249) - http://www.bohemiancoding.com/sketch -->
    <title>logo-vertical</title>
    <desc>Created with Sketch.</desc>
    <defs></defs>
    <g id="Page-1" stroke="none" stroke-width="1" fill="none" fill-rule="evenodd" sketch:type="MSPage">
        <g id="logo-vertical" sketch:type="MSLayerGroup" transform="translate(-10.000000, -10.000000)">
            <g id="LIGHT-UP-TAIWAN" transform="translate(16.000000, 204.000000)" fill="#1A1918" sketch:type="MSShapeGroup">
                <path d="M1.64,11.236 L1.64,0.85 L3.668,0.85 L3.668,9.427 L8.379,9.427 L8.379,11.236 L1.64,11.236" id="Fill-1"></path>
                <path d="M15.891,0.85 L17.919,0.85 L17.919,11.236 L15.891,11.236 L15.891,0.85 Z" id="Fill-2"></path>
                <path d="M32.607,10.142 C31.775,11.003 30.783,11.324 29.675,11.324 C28.537,11.324 27.604,10.915 26.874,10.186 C25.824,9.136 25.853,7.837 25.853,6.044 C25.853,4.249 25.824,2.951 26.874,1.9 C27.604,1.171 28.508,0.763 29.675,0.763 C32.082,0.763 33.307,2.338 33.584,4.088 L31.542,4.088 C31.309,3.111 30.71,2.571 29.675,2.571 C29.121,2.571 28.668,2.79 28.376,3.126 C27.983,3.564 27.881,4.045 27.881,6.044 C27.881,8.041 27.983,8.538 28.376,8.975 C28.668,9.311 29.121,9.515 29.675,9.515 C30.288,9.515 30.783,9.297 31.119,8.931 C31.455,8.552 31.586,8.086 31.586,7.545 L31.586,7.152 L29.675,7.152 L29.675,5.46 L33.599,5.46 L33.599,6.977 C33.599,8.479 33.336,9.384 32.607,10.142" id="Fill-3"></path>
                <path d="M47.062,11.236 L47.062,6.889 L43.546,6.889 L43.546,11.236 L41.519,11.236 L41.519,0.85 L43.546,0.85 L43.546,5.095 L47.062,5.095 L47.062,0.85 L49.089,0.85 L49.089,11.236 L47.062,11.236" id="Fill-4"></path>
                <path d="M61.342,2.659 L61.342,11.236 L59.314,11.236 L59.314,2.659 L56.601,2.659 L56.601,0.85 L64.054,0.85 L64.054,2.659 L61.342,2.659" id="Fill-5"></path>
                <path d="M5.302,36.978 C3.172,36.978 1.479,35.534 1.479,33.331 L1.479,26.504 L3.507,26.504 L3.507,33.258 C3.507,34.454 4.208,35.169 5.302,35.169 C6.396,35.169 7.11,34.454 7.11,33.258 L7.11,26.504 L9.124,26.504 L9.124,33.331 C9.124,35.534 7.431,36.978 5.302,36.978" id="Fill-6"></path>
                <path d="M21.273,32.981 L19.275,32.981 L19.275,36.89 L17.247,36.89 L17.247,26.504 L21.273,26.504 C23.418,26.504 24.701,27.978 24.701,29.742 C24.701,31.507 23.418,32.981 21.273,32.981 L21.273,32.981 Z M21.171,28.313 L19.275,28.313 L19.275,31.157 L21.171,31.157 C22.09,31.157 22.674,30.588 22.674,29.742 C22.674,28.897 22.09,28.313 21.171,28.313 L21.171,28.313 Z" id="Fill-7"></path>
                <path d="M5.608,53.968 L5.608,62.545 L3.58,62.545 L3.58,53.968 L0.867,53.968 L0.867,52.159 L8.321,52.159 L8.321,53.968 L5.608,53.968" id="Fill-8"></path>
                <path d="M20.864,62.545 L20.252,60.707 L16.561,60.707 L15.934,62.545 L13.819,62.545 L17.597,52.159 L19.187,52.159 L22.98,62.545 L20.864,62.545 L20.864,62.545 Z M18.443,55.222 L17.13,59 L19.712,59 L18.443,55.222 L18.443,55.222 Z" id="Fill-9"></path>
                <path d="M30.855,52.159 L32.883,52.159 L32.883,62.545 L30.855,62.545 L30.855,52.159 Z" id="Fill-10"></path>
                <path d="M50.532,62.545 L48.84,62.545 L46.929,56.244 L45.019,62.545 L43.326,62.545 L40.554,52.159 L42.67,52.159 L44.274,58.708 L46.171,52.159 L47.688,52.159 L49.584,58.708 L51.203,52.159 L53.319,52.159 L50.532,62.545" id="Fill-11"></path>
                <path d="M66.152,62.545 L65.54,60.707 L61.849,60.707 L61.222,62.545 L59.107,62.545 L62.885,52.159 L64.475,52.159 L68.268,62.545 L66.152,62.545 L66.152,62.545 Z M63.731,55.222 L62.418,59 L65,59 L63.731,55.222 L63.731,55.222 Z" id="Fill-12"></path>
                <path d="M81.555,62.545 L77.442,56.17 L77.442,62.545 L75.414,62.545 L75.414,52.159 L77.223,52.159 L81.336,58.519 L81.336,52.159 L83.364,52.159 L83.364,62.545 L81.555,62.545" id="Fill-13"></path>
            </g>
            <g id="點亮台灣" transform="translate(15.000000, 135.000000)" fill="#1A1918" sketch:type="MSShapeGroup">
                <path d="M1.059,11.12 L1.161,11.912 L9.473,10.84 L9.371,10.048 L5.937,10.491 L5.937,9.016 L9.279,9.016 L9.279,8.217 L5.937,8.217 L5.937,6.621 L9.13,6.621 L9.13,0.983 L1.945,0.983 L1.945,6.621 L5.138,6.621 L5.138,8.217 L1.796,8.217 L1.796,9.016 L5.138,9.016 L5.138,10.594 L1.059,11.12 L1.059,11.12 Z M5.937,1.781 L8.332,1.781 L8.332,5.822 L5.937,5.822 L5.937,1.781 Z M2.744,1.781 L5.139,1.781 L5.139,5.822 L2.744,5.822 L2.744,1.781 Z" id="Fill-14"></path>
                <path d="M3.909,2.672 L3.165,2.96 L3.93,4.933 L4.675,4.644 L3.909,2.672" id="Fill-15"></path>
                <path d="M7.144,4.933 L7.909,2.96 L7.165,2.672 L6.4,4.644 L7.144,4.933" id="Fill-16"></path>
                <path d="M0.873,16.247 L1.561,16.65 C2.575,14.921 2.749,13.045 2.75,13.027 L1.954,12.964 C1.953,12.98 1.782,14.696 0.873,16.247" id="Fill-17"></path>
                <path d="M3.985,13.156 C4.209,13.918 4.377,15.039 4.448,16.231 L5.245,16.183 C5.171,14.934 4.991,13.749 4.752,12.932 L3.985,13.156" id="Fill-18"></path>
                <path d="M6.077,12.922 C6.337,13.701 6.568,14.858 6.678,15.941 L7.472,15.86 C7.354,14.706 7.115,13.513 6.834,12.669 L6.077,12.922" id="Fill-19"></path>
                <path d="M8.231,12.583 C8.462,13.246 8.759,14.167 9.003,15.428 L9.787,15.276 C9.532,13.965 9.225,13.008 8.985,12.32 L8.231,12.583" id="Fill-20"></path>
                <path d="M16.267,4.5 L16.267,3.702 L13.274,3.702 L13.274,0.933 L12.476,0.933 L12.476,8.991 L10.663,8.991 L10.663,15.052 L15.893,15.052 L15.893,8.991 L13.274,8.991 L13.274,4.5 L16.267,4.5 L16.267,4.5 Z M11.461,9.789 L15.095,9.789 L15.095,14.254 L11.461,14.254 L11.461,9.789 Z" id="Fill-21"></path>
                <path d="M34.57,1.873 L28.607,1.873 L28.607,0.035 L27.809,0.035 L27.809,1.873 L21.846,1.873 L21.846,2.672 L34.57,2.672 L34.57,1.873" id="Fill-22"></path>
                <path d="M24.814,7.195 L31.683,7.195 L31.683,3.819 L24.814,3.819 L24.814,7.195 Z M25.612,4.617 L30.884,4.617 L30.884,6.396 L25.612,6.396 L25.612,4.617 Z" id="Fill-23"></path>
                <path d="M22.115,9.286 L34.478,9.286 L34.478,10.913 L35.277,10.913 L35.277,8.488 L21.317,8.488 L21.317,10.913 L22.115,10.913 L22.115,9.286" id="Fill-24"></path>
                <path d="M20.802,15.745 L20.979,16.523 C26.028,15.374 26.648,11.827 26.681,10.354 L25.882,10.337 C25.847,11.933 25.141,14.758 20.802,15.745" id="Fill-25"></path>
                <path d="M35.151,13.709 L34.765,14.753 C34.711,14.896 34.572,14.993 34.419,14.993 L30.844,14.993 C30.604,14.993 30.408,14.796 30.408,14.555 L30.408,10.297 L29.61,10.297 L29.61,14.555 C29.61,15.236 30.164,15.791 30.844,15.791 L34.419,15.791 C34.902,15.791 35.341,15.487 35.512,15.032 L35.899,13.986 L35.151,13.709" id="Fill-26"></path>
                <path d="M14.733,32.737 C13.509,30.85 12.057,28.968 11.361,28.238 L10.783,28.79 C11.085,29.106 11.54,29.657 12.054,30.328 L4.159,31.325 L7.201,25.574 L6.495,25.201 L3.191,31.447 L0.978,31.726 L1.078,32.518 L12.605,31.063 C13.086,31.719 13.591,32.442 14.063,33.171 L14.733,32.737" id="Fill-27"></path>
                <path d="M3.223,41.577 L4.021,41.577 L4.021,40.496 L11.588,40.496 L11.588,41.577 L12.386,41.577 L12.386,35.058 L3.223,35.058 L3.223,41.577 L3.223,41.577 Z M4.021,35.856 L11.588,35.856 L11.588,39.698 L4.021,39.698 L4.021,35.856 Z" id="Fill-28"></path>
                <path d="M20.925,26.115 L22.977,28.2 L23.538,27.648 L21.486,25.563 L20.925,26.115" id="Fill-29"></path>
                <path d="M22.963,31.801 L20.912,29.716 L20.35,30.269 L22.402,32.354 L22.963,31.801" id="Fill-30"></path>
                <path d="M22.245,35.206 C21.931,36.423 21.404,38.46 20.247,41.439 L20.981,41.724 C22.155,38.702 22.71,36.556 23.008,35.403 C23.074,35.148 23.129,34.935 23.177,34.765 L22.419,34.551 C22.369,34.726 22.313,34.944 22.245,35.206" id="Fill-31"></path>
                <path d="M23.691,34.263 L24.268,34.39 C24.514,33.276 24.681,32.148 24.682,32.136 L24.098,32.051 C24.096,32.062 23.932,33.169 23.691,34.263" id="Fill-32"></path>
                <path d="M25.455,32.184 L25.475,32.348 C25.518,32.679 25.608,33.367 25.638,34.193 L26.228,34.172 C26.197,33.319 26.105,32.612 26.062,32.272 L26.042,32.118 L25.455,32.184" id="Fill-33"></path>
                <path d="M26.817,32.078 C26.925,32.343 27.257,33.496 27.326,34.093 L27.914,34.025 C27.837,33.359 27.488,32.158 27.364,31.854 L26.817,32.078" id="Fill-34"></path>
                <path d="M32.287,32.056 C32.066,33.339 31.902,33.893 31.804,34.131 L32.349,34.357 C32.511,33.964 32.681,33.244 32.869,32.156 L32.884,32.074 L32.304,31.958 L32.287,32.056" id="Fill-35"></path>
                <path d="M33.825,34.132 L34.416,34.11 C34.398,33.634 34.314,32.918 34.166,31.982 L33.583,32.074 C33.727,32.987 33.809,33.679 33.825,34.132" id="Fill-36"></path>
                <path d="M35.546,31.811 L34.985,31.998 C35.117,32.393 35.337,33.052 35.569,34.052 L36.144,33.919 C35.906,32.892 35.681,32.215 35.546,31.811" id="Fill-37"></path>
                <path d="M24.163,31.503 L27.086,30.853 L27.35,31.5 L27.897,31.276 L27.159,29.47 L26.612,29.694 L26.859,30.298 L25.021,30.707 C26.443,29.015 27.482,27.249 27.53,27.166 L27.02,26.868 C27.015,26.877 26.789,27.26 26.414,27.829 L24.827,28.153 C25.517,26.795 26.146,25.419 26.153,25.403 L25.615,25.158 C25.608,25.175 24.846,26.843 24.083,28.308 L24.091,28.313 L24.207,28.882 L25.94,28.529 C25.429,29.26 24.773,30.129 24.053,30.918 L24.057,30.922 L24.034,30.927 L24.163,31.503" id="Fill-38"></path>
                <path d="M32.338,31.503 L35.261,30.853 L35.525,31.5 L36.072,31.276 L35.334,29.47 L34.787,29.694 L35.034,30.298 L33.196,30.707 C34.618,29.015 35.657,27.249 35.705,27.166 L35.195,26.868 C35.19,26.877 34.964,27.26 34.589,27.829 L33.002,28.153 C33.692,26.795 34.321,25.419 34.328,25.403 L33.79,25.158 C33.782,25.175 33.021,26.843 32.258,28.308 L32.266,28.312 L32.382,28.882 L34.114,28.529 C33.604,29.26 32.948,30.129 32.228,30.918 L32.232,30.922 L32.21,30.927 L32.338,31.503" id="Fill-39"></path>
                <path d="M32.04,26.611 L30.255,26.611 L30.255,25.109 L29.664,25.109 L29.664,26.611 L27.903,26.611 L27.903,27.202 L32.04,27.202 L32.04,26.611" id="Fill-40"></path>
                <path d="M28.506,28.039 L31.424,28.039 L31.424,28.63 L28.506,28.63 L28.506,28.039 Z" id="Fill-41"></path>
                <path d="M28.506,29.43 L31.424,29.43 L31.424,30.021 L28.506,30.021 L28.506,29.43 Z" id="Fill-42"></path>
                <path d="M28.605,33.887 L31.338,33.887 L31.338,31.203 L28.605,31.203 L28.605,33.887 Z M29.196,31.794 L30.747,31.794 L30.747,33.296 L29.196,33.296 L29.196,31.794 Z" id="Fill-43"></path>
                <path d="M34.851,38.526 L25.839,38.526 L26.083,37.493 C26.093,37.452 26.13,37.423 26.172,37.423 L34.555,37.423 L34.555,34.894 L24.887,34.894 L24.887,35.564 L33.884,35.564 L33.884,36.753 L25.642,36.753 C25.6,36.753 25.563,36.782 25.553,36.823 L25.016,39.098 C25.004,39.148 25.042,39.196 25.093,39.196 L34.422,39.196 L33.993,40.995 C33.966,41.015 33.949,41.029 33.922,41.05 L30.735,41.05 L30.735,41.72 L33.922,41.72 C34.266,41.72 34.565,41.484 34.644,41.15 L35.154,39.016 C35.184,38.897 35.2,38.758 35.125,38.662 C35.125,38.662 35.063,38.526 34.851,38.526" id="Fill-44"></path>
            </g>
            <g id="蔡英文" transform="translate(16.000000, 294.000000)" fill="#1A1918" sketch:type="MSShapeGroup">
                <path d="M34.848,2.593 L30.77,2.593 L30.77,1.155 C30.77,1.083 30.712,1.025 30.64,1.025 L29.744,1.025 C29.672,1.025 29.614,1.083 29.614,1.155 L29.614,2.593 L25.784,2.593 L25.784,1.155 C25.784,1.083 25.726,1.025 25.655,1.025 L24.758,1.025 C24.686,1.025 24.628,1.083 24.628,1.155 L24.628,2.593 L20.55,2.593 C20.479,2.593 20.42,2.651 20.42,2.723 L20.42,3.619 C20.42,3.69 20.479,3.748 20.55,3.748 L24.628,3.748 L24.628,5.186 C24.628,5.258 24.686,5.316 24.758,5.316 L25.655,5.316 C25.726,5.316 25.784,5.258 25.784,5.186 L25.784,3.748 L29.614,3.748 L29.614,5.186 C29.614,5.258 29.672,5.316 29.744,5.316 L30.64,5.316 C30.712,5.316 30.77,5.258 30.77,5.186 L30.77,3.748 L34.848,3.748 C34.92,3.748 34.978,3.69 34.978,3.619 L34.978,2.723 C34.978,2.651 34.92,2.593 34.848,2.593" id="Fill-45"></path>
                <path d="M34.848,10.585 L32.452,10.585 L32.452,7.266 C32.452,7.156 32.362,7.066 32.251,7.066 L28.275,7.066 L28.282,5.464 C28.283,5.383 28.217,5.317 28.136,5.317 L27.272,5.316 C27.192,5.315 27.126,5.381 27.126,5.462 L27.124,7.066 L23.278,7.066 C23.167,7.066 23.078,7.156 23.078,7.266 L23.078,10.585 L20.55,10.585 C20.479,10.585 20.42,10.643 20.42,10.715 L20.42,11.611 C20.42,11.683 20.479,11.741 20.55,11.741 L26.769,11.741 C26.139,12.994 24.632,14.729 21.039,15.563 C20.969,15.579 20.923,15.648 20.939,15.718 C20.987,15.935 21.085,16.373 21.133,16.592 C21.149,16.663 21.222,16.708 21.294,16.691 C25.245,15.776 26.991,13.816 27.76,12.341 C28.295,13.435 29.835,15.57 33.912,16.444 C33.983,16.46 34.054,16.414 34.069,16.342 L34.249,15.466 C34.263,15.396 34.217,15.328 34.147,15.313 C30.365,14.499 29.113,12.532 28.753,11.741 L34.848,11.741 C34.92,11.741 34.978,11.683 34.978,11.611 L34.978,10.715 C34.978,10.643 34.92,10.585 34.848,10.585 L34.848,10.585 Z M31.163,8.222 C31.236,8.222 31.295,8.281 31.295,8.354 L31.295,10.585 L28.259,10.585 L28.27,8.222 L31.163,8.222 L31.163,8.222 Z M24.234,8.354 C24.234,8.281 24.293,8.222 24.366,8.222 L27.122,8.222 L27.119,10.585 L24.234,10.585 L24.234,8.354 L24.234,8.354 Z" id="Fill-46"></path>
                <path d="M10.363,2.384 L10.363,0.869 L9.28,0.869 L9.28,2.384 L6.104,2.384 L6.104,0.869 L5.02,0.869 L5.02,2.384 L0.413,2.384 L0.413,3.468 L5.02,3.468 L5.02,4.683 L6.104,4.683 L6.104,3.468 L9.28,3.468 L9.28,4.683 L10.363,4.683 L10.363,3.468 L14.971,3.468 L14.971,2.384 L10.363,2.384" id="Fill-47"></path>
                <path d="M7.461,6.277 L7.675,5.703 C7.675,5.703 7.739,5.545 7.576,5.545 L3.849,5.545 C4.058,5.167 4.177,4.883 4.234,4.736 C4.284,4.609 4.178,4.592 4.178,4.592 L3.318,4.331 C3.318,4.331 3.224,4.344 3.199,4.408 C3.05,4.785 2.407,6.166 0.602,7.771 C0.521,7.843 0.587,7.906 0.587,7.906 L1.181,8.591 C1.181,8.591 1.234,8.658 1.31,8.592 C2.141,7.863 2.746,7.17 3.186,6.571 L5.933,6.571 C6.025,6.571 6.084,6.67 6.039,6.75 C5.805,7.166 5.468,7.695 5.016,8.265 L4.111,7.35 L3.341,8.113 L4.303,9.085 C4.115,9.283 3.914,9.482 3.698,9.679 L2.719,8.689 L1.948,9.452 L2.859,10.372 C2.165,10.894 1.36,11.377 0.427,11.761 C0.386,11.778 0.366,11.825 0.382,11.866 L0.726,12.715 C0.744,12.76 0.796,12.782 0.841,12.763 C5.746,10.741 7.444,6.322 7.461,6.277" id="Fill-48"></path>
                <path d="M11.926,9.475 L13.817,5.868 C13.894,5.721 13.787,5.545 13.622,5.545 L8.366,5.545 C8.228,5.545 8.283,5.703 8.283,5.703 L8.461,6.254 C8.8,7.299 10.23,10.835 14.412,12.453 L14.803,11.442 C13.502,11.03 12.201,9.834 11.94,9.585 C11.909,9.555 11.906,9.513 11.926,9.475 L11.926,9.475 Z M10.981,8.643 C10.438,7.959 10.068,7.292 9.824,6.762 C9.795,6.698 9.845,6.629 9.915,6.629 L12.035,6.629 C12.107,6.629 12.153,6.706 12.12,6.77 L11.146,8.629 C11.113,8.691 11.024,8.698 10.981,8.643 L10.981,8.643 Z" id="Fill-49"></path>
                <path d="M5.939,9.531 L5.939,10.441 C5.939,10.489 5.978,10.528 6.026,10.528 L9.479,10.528 C9.527,10.528 9.566,10.489 9.566,10.441 L9.566,9.531 C9.566,9.483 9.527,9.444 9.479,9.444 L6.026,9.444 C5.978,9.444 5.939,9.483 5.939,9.531" id="Fill-50"></path>
                <path d="M11.494,12.873 C11.542,12.873 11.581,12.834 11.581,12.786 L11.581,11.876 C11.581,11.828 11.542,11.789 11.494,11.789 L4.119,11.789 C4.071,11.789 4.032,11.828 4.032,11.876 L4.032,12.786 C4.032,12.834 4.071,12.873 4.119,12.873 L7.28,12.873 L7.28,15.625 C7.28,15.704 7.216,15.768 7.137,15.768 L6.397,15.768 C6.318,15.768 6.255,15.831 6.255,15.91 L6.255,16.709 C6.255,16.787 6.318,16.851 6.397,16.851 L7.884,16.851 C8.149,16.851 8.363,16.636 8.363,16.372 L8.363,12.873 L11.494,12.873" id="Fill-51"></path>
                <path d="M13.901,15.854 L10.695,13.81 C10.645,13.779 10.579,13.793 10.548,13.843 L10.08,14.577 C10.048,14.627 10.063,14.693 10.112,14.725 L13.319,16.768 C13.368,16.8 13.434,16.785 13.466,16.735 L13.934,16.001 C13.966,15.951 13.951,15.885 13.901,15.854" id="Fill-52"></path>
                <path d="M4.557,13.649 C4.525,13.6 4.458,13.586 4.409,13.619 L1.127,15.809 C1.078,15.842 1.065,15.908 1.097,15.957 L1.58,16.681 C1.613,16.73 1.679,16.744 1.728,16.711 L5.011,14.521 C5.06,14.488 5.073,14.422 5.04,14.373 L4.557,13.649" id="Fill-53"></path>
                <path d="M53.974,3.857 L40.355,3.857 C40.281,3.857 40.221,3.917 40.221,3.991 L40.221,4.913 C40.221,4.987 40.281,5.047 40.355,5.047 L53.974,5.047 C54.048,5.047 54.108,4.987 54.108,4.913 L54.108,3.991 C54.108,3.917 54.048,3.857 53.974,3.857" id="Fill-54"></path>
                <path d="M46.703,2.661 L47.625,2.661 C47.699,2.661 47.759,2.601 47.759,2.527 L47.759,0.711 C47.759,0.637 47.699,0.577 47.625,0.577 L46.703,0.577 C46.63,0.577 46.569,0.637 46.569,0.711 L46.569,2.527 C46.569,2.601 46.63,2.661 46.703,2.661" id="Fill-55"></path>
                <path d="M53.858,14.966 C51.626,13.998 49.667,12.686 47.992,11.048 C49.1,9.829 50.078,8.461 50.916,6.945 C50.953,6.88 50.928,6.796 50.863,6.76 L50.054,6.319 C49.989,6.284 49.909,6.308 49.873,6.372 C49.095,7.78 48.189,9.05 47.164,10.186 C46.14,9.05 45.234,7.78 44.455,6.372 C44.42,6.308 44.34,6.284 44.275,6.319 L43.466,6.76 C43.401,6.796 43.376,6.88 43.413,6.945 C44.251,8.461 45.229,9.829 46.337,11.048 C44.662,12.686 42.703,13.998 40.471,14.966 C40.403,14.995 40.372,15.073 40.401,15.14 L40.762,15.988 C40.792,16.057 40.872,16.089 40.941,16.059 C43.309,15.032 45.387,13.641 47.164,11.905 C48.942,13.641 51.02,15.032 53.388,16.059 C53.457,16.089 53.537,16.057 53.567,15.988 L53.928,15.14 C53.957,15.073 53.925,14.995 53.858,14.966" id="Fill-56"></path>
            </g>
            <g id="Logo" transform="translate(10.000000, 10.000000)" sketch:type="MSShapeGroup">
                <path d="M30.856,95.178 C31.664,95.178 32.434,94.71 32.781,93.924 C33.239,92.888 32.791,91.682 31.783,91.188 C31.243,90.949 30.709,90.699 30.178,90.44 C30.17,90.436 30.162,90.431 30.153,90.427 C29.695,90.202 29.24,89.971 28.79,89.731 C28.563,89.611 28.34,89.484 28.116,89.36 C27.888,89.234 27.658,89.109 27.432,88.978 C26.993,88.726 26.56,88.464 26.13,88.197 C26.119,88.19 26.107,88.184 26.096,88.176 C25.595,87.865 25.1,87.544 24.613,87.214 C23.659,86.62 22.399,86.879 21.763,87.817 C21.111,88.778 21.361,90.086 22.323,90.738 C22.831,91.084 23.345,91.419 23.864,91.743 C23.879,91.752 23.893,91.761 23.907,91.77 C24.377,92.063 24.851,92.346 25.329,92.622 C25.574,92.763 25.823,92.899 26.07,93.036 C26.319,93.174 26.566,93.313 26.817,93.447 C27.302,93.705 27.792,93.956 28.287,94.198 C28.305,94.206 28.322,94.215 28.339,94.224 C28.889,94.491 29.445,94.75 30.007,94.998 C30.283,95.12 30.572,95.178 30.856,95.178" id="Fill-57" fill="#A7CD6A"></path>
                <path d="M21.763,11.999 C22.17,12.599 22.832,12.922 23.506,12.922 C23.912,12.922 24.323,12.804 24.685,12.559 C28.894,9.703 33.505,7.605 38.35,6.316 C42.653,5.167 47.123,4.661 51.636,4.831 C52.805,4.873 53.774,3.969 53.818,2.808 C53.86,1.671 52.993,0.714 51.867,0.633 C51.239,0.609 50.609,0.596 49.978,0.596 C45.398,0.596 40.895,1.23 36.567,2.45 C32.12,3.709 27.841,5.594 23.847,8.09 C23.311,8.425 22.783,8.77 22.262,9.123 C21.352,9.789 21.125,11.059 21.763,11.999" id="Fill-58" fill="#50B584"></path>
                <path d="M78.193,87.817 C77.541,86.856 76.234,86.604 75.271,87.257 C71.505,89.813 67.417,91.76 63.127,93.064 C58.362,94.52 53.372,95.177 48.32,94.985 C47.149,94.935 46.183,95.847 46.139,97.008 C46.096,98.144 46.964,99.102 48.09,99.183 C48.718,99.207 49.347,99.219 49.978,99.219 C53.054,99.219 56.095,98.936 59.072,98.381 C59.143,98.368 59.213,98.353 59.284,98.34 C59.776,98.246 60.266,98.144 60.755,98.035 C60.909,98.001 61.062,97.964 61.215,97.929 C61.612,97.836 62.008,97.738 62.402,97.636 C62.629,97.577 62.855,97.516 63.081,97.454 C63.392,97.368 63.702,97.279 64.012,97.187 C64.306,97.1 64.599,97.011 64.891,96.918 C65.121,96.845 65.35,96.769 65.58,96.693 C65.937,96.573 66.295,96.451 66.65,96.323 C66.801,96.269 66.952,96.212 67.102,96.156 C67.523,96 67.943,95.84 68.36,95.672 C68.43,95.644 68.499,95.615 68.569,95.586 C71.169,94.524 73.692,93.237 76.109,91.726 C76.646,91.39 77.176,91.044 77.698,90.69 C78.604,90.024 78.83,88.755 78.193,87.817" id="Fill-59" fill="#53B475"></path>
                <path d="M10.89,78.486 C11.297,78.486 11.708,78.369 12.07,78.123 C13.031,77.471 13.281,76.162 12.629,75.201 C9.925,71.217 7.909,66.87 6.607,62.308 C5.307,57.77 4.72,53.038 4.901,48.25 C4.945,47.089 4.039,46.112 2.878,46.068 C1.737,46.028 0.784,46.893 0.703,48.018 C0.679,48.647 0.667,49.276 0.667,49.908 C0.667,54.562 1.321,59.135 2.58,63.527 C3.839,67.9 5.703,72.107 8.16,76.039 C8.491,76.569 8.831,77.091 9.18,77.605 C9.589,78.177 10.233,78.486 10.89,78.486" id="Fill-60" fill="#81C063"></path>
                <path d="M5.962,32.711 C6.238,32.833 6.527,32.891 6.811,32.891 C7.603,32.891 8.357,32.439 8.713,31.68 C8.946,31.154 9.189,30.633 9.443,30.115 C9.454,30.093 9.466,30.071 9.477,30.048 C9.695,29.605 9.918,29.164 10.151,28.727 C10.279,28.484 10.415,28.246 10.547,28.007 C10.666,27.794 10.781,27.581 10.903,27.37 C11.46,26.402 12.052,25.456 12.677,24.536 C13.265,23.582 13.005,22.328 12.07,21.693 C11.108,21.04 9.8,21.291 9.148,22.252 C8.801,22.763 8.465,23.279 8.138,23.801 C8.138,23.802 8.138,23.802 8.137,23.803 C7.835,24.286 7.544,24.774 7.26,25.266 C7.126,25.497 6.998,25.732 6.869,25.966 C6.723,26.228 6.576,26.489 6.435,26.753 C6.184,27.227 5.94,27.704 5.704,28.186 C5.689,28.216 5.674,28.245 5.659,28.275 C5.392,28.823 5.135,29.377 4.888,29.937 C4.418,31 4.899,32.242 5.962,32.711" id="Fill-61" fill="#53B475"></path>
                <path d="M67.174,5.892 C66.717,6.928 67.164,8.133 68.172,8.627 C68.712,8.866 69.247,9.116 69.779,9.376 C69.785,9.38 69.792,9.383 69.798,9.386 C70.258,9.612 70.714,9.843 71.167,10.085 C71.393,10.205 71.615,10.331 71.839,10.454 C72.067,10.582 72.297,10.706 72.524,10.837 C72.964,11.09 73.397,11.352 73.827,11.619 C73.838,11.626 73.849,11.632 73.86,11.639 C74.361,11.951 74.855,12.271 75.342,12.602 C76.297,13.196 77.557,12.937 78.193,11.999 C78.846,11.038 78.595,9.729 77.634,9.077 C77.126,8.733 76.613,8.398 76.095,8.074 C76.075,8.062 76.053,8.049 76.033,8.036 C75.569,7.747 75.101,7.468 74.63,7.195 C74.38,7.051 74.126,6.912 73.872,6.772 C73.629,6.637 73.387,6.501 73.142,6.37 C72.652,6.11 72.157,5.856 71.656,5.612 C71.644,5.606 71.632,5.599 71.62,5.593 C71.068,5.325 70.512,5.066 69.949,4.818 C68.887,4.348 67.644,4.829 67.174,5.892" id="Fill-62" fill="#53B475"></path>
                <path d="M87.887,21.693 C86.925,22.345 86.675,23.653 87.327,24.615 C89.99,28.539 91.987,32.815 93.29,37.302 C94.632,41.903 95.239,46.706 95.055,51.566 C95.012,52.727 95.917,53.703 97.078,53.747 C97.105,53.748 97.132,53.749 97.159,53.749 C98.256,53.749 99.167,52.902 99.252,51.809 C99.276,51.177 99.289,50.543 99.289,49.908 C99.289,45.211 98.623,40.595 97.341,36.167 C96.082,31.837 94.23,27.671 91.796,23.777 C91.463,23.243 91.12,22.717 90.768,22.199 C90.104,21.284 88.83,21.053 87.887,21.693" id="Fill-63" fill="#54B36C"></path>
                <path d="M92.69,74.561 C92.836,74.308 92.976,74.052 93.117,73.796 C93.251,73.555 93.386,73.316 93.515,73.073 C93.776,72.581 94.031,72.085 94.276,71.583 C94.281,71.572 94.287,71.561 94.292,71.55 C94.561,70.999 94.82,70.442 95.068,69.879 C95.538,68.816 95.057,67.574 93.994,67.104 C92.959,66.646 91.753,67.094 91.258,68.102 C91.02,68.642 90.769,69.178 90.509,69.709 C90.506,69.715 90.503,69.72 90.5,69.726 C90.275,70.187 90.042,70.645 89.8,71.098 C89.682,71.321 89.558,71.539 89.436,71.76 C89.307,71.992 89.181,72.226 89.047,72.456 C88.797,72.89 88.539,73.318 88.275,73.743 C88.265,73.76 88.255,73.777 88.245,73.793 C87.934,74.292 87.615,74.784 87.286,75.27 C86.689,76.224 86.948,77.486 87.887,78.123 C88.249,78.369 88.659,78.486 89.066,78.486 C89.74,78.486 90.402,78.163 90.809,77.564 C91.153,77.057 91.486,76.544 91.81,76.027 C91.825,76.003 91.84,75.978 91.855,75.954 C92.141,75.494 92.419,75.029 92.69,74.561" id="Fill-64" fill="#54B36C"></path>
                <path d="M87.325,24.618 C86.673,23.656 86.925,22.345 87.887,21.693 C88.83,21.053 90.104,21.284 90.768,22.199 C87.238,16.995 82.791,12.568 77.647,9.088 C78.597,9.743 78.842,11.042 78.193,11.999 C77.557,12.937 76.297,13.196 75.342,12.602 C80.042,15.792 84.101,19.851 87.325,24.618" id="Fill-65" fill="#89C693"></path>
                <path d="M97.159,53.749 C97.132,53.749 97.105,53.748 97.078,53.747 C95.917,53.703 95.01,52.716 95.053,51.555 C94.846,57.31 93.554,62.903 91.258,68.102 C91.753,67.094 92.959,66.646 93.994,67.104 C95.052,67.572 95.533,68.805 95.074,69.864 C97.589,64.193 99.014,58.087 99.252,51.809 C99.167,52.902 98.256,53.749 97.159,53.749" id="Fill-66" fill="#89C693"></path>
                <path d="M89.066,78.486 C88.659,78.486 88.249,78.369 87.887,78.123 C86.948,77.486 86.689,76.224 87.286,75.27 C84.086,79.983 80.025,84.046 75.241,87.274 C75.256,87.264 75.226,87.285 75.241,87.274 C76.203,86.621 77.541,86.856 78.193,87.817 C78.83,88.755 78.604,90.024 77.698,90.69 C82.898,87.161 87.322,82.716 90.8,77.575 C90.392,78.167 89.735,78.486 89.066,78.486" id="Fill-67" fill="#89C693"></path>
                <path d="M46.139,97.008 C46.182,95.853 47.139,94.942 48.302,94.981 C42.559,94.771 36.972,93.479 31.783,91.188 C32.791,91.682 33.239,92.888 32.781,93.924 C32.434,94.71 31.664,95.178 30.856,95.178 C30.577,95.178 30.293,95.122 30.021,95.004 C35.697,97.521 41.807,98.946 48.09,99.183 C46.964,99.102 46.096,98.144 46.139,97.008" id="Fill-68" fill="#88C8AB"></path>
                <path d="M21.763,87.817 C22.399,86.879 23.659,86.62 24.613,87.214 C19.828,83.965 15.707,79.814 12.456,74.935 C12.515,75.023 12.57,75.113 12.629,75.201 C13.281,76.162 13.031,77.471 12.07,78.123 C11.708,78.369 11.297,78.486 10.89,78.486 C10.233,78.486 9.589,78.177 9.18,77.605 C12.712,82.815 17.162,87.246 22.31,90.729 C21.359,90.074 21.114,88.774 21.763,87.817" id="Fill-69" fill="#E8E979"></path>
                <path d="M4.901,48.25 L4.896,48.544 C5.071,42.68 6.371,36.973 8.713,31.68 C8.357,32.439 7.603,32.891 6.811,32.891 C6.527,32.891 6.238,32.833 5.962,32.711 C4.904,32.244 4.424,31.012 4.882,29.953 C2.365,35.628 0.94,41.737 0.703,48.018 C0.784,46.893 1.737,46.028 2.878,46.068 C4.039,46.112 4.945,47.089 4.901,48.25" id="Fill-70" fill="#89C693"></path>
                <path d="M23.506,12.922 C22.832,12.922 22.17,12.599 21.763,11.999 C21.125,11.059 21.352,9.789 22.262,9.123 C17.06,12.653 12.634,17.1 9.155,22.243 C9.809,21.29 11.111,21.043 12.07,21.693 C13.005,22.328 13.265,23.582 12.677,24.536 C15.924,19.756 20.071,15.639 24.945,12.39 C24.859,12.448 24.771,12.501 24.685,12.559 C24.323,12.804 23.912,12.922 23.506,12.922" id="Fill-71" fill="#88C8AB"></path>
                <path d="M69.942,4.815 C64.266,2.298 58.149,0.87 51.867,0.633 C52.993,0.714 53.86,1.671 53.818,2.808 C53.774,3.969 52.805,4.873 51.636,4.831 L51.341,4.826 C57.193,5 62.889,6.295 68.172,8.627 C67.164,8.133 66.717,6.928 67.174,5.892 C67.642,4.834 68.883,4.356 69.942,4.815" id="Fill-72" fill="#88C8AB"></path>
            </g>
        </g>
    </g>
</svg>