<?xml version="1.0" encoding="UTF-8" standalone="no"?>
<svg width="166px" height="48px" viewBox="0 0 166 48" version="1.1" xmlns="http://www.w3.org/2000/svg" xmlns:xlink="http://www.w3.org/1999/xlink" xmlns:sketch="http://www.bohemiancoding.com/sketch/ns">
    <!-- Generator: Sketch 3.4.4 (17249) - http://www.bohemiancoding.com/sketch -->
    <title>logo-zh-mobile</title>
    <desc>Created with Sketch.</desc>
    <defs>
        <path id="path-1" d="M0,0.0504 L17.9496,0.0504 L17.9496,18 L0,18"></path>
    </defs>
    <g id="logo" stroke="none" stroke-width="1" fill="none" fill-rule="evenodd" sketch:type="MSPage">
        <g id="logo-zh-mobile" sketch:type="MSArtboardGroup">
            <g id="logo-copy" sketch:type="MSLayerGroup" transform="translate(5.000000, 4.000000)">
                <path d="M20.333,40 C17.707,40 15.154,39.499 12.745,38.51 L13.504,36.66 C15.671,37.549 17.969,38 20.333,38 C30.258,38 38.333,29.925 38.333,20 C38.333,10.075 30.258,2 20.333,2 C10.408,2 2.333,10.075 2.333,20 L0.333,20 C0.333,8.972 9.305,0 20.333,0 C31.361,0 40.333,8.972 40.333,20 C40.333,31.028 31.361,40 20.333,40" id="Fill-1" fill="#56B879" sketch:type="MSShapeGroup"></path>
                <path d="M9.781,34.584 C5.117,31.204 2.333,25.752 2.333,20 C2.333,19.447 1.885,19 1.333,19 C0.781,19 0.333,19.447 0.333,20 C0.333,26.391 3.426,32.448 8.607,36.203 L9.781,34.584" id="Fill-2" fill="#9ED16B" sketch:type="MSShapeGroup"></path>
                <path d="M13.124,38.585 C12.998,38.585 12.869,38.562 12.745,38.51 C11.283,37.91 9.891,37.134 8.607,36.203 C8.16,35.879 8.06,35.254 8.384,34.807 C8.71,34.359 9.335,34.26 9.781,34.584 C10.936,35.422 12.189,36.12 13.504,36.66 C14.015,36.869 14.259,37.453 14.05,37.965 C13.891,38.352 13.518,38.585 13.124,38.585" id="Fill-3" fill="#F0ED1F" sketch:type="MSShapeGroup"></path>
            </g>
            <g id="點亮台灣-copy" sketch:type="MSLayerGroup" transform="translate(60.000000, 9.000000)" fill="#000000">
                <path d="M1.1165493,11.4776471 L1.21690141,12.2527059 L9.32007042,11.2044706 L9.21971831,10.4304706 L5.8721831,10.8624706 L5.8721831,9.42035294 L9.13098592,9.42035294 L9.13098592,8.64 L5.8721831,8.64 L5.8721831,7.07929412 L8.98415493,7.07929412 L8.98415493,1.56705882 L1.98169014,1.56705882 L1.98169014,7.07929412 L5.09366197,7.07929412 L5.09366197,8.64 L1.83485915,8.64 L1.83485915,9.42035294 L5.09366197,9.42035294 L5.09366197,10.9630588 L1.1165493,11.4776471 L1.1165493,11.4776471 Z M5.8721831,2.34741176 L8.20669014,2.34741176 L8.20669014,6.29788235 L5.8721831,6.29788235 L5.8721831,2.34741176 Z M2.75915493,2.34741176 L5.09366197,2.34741176 L5.09366197,6.29788235 L2.75915493,6.29788235 L2.75915493,2.34741176 Z" id="Fill-17" sketch:type="MSShapeGroup"></path>
                <path d="M3.89577465,3.21882353 L3.17007042,3.49941176 L3.91584507,5.42858824 L4.6415493,5.14694118 L3.89577465,3.21882353" id="Fill-18" sketch:type="MSShapeGroup"></path>
                <path d="M7.04894366,5.42858824 L7.79577465,3.49941176 L7.07007042,3.21882353 L6.32429577,5.14694118 L7.04894366,5.42858824" id="Fill-19" sketch:type="MSShapeGroup"></path>
                <path d="M0.935915493,16.4911765 L1.60669014,16.8850588 C2.5943662,15.1941176 2.76338028,13.3602353 2.76549296,13.3422353 L1.99014085,13.2808235 C1.98802817,13.2967059 1.82112676,14.9749412 0.935915493,16.4911765" id="Fill-20" sketch:type="MSShapeGroup"></path>
                <path d="M3.96971831,13.4692941 C4.18838028,14.2136471 4.35211268,15.3095294 4.42077465,16.4752941 L5.1971831,16.4287059 C5.12535211,15.2068235 4.95,14.0484706 4.71760563,13.2490588 L3.96971831,13.4692941" id="Fill-21" sketch:type="MSShapeGroup"></path>
                <path d="M6.0084507,13.2395294 C6.26302817,14.0018824 6.48697183,15.1327059 6.59471831,16.1915294 L7.36901408,16.1121176 C7.25387324,14.9834118 7.02147887,13.8176471 6.74683099,12.9928235 L6.0084507,13.2395294" id="Fill-22" sketch:type="MSShapeGroup"></path>
                <path d="M8.1084507,12.9091765 C8.3334507,13.5561176 8.62394366,14.4571765 8.86161972,15.6896471 L9.62535211,15.5403529 C9.37816901,14.2602353 9.07816901,13.3242353 8.84366197,12.6508235 L8.1084507,12.9091765" id="Fill-23" sketch:type="MSShapeGroup"></path>
                <path d="M15.9433099,5.00611765 L15.9433099,4.22576471 L13.0257042,4.22576471 L13.0257042,1.51835294 L12.2471831,1.51835294 L12.2471831,9.396 L10.4799296,9.396 L10.4799296,15.3232941 L15.5788732,15.3232941 L15.5788732,9.396 L13.0257042,9.396 L13.0257042,5.00611765 L15.9433099,5.00611765 L15.9433099,5.00611765 Z M11.2584507,10.1774118 L14.8014085,10.1774118 L14.8014085,14.5429412 L11.2584507,14.5429412 L11.2584507,10.1774118 Z" id="Fill-24" sketch:type="MSShapeGroup"></path>
                <path d="M34.8052817,2.42152941 L28.9922535,2.42152941 L28.9922535,0.624705882 L28.2126761,0.624705882 L28.2126761,2.42152941 L22.3996479,2.42152941 L22.3996479,3.20294118 L34.8052817,3.20294118 L34.8052817,2.42152941" id="Fill-25" sketch:type="MSShapeGroup"></path>
                <path d="M25.2940141,7.62458824 L31.9901408,7.62458824 L31.9901408,4.32317647 L25.2940141,4.32317647 L25.2940141,7.62458824 Z M26.0714789,5.10458824 L31.2126761,5.10458824 L31.2126761,6.84423529 L26.0714789,6.84423529 L26.0714789,5.10458824 Z" id="Fill-26" sketch:type="MSShapeGroup"></path>
                <path d="M22.6626761,9.66917647 L34.715493,9.66917647 L34.715493,11.2605882 L35.4940141,11.2605882 L35.4940141,8.88988235 L21.8841549,8.88988235 L21.8841549,11.2605882 L22.6626761,11.2605882 L22.6626761,9.66917647" id="Fill-27" sketch:type="MSShapeGroup"></path>
                <path d="M21.3823944,15.984 L21.5545775,16.7452941 C26.4771127,15.6218824 27.0823944,12.1531765 27.1130282,10.7142353 L26.3355634,10.6972941 C26.3017606,12.258 25.6130282,15.0194118 21.3823944,15.984" id="Fill-28" sketch:type="MSShapeGroup"></path>
                <path d="M35.3714789,13.9944706 L34.9954225,15.0151765 C34.9426056,15.1549412 34.8073944,15.2491765 34.6573944,15.2491765 L31.1725352,15.2491765 C30.9380282,15.2491765 30.7478873,15.0564706 30.7478873,14.8203529 L30.7478873,10.6581176 L29.9693662,10.6581176 L29.9693662,14.8203529 C29.9693662,15.4874118 30.5091549,16.0295294 31.1725352,16.0295294 L34.6573944,16.0295294 C35.1285211,16.0295294 35.556338,15.7330588 35.7232394,15.2872941 L36.1014085,14.2644706 L35.3714789,13.9944706" id="Fill-29" sketch:type="MSShapeGroup"></path>
                <path d="M54.5366197,8.20905882 C53.3440141,6.36458824 51.9285211,4.52329412 51.2492958,3.81070588 L50.6862676,4.34964706 C50.9799296,4.65882353 51.4246479,5.19776471 51.9253521,5.85317647 L44.2278169,6.82835294 L47.1940141,1.206 L46.5052817,0.840705882 L43.284507,6.94694118 L41.1264085,7.22117647 L41.2235915,7.99517647 L52.4630282,6.57211765 C52.9309859,7.21376471 53.4232394,7.92105882 53.8838028,8.63364706 L54.5366197,8.20905882" id="Fill-30" sketch:type="MSShapeGroup"></path>
                <path d="M43.3151408,16.8511765 L44.093662,16.8511765 L44.093662,15.7944706 L51.4711268,15.7944706 L51.4711268,16.8511765 L52.2485915,16.8511765 L52.2485915,10.4781176 L43.3151408,10.4781176 L43.3151408,16.8511765 L43.3151408,16.8511765 Z M44.093662,11.2584706 L51.4700704,11.2584706 L51.4700704,15.0141176 L44.093662,15.0141176 L44.093662,11.2584706 Z" id="Fill-31" sketch:type="MSShapeGroup"></path>
                <path d="M60.0232394,1.73435294 L62.0228873,3.77258824 L62.5700704,3.23258824 L60.5693662,1.19435294 L60.0232394,1.73435294" id="Fill-32" sketch:type="MSShapeGroup"></path>
                <path d="M62.0102113,7.29317647 L60.009507,5.25494118 L59.4623239,5.79494118 L61.4630282,7.83423529 L62.0102113,7.29317647" id="Fill-33" sketch:type="MSShapeGroup"></path>
                <path d="M61.3098592,10.6231765 C61.0035211,11.8122353 60.4901408,13.8038824 59.3619718,16.7167059 L60.078169,16.9962353 C61.2221831,14.0410588 61.7630282,11.9424706 62.0535211,10.8158824 C62.1179577,10.566 62.171831,10.3574118 62.2183099,10.1911765 L61.4788732,9.98258824 C61.4302817,10.1530588 61.3764085,10.3669412 61.3098592,10.6231765" id="Fill-34" sketch:type="MSShapeGroup"></path>
                <path d="M62.7190141,9.70094118 L63.2820423,9.82482353 C63.521831,8.73529412 63.684507,7.63305882 63.6855634,7.62141176 L63.1161972,7.53776471 C63.1140845,7.54835294 62.9545775,8.63047059 62.7190141,9.70094118" id="Fill-35" sketch:type="MSShapeGroup"></path>
                <path d="M64.4387324,7.668 L64.4588028,7.82894118 C64.5010563,8.15294118 64.5887324,8.82529412 64.6172535,9.63211765 L65.1929577,9.61094118 C65.1633803,8.77764706 65.0725352,8.08623529 65.0302817,7.75482353 L65.0112676,7.60341176 L64.4387324,7.668" id="Fill-36" sketch:type="MSShapeGroup"></path>
                <path d="M65.7676056,7.56423529 C65.8721831,7.82364706 66.1964789,8.95129412 66.2630282,9.53470588 L66.8366197,9.46905882 C66.7616197,8.81682353 66.4214789,7.64258824 66.3010563,7.34611765 L65.7676056,7.56423529" id="Fill-37" sketch:type="MSShapeGroup"></path>
                <path d="M71.1,7.54305882 C70.884507,8.79670588 70.725,9.33882353 70.6288732,9.57176471 L71.1602113,9.792 C71.318662,9.40870588 71.484507,8.70458824 71.6672535,7.64152941 L71.6820423,7.56 L71.1169014,7.44670588 L71.1,7.54305882" id="Fill-38" sketch:type="MSShapeGroup"></path>
                <path d="M72.6,9.57176471 L73.1757042,9.55164706 C73.1588028,9.08470588 73.0764085,8.38482353 72.9316901,7.47 L72.3633803,7.56 C72.5038732,8.45258824 72.5830986,9.12917647 72.6,9.57176471" id="Fill-39" sketch:type="MSShapeGroup"></path>
                <path d="M74.2774648,7.30376471 L73.7302817,7.48588235 C73.8591549,7.87235294 74.0746479,8.51717647 74.2996479,9.49447059 L74.8605634,9.36423529 C74.6292254,8.35941176 74.4084507,7.69870588 74.2774648,7.30376471" id="Fill-40" sketch:type="MSShapeGroup"></path>
                <path d="M63.1795775,7.00305882 L66.0285211,6.36670588 L66.2873239,6.99882353 L66.8197183,6.78070588 L66.1014085,5.01458824 L65.5669014,5.23376471 L65.8077465,5.82458824 L64.0161972,6.22376471 C65.4021127,4.56988235 66.4151408,2.84294118 66.4626761,2.76247059 L65.9651408,2.47023529 C65.9598592,2.47976471 65.7401408,2.85352941 65.3746479,3.41047059 L63.8271127,3.726 C64.5,2.39929412 65.1126761,1.05352941 65.1200704,1.03870588 L64.5950704,0.799411765 C64.5876761,0.815294118 63.8461268,2.44588235 63.1014085,3.87847059 L63.1098592,3.88270588 L63.2228873,4.43964706 L64.9119718,4.09447059 C64.4133803,4.80917647 63.7742958,5.65941176 63.071831,6.43023529 L63.0760563,6.43341176 L63.0538732,6.43870588 L63.1795775,7.00305882" id="Fill-41" sketch:type="MSShapeGroup"></path>
                <path d="M71.1496479,7.00305882 L73.9985915,6.36670588 L74.2573944,6.99882353 L74.7908451,6.78070588 L74.0704225,5.01458824 L73.5369718,5.23376471 L73.7778169,5.82458824 L71.9862676,6.22376471 C73.3721831,4.56988235 74.3852113,2.84294118 74.4327465,2.76247059 L73.9362676,2.47023529 C73.9309859,2.47976471 73.7102113,2.85352941 73.3447183,3.41047059 L71.7971831,3.726 C72.4690141,2.39929412 73.0827465,1.05352941 73.0901408,1.03870588 L72.5651408,0.799411765 C72.5577465,0.815294118 71.8161972,2.44588235 71.0714789,3.87847059 L71.0788732,3.88270588 L71.1929577,4.43964706 L72.8820423,4.09447059 C72.3834507,4.80917647 71.7443662,5.65941176 71.0419014,6.43023529 L71.0461268,6.43447059 L71.025,6.43870588 L71.1496479,7.00305882" id="Fill-42" sketch:type="MSShapeGroup"></path>
                <path d="M70.8591549,2.21929412 L69.1193662,2.21929412 L69.1193662,0.749647059 L68.5426056,0.749647059 L68.5426056,2.21929412 L66.8260563,2.21929412 L66.8260563,2.79741176 L70.8591549,2.79741176 L70.8591549,2.21929412" id="Fill-43" sketch:type="MSShapeGroup"></path>
                <path d="M67.4144366,3.61482353 L70.2591549,3.61482353 L70.2591549,4.19294118 L67.4144366,4.19294118 L67.4144366,3.61482353 Z" id="Fill-44" sketch:type="MSShapeGroup"></path>
                <path d="M67.4144366,4.97541176 L70.2591549,4.97541176 L70.2591549,5.55352941 L67.4144366,5.55352941 L67.4144366,4.97541176 Z" id="Fill-45" sketch:type="MSShapeGroup"></path>
                <path d="M67.5105634,9.33352941 L70.1746479,9.33352941 L70.1746479,6.70976471 L67.5105634,6.70976471 L67.5105634,9.33352941 Z M68.0862676,7.28682353 L69.5989437,7.28682353 L69.5989437,8.75541176 L68.0862676,8.75541176 L68.0862676,7.28682353 Z" id="Fill-46" sketch:type="MSShapeGroup"></path>
                <path d="M73.5992958,13.8684706 L64.8137324,13.8684706 L65.0524648,12.8583529 L65.1380282,12.7905882 L73.3109155,12.7905882 L73.3109155,10.3171765 L63.8852113,10.3171765 L63.8852113,10.9725882 L72.6570423,10.9725882 L72.6570423,12.1351765 L64.6214789,12.1351765 L64.5348592,12.204 L64.0109155,14.4285882 L64.0859155,14.5228235 L73.1820423,14.5228235 L72.7626761,16.2825882 L72.6940141,16.3365882 L69.5873239,16.3365882 L69.5873239,16.9909412 L72.6940141,16.9909412 C73.0288732,16.9909412 73.3204225,16.7611765 73.3975352,16.434 L73.8950704,14.3481176 C73.9235915,14.2316471 73.940493,14.0961176 73.8676056,14.0018824 C73.8676056,14.0018824 73.806338,13.8684706 73.5992958,13.8684706" id="Fill-47" sketch:type="MSShapeGroup"></path>
            </g>
            <g id="light-up-copy" sketch:type="MSLayerGroup" transform="translate(61.000000, 32.000000)" fill="#000000">
                <path d="M0.232,6.155 L0.232,0.393 L1.356,0.393 L1.356,5.151 L3.969,5.151 L3.969,6.155 L0.232,6.155" id="Fill-48" sketch:type="MSShapeGroup"></path>
                <path d="M7.307,0.393 L8.432,0.393 L8.432,6.154 L7.307,6.154 L7.307,0.393 Z" id="Fill-49" sketch:type="MSShapeGroup"></path>
                <path d="M15.749,5.548 C15.289,6.025 14.739,6.203 14.124,6.203 C13.493,6.203 12.976,5.976 12.571,5.572 C11.989,4.99 12.005,4.269 12.005,3.274 C12.005,2.279 11.989,1.559 12.571,0.976 C12.976,0.571 13.477,0.345 14.124,0.345 C15.458,0.345 16.138,1.219 16.292,2.19 L15.159,2.19 C15.029,1.648 14.698,1.348 14.124,1.348 C13.817,1.348 13.566,1.47 13.405,1.656 C13.186,1.899 13.129,2.165 13.129,3.274 C13.129,4.382 13.186,4.658 13.405,4.901 C13.566,5.087 13.817,5.2 14.124,5.2 C14.464,5.2 14.739,5.079 14.925,4.876 C15.111,4.666 15.183,4.407 15.183,4.107 L15.183,3.889 L14.124,3.889 L14.124,2.95 L16.3,2.95 L16.3,3.792 C16.3,4.625 16.154,5.127 15.749,5.548" id="Fill-50" sketch:type="MSShapeGroup"></path>
                <path d="M22.938,6.155 L22.938,3.743 L20.988,3.743 L20.988,6.155 L19.864,6.155 L19.864,0.393 L20.988,0.393 L20.988,2.748 L22.938,2.748 L22.938,0.393 L24.062,0.393 L24.062,6.155 L22.938,6.155" id="Fill-51" sketch:type="MSShapeGroup"></path>
                <path d="M30.029,1.397 L30.029,6.155 L28.904,6.155 L28.904,1.397 L27.4,1.397 L27.4,0.393 L31.533,0.393 L31.533,1.397 L30.029,1.397" id="Fill-52" sketch:type="MSShapeGroup"></path>
                <path d="M41.203,6.203 C40.022,6.203 39.084,5.402 39.084,4.18 L39.084,0.393 L40.208,0.393 L40.208,4.14 C40.208,4.803 40.596,5.2 41.203,5.2 C41.809,5.2 42.205,4.803 42.205,4.14 L42.205,0.393 L43.321,0.393 L43.321,4.18 C43.321,5.402 42.383,6.203 41.203,6.203" id="Fill-53" sketch:type="MSShapeGroup"></path>
                <path d="M49.232,3.986 L48.124,3.986 L48.124,6.155 L47,6.155 L47,0.393 L49.232,0.393 C50.421,0.393 51.133,1.211 51.133,2.19 C51.133,3.169 50.421,3.986 49.232,3.986 M49.176,1.397 L48.124,1.397 L48.124,2.974 L49.176,2.974 C49.685,2.974 50.009,2.659 50.009,2.19 C50.009,1.72 49.685,1.397 49.176,1.397" id="Fill-54" sketch:type="MSShapeGroup"></path>
                <path d="M61.004,1.397 L61.004,6.155 L59.88,6.155 L59.88,1.397 L58.376,1.397 L58.376,0.393 L62.508,0.393 L62.508,1.397 L61.004,1.397" id="Fill-55" sketch:type="MSShapeGroup"></path>
                <path d="M68.637,6.155 L68.297,5.135 L66.251,5.135 L65.903,6.155 L64.731,6.155 L66.826,0.393 L67.707,0.393 L69.809,6.155 L68.637,6.155 L68.637,6.155 Z M67.295,2.093 L66.567,4.188 L67.998,4.188 L67.295,2.093 L67.295,2.093 Z" id="Fill-56" sketch:type="MSShapeGroup"></path>
                <path d="M72.946,0.393 L74.07,0.393 L74.07,6.154 L72.946,6.154 L72.946,0.393 Z" id="Fill-57" sketch:type="MSShapeGroup"></path>
                <path d="M82.747,6.155 L81.809,6.155 L80.749,2.659 L79.69,6.155 L78.752,6.155 L77.215,0.393 L78.388,0.393 L79.278,4.026 L80.329,0.393 L81.17,0.393 L82.221,4.026 L83.119,0.393 L84.291,0.393 L82.747,6.155" id="Fill-58" sketch:type="MSShapeGroup"></path>
                <path d="M90.58,6.155 L90.241,5.135 L88.195,5.135 L87.847,6.155 L86.674,6.155 L88.769,0.393 L89.65,0.393 L91.753,6.155 L90.58,6.155 L90.58,6.155 Z M89.238,2.093 L88.51,4.188 L89.941,4.188 L89.238,2.093 L89.238,2.093 Z" id="Fill-59" sketch:type="MSShapeGroup"></path>
                <path d="M98.294,6.155 L96.013,2.619 L96.013,6.155 L94.889,6.155 L94.889,0.393 L95.892,0.393 L98.172,3.921 L98.172,0.393 L99.297,0.393 L99.297,6.155 L98.294,6.155" id="Fill-60" sketch:type="MSShapeGroup"></path>
            </g>
            <g id="number-copy" sketch:type="MSLayerGroup" transform="translate(143.000000, 9.000000)">
                <g id="Group-3">
                    <mask id="mask-2" sketch:name="Clip 2" fill="white">
                        <use xlink:href="#path-1"></use>
                    </mask>
                    <g id="Clip-2"></g>
                    <path d="M17.9496514,9.02514857 C17.9496514,13.9818343 13.9315371,17.9999486 8.97485143,17.9999486 C4.01816571,17.9999486 5.14285714e-05,13.9818343 5.14285714e-05,9.02514857 C5.14285714e-05,4.06846286 4.01816571,0.0503485714 8.97485143,0.0503485714 C13.9315371,0.0503485714 17.9496514,4.06846286 17.9496514,9.02514857" id="Fill-1" fill="#57B76F" sketch:type="MSShapeGroup" mask="url(#mask-2)"></path>
                </g>
                <path d="M5.49730286,14.2980171 L5.49730286,12.9403029 L9.58484571,7.97281714 C9.98753143,7.48064571 10.1515886,7.09287429 10.1515886,6.55544571 C10.1515886,5.60093143 9.58484571,4.94470286 8.59998857,4.94470286 C7.79461714,4.94470286 7.03347429,5.39213143 7.03347429,6.58527429 L5.51221714,6.58527429 C5.51221714,4.78064571 6.79484571,3.58698857 8.59998857,3.58698857 C10.4200457,3.58698857 11.67336,4.73590286 11.67336,6.57087429 C11.67336,7.51047429 11.3298171,8.06230286 10.6735886,8.86767429 L7.34718857,12.9403029 L11.67336,12.9403029 L11.67336,14.2980171 L5.49730286,14.2980171 Z" id="Fill-4" fill="#FEFEFE" sketch:type="MSShapeGroup"></path>
            </g>
        </g>
    </g>
</svg>