<?xml version="1.0" encoding="UTF-8" standalone="no"?>
<svg width="240px" height="48px" viewBox="0 0 240 48" version="1.1" xmlns="http://www.w3.org/2000/svg" xmlns:xlink="http://www.w3.org/1999/xlink" xmlns:sketch="http://www.bohemiancoding.com/sketch/ns">
    <!-- Generator: Sketch 3.4.4 (17249) - http://www.bohemiancoding.com/sketch -->
    <title>logo-en-mobile</title>
    <desc>Created with Sketch.</desc>
    <defs></defs>
    <g id="logo" stroke="none" stroke-width="1" fill="none" fill-rule="evenodd" sketch:type="MSPage">
        <g id="logo-en-mobile" sketch:type="MSArtboardGroup">
            <g id="logo" sketch:type="MSLayerGroup" transform="translate(5.000000, 4.000000)">
                <path d="M20.333,40 C17.707,40 15.154,39.499 12.745,38.51 L13.504,36.66 C15.671,37.549 17.969,38 20.333,38 C30.258,38 38.333,29.925 38.333,20 C38.333,10.075 30.258,2 20.333,2 C10.408,2 2.333,10.075 2.333,20 L0.333,20 C0.333,8.972 9.305,0 20.333,0 C31.361,0 40.333,8.972 40.333,20 C40.333,31.028 31.361,40 20.333,40" id="Fill-1" fill="#56B879" sketch:type="MSShapeGroup"></path>
                <path d="M9.781,34.584 C5.117,31.204 2.333,25.752 2.333,20 C2.333,19.447 1.885,19 1.333,19 C0.781,19 0.333,19.447 0.333,20 C0.333,26.391 3.426,32.448 8.607,36.203 L9.781,34.584" id="Fill-2" fill="#9ED16B" sketch:type="MSShapeGroup"></path>
                <path d="M13.124,38.585 C12.998,38.585 12.869,38.562 12.745,38.51 C11.283,37.91 9.891,37.134 8.607,36.203 C8.16,35.879 8.06,35.254 8.384,34.807 C8.71,34.359 9.335,34.26 9.781,34.584 C10.936,35.422 12.189,36.12 13.504,36.66 C14.015,36.869 14.259,37.453 14.05,37.965 C13.891,38.352 13.518,38.585 13.124,38.585" id="Fill-3" fill="#F0ED1F" sketch:type="MSShapeGroup"></path>
            </g>
            <g id="light-up" sketch:type="MSLayerGroup" transform="translate(61.000000, 19.000000)" fill="#000000">
                <path d="M0.33176,8.79285714 L0.33176,0.561428571 L1.93908,0.561428571 L1.93908,7.35857143 L5.67567,7.35857143 L5.67567,8.79285714 L0.33176,8.79285714" id="Fill-48" sketch:type="MSShapeGroup"></path>
                <path d="M10.44901,0.561428571 L12.05776,0.561428571 L12.05776,8.79142857 L10.44901,8.79142857 L10.44901,0.561428571 Z" id="Fill-49" sketch:type="MSShapeGroup"></path>
                <path d="M22.52107,7.92571429 C21.86327,8.60714286 21.07677,8.86142857 20.19732,8.86142857 C19.29499,8.86142857 18.55568,8.53714286 17.97653,7.96 C17.14427,7.12857143 17.16715,6.09857143 17.16715,4.67714286 C17.16715,3.25571429 17.14427,2.22714286 17.97653,1.39428571 C18.55568,0.815714286 19.27211,0.492857143 20.19732,0.492857143 C22.10494,0.492857143 23.07734,1.74142857 23.29756,3.12857143 L21.67737,3.12857143 C21.49147,2.35428571 21.01814,1.92571429 20.19732,1.92571429 C19.75831,1.92571429 19.39938,2.1 19.16915,2.36571429 C18.85598,2.71285714 18.77447,3.09285714 18.77447,4.67714286 C18.77447,6.26 18.85598,6.65428571 19.16915,7.00142857 C19.39938,7.26714286 19.75831,7.42857143 20.19732,7.42857143 C20.68352,7.42857143 21.07677,7.25571429 21.34275,6.96571429 C21.60873,6.66571429 21.71169,6.29571429 21.71169,5.86714286 L21.71169,5.55571429 L20.19732,5.55571429 L20.19732,4.21428571 L23.309,4.21428571 L23.309,5.41714286 C23.309,6.60714286 23.10022,7.32428571 22.52107,7.92571429" id="Fill-50" sketch:type="MSShapeGroup"></path>
                <path d="M32.80134,8.79285714 L32.80134,5.34714286 L30.01284,5.34714286 L30.01284,8.79285714 L28.40552,8.79285714 L28.40552,0.561428571 L30.01284,0.561428571 L30.01284,3.92571429 L32.80134,3.92571429 L32.80134,0.561428571 L34.40866,0.561428571 L34.40866,8.79285714 L32.80134,8.79285714" id="Fill-51" sketch:type="MSShapeGroup"></path>
                <path d="M42.94147,1.99571429 L42.94147,8.79285714 L41.33272,8.79285714 L41.33272,1.99571429 L39.182,1.99571429 L39.182,0.561428571 L45.09219,0.561428571 L45.09219,1.99571429 L42.94147,1.99571429" id="Fill-52" sketch:type="MSShapeGroup"></path>
                <path d="M58.92029,8.86142857 C57.23146,8.86142857 55.89012,7.71714286 55.89012,5.97142857 L55.89012,0.561428571 L57.49744,0.561428571 L57.49744,5.91428571 C57.49744,6.86142857 58.05228,7.42857143 58.92029,7.42857143 C59.78687,7.42857143 60.35315,6.86142857 60.35315,5.91428571 L60.35315,0.561428571 L61.94903,0.561428571 L61.94903,5.97142857 C61.94903,7.71714286 60.60769,8.86142857 58.92029,8.86142857" id="Fill-53" sketch:type="MSShapeGroup"></path>
                <path d="M70.40176,5.69428571 L68.81732,5.69428571 L68.81732,8.79285714 L67.21,8.79285714 L67.21,0.561428571 L70.40176,0.561428571 C72.10203,0.561428571 73.12019,1.73 73.12019,3.12857143 C73.12019,4.52714286 72.10203,5.69428571 70.40176,5.69428571 M70.32168,1.99571429 L68.81732,1.99571429 L68.81732,4.24857143 L70.32168,4.24857143 C71.04955,4.24857143 71.51287,3.79857143 71.51287,3.12857143 C71.51287,2.45714286 71.04955,1.99571429 70.32168,1.99571429" id="Fill-54" sketch:type="MSShapeGroup"></path>
                <path d="M87.23572,1.99571429 L87.23572,8.79285714 L85.6284,8.79285714 L85.6284,1.99571429 L83.47768,1.99571429 L83.47768,0.561428571 L89.38644,0.561428571 L89.38644,1.99571429 L87.23572,1.99571429" id="Fill-55" sketch:type="MSShapeGroup"></path>
                <path d="M98.15091,8.79285714 L97.66471,7.33571429 L94.73893,7.33571429 L94.24129,8.79285714 L92.56533,8.79285714 L95.56118,0.561428571 L96.82101,0.561428571 L99.82687,8.79285714 L98.15091,8.79285714 L98.15091,8.79285714 Z M96.23185,2.99 L95.19081,5.98285714 L97.23714,5.98285714 L96.23185,2.99 L96.23185,2.99 Z" id="Fill-56" sketch:type="MSShapeGroup"></path>
                <path d="M104.31278,0.561428571 L105.9201,0.561428571 L105.9201,8.79142857 L104.31278,8.79142857 L104.31278,0.561428571 Z" id="Fill-57" sketch:type="MSShapeGroup"></path>
                <path d="M118.32821,8.79285714 L116.98687,8.79285714 L115.47107,3.79857143 L113.9567,8.79285714 L112.61536,8.79285714 L110.41745,0.561428571 L112.09484,0.561428571 L113.36754,5.75142857 L114.87047,0.561428571 L116.0731,0.561428571 L117.57603,5.75142857 L118.86017,0.561428571 L120.53613,0.561428571 L118.32821,8.79285714" id="Fill-58" sketch:type="MSShapeGroup"></path>
                <path d="M129.5294,8.79285714 L129.04463,7.33571429 L126.11885,7.33571429 L125.62121,8.79285714 L123.94382,8.79285714 L126.93967,0.561428571 L128.1995,0.561428571 L131.20679,8.79285714 L129.5294,8.79285714 L129.5294,8.79285714 Z M127.61034,2.99 L126.5693,5.98285714 L128.61563,5.98285714 L127.61034,2.99 L127.61034,2.99 Z" id="Fill-59" sketch:type="MSShapeGroup"></path>
                <path d="M140.56042,8.79285714 L137.29859,3.74142857 L137.29859,8.79285714 L135.69127,8.79285714 L135.69127,0.561428571 L137.12556,0.561428571 L140.38596,5.60142857 L140.38596,0.561428571 L141.99471,0.561428571 L141.99471,8.79285714 L140.56042,8.79285714" id="Fill-60" sketch:type="MSShapeGroup"></path>
            </g>
        </g>
    </g>
</svg>