<?xml version="1.0" encoding="UTF-8" standalone="no"?>
<svg width="309px" height="48px" viewBox="0 0 309 48" version="1.1" xmlns="http://www.w3.org/2000/svg" xmlns:xlink="http://www.w3.org/1999/xlink" xmlns:sketch="http://www.bohemiancoding.com/sketch/ns">
    <!-- Generator: Sketch 3.4.4 (17249) - http://www.bohemiancoding.com/sketch -->
    <title>logo-zh</title>
    <desc>Created with Sketch.</desc>
    <defs>
        <path id="path-1" d="M0,0.0504 L17.9496,0.0504 L17.9496,18 L0,18"></path>
    </defs>
    <g id="logo" stroke="none" stroke-width="1" fill="none" fill-rule="evenodd" sketch:type="MSPage">
        <g id="logo-zh" sketch:type="MSArtboardGroup">
            <g id="Group-Copy-+-name" sketch:type="MSLayerGroup" transform="translate(5.000000, 4.000000)">
                <g id="Group-Copy">
                    <g id="logo" sketch:type="MSShapeGroup">
                        <path d="M20.333,40 C17.707,40 15.154,39.499 12.745,38.51 L13.504,36.66 C15.671,37.549 17.969,38 20.333,38 C30.258,38 38.333,29.925 38.333,20 C38.333,10.075 30.258,2 20.333,2 C10.408,2 2.333,10.075 2.333,20 L0.333,20 C0.333,8.972 9.305,0 20.333,0 C31.361,0 40.333,8.972 40.333,20 C40.333,31.028 31.361,40 20.333,40" id="Fill-1" fill="#56B879"></path>
                        <path d="M9.781,34.584 C5.117,31.204 2.333,25.752 2.333,20 C2.333,19.447 1.885,19 1.333,19 C0.781,19 0.333,19.447 0.333,20 C0.333,26.391 3.426,32.448 8.607,36.203 L9.781,34.584" id="Fill-2" fill="#9ED16B"></path>
                        <path d="M13.124,38.585 C12.998,38.585 12.869,38.562 12.745,38.51 C11.283,37.91 9.891,37.134 8.607,36.203 C8.16,35.879 8.06,35.254 8.384,34.807 C8.71,34.359 9.335,34.26 9.781,34.584 C10.936,35.422 12.189,36.12 13.504,36.66 C14.015,36.869 14.259,37.453 14.05,37.965 C13.891,38.352 13.518,38.585 13.124,38.585" id="Fill-3" fill="#F0ED1F"></path>
                    </g>
                    <g id="點亮台灣" transform="translate(55.000000, 5.000000)" fill="#000000" sketch:type="MSShapeGroup">
                        <path d="M1.1165493,11.4776471 L1.21690141,12.2527059 L9.32007042,11.2044706 L9.21971831,10.4304706 L5.8721831,10.8624706 L5.8721831,9.42035294 L9.13098592,9.42035294 L9.13098592,8.64 L5.8721831,8.64 L5.8721831,7.07929412 L8.98415493,7.07929412 L8.98415493,1.56705882 L1.98169014,1.56705882 L1.98169014,7.07929412 L5.09366197,7.07929412 L5.09366197,8.64 L1.83485915,8.64 L1.83485915,9.42035294 L5.09366197,9.42035294 L5.09366197,10.9630588 L1.1165493,11.4776471 L1.1165493,11.4776471 Z M5.8721831,2.34741176 L8.20669014,2.34741176 L8.20669014,6.29788235 L5.8721831,6.29788235 L5.8721831,2.34741176 Z M2.75915493,2.34741176 L5.09366197,2.34741176 L5.09366197,6.29788235 L2.75915493,6.29788235 L2.75915493,2.34741176 Z" id="Fill-17"></path>
                        <path d="M3.89577465,3.21882353 L3.17007042,3.49941176 L3.91584507,5.42858824 L4.6415493,5.14694118 L3.89577465,3.21882353" id="Fill-18"></path>
                        <path d="M7.04894366,5.42858824 L7.79577465,3.49941176 L7.07007042,3.21882353 L6.32429577,5.14694118 L7.04894366,5.42858824" id="Fill-19"></path>
                        <path d="M0.935915493,16.4911765 L1.60669014,16.8850588 C2.5943662,15.1941176 2.76338028,13.3602353 2.76549296,13.3422353 L1.99014085,13.2808235 C1.98802817,13.2967059 1.82112676,14.9749412 0.935915493,16.4911765" id="Fill-20"></path>
                        <path d="M3.96971831,13.4692941 C4.18838028,14.2136471 4.35211268,15.3095294 4.42077465,16.4752941 L5.1971831,16.4287059 C5.12535211,15.2068235 4.95,14.0484706 4.71760563,13.2490588 L3.96971831,13.4692941" id="Fill-21"></path>
                        <path d="M6.0084507,13.2395294 C6.26302817,14.0018824 6.48697183,15.1327059 6.59471831,16.1915294 L7.36901408,16.1121176 C7.25387324,14.9834118 7.02147887,13.8176471 6.74683099,12.9928235 L6.0084507,13.2395294" id="Fill-22"></path>
                        <path d="M8.1084507,12.9091765 C8.3334507,13.5561176 8.62394366,14.4571765 8.86161972,15.6896471 L9.62535211,15.5403529 C9.37816901,14.2602353 9.07816901,13.3242353 8.84366197,12.6508235 L8.1084507,12.9091765" id="Fill-23"></path>
                        <path d="M15.9433099,5.00611765 L15.9433099,4.22576471 L13.0257042,4.22576471 L13.0257042,1.51835294 L12.2471831,1.51835294 L12.2471831,9.396 L10.4799296,9.396 L10.4799296,15.3232941 L15.5788732,15.3232941 L15.5788732,9.396 L13.0257042,9.396 L13.0257042,5.00611765 L15.9433099,5.00611765 L15.9433099,5.00611765 Z M11.2584507,10.1774118 L14.8014085,10.1774118 L14.8014085,14.5429412 L11.2584507,14.5429412 L11.2584507,10.1774118 Z" id="Fill-24"></path>
                        <path d="M34.8052817,2.42152941 L28.9922535,2.42152941 L28.9922535,0.624705882 L28.2126761,0.624705882 L28.2126761,2.42152941 L22.3996479,2.42152941 L22.3996479,3.20294118 L34.8052817,3.20294118 L34.8052817,2.42152941" id="Fill-25"></path>
                        <path d="M25.2940141,7.62458824 L31.9901408,7.62458824 L31.9901408,4.32317647 L25.2940141,4.32317647 L25.2940141,7.62458824 Z M26.0714789,5.10458824 L31.2126761,5.10458824 L31.2126761,6.84423529 L26.0714789,6.84423529 L26.0714789,5.10458824 Z" id="Fill-26"></path>
                        <path d="M22.6626761,9.66917647 L34.715493,9.66917647 L34.715493,11.2605882 L35.4940141,11.2605882 L35.4940141,8.88988235 L21.8841549,8.88988235 L21.8841549,11.2605882 L22.6626761,11.2605882 L22.6626761,9.66917647" id="Fill-27"></path>
                        <path d="M21.3823944,15.984 L21.5545775,16.7452941 C26.4771127,15.6218824 27.0823944,12.1531765 27.1130282,10.7142353 L26.3355634,10.6972941 C26.3017606,12.258 25.6130282,15.0194118 21.3823944,15.984" id="Fill-28"></path>
                        <path d="M35.3714789,13.9944706 L34.9954225,15.0151765 C34.9426056,15.1549412 34.8073944,15.2491765 34.6573944,15.2491765 L31.1725352,15.2491765 C30.9380282,15.2491765 30.7478873,15.0564706 30.7478873,14.8203529 L30.7478873,10.6581176 L29.9693662,10.6581176 L29.9693662,14.8203529 C29.9693662,15.4874118 30.5091549,16.0295294 31.1725352,16.0295294 L34.6573944,16.0295294 C35.1285211,16.0295294 35.556338,15.7330588 35.7232394,15.2872941 L36.1014085,14.2644706 L35.3714789,13.9944706" id="Fill-29"></path>
                        <path d="M54.5366197,8.20905882 C53.3440141,6.36458824 51.9285211,4.52329412 51.2492958,3.81070588 L50.6862676,4.34964706 C50.9799296,4.65882353 51.4246479,5.19776471 51.9253521,5.85317647 L44.2278169,6.82835294 L47.1940141,1.206 L46.5052817,0.840705882 L43.284507,6.94694118 L41.1264085,7.22117647 L41.2235915,7.99517647 L52.4630282,6.57211765 C52.9309859,7.21376471 53.4232394,7.92105882 53.8838028,8.63364706 L54.5366197,8.20905882" id="Fill-30"></path>
                        <path d="M43.3151408,16.8511765 L44.093662,16.8511765 L44.093662,15.7944706 L51.4711268,15.7944706 L51.4711268,16.8511765 L52.2485915,16.8511765 L52.2485915,10.4781176 L43.3151408,10.4781176 L43.3151408,16.8511765 L43.3151408,16.8511765 Z M44.093662,11.2584706 L51.4700704,11.2584706 L51.4700704,15.0141176 L44.093662,15.0141176 L44.093662,11.2584706 Z" id="Fill-31"></path>
                        <path d="M60.0232394,1.73435294 L62.0228873,3.77258824 L62.5700704,3.23258824 L60.5693662,1.19435294 L60.0232394,1.73435294" id="Fill-32"></path>
                        <path d="M62.0102113,7.29317647 L60.009507,5.25494118 L59.4623239,5.79494118 L61.4630282,7.83423529 L62.0102113,7.29317647" id="Fill-33"></path>
                        <path d="M61.3098592,10.6231765 C61.0035211,11.8122353 60.4901408,13.8038824 59.3619718,16.7167059 L60.078169,16.9962353 C61.2221831,14.0410588 61.7630282,11.9424706 62.0535211,10.8158824 C62.1179577,10.566 62.171831,10.3574118 62.2183099,10.1911765 L61.4788732,9.98258824 C61.4302817,10.1530588 61.3764085,10.3669412 61.3098592,10.6231765" id="Fill-34"></path>
                        <path d="M62.7190141,9.70094118 L63.2820423,9.82482353 C63.521831,8.73529412 63.684507,7.63305882 63.6855634,7.62141176 L63.1161972,7.53776471 C63.1140845,7.54835294 62.9545775,8.63047059 62.7190141,9.70094118" id="Fill-35"></path>
                        <path d="M64.4387324,7.668 L64.4588028,7.82894118 C64.5010563,8.15294118 64.5887324,8.82529412 64.6172535,9.63211765 L65.1929577,9.61094118 C65.1633803,8.77764706 65.0725352,8.08623529 65.0302817,7.75482353 L65.0112676,7.60341176 L64.4387324,7.668" id="Fill-36"></path>
                        <path d="M65.7676056,7.56423529 C65.8721831,7.82364706 66.1964789,8.95129412 66.2630282,9.53470588 L66.8366197,9.46905882 C66.7616197,8.81682353 66.4214789,7.64258824 66.3010563,7.34611765 L65.7676056,7.56423529" id="Fill-37"></path>
                        <path d="M71.1,7.54305882 C70.884507,8.79670588 70.725,9.33882353 70.6288732,9.57176471 L71.1602113,9.792 C71.318662,9.40870588 71.484507,8.70458824 71.6672535,7.64152941 L71.6820423,7.56 L71.1169014,7.44670588 L71.1,7.54305882" id="Fill-38"></path>
                        <path d="M72.6,9.57176471 L73.1757042,9.55164706 C73.1588028,9.08470588 73.0764085,8.38482353 72.9316901,7.47 L72.3633803,7.56 C72.5038732,8.45258824 72.5830986,9.12917647 72.6,9.57176471" id="Fill-39"></path>
                        <path d="M74.2774648,7.30376471 L73.7302817,7.48588235 C73.8591549,7.87235294 74.0746479,8.51717647 74.2996479,9.49447059 L74.8605634,9.36423529 C74.6292254,8.35941176 74.4084507,7.69870588 74.2774648,7.30376471" id="Fill-40"></path>
                        <path d="M63.1795775,7.00305882 L66.0285211,6.36670588 L66.2873239,6.99882353 L66.8197183,6.78070588 L66.1014085,5.01458824 L65.5669014,5.23376471 L65.8077465,5.82458824 L64.0161972,6.22376471 C65.4021127,4.56988235 66.4151408,2.84294118 66.4626761,2.76247059 L65.9651408,2.47023529 C65.9598592,2.47976471 65.7401408,2.85352941 65.3746479,3.41047059 L63.8271127,3.726 C64.5,2.39929412 65.1126761,1.05352941 65.1200704,1.03870588 L64.5950704,0.799411765 C64.5876761,0.815294118 63.8461268,2.44588235 63.1014085,3.87847059 L63.1098592,3.88270588 L63.2228873,4.43964706 L64.9119718,4.09447059 C64.4133803,4.80917647 63.7742958,5.65941176 63.071831,6.43023529 L63.0760563,6.43341176 L63.0538732,6.43870588 L63.1795775,7.00305882" id="Fill-41"></path>
                        <path d="M71.1496479,7.00305882 L73.9985915,6.36670588 L74.2573944,6.99882353 L74.7908451,6.78070588 L74.0704225,5.01458824 L73.5369718,5.23376471 L73.7778169,5.82458824 L71.9862676,6.22376471 C73.3721831,4.56988235 74.3852113,2.84294118 74.4327465,2.76247059 L73.9362676,2.47023529 C73.9309859,2.47976471 73.7102113,2.85352941 73.3447183,3.41047059 L71.7971831,3.726 C72.4690141,2.39929412 73.0827465,1.05352941 73.0901408,1.03870588 L72.5651408,0.799411765 C72.5577465,0.815294118 71.8161972,2.44588235 71.0714789,3.87847059 L71.0788732,3.88270588 L71.1929577,4.43964706 L72.8820423,4.09447059 C72.3834507,4.80917647 71.7443662,5.65941176 71.0419014,6.43023529 L71.0461268,6.43447059 L71.025,6.43870588 L71.1496479,7.00305882" id="Fill-42"></path>
                        <path d="M70.8591549,2.21929412 L69.1193662,2.21929412 L69.1193662,0.749647059 L68.5426056,0.749647059 L68.5426056,2.21929412 L66.8260563,2.21929412 L66.8260563,2.79741176 L70.8591549,2.79741176 L70.8591549,2.21929412" id="Fill-43"></path>
                        <path d="M67.4144366,3.61482353 L70.2591549,3.61482353 L70.2591549,4.19294118 L67.4144366,4.19294118 L67.4144366,3.61482353 Z" id="Fill-44"></path>
                        <path d="M67.4144366,4.97541176 L70.2591549,4.97541176 L70.2591549,5.55352941 L67.4144366,5.55352941 L67.4144366,4.97541176 Z" id="Fill-45"></path>
                        <path d="M67.5105634,9.33352941 L70.1746479,9.33352941 L70.1746479,6.70976471 L67.5105634,6.70976471 L67.5105634,9.33352941 Z M68.0862676,7.28682353 L69.5989437,7.28682353 L69.5989437,8.75541176 L68.0862676,8.75541176 L68.0862676,7.28682353 Z" id="Fill-46"></path>
                        <path d="M73.5992958,13.8684706 L64.8137324,13.8684706 L65.0524648,12.8583529 L65.1380282,12.7905882 L73.3109155,12.7905882 L73.3109155,10.3171765 L63.8852113,10.3171765 L63.8852113,10.9725882 L72.6570423,10.9725882 L72.6570423,12.1351765 L64.6214789,12.1351765 L64.5348592,12.204 L64.0109155,14.4285882 L64.0859155,14.5228235 L73.1820423,14.5228235 L72.7626761,16.2825882 L72.6940141,16.3365882 L69.5873239,16.3365882 L69.5873239,16.9909412 L72.6940141,16.9909412 C73.0288732,16.9909412 73.3204225,16.7611765 73.3975352,16.434 L73.8950704,14.3481176 C73.9235915,14.2316471 73.940493,14.0961176 73.8676056,14.0018824 C73.8676056,14.0018824 73.806338,13.8684706 73.5992958,13.8684706" id="Fill-47"></path>
                    </g>
                    <g id="light-up" transform="translate(56.000000, 28.000000)" fill="#000000" sketch:type="MSShapeGroup">
                        <path d="M0.232,6.155 L0.232,0.393 L1.356,0.393 L1.356,5.151 L3.969,5.151 L3.969,6.155 L0.232,6.155" id="Fill-48"></path>
                        <path d="M7.307,0.393 L8.432,0.393 L8.432,6.154 L7.307,6.154 L7.307,0.393 Z" id="Fill-49"></path>
                        <path d="M15.749,5.548 C15.289,6.025 14.739,6.203 14.124,6.203 C13.493,6.203 12.976,5.976 12.571,5.572 C11.989,4.99 12.005,4.269 12.005,3.274 C12.005,2.279 11.989,1.559 12.571,0.976 C12.976,0.571 13.477,0.345 14.124,0.345 C15.458,0.345 16.138,1.219 16.292,2.19 L15.159,2.19 C15.029,1.648 14.698,1.348 14.124,1.348 C13.817,1.348 13.566,1.47 13.405,1.656 C13.186,1.899 13.129,2.165 13.129,3.274 C13.129,4.382 13.186,4.658 13.405,4.901 C13.566,5.087 13.817,5.2 14.124,5.2 C14.464,5.2 14.739,5.079 14.925,4.876 C15.111,4.666 15.183,4.407 15.183,4.107 L15.183,3.889 L14.124,3.889 L14.124,2.95 L16.3,2.95 L16.3,3.792 C16.3,4.625 16.154,5.127 15.749,5.548" id="Fill-50"></path>
                        <path d="M22.938,6.155 L22.938,3.743 L20.988,3.743 L20.988,6.155 L19.864,6.155 L19.864,0.393 L20.988,0.393 L20.988,2.748 L22.938,2.748 L22.938,0.393 L24.062,0.393 L24.062,6.155 L22.938,6.155" id="Fill-51"></path>
                        <path d="M30.029,1.397 L30.029,6.155 L28.904,6.155 L28.904,1.397 L27.4,1.397 L27.4,0.393 L31.533,0.393 L31.533,1.397 L30.029,1.397" id="Fill-52"></path>
                        <path d="M41.203,6.203 C40.022,6.203 39.084,5.402 39.084,4.18 L39.084,0.393 L40.208,0.393 L40.208,4.14 C40.208,4.803 40.596,5.2 41.203,5.2 C41.809,5.2 42.205,4.803 42.205,4.14 L42.205,0.393 L43.321,0.393 L43.321,4.18 C43.321,5.402 42.383,6.203 41.203,6.203" id="Fill-53"></path>
                        <path d="M49.232,3.986 L48.124,3.986 L48.124,6.155 L47,6.155 L47,0.393 L49.232,0.393 C50.421,0.393 51.133,1.211 51.133,2.19 C51.133,3.169 50.421,3.986 49.232,3.986 M49.176,1.397 L48.124,1.397 L48.124,2.974 L49.176,2.974 C49.685,2.974 50.009,2.659 50.009,2.19 C50.009,1.72 49.685,1.397 49.176,1.397" id="Fill-54"></path>
                        <path d="M61.004,1.397 L61.004,6.155 L59.88,6.155 L59.88,1.397 L58.376,1.397 L58.376,0.393 L62.508,0.393 L62.508,1.397 L61.004,1.397" id="Fill-55"></path>
                        <path d="M68.637,6.155 L68.297,5.135 L66.251,5.135 L65.903,6.155 L64.731,6.155 L66.826,0.393 L67.707,0.393 L69.809,6.155 L68.637,6.155 L68.637,6.155 Z M67.295,2.093 L66.567,4.188 L67.998,4.188 L67.295,2.093 L67.295,2.093 Z" id="Fill-56"></path>
                        <path d="M72.946,0.393 L74.07,0.393 L74.07,6.154 L72.946,6.154 L72.946,0.393 Z" id="Fill-57"></path>
                        <path d="M82.747,6.155 L81.809,6.155 L80.749,2.659 L79.69,6.155 L78.752,6.155 L77.215,0.393 L78.388,0.393 L79.278,4.026 L80.329,0.393 L81.17,0.393 L82.221,4.026 L83.119,0.393 L84.291,0.393 L82.747,6.155" id="Fill-58"></path>
                        <path d="M90.58,6.155 L90.241,5.135 L88.195,5.135 L87.847,6.155 L86.674,6.155 L88.769,0.393 L89.65,0.393 L91.753,6.155 L90.58,6.155 L90.58,6.155 Z M89.238,2.093 L88.51,4.188 L89.941,4.188 L89.238,2.093 L89.238,2.093 Z" id="Fill-59"></path>
                        <path d="M98.294,6.155 L96.013,2.619 L96.013,6.155 L94.889,6.155 L94.889,0.393 L95.892,0.393 L98.172,3.921 L98.172,0.393 L99.297,0.393 L99.297,6.155 L98.294,6.155" id="Fill-60"></path>
                    </g>
                    <g id="number" transform="translate(138.000000, 5.000000)">
                        <g id="Group-3">
                            <mask id="mask-2" sketch:name="Clip 2" fill="white">
                                <use xlink:href="#path-1"></use>
                            </mask>
                            <g id="Clip-2"></g>
                            <path d="M17.9496514,9.02514857 C17.9496514,13.9818343 13.9315371,17.9999486 8.97485143,17.9999486 C4.01816571,17.9999486 5.14285714e-05,13.9818343 5.14285714e-05,9.02514857 C5.14285714e-05,4.06846286 4.01816571,0.0503485714 8.97485143,0.0503485714 C13.9315371,0.0503485714 17.9496514,4.06846286 17.9496514,9.02514857" id="Fill-1" fill="#57B76F" sketch:type="MSShapeGroup" mask="url(#mask-2)"></path>
                        </g>
                        <path d="M5.49730286,14.2980171 L5.49730286,12.9403029 L9.58484571,7.97281714 C9.98753143,7.48064571 10.1515886,7.09287429 10.1515886,6.55544571 C10.1515886,5.60093143 9.58484571,4.94470286 8.59998857,4.94470286 C7.79461714,4.94470286 7.03347429,5.39213143 7.03347429,6.58527429 L5.51221714,6.58527429 C5.51221714,4.78064571 6.79484571,3.58698857 8.59998857,3.58698857 C10.4200457,3.58698857 11.67336,4.73590286 11.67336,6.57087429 C11.67336,7.51047429 11.3298171,8.06230286 10.6735886,8.86767429 L7.34718857,12.9403029 L11.67336,12.9403029 L11.67336,14.2980171 L5.49730286,14.2980171 Z" id="Fill-4" fill="#FEFEFE" sketch:type="MSShapeGroup"></path>
                    </g>
                    <path d="M229.685,13.475 L231.44,13.475 L229.46,17.57 L228.47,17.57 L229.685,13.475 Z" id="，" fill="#000000" sketch:type="MSShapeGroup"></path>
                </g>
                <g id="name" transform="translate(165.000000, 5.000000)" sketch:type="MSShapeGroup">
                    <path d="M64.685,8.475 L66.44,8.475 L64.46,12.57 L63.47,12.57 L64.685,8.475 Z" id="，" fill="#000000"></path>
                    <g id="英文" fill="#050101">
                        <path d="M20.2061647,4.2354 L24.6098118,4.2354 L24.6098118,5.81834118 C24.6098118,5.86916471 24.6521647,5.91045882 24.7029882,5.91045882 L25.6612235,5.91045882 C25.7120471,5.91045882 25.7533412,5.86916471 25.7533412,5.81834118 L25.7533412,4.2354 L29.9388706,4.2354 L29.9388706,5.81834118 C29.9388706,5.86916471 29.9801647,5.91045882 30.0309882,5.91045882 L30.9892235,5.91045882 C31.0411059,5.91045882 31.0824,5.86916471 31.0824,5.81834118 L31.0824,4.2354 L35.4860471,4.2354 C35.5379294,4.2354 35.5792235,4.19410588 35.5792235,4.14222353 L35.5792235,3.18504706 C35.5792235,3.13422353 35.5379294,3.09292941 35.4860471,3.09292941 L31.0824,3.09292941 L31.0824,1.50998824 C31.0824,1.45916471 31.0411059,1.41681176 30.9892235,1.41681176 L30.0309882,1.41681176 C29.9801647,1.41681176 29.9388706,1.45916471 29.9388706,1.50998824 L29.9388706,3.09292941 L25.7533412,3.09292941 L25.7533412,1.50998824 C25.7533412,1.45916471 25.7120471,1.41681176 25.6612235,1.41681176 L24.7029882,1.41681176 C24.6521647,1.41681176 24.6098118,1.45916471 24.6098118,1.50998824 L24.6098118,3.09292941 L20.2061647,3.09292941 C20.1553412,3.09292941 20.1129882,3.13422353 20.1129882,3.18504706 L20.1129882,4.14222353 C20.1129882,4.19410588 20.1553412,4.2354 20.2061647,4.2354" id="Fill-5"></path>
                        <path d="M31.4458941,11.3424353 L28.4250706,11.3424353 L28.4250706,11.3233765 L28.4367176,8.77796471 L31.2849529,8.77796471 C31.3738941,8.77796471 31.4458941,8.84996471 31.4458941,8.93890588 L31.4458941,11.3424353 Z M27.2487176,8.79702353 L27.2455412,11.3424353 L24.2247176,11.3424353 L24.2247176,8.93890588 C24.2247176,8.84996471 24.2977765,8.77796471 24.3856588,8.77796471 L27.2497765,8.77796471 L27.2487176,8.79702353 Z M35.4863647,11.3424353 L32.6423647,11.3424353 L32.6423647,7.77631765 C32.6423647,7.66937647 32.5555412,7.58149412 32.4486,7.58149412 L28.4420118,7.58149412 L28.4420118,7.56243529 L28.4494235,6.11502353 C28.4494235,6.03878824 28.3890706,5.97737647 28.3128353,5.97737647 L27.3906,5.97631765 L27.3895412,5.97631765 C27.3535412,5.97631765 27.3196588,5.99008235 27.2931882,6.01549412 C27.2677765,6.04196471 27.2529529,6.07584706 27.2529529,6.11290588 L27.2508353,7.58149412 L23.2230706,7.58149412 C23.1161294,7.58149412 23.0282471,7.66937647 23.0282471,7.77631765 L23.0282471,11.3424353 L20.2064824,11.3424353 C20.1397765,11.3424353 20.0868353,11.3964353 20.0868353,11.4620824 L20.0868353,12.4192588 C20.0868353,12.4849059 20.1397765,12.5389059 20.2064824,12.5389059 L26.8844824,12.5389059 L26.8696588,12.5674941 C26.1761294,13.9460824 24.5476588,15.7767882 20.7327176,16.6619647 C20.6670706,16.6767882 20.6257765,16.7413765 20.6406,16.8049059 L20.8481294,17.7377294 C20.8555412,17.7694941 20.8746,17.7959647 20.9021294,17.8139647 C20.9296588,17.8309059 20.9635412,17.8362 20.9963647,17.8298471 C25.2062471,16.8536118 27.0708353,14.7687882 27.8935412,13.1900824 L27.9115412,13.1562 L27.9284824,13.1911412 C28.5351882,14.4289059 30.1943647,16.6450235 34.4900118,17.5651412 C34.5217765,17.5714941 34.5546,17.5662 34.5821294,17.5482 C34.6096588,17.5302 34.6276588,17.5026706 34.6350706,17.4719647 L34.8267176,16.5349059 C34.8394235,16.4713765 34.7970706,16.4089059 34.7335412,16.3940824 C30.6930706,15.5258471 29.3462471,13.4272588 28.9544824,12.5664353 L28.9417765,12.5389059 L35.4863647,12.5389059 C35.5520118,12.5389059 35.6060118,12.4849059 35.6060118,12.4192588 L35.6060118,11.4620824 C35.6060118,11.3964353 35.5520118,11.3424353 35.4863647,11.3424353 L35.4863647,11.3424353 Z" id="Fill-7"></path>
                        <path d="M10.6338706,2.57812941 L10.6338706,0.958129412 L9.51469412,0.958129412 L9.51469412,2.57812941 L6.08092941,2.57812941 L6.08092941,0.958129412 L4.96281176,0.958129412 L4.96281176,2.57812941 L0.0382235294,2.57812941 L0.0382235294,3.69730588 L4.96281176,3.69730588 L4.96281176,4.99542353 L6.08092941,4.99542353 L6.08092941,3.69730588 L9.51469412,3.69730588 L9.51469412,4.99542353 L10.6338706,4.99542353 L10.6338706,3.69730588 L15.5574,3.69730588 L15.5574,2.57812941 L10.6338706,2.57812941 Z" id="Fill-9"></path>
                        <path d="M7.53278824,6.71124706 L7.76149412,6.09818824 C7.76255294,6.09712941 7.78902353,6.03042353 7.76149412,5.98912941 C7.74667059,5.96795294 7.71702353,5.95630588 7.67361176,5.95630588 L3.65749412,5.95630588 L3.67337647,5.92771765 C3.83961176,5.62701176 3.97831765,5.33689412 4.0842,5.06477647 C4.10008235,5.0256 4.1022,4.99383529 4.08949412,4.9716 C4.07361176,4.94407059 4.04078824,4.93771765 4.04078824,4.93771765 L3.12172941,4.65924706 C3.10478824,4.66348235 3.03490588,4.67830588 3.01478824,4.72807059 C2.85384706,5.13677647 2.17831765,6.60218824 0.234317647,8.33018824 C0.211023529,8.35136471 0.198317647,8.37254118 0.198317647,8.39477647 C0.197258824,8.42442353 0.218435294,8.4456 0.218435294,8.4456 L0.855847059,9.17936471 C0.855847059,9.17936471 0.873847059,9.2016 0.901376471,9.20371765 C0.920435294,9.20583529 0.942670588,9.19736471 0.964905882,9.17830588 C1.74208235,8.49642353 2.41655294,7.77112941 2.96714118,7.02148235 L2.97349412,7.01407059 L5.91808235,7.01407059 C5.97208235,7.01407059 6.02078824,7.0416 6.04725882,7.08712941 C6.07372941,7.13265882 6.07478824,7.18771765 6.04831765,7.23430588 C5.74231765,7.77748235 5.36431765,8.33865882 4.95455294,8.85642353 L4.94078824,8.87336471 L4.92490588,8.85748235 L3.97090588,7.89395294 L3.17572941,8.68065882 L4.20384706,9.71936471 L4.19114118,9.73312941 C3.98255294,9.95336471 3.76443529,10.1672471 3.54314118,10.3684235 L3.52937647,10.3811294 L3.51561176,10.3673647 L2.48325882,9.32442353 L1.68808235,10.1121882 L2.66325882,11.0979529 L2.64525882,11.1106588 C1.83631765,11.7194824 0.960670588,12.2192471 0.0416117647,12.5983059 C0.00772941176,12.6120706 -0.00921176471,12.6512471 0.00455294118,12.6840706 L0.371964706,13.5925412 C0.378317647,13.6105412 0.393141176,13.6243059 0.4122,13.6327765 C0.431258824,13.6401882 0.451376471,13.6401882 0.469376471,13.6327765 C5.70208235,11.4759529 7.51478824,6.75889412 7.53278824,6.71124706" id="Fill-11"></path>
                        <path d="M11.4089294,9.30610588 C11.4046941,9.30610588 11.4004588,9.30716471 11.3962235,9.30716471 C11.3581059,9.30716471 11.3210471,9.28916471 11.2977529,9.25951765 C10.8054,8.64010588 10.3892824,7.96245882 10.0599882,7.24563529 C10.0430471,7.20857647 10.0451647,7.16728235 10.0674,7.1334 C10.0906941,7.0974 10.1309294,7.07516471 10.1743412,7.07516471 L12.4391647,7.07516471 C12.4825765,7.07516471 12.5217529,7.0974 12.5450471,7.13445882 C12.5672824,7.17151765 12.5683412,7.21598824 12.5482235,7.25516471 L11.5063412,9.24151765 C11.4872824,9.27751765 11.4512824,9.30187059 11.4089294,9.30610588 M12.3057529,10.1277529 L14.3259882,6.27151765 C14.3619882,6.20481176 14.3598706,6.1254 14.3196353,6.06081176 C14.2804588,5.99516471 14.2116353,5.95704706 14.1354,5.95704706 L8.51834118,5.95704706 C8.48657647,5.95704706 8.46434118,5.96551765 8.45163529,5.98351765 C8.42834118,6.01634118 8.44104706,6.07775294 8.44845882,6.09892941 L8.63904706,6.68869412 C9.00010588,7.80151765 10.5226941,11.5635176 14.9686941,13.2936353 L15.3721059,12.2506941 C13.9818706,11.8028118 12.5905765,10.5216353 12.3248118,10.2685765 C12.2866941,10.2325765 12.2792824,10.1785765 12.3057529,10.1277529" id="Fill-14"></path>
                        <path d="M5.94487059,10.1960471 L5.94487059,11.1691059 C5.94487059,11.2093412 5.97769412,11.2421647 6.01792941,11.2421647 L9.70898824,11.2421647 C9.74816471,11.2421647 9.78204706,11.2093412 9.78204706,11.1691059 L9.78204706,10.1960471 C9.78204706,10.1558118 9.74816471,10.1229882 9.70898824,10.1229882 L6.01792941,10.1229882 C5.97769412,10.1229882 5.94487059,10.1558118 5.94487059,10.1960471" id="Fill-16"></path>
                        <path d="M11.9351647,13.6746 L11.9351647,12.7026 C11.9351647,12.6623647 11.9023412,12.6284824 11.8621059,12.6284824 L3.97916471,12.6284824 C3.93892941,12.6284824 3.90610588,12.6623647 3.90610588,12.7026 L3.90610588,13.6746 C3.90610588,13.7148353 3.93892941,13.7476588 3.97916471,13.7476588 L7.37798824,13.7476588 L7.37798824,16.7091882 C7.37798824,16.8044824 7.30069412,16.8807176 7.2054,16.8807176 L6.41445882,16.8807176 C6.3414,16.8807176 6.28210588,16.9410706 6.28210588,17.0130706 L6.28210588,17.8675412 C6.28210588,17.9406 6.3414,17.9998941 6.41445882,17.9998941 L8.00375294,17.9998941 C8.27481176,17.9998941 8.49610588,17.7786 8.49610588,17.5064824 L8.49610588,13.7476588 L11.8621059,13.7476588 C11.9023412,13.7476588 11.9351647,13.7148353 11.9351647,13.6746" id="Fill-18"></path>
                        <path d="M10.9971529,14.7865765 C10.9812706,14.7770471 10.9643294,14.7717529 10.9463294,14.7717529 C10.9399765,14.7717529 10.9325647,14.7728118 10.9262118,14.7738706 C10.9018588,14.7791647 10.8806824,14.7939882 10.8669176,14.8151647 L10.3671529,15.5997529 C10.3385647,15.6442235 10.3523294,15.7024588 10.3957412,15.7299882 L13.8220941,17.9143412 C13.8665647,17.9408118 13.9248,17.9281059 13.9533882,17.8846941 L14.4531529,17.1001059 C14.4806824,17.0566941 14.4679765,16.9984588 14.4235059,16.9698706 L10.9971529,14.7865765 Z" id="Fill-20"></path>
                        <path d="M4.43212941,14.6079529 C4.41836471,14.5867765 4.39718824,14.5730118 4.37177647,14.5677176 C4.36542353,14.5666588 4.36012941,14.5656 4.35377647,14.5656 C4.33471765,14.5656 4.31671765,14.5708941 4.30083529,14.5814824 L0.792952941,16.9225412 C0.771776471,16.9363059 0.758011765,16.9574824 0.752717647,16.9818353 C0.747423529,17.0072471 0.752717647,17.0326588 0.766482353,17.0527765 L1.28318824,17.8267765 C1.29695294,17.8479529 1.31812941,17.8627765 1.34354118,17.8670118 C1.36789412,17.8723059 1.39330588,17.8670118 1.41448235,17.8532471 L4.92236471,15.5121882 C4.94354118,15.4984235 4.95730588,15.4772471 4.9626,15.4528941 C4.96683529,15.4274824 4.9626,15.4031294 4.94883529,15.3819529 L4.43212941,14.6079529 Z" id="Fill-22"></path>
                        <path d="M54.6848471,4.14307059 L40.1292,4.14307059 C40.0688471,4.14307059 40.0190824,4.19283529 40.0190824,4.25318824 L40.0190824,5.23895294 C40.0190824,5.30036471 40.0688471,5.34907059 40.1292,5.34907059 L54.6848471,5.34907059 C54.7462588,5.34907059 54.7949647,5.30036471 54.7949647,5.23895294 L54.7949647,4.25318824 C54.7949647,4.19283529 54.7462588,4.14307059 54.6848471,4.14307059" id="Fill-24"></path>
                        <path d="M46.9147765,2.81234118 L47.8994824,2.81234118 C47.9672471,2.81234118 48.0233647,2.75622353 48.0233647,2.68845882 L48.0233647,0.748694118 C48.0233647,0.679870588 47.9672471,0.624811765 47.8994824,0.624811765 L46.9147765,0.624811765 C46.8470118,0.624811765 46.7908941,0.679870588 46.7908941,0.748694118 L46.7908941,2.68845882 C46.7908941,2.75622353 46.8470118,2.81234118 46.9147765,2.81234118" id="Fill-26"></path>
                        <path d="M54.5529176,16.4316706 C52.1811529,15.4024941 50.0698588,13.9921412 48.2772706,12.2397882 L48.2635059,12.2270824 L48.2762118,12.2122588 C49.4620941,10.9088471 50.5135059,9.43496471 51.3997412,7.83190588 C51.4156235,7.80225882 51.4198588,7.76837647 51.4103294,7.73555294 C51.4008,7.70378824 51.3796235,7.67731765 51.3499765,7.66143529 L50.4859765,7.19025882 C50.4266824,7.15849412 50.3525647,7.17967059 50.3197412,7.23896471 C49.4970353,8.72661176 48.5218588,10.0988471 47.4217412,11.3175529 L47.4069176,11.3344941 L47.3931529,11.3175529 C46.2930353,10.0988471 45.3178588,8.72661176 44.4951529,7.23896471 C44.4718588,7.19872941 44.4305647,7.17543529 44.3871529,7.17543529 C44.3670353,7.17543529 44.3469176,7.17967059 44.3289176,7.19025882 L43.4638588,7.66143529 C43.4352706,7.67731765 43.4140941,7.70378824 43.4045647,7.73555294 C43.3950353,7.76837647 43.3982118,7.80225882 43.4151529,7.83190588 C44.3013882,9.43496471 45.3528,10.9088471 46.5376235,12.2122588 L46.5513882,12.2270824 L46.5376235,12.2397882 C44.7450353,13.9921412 42.6326824,15.4024941 40.2619765,16.4316706 C40.1995059,16.4581412 40.1709176,16.5301412 40.1973882,16.5915529 L40.5838588,17.4979059 C40.5965647,17.5286118 40.6209176,17.5529647 40.6516235,17.5646118 C40.6833882,17.5773176 40.7172706,17.5773176 40.7479765,17.5635529 C43.2605647,16.4740235 45.4968,14.9810824 47.3931529,13.1281412 L47.4069176,13.1143765 L47.4217412,13.1281412 C49.3180941,14.9810824 51.5532706,16.4740235 54.0669176,17.5635529 C54.0965647,17.5773176 54.1304471,17.5773176 54.1622118,17.5646118 C54.1939765,17.5529647 54.2183294,17.5286118 54.2310353,17.4979059 L54.6175059,16.5915529 C54.6439765,16.5301412 54.6153882,16.4581412 54.5529176,16.4316706" id="Fill-28"></path>
                    </g>
                    <g id="建仁" transform="translate(76.000000, 0.000000)" fill="#050101">
                        <path d="M36.5193765,16.2890471 C32.2046706,16.3959882 30.0203176,16.4224588 28.6046706,16.2096353 C27.7406706,16.0794 27.0736118,15.8517529 26.3377294,15.5510471 C25.5997294,15.2482235 24.8479647,14.6775176 24.1025529,13.8548118 L24.0570235,13.8029294 L24.0834941,13.7372824 C25.0629059,11.3464588 25.3403176,8.90163529 25.3869059,8.43681176 L25.4313765,7.97516471 C25.4345529,7.94022353 25.4239647,7.9074 25.4006706,7.88198824 C25.3773765,7.85657647 25.3445529,7.84281176 25.3106706,7.84281176 L23.2671412,7.84281176 C23.2099647,7.84281176 23.1612588,7.8174 23.1337294,7.77398824 C23.1072588,7.72845882 23.1072588,7.67128235 23.1347882,7.61516471 L25.2556118,2.92351765 C25.2725529,2.8854 25.2683176,2.84410588 25.2460824,2.80916471 C25.2217294,2.77316471 25.1857294,2.75410588 25.1433765,2.75410588 L21.1007882,2.75410588 L21.1007882,3.84151765 L23.6790235,3.8394 L23.6154941,3.99398824 L21.4597294,8.75869412 C21.4449059,8.79575294 21.4480824,8.83810588 21.4703176,8.87198824 C21.4936118,8.90692941 21.5306706,8.92704706 21.5719647,8.92704706 L24.1237294,8.92704706 C24.1840824,8.92704706 24.2190235,8.95245882 24.2370235,8.97363529 C24.2783176,9.02234118 24.2709059,9.08692941 24.2698471,9.09434118 C24.0792588,10.4051647 23.7414941,11.7371647 23.3391412,12.7494 L23.2957294,12.8605765 L23.1485529,12.6488118 C22.5418471,11.7805765 22.0960824,10.9366941 21.8980824,10.4771647 L21.0171412,10.8488118 C21.3104353,11.5539882 21.9383176,12.6265765 22.7822,13.8632824 L22.8362,13.9479882 L22.8213765,13.9797529 C22.3406706,14.9845765 21.7276118,15.8326941 21.0510235,16.4319882 L21.7551412,17.2568118 C22.4105529,16.6818706 23.0024353,15.9057529 23.5149059,14.9528118 L23.5869059,14.8162235 L23.6927882,14.9274 C24.4392588,15.6950471 25.2100824,16.2456353 25.9830235,16.5611647 C26.8279647,16.9084588 27.5024353,17.1361059 28.4511412,17.2779882 C29.3077294,17.4071647 30.4523176,17.4643412 32.1612588,17.4643412 L32.2184353,17.4643412 C32.4651412,17.4632824 32.7266706,17.4622235 33.0019647,17.4611647 C34.0226706,17.4590471 35.1789059,17.4548118 36.5469059,17.4209294 L36.5204353,16.2890471 L36.5193765,16.2890471 Z" id="Fill-1"></path>
                        <path d="M31.4568235,6.23954118 L33.7788235,6.23954118 L33.7788235,7.55671765 C33.7788235,7.65201176 33.7015294,7.73036471 33.6062353,7.73036471 L31.4568235,7.73036471 L31.4568235,6.23954118 Z M31.4568235,3.75448235 L33.6062353,3.75448235 C33.7015294,3.75448235 33.7788235,3.83283529 33.7788235,3.92812941 L33.7788235,5.15530588 L31.4568235,5.15530588 L31.4568235,3.75448235 Z M26.1118824,12.7280118 L26.1129412,13.8143647 L30.308,13.8122471 L30.3715294,13.8122471 L30.3715294,15.4830706 L31.4578824,15.4809529 L31.4568235,13.8122471 L35.9568235,13.8122471 L35.9557647,12.7258941 L31.4568235,12.7280118 L31.4568235,11.4341294 L35.2823529,11.4341294 L35.2802353,10.3477765 L31.4568235,10.3498941 L31.4568235,8.8146 L34.7074118,8.8146 C34.7942353,8.8146 34.8651765,8.74471765 34.8651765,8.65789412 L34.8651765,6.23954118 L36.6990588,6.23954118 L36.6969412,5.15530588 L34.8651765,5.15530588 L34.8651765,2.82695294 C34.8651765,2.74012941 34.7942353,2.67024706 34.7074118,2.67024706 L31.4568235,2.67024706 L31.4568235,0.939070588 L30.3694118,0.941188235 L30.3715294,2.67024706 L27.1071765,2.67024706 L27.1092941,3.7566 L30.3715294,3.75448235 L30.3715294,5.15530588 L26.1118824,5.15530588 L26.1129412,6.2406 L30.3715294,6.23954118 L30.3715294,7.73036471 L27.1071765,7.73036471 L27.1092941,8.81671765 L30.3715294,8.8146 L30.3715294,10.3498941 L26.7609412,10.3498941 L26.7630588,11.4362471 L30.3715294,11.4341294 L30.3715294,12.7280118 L26.1118824,12.7280118 Z" id="Fill-3"></path>
                        <path d="M55.5957765,4.73484706 L55.5894235,4.72849412 L48.5175412,4.72849412 L48.5122471,5.92072941 L55.5894235,5.92708235 L55.5957765,4.73484706 Z" id="Fill-30"></path>
                        <path d="M56.8768471,14.1192 L47.2309647,14.1192 L47.2246118,15.3114353 L56.8768471,15.3177882 L56.8832,14.1255529 L56.8768471,14.1192 Z" id="Fill-32"></path>
                        <path d="M43.6363647,4.54118824 C43.4733059,5.07695294 43.2530706,5.59683529 42.9820118,6.08495294 L41.2381294,9.18518824 L42.1720118,9.71036471 C42.1698941,9.71671765 42.1688353,9.71883529 42.1688353,9.71883529 C42.1698941,9.71883529 42.1720118,9.7146 42.1751882,9.70824706 L43.3526,7.56307059 L43.3526,17.4387176 L44.5226,17.4249529 C44.5120118,17.4260118 44.5151882,5.66036471 44.5151882,5.66036471 L44.5151882,5.60424706 C44.5162471,5.57989412 44.5162471,5.56083529 44.5151882,5.55024706 C44.5141294,5.52271765 44.5194235,5.49624706 44.5236588,5.47718824 L45.5295412,2.05612941 L44.4897765,1.76071765 L43.6363647,4.54118824 Z" id="Fill-34"></path>
                        <path d="M4.16003529,7.09676471 L5.01556471,2.64335294 C5.02403529,2.58935294 5.00815294,2.53323529 4.97321176,2.49088235 C4.93615294,2.44852941 4.88427059,2.42417647 4.82815294,2.42417647 L0.625682353,2.42417647 C0.551564706,2.42417647 0.491211765,2.48452941 0.491211765,2.55864706 L0.491211765,17.5219412 C0.491211765,17.5346471 0.502858824,17.5462941 0.515564706,17.5462941 L1.55638824,17.5462941 C1.57015294,17.5462941 1.58074118,17.5357059 1.58074118,17.5219412 L1.58074118,3.65664706 C1.58074118,3.57829412 1.64532941,3.51370588 1.72474118,3.51370588 L3.65709412,3.51370588 C3.72168235,3.51370588 3.75768235,3.54017647 3.77674118,3.56135294 C3.81697647,3.609 3.81062353,3.67358824 3.80744706,3.69158824 L3.09274118,7.10311765 L3.66556471,10.9307647 C3.66662353,10.9784118 3.66662353,11.079 3.54909412,11.079 L2.32827059,11.079 C2.31556471,11.079 2.30391765,11.0895882 2.30391765,11.1033529 L2.30391765,12.0965294 C2.30391765,12.1018235 2.30497647,12.1060588 2.30497647,12.1102941 C2.30603529,12.1134706 2.30709412,12.1177059 2.30709412,12.1219412 L4.36015294,12.1219412 C4.51050588,12.1219412 4.62803529,12.0732353 4.70956471,11.9779412 C4.80274118,11.8688824 4.82921176,11.7142941 4.81332941,11.6179412 L4.81332941,11.6168824 L4.15897647,7.10311765 L4.16003529,7.09676471 Z" id="Fill-36"></path>
                        <path id="Fill-38"></path>
                        <path d="M11.0579529,10.2561882 L11.0579529,8.79924706 L13.8553647,8.79924706 L13.8553647,10.0941882 C13.8553647,10.1831294 13.7823059,10.2561882 13.6923059,10.2561882 L11.0579529,10.2561882 Z M11.0579529,6.46665882 L13.6923059,6.46665882 C13.7823059,6.46665882 13.8553647,6.53971765 13.8553647,6.62971765 L13.8553647,7.74148235 L11.0579529,7.74148235 L11.0579529,6.46665882 Z M9.90171765,7.74148235 L7.09265882,7.74148235 L7.09265882,6.62971765 C7.09265882,6.53971765 7.16465882,6.46665882 7.25465882,6.46665882 L9.90171765,6.46665882 L9.90171765,7.74148235 Z M9.90171765,10.2561882 L7.25465882,10.2561882 C7.16465882,10.2561882 7.09265882,10.1831294 7.09265882,10.0941882 L7.09265882,8.96230588 C7.09265882,8.87230588 7.16465882,8.79924706 7.25465882,8.79924706 L9.90171765,8.79924706 L9.90171765,10.2561882 Z M16.4325412,15.6381882 C14.6431294,14.4946588 12.8907765,12.5908941 12.2300706,11.4113647 L12.1400706,11.2599529 L14.7458353,11.2599529 C14.8379529,11.2599529 14.9131294,11.1837176 14.9131294,11.0926588 L14.9131294,5.62277647 C14.9131294,5.53065882 14.8379529,5.45548235 14.7458353,5.45548235 L11.0579529,5.45548235 L11.0579529,3.80054118 L15.4150118,3.80054118 L15.4234824,2.75124706 L11.0579529,2.74277647 L11.0579529,0.715129412 L9.91124706,0.706658824 L9.90171765,2.74277647 L5.58277647,2.74277647 L5.57430588,3.79207059 L9.90171765,3.80054118 L9.90171765,5.45548235 L6.20112941,5.45548235 C6.10901176,5.45548235 6.03383529,5.53065882 6.03383529,5.62277647 L6.03383529,11.0926588 C6.03383529,11.1837176 6.10901176,11.2599529 6.20112941,11.2599529 L8.84289412,11.2599529 L8.74442353,11.4145412 C7.91430588,12.6628941 6.41289412,14.5423059 4.91148235,15.7334824 C4.90407059,15.7398353 4.90195294,15.7472471 4.90089412,15.7525412 C4.89983529,15.7599529 4.90195294,15.7684235 4.90724706,15.7737176 L5.53830588,16.5371294 C5.54571765,16.5456 5.55524706,16.5477176 5.56054118,16.5477176 C5.56265882,16.5519529 5.57430588,16.5477176 5.58171765,16.5413647 C7.79148235,14.7127765 9.17536471,12.6660706 9.80324706,11.6083059 L9.90171765,11.4431294 L9.90171765,17.5821882 L11.0484235,17.5917176 L11.0579529,11.4156 L11.1585412,11.6114824 C11.8584235,12.9816 13.7081882,15.1479529 15.7570118,16.4630118 C15.7686588,16.4704235 15.7866588,16.4693647 15.7983059,16.4566588 L16.4399529,15.6816 C16.4463059,15.6720706 16.4463059,15.6625412 16.4463059,15.6583059 C16.4452471,15.6530118 16.4420706,15.6445412 16.4325412,15.6381882 L16.4325412,15.6381882 Z" id="Fill-40"></path>
                    </g>
                </g>
            </g>
        </g>
    </g>
</svg>