<?xml version="1.0" encoding="UTF-8" standalone="no"?>
<svg width="240px" height="48px" viewBox="0 0 240 48" version="1.1" xmlns="http://www.w3.org/2000/svg" xmlns:xlink="http://www.w3.org/1999/xlink" xmlns:sketch="http://www.bohemiancoding.com/sketch/ns">
    <!-- Generator: Sketch 3.4.4 (17249) - http://www.bohemiancoding.com/sketch -->
    <title>logo-es-mobile</title>
    <desc>Created with Sketch.</desc>
    <defs></defs>
    <g id="logo" stroke="none" stroke-width="1" fill="none" fill-rule="evenodd" sketch:type="MSPage">
        <g id="logo-es-mobile" sketch:type="MSArtboardGroup">
            <g id="logo" sketch:type="MSLayerGroup" transform="translate(5.000000, 4.000000)">
                <path d="M20.333,40 C17.707,40 15.154,39.499 12.745,38.51 L13.504,36.66 C15.671,37.549 17.969,38 20.333,38 C30.258,38 38.333,29.925 38.333,20 C38.333,10.075 30.258,2 20.333,2 C10.408,2 2.333,10.075 2.333,20 L0.333,20 C0.333,8.972 9.305,0 20.333,0 C31.361,0 40.333,8.972 40.333,20 C40.333,31.028 31.361,40 20.333,40" id="Fill-1" fill="#56B879" sketch:type="MSShapeGroup"></path>
                <path d="M9.781,34.584 C5.117,31.204 2.333,25.752 2.333,20 C2.333,19.447 1.885,19 1.333,19 C0.781,19 0.333,19.447 0.333,20 C0.333,26.391 3.426,32.448 8.607,36.203 L9.781,34.584" id="Fill-2" fill="#9ED16B" sketch:type="MSShapeGroup"></path>
                <path d="M13.124,38.585 C12.998,38.585 12.869,38.562 12.745,38.51 C11.283,37.91 9.891,37.134 8.607,36.203 C8.16,35.879 8.06,35.254 8.384,34.807 C8.71,34.359 9.335,34.26 9.781,34.584 C10.936,35.422 12.189,36.12 13.504,36.66 C14.015,36.869 14.259,37.453 14.05,37.965 C13.891,38.352 13.518,38.585 13.124,38.585" id="Fill-3" fill="#F0ED1F" sketch:type="MSShapeGroup"></path>
            </g>
            <path d="M62.448413,28.9373041 L62.448413,21.4973877 L61,21.4973877 L61,28.9373041 L62.448413,28.9373041 Z M71.3079302,28.9373041 L71.3079302,27.6415883 L67.9421936,27.6415883 L67.9421936,21.4973877 L66.4937806,21.4973877 L66.4937806,28.9373041 L71.3079302,28.9373041 Z M79.7818986,26.3876698 L79.7818986,21.4973877 L78.3439059,21.4973877 L78.3439059,26.3354232 C78.3439059,27.1922675 77.8333143,27.7042842 77.0517965,27.7042842 C76.2702787,27.7042842 75.7701073,27.1922675 75.7701073,26.3354232 L75.7701073,21.4973877 L74.3216944,21.4973877 L74.3216944,26.3876698 C74.3216944,27.9655172 75.5304419,29 77.0517965,29 C78.5731511,29 79.7818986,27.9655172 79.7818986,26.3876698 L79.7818986,26.3876698 Z M90.4336967,28.9373041 L90.4336967,21.4973877 L89.0061242,21.4973877 L87.0783803,25.5203762 L85.1402162,21.4973877 L83.7126437,21.4973877 L83.7126437,28.9373041 L85.1610566,28.9373041 L85.1610566,24.6008359 L86.5886291,27.4221526 L87.5681314,27.4221526 L88.9852837,24.6008359 L88.9852837,28.9373041 L90.4336967,28.9373041 Z M95.9274773,28.9373041 L95.9274773,21.4973877 L94.4790643,21.4973877 L94.4790643,28.9373041 L95.9274773,28.9373041 Z M105.651874,28.9373041 L105.651874,21.4973877 L104.203461,21.4973877 L104.203461,26.0532915 L101.264954,21.4973877 L99.9728449,21.4973877 L99.9728449,28.9373041 L101.421258,28.9373041 L101.421258,24.3709509 L104.359765,28.9373041 L105.651874,28.9373041 Z M114.584333,28.9373041 L114.584333,27.6415883 L111.145655,27.6415883 L111.145655,25.8338558 L114.073741,25.8338558 L114.073741,24.53814 L111.145655,24.53814 L111.145655,22.7931034 L114.584333,22.7931034 L114.584333,21.4973877 L109.697242,21.4973877 L109.697242,28.9373041 L114.584333,28.9373041 Z M125.038147,28.9373041 L125.038147,21.4973877 L123.610574,21.4973877 L121.68283,25.5203762 L119.744666,21.4973877 L118.317094,21.4973877 L118.317094,28.9373041 L119.765507,28.9373041 L119.765507,24.6008359 L121.193079,27.4221526 L122.172581,27.4221526 L123.589734,24.6008359 L123.589734,28.9373041 L125.038147,28.9373041 Z M134.314473,25.2173459 C134.314473,23.7962382 134.293633,22.9602926 133.553796,22.2183908 C133.053625,21.7168234 132.42841,21.4346917 131.573951,21.4346917 C130.719491,21.4346917 130.083857,21.7168234 129.583686,22.2183908 C128.843849,22.9602926 128.833429,23.7962382 128.833429,25.2173459 C128.833429,26.6384535 128.843849,27.4743992 129.583686,28.2163009 C130.083857,28.7178683 130.719491,29 131.573951,29 C132.42841,29 133.053625,28.7178683 133.553796,28.2163009 C134.293633,27.4743992 134.314473,26.6384535 134.314473,25.2173459 L134.314473,25.2173459 Z M132.86606,25.2173459 C132.86606,26.6384535 132.772278,26.9832811 132.501352,27.2967607 C132.292947,27.5370951 131.96992,27.7042842 131.573951,27.7042842 C131.177982,27.7042842 130.854955,27.5370951 130.63613,27.2967607 C130.365203,26.9832811 130.281842,26.6384535 130.281842,25.2173459 C130.281842,23.7962382 130.365203,23.4409613 130.63613,23.1274817 C130.854955,22.8871473 131.177982,22.7304075 131.573951,22.7304075 C131.96992,22.7304075 132.292947,22.8871473 132.501352,23.1274817 C132.772278,23.4409613 132.86606,23.7962382 132.86606,25.2173459 L132.86606,25.2173459 Z M142.903064,26.7429467 C142.903064,26.0741902 142.72592,25.5412748 142.329951,25.1755486 C142.006924,24.862069 141.590114,24.6844305 140.912799,24.5903866 L140.027079,24.4545455 C139.714472,24.4127482 139.495647,24.308255 139.349763,24.1724138 C139.19346,24.0261233 139.141359,23.8380355 139.141359,23.6394984 C139.141359,23.1274817 139.506067,22.6990596 140.277165,22.6990596 C140.766916,22.6990596 141.340029,22.7617555 141.798519,23.2110763 L142.7155,22.3019854 C142.079866,21.6854754 141.340029,21.4346917 140.318846,21.4346917 C138.714129,21.4346917 137.734627,22.3646813 137.734627,23.691745 C137.734627,24.3187043 137.911771,24.8098224 138.266059,25.1546499 C138.599506,25.4785789 139.047577,25.677116 139.704052,25.7711599 L140.589772,25.907001 C140.9649,25.9592476 141.110784,26.0219436 141.256667,26.1577847 C141.41297,26.3145246 141.485912,26.523511 141.485912,26.7742947 C141.485912,27.369906 141.027422,27.7042842 140.162542,27.7042842 C139.485227,27.7042842 138.849592,27.5475444 138.380681,27.077325 L137.44286,28.0177638 C138.172277,28.7596656 139.026736,29 140.152122,29 C141.715157,29 142.903064,28.184953 142.903064,26.7429467 L142.903064,26.7429467 Z M157.047957,28.9373041 L154.338696,21.4973877 L153.20289,21.4973877 L150.504049,28.9373041 L152.014983,28.9373041 L152.463053,27.6206897 L155.099373,27.6206897 L155.537023,28.9373041 L157.047957,28.9373041 Z M154.713824,26.3981191 L152.869442,26.3981191 L153.807264,23.691745 L154.713824,26.3981191 Z M169.786119,22.7931034 L169.786119,21.4973877 L164.461377,21.4973877 L164.461377,22.7931034 L166.399541,22.7931034 L166.399541,28.9373041 L167.847954,28.9373041 L167.847954,22.7931034 L169.786119,22.7931034 Z M178.280927,28.9373041 L175.571666,21.4973877 L174.43586,21.4973877 L171.737019,28.9373041 L173.247953,28.9373041 L173.696023,27.6206897 L176.332343,27.6206897 L176.769993,28.9373041 L178.280927,28.9373041 Z M175.946794,26.3981191 L174.102412,26.3981191 L175.040234,23.691745 L175.946794,26.3981191 Z M182.96193,28.9373041 L182.96193,21.4973877 L181.513517,21.4973877 L181.513517,28.9373041 L182.96193,28.9373041 Z M195.322646,21.4973877 L193.811712,21.4973877 L192.655066,26.1891327 L191.300435,21.4973877 L190.21673,21.4973877 L188.862099,26.1891327 L187.715873,21.4973877 L186.204939,21.4973877 L188.184784,28.9373041 L189.393532,28.9373041 L190.758583,24.4231975 L192.123634,28.9373041 L193.332381,28.9373041 L195.322646,21.4973877 Z M204.088382,28.9373041 L201.37912,21.4973877 L200.243314,21.4973877 L197.544473,28.9373041 L199.055407,28.9373041 L199.503477,27.6206897 L202.139797,27.6206897 L202.577447,28.9373041 L204.088382,28.9373041 Z M201.754248,26.3981191 L199.909866,26.3981191 L200.847688,23.691745 L201.754248,26.3981191 Z M202.316941,19 L200.889369,19 L200.222474,20.7763845 L201.129034,20.7763845 L202.316941,19 Z M213,28.9373041 L213,21.4973877 L211.551587,21.4973877 L211.551587,26.0532915 L208.61308,21.4973877 L207.320971,21.4973877 L207.320971,28.9373041 L208.769384,28.9373041 L208.769384,24.3709509 L211.707891,28.9373041 L213,28.9373041 Z" id="ILUMINEMOS-A-TAIWÃN-Copy" fill="#000000" sketch:type="MSShapeGroup"></path>
        </g>
    </g>
</svg>