<?xml version="1.0" encoding="UTF-8" standalone="no"?>
<svg width="254px" height="146px" viewBox="0 0 254 146" version="1.1" xmlns="http://www.w3.org/2000/svg" xmlns:xlink="http://www.w3.org/1999/xlink" xmlns:sketch="http://www.bohemiancoding.com/sketch/ns">
    <!-- Generator: Sketch 3.4.4 (17249) - http://www.bohemiancoding.com/sketch -->
    <title>sign_logo</title>
    <desc>Created with Sketch.</desc>
    <defs></defs>
    <g id="Page-1" stroke="none" stroke-width="1" fill="none" fill-rule="evenodd" sketch:type="MSPage">
        <g id="sign_logo" sketch:type="MSArtboardGroup">
            <g id="light-up-taiwan" sketch:type="MSLayerGroup" transform="translate(77.250000, 109.151515)" fill="#000000">
                <path d="M6.085,10 L6.085,8.388 L1.886,8.388 L1.886,0.744 L0.079,0.744 L0.079,10 L6.085,10 Z M14.0038576,10 L14.0038576,0.744 L12.1968576,0.744 L12.1968576,10 L14.0038576,10 Z M27.3957151,6.204 L27.3957151,4.852 L23.8987151,4.852 L23.8987151,6.373 L25.6017151,6.373 L25.6017151,6.711 C25.6017151,7.192 25.4847151,7.608 25.1857151,7.946 C24.8997151,8.271 24.4577151,8.466 23.8987151,8.466 C23.4047151,8.466 23.0147151,8.284 22.7417151,7.985 C22.4037151,7.595 22.2997151,7.14 22.2997151,5.372 C22.2997151,3.604 22.4037151,3.162 22.7417151,2.772 C23.0147151,2.473 23.4047151,2.278 23.8987151,2.278 C24.8217151,2.278 25.3547151,2.746 25.5627151,3.63 L27.3827151,3.63 C27.1357151,2.07 26.0567151,0.666 23.8987151,0.666 C22.8457151,0.666 22.0657151,1.017 21.4287151,1.641 C20.5057151,2.564 20.4927151,3.604 20.4927151,5.372 C20.4927151,7.14 20.5057151,8.18 21.4287151,9.103 C22.0657151,9.727 22.8457151,10.078 23.8987151,10.078 C24.8867151,10.078 25.7447151,9.831 26.5117151,9.025 C27.1877151,8.323 27.3957151,7.543 27.3957151,6.204 L27.3957151,6.204 Z M40.6315727,10 L40.6315727,0.744 L38.8245727,0.744 L38.8245727,4.527 L35.6915727,4.527 L35.6915727,0.744 L33.8845727,0.744 L33.8845727,10 L35.6915727,10 L35.6915727,6.126 L38.8245727,6.126 L38.8245727,10 L40.6315727,10 Z M53.3864302,2.356 L53.3864302,0.744 L46.7434302,0.744 L46.7434302,2.356 L49.1614302,2.356 L49.1614302,10 L50.9684302,10 L50.9684302,2.356 L53.3864302,2.356 Z M73.8261453,6.828 L73.8261453,0.744 L72.0321453,0.744 L72.0321453,6.763 C72.0321453,7.829 71.3951453,8.466 70.4201453,8.466 C69.4451453,8.466 68.8211453,7.829 68.8211453,6.763 L68.8211453,0.744 L67.0141453,0.744 L67.0141453,6.828 C67.0141453,8.791 68.5221453,10.078 70.4201453,10.078 C72.3181453,10.078 73.8261453,8.791 73.8261453,6.828 L73.8261453,6.828 Z M87.1270029,3.63 C87.1270029,2.057 85.9960029,0.744 84.0720029,0.744 L80.4840029,0.744 L80.4840029,10 L82.2910029,10 L82.2910029,6.516 L84.0720029,6.516 C85.9960029,6.516 87.1270029,5.203 87.1270029,3.63 L87.1270029,3.63 Z M85.3200029,3.63 C85.3200029,4.384 84.8000029,4.891 83.9810029,4.891 L82.2910029,4.891 L82.2910029,2.356 L83.9810029,2.356 C84.8000029,2.356 85.3200029,2.876 85.3200029,3.63 L85.3200029,3.63 Z M106.903718,2.356 L106.903718,0.744 L100.260718,0.744 L100.260718,2.356 L102.678718,2.356 L102.678718,10 L104.485718,10 L104.485718,2.356 L106.903718,2.356 Z M119.255576,10 L115.875576,0.744 L114.458576,0.744 L111.091576,10 L112.976576,10 L113.535576,8.362 L116.824576,8.362 L117.370576,10 L119.255576,10 Z M116.343576,6.841 L114.042576,6.841 L115.212576,3.474 L116.343576,6.841 Z M126.849433,10 L126.849433,0.744 L125.042433,0.744 L125.042433,10 L126.849433,10 Z M144.024291,0.744 L142.139291,0.744 L140.696291,6.581 L139.006291,0.744 L137.654291,0.744 L135.964291,6.581 L134.534291,0.744 L132.649291,0.744 L135.119291,10 L136.627291,10 L138.330291,4.384 L140.033291,10 L141.541291,10 L144.024291,0.744 Z M156.714148,10 L153.334148,0.744 L151.917148,0.744 L148.550148,10 L150.435148,10 L150.994148,8.362 L154.283148,8.362 L154.829148,10 L156.714148,10 Z M153.802148,6.841 L151.501148,6.841 L152.671148,3.474 L153.802148,6.841 Z M169.586006,10 L169.586006,0.744 L167.779006,0.744 L167.779006,6.412 L164.113006,0.744 L162.501006,0.744 L162.501006,10 L164.308006,10 L164.308006,4.319 L167.974006,10 L169.586006,10 Z" id="LIGHT-UP-TAIWAN" sketch:type="MSShapeGroup"></path>
            </g>
            <g id="Logo" sketch:type="MSLayerGroup" transform="translate(6.000000, 91.000000)">
                <path d="M6.89880952,36.1214286 C6.98095238,36.2464286 7.05119048,36.375 7.13452381,36.497619 C7.59642857,37.177381 7.41904762,38.1035714 6.73928571,38.5642857 C6.48333333,38.7392857 6.19285714,38.8214286 5.9047619,38.8214286 C5.475,38.8214286 5.06071429,38.6285714 4.77142857,38.2809524 C6.5,40.8047619 8.66071429,42.9571429 11.1607143,44.6559524 C10.5214286,44.1845238 10.3547619,43.2940476 10.8047619,42.6297619 C11.0940476,42.2059524 11.5630952,41.977381 12.0392857,41.977381 C12.3261905,41.977381 12.6166667,42.0607143 12.872619,42.2357143 L13.0547619,42.3488095 C10.6071429,40.7297619 8.51666667,38.6214286 6.89880952,36.1214286" id="Fill-1" fill="#DDEF00" sketch:type="MSShapeGroup"></path>
                <path d="M27.2369048,1.58690476 C27.2059524,2.40714286 26.4940476,3.07142857 25.6940476,3.01785714 C25.5380952,3.01190476 25.3821429,3.01904762 25.2261905,3.01666667 C28.2119048,3.06071429 31.1154762,3.71666667 33.7928571,4.93690476 L33.5988095,4.84285714 C32.8464286,4.51071429 32.5059524,3.63214286 32.8380952,2.88095238 C33.1630952,2.14642857 34.0035714,1.81785714 34.7416667,2.10714286 C31.9595238,0.880952381 28.9702381,0.188095238 25.8952381,0.0654761905 C26.6702381,0.144047619 27.2666667,0.797619048 27.2369048,1.58690476" id="Fill-2" fill="#88C8AB" sketch:type="MSShapeGroup"></path>
                <path d="M22.5738095,47.3428571 C22.6035714,46.522619 23.2892857,45.847619 24.1166667,45.9119048 C24.2761905,45.9190476 24.4357143,45.9107143 24.5952381,45.9130952 C21.597619,45.8702381 18.6845238,45.2107143 16,43.9833333 L16.2119048,44.0869048 C16.9642857,44.4190476 17.3047619,45.2988095 16.972619,46.0488095 C16.7261905,46.6059524 16.1821429,46.9369048 15.6095238,46.9369048 C15.447619,46.9369048 15.2833333,46.9011905 15.1238095,46.8464286 C17.8904762,48.0583333 20.8607143,48.7428571 23.9154762,48.8642857 C23.1404762,48.7857143 22.5440476,48.1321429 22.5738095,47.3428571" id="Fill-3" fill="#88C8AB" sketch:type="MSShapeGroup"></path>
                <path d="M16.972619,46.0488095 C17.3047619,45.2988095 16.9642857,44.4190476 16.2119048,44.0869048 L16,43.9833333 C15.7190476,43.8547619 15.4428571,43.7190476 15.1678571,43.5785714 C14.9416667,43.4630952 14.7166667,43.3464286 14.4940476,43.2238095 C14.2880952,43.1095238 14.0857143,42.9892857 13.8833333,42.8678571 C13.6035714,42.7 13.3261905,42.5285714 13.0547619,42.3488095 L12.872619,42.2345238 C12.1940476,41.772619 11.2690476,41.95 10.8047619,42.6297619 C10.3547619,43.2940476 10.5202381,44.1845238 11.1607143,44.6559524 L11.4154762,44.8321429 C11.7214286,45.0357143 12.0333333,45.2261905 12.3464286,45.4142857 C12.5809524,45.5547619 12.8154762,45.6952381 13.0547619,45.827381 C13.3059524,45.9666667 13.5607143,46.097619 13.8142857,46.227381 C14.1285714,46.3869048 14.4440476,46.5440476 14.7666667,46.6916667 C14.8845238,46.7452381 15.0047619,46.7940476 15.1238095,46.8464286 C15.2833333,46.9011905 15.447619,46.9369048 15.6095238,46.9369048 C16.1821429,46.9369048 16.7261905,46.6059524 16.972619,46.0488095" id="Fill-4" fill="#B7DD0E" sketch:type="MSShapeGroup"></path>
                <path d="M6.73928571,10.3642857 C7.4202381,10.8261905 7.59642857,11.7511905 7.13452381,12.4309524 L7.01071429,12.6297619 C8.6297619,10.177381 10.7392857,8.08333333 13.2416667,6.46309524 C13.1190476,6.54166667 12.9928571,6.61190476 12.872619,6.69404762 C12.1940476,7.15714286 11.2666667,6.9797619 10.8047619,6.29880952 C10.3619048,5.6452381 10.5202381,4.775 11.1357143,4.29761905 C8.59285714,6.03095238 6.42619048,8.20238095 4.71666667,10.7166667 C5.18928571,10.0821429 6.0797619,9.91428571 6.73928571,10.3642857" id="Fill-5" fill="#88C8AB" sketch:type="MSShapeGroup"></path>
                <path d="M10.8047619,6.29880952 C11.2666667,6.9797619 12.1940476,7.15714286 12.872619,6.69404762 C12.9928571,6.61190476 13.1190476,6.54166667 13.2416667,6.46309524 L13.5333333,6.26428571 L13.8321429,6.09404762 C14.1035714,5.9297619 14.377381,5.77261905 14.6547619,5.6202381 C14.8428571,5.51785714 15.0321429,5.41904762 15.222619,5.32142857 C15.5011905,5.18095238 15.7821429,5.0452381 16.0654762,4.91666667 C16.2797619,4.8202381 16.4952381,4.72738095 16.7107143,4.63690476 C16.9666667,4.53095238 17.222619,4.4297619 17.4821429,4.33452381 C17.7440476,4.23809524 18.0071429,4.14642857 18.2714286,4.06071429 C18.4869048,3.99047619 18.702381,3.92380952 18.9190476,3.86071429 C19.2357143,3.76785714 19.5547619,3.68333333 19.875,3.60595238 C20.0464286,3.56547619 20.2190476,3.525 20.3928571,3.48809524 C20.7559524,3.41071429 21.1202381,3.34166667 21.4869048,3.28333333 C21.6309524,3.25952381 21.775,3.23809524 21.9202381,3.21785714 C22.3047619,3.16428571 22.6892857,3.12142857 23.077381,3.08928571 C23.225,3.07619048 23.3738095,3.06547619 23.522619,3.05595238 C23.8869048,3.03333333 24.252381,3.01904762 24.6190476,3.01547619 L24.9059524,3.0047619 C25.0130952,3.0047619 25.1190476,3.01547619 25.2261905,3.01666667 C25.3821429,3.01904762 25.5380952,3.01190476 25.6940476,3.01785714 C26.4940476,3.07142857 27.2059524,2.40714286 27.2369048,1.58690476 C27.2666667,0.797619048 26.6702381,0.144047619 25.8952381,0.0654761905 C25.7011905,0.0583333333 25.5071429,0.0476190476 25.3130952,0.044047619 C25.0428571,0.0392857143 24.772619,0.0392857143 24.502381,0.044047619 C24.1559524,0.0488095238 23.8095238,0.0619047619 23.4642857,0.0821428571 C23.2011905,0.0976190476 22.9392857,0.116666667 22.677381,0.14047619 C22.3428571,0.171428571 22.0095238,0.208333333 21.677381,0.252380952 C21.397619,0.289285714 21.1178571,0.330952381 20.8392857,0.378571429 C20.5369048,0.428571429 20.2357143,0.485714286 19.9369048,0.547619048 C19.6285714,0.611904762 19.322619,0.680952381 19.0178571,0.755952381 C18.7535714,0.821428571 18.4904762,0.892857143 18.227381,0.966666667 C17.8952381,1.06071429 17.5642857,1.16190476 17.2369048,1.27142857 C17.0047619,1.34761905 16.772619,1.42857143 16.5428571,1.51190476 C16.1988095,1.63809524 15.8559524,1.77142857 15.5154762,1.91309524 C15.302381,2.00238095 15.0892857,2.0952381 14.8785714,2.19047619 C14.5380952,2.34404762 14.2,2.50595238 13.8666667,2.675 C13.6559524,2.78214286 13.4464286,2.89166667 13.2380952,3.0047619 C12.9202381,3.17857143 12.6059524,3.35952381 12.2940476,3.54761905 C12.0690476,3.68333333 11.8464286,3.82261905 11.6261905,3.96547619 C11.4595238,4.07261905 11.2988095,4.18571429 11.1357143,4.29761905 C10.5202381,4.775 10.3619048,5.6452381 10.8047619,6.29880952" id="Fill-6" fill="#50B584" sketch:type="MSShapeGroup"></path>
                <path d="M43.9059524,38.8214286 C43.6178571,38.8214286 43.327381,38.7392857 43.0714286,38.5642857 C42.3916667,38.1035714 42.2142857,37.177381 42.6761905,36.497619 L42.7869048,36.3202381 C41.1678571,38.7654762 39.0607143,40.8535714 36.5619048,42.4702381 C36.6869048,42.3892857 36.8154762,42.3178571 36.9380952,42.2345238 C37.6190476,41.7761905 38.5428571,41.95 39.0059524,42.6297619 C39.4488095,43.2833333 39.2904762,44.1535714 38.675,44.6309524 C41.2095238,42.9035714 43.3714286,40.7404762 45.0785714,38.2380952 C44.7880952,38.6130952 44.3535714,38.8214286 43.9059524,38.8214286" id="Fill-7" fill="#89C693" sketch:type="MSShapeGroup"></path>
                <path d="M39.0059524,42.6297619 C38.5428571,41.95 37.6190476,41.7761905 36.9380952,42.2345238 C36.8154762,42.3178571 36.6869048,42.3892857 36.5619048,42.4702381 L36.2785714,42.6630952 L35.9880952,42.8297619 C35.7119048,42.9964286 35.4333333,43.1559524 35.152381,43.3107143 C34.9654762,43.4119048 34.777381,43.5107143 34.5892857,43.6071429 C34.3130952,43.7464286 34.0345238,43.8809524 33.7535714,44.0083333 C33.5321429,44.1095238 33.3095238,44.2059524 33.0845238,44.2988095 C32.8416667,44.3988095 32.597619,44.4952381 32.3511905,44.5869048 C32.0714286,44.6904762 31.7916667,44.7880952 31.5083333,44.8797619 C31.3154762,44.9428571 31.1214286,45.002381 30.9261905,45.0595238 C30.5845238,45.1607143 30.2416667,45.2511905 29.8952381,45.3345238 C29.75,45.3690476 29.6059524,45.402381 29.4607143,45.4333333 C29.0690476,45.5190476 28.6761905,45.5916667 28.2797619,45.6547619 C28.1654762,45.6738095 28.05,45.6904762 27.9345238,45.7071429 C27.525,45.7654762 27.1130952,45.8107143 26.6988095,45.8452381 C26.5738095,45.8547619 26.4488095,45.8642857 26.3238095,45.872619 C25.9416667,45.8964286 25.5595238,45.9107143 25.175,45.9154762 L24.9059524,45.925 L24.5952381,45.9130952 C24.4357143,45.9107143 24.2761905,45.9190476 24.1166667,45.9119048 C23.2892857,45.847619 22.6035714,46.522619 22.5738095,47.3428571 C22.5440476,48.1321429 23.1404762,48.7857143 23.9154762,48.8642857 C24.2464286,48.877381 24.575,48.9011905 24.9059524,48.9011905 C25.5202381,48.9011905 26.1321429,48.8785714 26.7392857,48.8333333 L26.7440476,48.8333333 C27.3285714,48.7892857 27.9083333,48.722619 28.4857143,48.6380952 C28.6369048,48.6166667 28.7857143,48.5833333 28.9357143,48.5583333 C29.3559524,48.4892857 29.7738095,48.4154762 30.1880952,48.3238095 C30.4214286,48.272619 30.652381,48.2083333 30.8845238,48.15 C31.2083333,48.0678571 31.5321429,47.9869048 31.8511905,47.8916667 C32.1333333,47.8083333 32.4119048,47.7130952 32.6916667,47.6190476 C32.9547619,47.5297619 33.2166667,47.4428571 33.4761905,47.3452381 C33.7845238,47.2297619 34.0880952,47.1035714 34.3904762,46.975 C34.6178571,46.8785714 34.8452381,46.7833333 35.0702381,46.6797619 C35.3821429,46.5369048 35.6904762,46.3833333 35.9964286,46.227381 C36.2107143,46.1178571 36.425,46.0071429 36.6369048,45.8904762 C36.9321429,45.7285714 37.222619,45.5595238 37.5119048,45.3845238 C37.7345238,45.25 37.9559524,45.1119048 38.1761905,44.9690476 C38.3452381,44.8595238 38.5095238,44.7440476 38.675,44.6309524 C39.2904762,44.1535714 39.4488095,43.2833333 39.0059524,42.6297619" id="Fill-8" fill="#53B475" sketch:type="MSShapeGroup"></path>
                <path d="M47.8416667,26.797619 L47.7845238,26.7964286 C46.9630952,26.7654762 46.3214286,26.0738095 46.3535714,25.2535714 C46.3595238,25.0940476 46.3511905,24.9345238 46.3535714,24.775 C46.3107143,27.7761905 45.65,30.6952381 44.4190476,33.3833333 L44.527381,33.1583333 C44.8619048,32.4059524 45.7392857,32.0666667 46.4904762,32.3988095 C47.2214286,32.7214286 47.5511905,33.5583333 47.2654762,34.2940476 C48.4892857,31.5154762 49.1809524,28.5321429 49.3047619,25.4619048 C49.2238095,26.2142857 48.6035714,26.797619 47.8416667,26.797619" id="Fill-9" fill="#89C693" sketch:type="MSShapeGroup"></path>
                <path d="M46.4904762,32.3988095 C45.7392857,32.0666667 44.8619048,32.4059524 44.527381,33.1583333 L44.4190476,33.3833333 C44.2940476,33.6547619 44.1619048,33.9214286 44.0261905,34.1880952 C43.9071429,34.422619 43.7869048,34.6559524 43.6595238,34.8845238 C43.5488095,35.0833333 43.4321429,35.2797619 43.3142857,35.4761905 C43.1440476,35.7619048 42.9702381,36.0440476 42.7869048,36.3202381 L42.6761905,36.497619 C42.2142857,37.177381 42.3916667,38.1035714 43.0714286,38.5642857 C43.327381,38.7392857 43.6178571,38.8214286 43.9059524,38.8214286 C44.3535714,38.8214286 44.7880952,38.6130952 45.0785714,38.2380952 L45.2690476,37.9595238 C45.477381,37.647619 45.672619,37.3285714 45.8654762,37.0083333 C45.9988095,36.7833333 46.1333333,36.5595238 46.2595238,36.3297619 C46.4071429,36.0654762 46.5452381,35.7964286 46.6821429,35.527381 C46.8321429,35.2309524 46.9809524,34.9333333 47.1202381,34.6297619 C47.1702381,34.5190476 47.2166667,34.4059524 47.2654762,34.2940476 C47.5511905,33.5583333 47.2214286,32.7214286 46.4904762,32.3988095" id="Fill-10" fill="#54B36C" sketch:type="MSShapeGroup"></path>
                <path d="M2.02619048,22.1333333 C2.84761905,22.1630952 3.48928571,22.8547619 3.45714286,23.675 C3.45119048,23.8345238 3.45952381,23.9928571 3.45714286,24.152381 C3.5,21.1619048 4.15714286,18.2547619 5.3797619,15.5738095 L5.28452381,15.7714286 C5.03809524,16.3285714 4.49404762,16.6583333 3.92142857,16.6583333 C3.7202381,16.6583333 3.51666667,16.6178571 3.32142857,16.5309524 C2.58928571,16.2071429 2.25833333,15.3654762 2.54880952,14.6285714 C1.32380952,17.4083333 0.630952381,20.3952381 0.507142857,23.4678571 C0.588095238,22.6964286 1.22857143,22.1011905 2.02619048,22.1333333" id="Fill-11" fill="#89C693" sketch:type="MSShapeGroup"></path>
                <path d="M5.9047619,38.8214286 C6.19285714,38.8214286 6.48333333,38.7392857 6.73928571,38.5642857 C7.4202381,38.1035714 7.59642857,37.177381 7.13452381,36.497619 C7.05119048,36.375 6.98095238,36.2452381 6.9,36.1214286 L6.70714286,35.8369048 L6.54047619,35.5488095 C6.37261905,35.2702381 6.21071429,34.9880952 6.05595238,34.7035714 C5.95833333,34.525 5.86428571,34.3452381 5.77261905,34.1654762 C5.62261905,33.8714286 5.48095238,33.575 5.3452381,33.275 C5.25952381,33.0845238 5.17738095,32.8940476 5.09642857,32.702381 C4.97738095,32.4142857 4.86309524,32.125 4.75595238,31.8321429 C4.67619048,31.6130952 4.6,31.3928571 4.52619048,31.172619 C4.43928571,30.9059524 4.35714286,30.6392857 4.2797619,30.3702381 C4.20595238,30.1119048 4.13690476,29.8535714 4.07380952,29.5940476 C4.01547619,29.3571429 3.96071429,29.1190476 3.91071429,28.8797619 C3.84880952,28.5833333 3.79285714,28.2845238 3.74285714,27.9857143 C3.70833333,27.7761905 3.67619048,27.5654762 3.64880952,27.3547619 C3.6047619,27.0285714 3.56785714,26.7011905 3.53928571,26.3738095 C3.52142857,26.1761905 3.50714286,25.9785714 3.49404762,25.7809524 C3.47380952,25.4464286 3.46190476,25.1119048 3.45714286,24.775 L3.44642857,24.4654762 L3.45714286,24.152381 C3.45952381,23.9928571 3.45119048,23.8345238 3.45714286,23.675 C3.48928571,22.8547619 2.84761905,22.1630952 2.02619048,22.1333333 C1.22857143,22.1011905 0.588095238,22.6964286 0.507142857,23.4678571 C0.498809524,23.6761905 0.486904762,23.8833333 0.483333333,24.0916667 C0.479761905,24.3392857 0.479761905,24.5857143 0.483333333,24.8309524 C0.489285714,25.2059524 0.502380952,25.5797619 0.525,25.952381 C0.539285714,26.1845238 0.555952381,26.4154762 0.576190476,26.6452381 C0.60952381,27.0154762 0.65,27.3845238 0.7,27.7511905 C0.732142857,27.9916667 0.767857143,28.2321429 0.808333333,28.472619 C0.86547619,28.8166667 0.929761905,29.1595238 1.00119048,29.5 C1.05714286,29.7642857 1.11666667,30.0285714 1.18095238,30.2916667 C1.25595238,30.597619 1.33690476,30.9011905 1.42380952,31.2035714 C1.50833333,31.4988095 1.59880952,31.7928571 1.6952381,32.0845238 C1.78095238,32.3488095 1.87261905,32.6107143 1.96904762,32.8714286 C2.08690476,33.1916667 2.21071429,33.5095238 2.34166667,33.8261905 C2.43809524,34.0571429 2.53809524,34.2857143 2.64166667,34.5142857 C2.79047619,34.8452381 2.94761905,35.172619 3.11190476,35.4964286 C3.22142857,35.7107143 3.33214286,35.922619 3.44761905,36.1345238 C3.62142857,36.4535714 3.80357143,36.7690476 3.99285714,37.0821429 C4.12619048,37.302381 4.26190476,37.5202381 4.40238095,37.7369048 C4.52142857,37.9214286 4.64761905,38.1 4.77142857,38.2809524 C5.06071429,38.6285714 5.47619048,38.8214286 5.9047619,38.8214286" id="Fill-12" fill="#81C063" sketch:type="MSShapeGroup"></path>
                <path d="M3.32142857,16.5309524 C3.51666667,16.6178571 3.7202381,16.6583333 3.92142857,16.6583333 C4.49404762,16.6583333 5.03809524,16.3285714 5.28452381,15.7714286 L5.3797619,15.5738095 C5.51428571,15.2809524 5.65714286,14.9916667 5.80357143,14.7035714 C5.91190476,14.4904762 6.02142857,14.2785714 6.13690476,14.0702381 C6.25952381,13.8511905 6.38690476,13.6345238 6.51666667,13.4190476 C6.67738095,13.152381 6.84047619,12.8880952 7.01071429,12.6297619 L7.13452381,12.4309524 C7.59642857,11.7511905 7.4202381,10.8261905 6.73928571,10.3642857 C6.0797619,9.91428571 5.18928571,10.0821429 4.71666667,10.7166667 L4.52738095,10.9916667 C4.33214286,11.2857143 4.14880952,11.5857143 3.96785714,11.8857143 C3.82142857,12.1309524 3.675,12.375 3.53690476,12.625 C3.40238095,12.8678571 3.27619048,13.1142857 3.15,13.3607143 C2.98690476,13.6809524 2.82738095,14.002381 2.67738095,14.3309524 L2.54880952,14.6285714 C2.25833333,15.3654762 2.58928571,16.2071429 3.32142857,16.5309524" id="Fill-13" fill="#53B475" sketch:type="MSShapeGroup"></path>
                <path d="M39.0059524,6.29880952 C38.7190476,6.72142857 38.25,6.95119048 37.7738095,6.95119048 C37.4845238,6.95119048 37.1940476,6.86785714 36.9380952,6.69404762 L36.7404762,6.5702381 C39.1928571,8.18809524 41.2857143,10.2988095 42.9071429,12.8 C42.827381,12.6785714 42.7583333,12.5511905 42.6761905,12.4309524 C42.2142857,11.7511905 42.3916667,10.8261905 43.0714286,10.3642857 C43.725,9.9202381 44.5964286,10.0797619 45.072619,10.6952381 C43.3380952,8.15238095 41.1678571,5.98571429 38.6535714,4.27619048 C39.2904762,4.74880952 39.4547619,5.63690476 39.0059524,6.29880952" id="Fill-14" fill="#89C693" sketch:type="MSShapeGroup"></path>
                <path d="M32.8380952,2.88095238 C32.5059524,3.63214286 32.8464286,4.51071429 33.5988095,4.84285714 L33.7928571,4.93690476 C34.0880952,5.07261905 34.3797619,5.21547619 34.6690476,5.36428571 C34.8809524,5.47261905 35.0916667,5.58095238 35.2988095,5.6952381 C35.5190476,5.81785714 35.7345238,5.94642857 35.9511905,6.07619048 C36.2178571,6.23571429 36.4821429,6.39880952 36.7404762,6.5702381 L36.9380952,6.69404762 C37.1940476,6.86785714 37.4845238,6.95119048 37.7738095,6.95119048 C38.25,6.95119048 38.7190476,6.72142857 39.0059524,6.29880952 C39.4547619,5.63690476 39.2904762,4.74880952 38.6535714,4.27619048 L38.3785714,4.08571429 C38.0845238,3.89166667 37.7845238,3.70833333 37.4833333,3.52619048 C37.2392857,3.3797619 36.9940476,3.23333333 36.7440476,3.0952381 C36.5011905,2.96071429 36.2559524,2.83452381 36.0095238,2.70952381 C35.6892857,2.5452381 35.3666667,2.38571429 35.0380952,2.23690476 L34.7416667,2.10714286 C34.0035714,1.81785714 33.1630952,2.14642857 32.8380952,2.88095238" id="Fill-15" fill="#53B475" sketch:type="MSShapeGroup"></path>
                <path d="M43.0714286,10.3642857 C42.3916667,10.8261905 42.2142857,11.7511905 42.6761905,12.4309524 C42.7583333,12.5511905 42.827381,12.6785714 42.9071429,12.8 L43.1047619,13.0928571 L43.275,13.3892857 C43.4404762,13.6630952 43.6,13.9404762 43.752381,14.2202381 C43.8511905,14.402381 43.947619,14.5857143 44.0416667,14.7702381 C44.1892857,15.0595238 44.3297619,15.352381 44.4630952,15.647619 C44.5511905,15.8428571 44.6357143,16.0392857 44.7178571,16.2369048 C44.8357143,16.5178571 44.9464286,16.8011905 45.0511905,17.0869048 C45.1345238,17.3130952 45.2130952,17.5404762 45.2880952,17.7702381 C45.372619,18.027381 45.452381,18.2857143 45.527381,18.5452381 C45.6047619,18.8130952 45.675,19.0821429 45.7416667,19.352381 C45.797619,19.5785714 45.8488095,19.8047619 45.8964286,20.0333333 C45.9619048,20.3404762 46.0190476,20.65 46.0714286,20.9595238 C46.1035714,21.1595238 46.1333333,21.3595238 46.1607143,21.5607143 C46.2059524,21.8952381 46.2440476,22.2321429 46.2738095,22.5702381 C46.2904762,22.7583333 46.3035714,22.9464286 46.3154762,23.1357143 C46.3369048,23.477381 46.3488095,23.8178571 46.3535714,24.1607143 L46.3642857,24.4654762 L46.3535714,24.775 C46.3511905,24.9345238 46.3595238,25.0940476 46.3535714,25.2535714 C46.3214286,26.0738095 46.9630952,26.7654762 47.7845238,26.7964286 L47.8416667,26.797619 C48.6035714,26.797619 49.2238095,26.2142857 49.3047619,25.4619048 C49.3130952,25.2535714 49.3238095,25.0464286 49.327381,24.8380952 C49.3309524,24.5904762 49.3309524,24.3440476 49.327381,24.0988095 C49.3214286,23.722619 49.3083333,23.347619 49.2857143,22.9738095 C49.272619,22.7452381 49.2547619,22.5166667 49.2345238,22.2880952 C49.202381,21.9142857 49.1607143,21.5428571 49.1107143,21.172619 C49.0785714,20.9345238 49.0428571,20.6988095 49.0035714,20.4630952 C48.9464286,20.1142857 48.8809524,19.7678571 48.8083333,19.422619 C48.7535714,19.1619048 48.6952381,18.902381 48.6321429,18.6440476 C48.5559524,18.3345238 48.472619,18.025 48.3845238,17.7178571 C48.3011905,17.4285714 48.2130952,17.1392857 48.1190476,16.852381 C48.0309524,16.5833333 47.9369048,16.3154762 47.8392857,16.0488095 C47.7238095,15.7345238 47.6011905,15.4214286 47.472619,15.1119048 C47.3738095,14.875 47.272619,14.6404762 47.1666667,14.4059524 C47.0190476,14.0821429 46.8654762,13.7607143 46.7035714,13.4416667 C46.5916667,13.2214286 46.477381,13.0035714 46.3583333,12.7857143 C46.1880952,12.472619 46.0095238,12.1630952 45.8238095,11.8559524 C45.6880952,11.6297619 45.547619,11.4059524 45.4047619,11.1845238 C45.2964286,11.0190476 45.1833333,10.8571429 45.072619,10.6952381 C44.5964286,10.0797619 43.725,9.9202381 43.0714286,10.3642857" id="Fill-16" fill="#54B36C" sketch:type="MSShapeGroup"></path>
            </g>
            <g id="sign" sketch:type="MSLayerGroup" transform="translate(112.000000, 13.000000)" fill="#1A1918">
                <path d="M106.575,11.248 C106.622,11.258 106.669,11.267 106.716,11.276 C106.785,11.297 106.814,11.286 106.884,11.248 C107.034,11.143 107.049,10.909 107.08,10.688 C107.18,10.617 107.181,10.586 107.36,10.576 C107.627,10.831 107.83,11.25 108.117,11.473 C108.959,12.124 109.945,12.639 110.191,13.883 C110.372,14.799 110.19,16.465 109.966,17.106 C109.873,17.274 109.78,17.442 109.686,17.61 L109.686,18.143 C109.59,18.503 109.399,19.114 109.21,19.488 C109.035,19.834 108.19,21.062 108.481,21.506 C108.5,21.524 108.519,21.543 108.537,21.562 C109.1,21.743 109.732,20.408 109.939,19.992 C110.217,19.432 110.707,18.836 110.975,18.227 C111.272,17.553 111.344,16.895 111.564,16.153 C111.639,16.05 111.714,15.947 111.788,15.845 C111.807,15.434 111.826,15.022 111.844,14.611 C111.807,14.331 111.77,14.051 111.732,13.771 C111.753,13.657 111.83,13.453 111.788,13.266 C111.683,12.798 111.464,12.09 111.2,11.725 C111.032,11.566 110.863,11.407 110.695,11.248 C110.529,11.025 110.444,10.737 110.219,10.576 C109.891,10.341 109.52,10.227 109.182,9.987 C108.307,9.368 108.096,9.025 106.8,8.726 C106.69,8.869 106.518,8.978 106.323,9.034 C106.224,9.723 106.512,9.873 106.575,10.352 C106.621,10.69 106.475,10.954 106.575,11.248" id="Fill-1" sketch:type="MSShapeGroup"></path>
                <path d="M133.872,52.082 C133.097,52.169 132.127,51.957 131.434,51.941 C129.577,51.899 127.668,51.813 126.109,51.465 C125.764,51.446 125.418,51.428 125.072,51.409 C122.582,50.757 120.41,49.469 118.542,48.186 C117.337,47.448 116.132,46.71 114.927,45.972 C113.977,45.28 113.077,44.388 112.153,43.646 C111.377,43.023 108.834,40.982 108.621,40.059 C108.366,38.951 109.316,38.107 109.63,37.312 C109.821,36.829 110.011,36.33 110.219,35.883 C110.541,35.19 110.633,34.517 110.947,33.781 C111.09,33.447 111.411,33.177 111.536,32.8 C112.227,30.712 113.024,28.931 113.806,26.971 C114.026,26.419 114.102,25.826 114.395,25.345 C114.703,24.934 115.011,24.523 115.319,24.112 C115.499,23.818 115.608,23.494 115.88,23.299 C116.927,22.55 118.138,21.873 119.383,21.338 C120.065,21.044 120.69,20.889 121.317,20.553 C121.683,20.356 122.815,19.874 122.466,19.208 C122.345,18.937 122.026,18.777 121.625,18.787 C121.418,18.909 121.115,18.848 120.841,18.927 C120.672,19.021 120.504,19.114 120.336,19.208 C119.99,19.282 119.645,19.357 119.299,19.432 C118.852,19.573 118.309,19.944 117.87,20.132 C117.674,20.161 117.477,20.189 117.281,20.216 C116.721,20.497 116.16,20.777 115.6,21.057 C114.847,21.386 114.248,21.576 113.442,21.87 C112.242,22.308 111.034,23.041 109.939,23.58 C108.996,24.043 108.142,24.372 107.164,24.785 C106.781,25.018 106.398,25.252 106.015,25.485 C105.735,25.579 105.454,25.672 105.174,25.766 C104.847,25.952 104.52,26.139 104.193,26.326 C103.95,26.419 103.707,26.513 103.465,26.606 C102.771,26.93 101.966,27.411 101.251,27.699 C100.343,28.065 99.525,28.669 98.644,28.961 C98.087,29.145 97.592,29.222 97.131,29.493 C96.72,29.745 96.309,29.998 95.898,30.25 C95.36,30.522 94.407,30.54 93.992,30.95 C93.895,31.427 94.176,31.892 94.552,31.959 C94.758,31.931 94.964,31.903 95.169,31.875 C95.393,31.894 95.617,31.913 95.842,31.931 C96.173,31.864 96.305,31.629 96.57,31.511 C97.383,31.15 98.107,30.91 98.952,30.558 C99.158,30.427 99.363,30.296 99.569,30.166 C100.101,29.96 100.634,29.755 101.167,29.549 C101.353,29.428 101.54,29.306 101.727,29.185 C102.976,28.67 104.119,28.22 105.37,27.671 C105.697,27.457 106.024,27.242 106.351,27.027 C106.848,26.822 107.345,26.749 107.78,26.466 C107.939,26.335 108.098,26.205 108.257,26.074 C108.416,26.036 108.575,25.999 108.733,25.962 C109.276,25.658 109.923,25.441 110.527,25.121 C110.733,24.981 110.938,24.841 111.144,24.701 C111.321,24.654 111.499,24.607 111.676,24.56 C111.872,24.411 112.069,24.262 112.265,24.112 C112.423,24.093 112.582,24.075 112.741,24.056 C113.045,23.949 113.036,23.709 113.526,23.72 L113.554,23.72 C113.582,23.757 113.61,23.794 113.638,23.832 C113.596,24.185 113.314,24.361 113.161,24.617 C112.616,25.528 112.104,26.547 111.704,27.559 C111.676,27.746 111.648,27.933 111.62,28.12 C111.471,28.4 111.321,28.68 111.172,28.961 C111.153,29.129 111.134,29.297 111.116,29.465 C110.976,29.698 110.835,29.932 110.695,30.166 C110.232,31.209 109.96,32.227 109.546,33.276 C108.899,34.919 107.909,36.504 107.416,38.265 C107.323,38.302 107.229,38.34 107.136,38.377 C106.885,38.181 106.828,37.874 106.632,37.62 C106.501,37.536 106.37,37.452 106.239,37.368 C105.959,36.939 105.679,36.509 105.398,36.079 C105.184,35.883 104.969,35.687 104.754,35.491 C104.285,34.826 103.73,34.44 103.156,33.893 C102.976,33.721 101.763,32.644 101.447,32.856 C101.349,32.922 101.364,33.084 101.363,33.248 C101.354,34.152 101.735,34.373 102.147,34.902 C103.223,36.284 104.215,37.811 105.258,39.218 C105.496,39.538 106.392,39.957 106.267,40.563 C106.136,40.815 106.006,41.068 105.875,41.32 C105.39,42.237 104.874,43.046 104.389,43.926 C104.352,44.066 104.315,44.207 104.277,44.347 C103.925,44.982 103.371,45.508 102.96,46.084 C102.704,46.444 102.567,46.82 102.316,47.177 C101.729,48.009 100.986,48.755 100.382,49.559 C100.081,49.961 99.822,50.35 99.513,50.736 C99.242,50.998 98.971,51.26 98.7,51.521 C98.401,51.857 98.102,52.194 97.803,52.53 C97.579,52.698 97.355,52.866 97.131,53.035 C97.093,53.025 97.056,53.016 97.019,53.006 C96.445,52.721 96.745,51.517 96.15,51.213 C96.004,51.352 96.088,51.49 96.038,51.745 C95.87,52.599 95.833,54.038 96.626,54.296 C97.561,54.6 98.726,53.575 99.233,53.175 C99.692,52.812 100.104,52.267 100.466,51.801 C100.755,51.512 101.045,51.222 101.335,50.933 C101.899,50.229 102.394,49.508 102.932,48.775 C103.156,48.569 103.381,48.364 103.605,48.158 C103.782,47.859 103.96,47.56 104.137,47.261 C104.455,46.86 104.772,46.458 105.09,46.056 C105.739,45.059 106.165,44.059 106.772,43.029 C106.893,42.908 107.015,42.787 107.136,42.665 C107.271,42.464 107.259,42.241 107.416,42.077 L107.5,42.077 C107.814,42.248 107.905,42.619 108.145,42.861 C108.341,43.011 108.537,43.16 108.733,43.31 C109.394,43.824 109.916,44.589 110.583,45.103 C111.032,45.402 111.48,45.701 111.928,46 C112.537,46.462 112.937,47.164 113.582,47.598 C114.273,48.018 114.965,48.438 115.656,48.859 C115.978,48.991 116.201,48.984 116.469,49.139 C116.744,49.299 116.894,49.608 117.141,49.784 C117.523,50.054 117.997,50.136 118.402,50.4 C119.199,50.919 120.091,51.698 121.037,52.026 C121.28,52.072 121.523,52.119 121.765,52.166 C122.559,52.524 123.521,53.058 124.372,53.315 L125.577,53.315 C125.915,53.412 126.394,53.656 126.782,53.735 C127.056,53.791 127.221,53.581 127.455,53.567 C127.688,53.642 127.922,53.717 128.155,53.791 C128.66,53.81 129.164,53.829 129.669,53.847 C129.883,53.819 130.098,53.791 130.313,53.763 C130.444,53.838 130.575,53.913 130.706,53.987 C131.004,53.931 131.303,53.875 131.602,53.819 C132.185,53.943 133.076,54.075 133.844,53.959 C135.011,53.784 135.634,54.947 136.142,53.651 C136.616,52.446 135.073,51.946 133.872,52.082" id="Fill-2" sketch:type="MSShapeGroup"></path>
                <path d="M10.027,17.358 C10.719,17.165 11.81,16.628 12.605,16.629 C13.096,17.123 12.825,17.836 13.026,18.675 C13.202,19.407 13.528,20.35 14.035,20.777 C14.62,21.27 15.913,20.713 16.109,20.273 C16.31,19.82 16.178,19.317 16.417,18.955 C16.595,18.686 16.965,18.597 17.09,18.255 C17.193,17.97 17.132,17.589 17.062,17.358 C16.682,17.1 16.175,17.571 15.997,17.918 C15.795,18.311 16.04,18.734 15.604,18.955 C15.539,18.965 15.473,18.974 15.408,18.983 C15.231,18.787 15.035,18.517 14.96,18.227 C14.988,18.068 15.016,17.909 15.044,17.75 C14.974,17.346 14.715,16.26 15.016,15.817 C15.231,15.499 15.629,15.583 16.053,15.452 C16.529,15.237 17.005,15.022 17.482,14.807 C17.771,14.733 18.061,14.658 18.351,14.583 C20.496,13.713 22.685,12.739 24.965,12.005 C25.427,11.856 25.912,11.511 26.338,11.36 C26.497,11.332 26.656,11.304 26.814,11.276 C26.973,11.206 27.01,11.084 27.235,11.052 C27.36,11.113 27.521,11.179 27.459,11.416 C27.31,11.603 27.16,11.79 27.011,11.977 C26.671,12.514 26.509,13.135 26.198,13.659 C25.799,14.33 25.487,15.048 25.105,15.76 C24.993,15.854 24.881,15.947 24.768,16.041 C24.759,16.134 24.75,16.228 24.741,16.321 C24.526,16.601 24.311,16.882 24.096,17.162 C23.712,17.756 23.469,18.312 23.087,18.927 C22.716,19.525 22.284,20.217 21.854,20.805 C21.611,21.104 21.368,21.403 21.125,21.702 L21.125,21.926 C21.185,22.034 21.266,22.07 21.377,22.122 C21.954,22.063 23.633,19.962 24.012,19.46 C24.273,19.198 24.535,18.937 24.797,18.675 C25.03,18.292 25.264,17.909 25.497,17.526 C25.861,17.019 26.445,16.615 26.814,16.125 C27.336,15.434 27.809,14.626 28.272,13.911 C28.997,12.79 29.559,11.597 30.346,10.576 C30.582,10.269 30.622,9.824 30.962,9.623 C31.196,9.548 31.429,9.473 31.663,9.399 C32.643,8.987 33.697,8.774 34.774,8.39 C35.857,8.004 37.109,7.53 38.193,7.185 C38.445,7.166 38.697,7.147 38.949,7.129 C39.87,6.832 41.82,6.486 42.201,5.727 C42.28,5.522 42.158,5.429 42.088,5.307 C41.702,4.628 41.046,4.346 39.958,4.606 C38.741,4.898 37.403,5.331 36.231,5.699 C35.579,5.904 34.883,5.756 34.297,6.035 C33.928,6.212 33.616,6.481 33.288,6.68 C32.868,6.848 32.448,7.016 32.027,7.185 C31.829,7.175 31.751,7.131 31.663,7.016 C31.622,6.734 31.802,6.6 31.859,6.372 C31.735,5.985 32.151,4.328 32.251,3.765 C32.489,2.434 31.305,0.759 30.57,0.402 C30.118,0.183 29.389,0.163 28.832,0.122 C27.791,0.693 26.658,1.116 26.674,2.728 C26.712,2.738 26.749,2.747 26.786,2.757 C27.074,2.587 27.46,2.372 27.823,2.28 C27.954,2.271 28.085,2.261 28.216,2.252 C28.565,2.101 28.809,1.742 29.197,1.579 C29.978,1.644 30.321,2.605 30.15,3.625 C30.017,4.413 29.945,5.442 29.617,6.12 C29.542,6.194 29.468,6.269 29.393,6.344 C29.365,6.587 29.337,6.83 29.309,7.073 C29.223,7.341 29.073,7.78 28.916,8.053 C28.586,8.629 26.474,9.22 25.721,9.483 C25.301,9.688 24.881,9.894 24.46,10.099 C23.75,10.342 23.04,10.585 22.33,10.828 C21.975,11.015 21.62,11.202 21.265,11.388 C20.798,11.557 20.331,11.725 19.864,11.893 C19.603,12.042 19.341,12.192 19.079,12.341 C18.883,12.379 18.687,12.416 18.491,12.453 C18.02,12.692 15.174,13.851 14.735,13.771 C14.262,12.944 14.391,10.83 14.427,9.735 L14.427,7.745 L14.427,6.288 C14.357,6.068 14.157,5.901 14.231,5.587 C14.355,5.313 14.614,5.232 14.763,4.999 C14.65,4.808 13.669,4.182 13.334,4.326 C12.781,4.537 12.866,5.505 12.746,6.232 C12.441,8.078 12.181,10.314 12.521,12.173 C12.627,12.749 12.729,14.159 12.437,14.527 C12.145,14.896 11.59,14.857 11.12,15.06 C9.851,15.609 6.757,16.212 4.926,15.929 C3.881,15.767 2.845,15.936 2.376,15.228 C2.105,14.819 2.782,14.603 2.825,14.135 C2.638,14.004 2.451,13.873 2.264,13.743 C1.807,13.577 0.573,13.841 0.414,14.107 C-0.005,14.81 0.658,16.164 0.919,16.517 C2.293,18.382 7.489,18.066 10.027,17.358" id="Fill-3" sketch:type="MSShapeGroup"></path>
                <path d="M45.452,38.181 C45.187,37.103 43.201,36.106 42.341,35.491 C41.17,34.654 39.961,33.85 38.781,32.996 C38.265,32.622 37.885,31.955 37.408,31.623 C36.721,31.144 36.031,30.308 35.698,29.493 C35.217,28.312 37.286,28.093 37.941,27.699 C39.981,26.475 42.293,24.533 43.181,22.178 C43.526,21.264 42.578,19.927 42.144,19.628 C41.902,19.404 41.659,19.18 41.416,18.955 C40.281,18.213 37.669,17.698 35.923,17.722 C35.452,18.001 34.714,17.748 34.101,17.918 C32.481,18.369 31.325,19.24 29.981,19.88 C29.658,20.034 28.835,20.266 28.636,20.497 C28.405,20.766 28.173,21.565 28.104,21.926 L28.104,22.543 C28.02,22.871 27.587,22.933 27.683,23.355 C27.73,23.402 27.777,23.449 27.823,23.496 L28.104,23.496 C28.407,23.352 28.466,22.982 28.72,22.823 C28.921,22.698 29.218,22.759 29.393,22.627 C29.834,22.292 30.019,21.674 30.514,21.366 C33.422,19.55 38.918,18.673 41.276,21.59 C40.957,23.343 37.879,25.626 36.483,26.466 C35.827,26.862 34.318,27.547 34.045,28.232 C33.604,29.337 34.908,31.173 35.306,31.763 C35.698,32.333 36.091,32.903 36.483,33.473 C38.1,34.735 39.926,35.793 41.528,37.06 C42.048,37.471 43.387,38.117 43.658,38.629 C43.577,39.626 41.94,39.562 41.051,39.694 C41.033,39.732 41.014,39.769 40.995,39.806 C40.954,39.936 41.035,40.044 41.079,40.171 C42.39,40.985 44.215,39.596 45.171,39.33 C45.22,38.936 45.569,38.661 45.452,38.181" id="Fill-4" sketch:type="MSShapeGroup"></path>
                <path d="M16.921,36.023 C17.198,35.298 17.589,34.503 17.79,33.725 C17.907,33.272 17.867,32.813 17.846,32.352 L17.846,31.034 C17.581,29.644 16.325,28.05 15.1,27.643 C15.072,27.606 15.044,27.569 15.016,27.531 C15.065,27.21 15.3,27.165 15.436,26.943 C15.604,26.569 15.772,26.195 15.94,25.822 C16.141,25.515 16.562,25.208 16.669,24.813 C16.745,24.534 16.439,23.667 16.613,23.187 C16.718,22.899 16.995,22.83 16.949,22.403 C16.768,22.278 16.425,22.254 16.109,22.262 C15.667,22.598 15.698,23.1 15.436,23.636 C14.777,24.985 13.703,26.189 12.998,27.559 C12.731,28.079 11.843,28.237 11.344,28.54 C10.582,29.004 9.843,29.59 9.242,30.222 C9.186,30.343 9.13,30.465 9.074,30.586 C8.884,30.811 8.278,30.913 8.037,31.203 C7.798,31.49 7.405,32.319 7.617,32.828 C7.766,33.015 7.916,33.202 8.065,33.389 C8.131,33.594 8.196,33.8 8.261,34.005 C8.672,34.572 9.324,33.916 9.943,34.117 C10.186,34.239 10.429,34.36 10.672,34.482 C11.017,34.575 11.363,34.668 11.709,34.762 C12.357,35.016 13.088,35.471 13.726,35.743 C14.058,35.884 14.28,35.88 14.483,36.135 C14.664,36.909 14.097,37.552 13.783,38.041 C13.599,38.327 13.061,39.352 12.802,39.47 C12.624,39.508 12.447,39.545 12.269,39.582 C12.008,39.461 11.746,39.339 11.484,39.218 C11.27,39.209 11.055,39.199 10.84,39.19 C10.718,39.115 10.597,39.04 10.476,38.966 C9.443,38.435 8.273,38.196 7.168,37.761 C6.796,37.614 6.545,37.232 6.132,37.144 C5.755,37.064 5.565,37.388 5.319,37.48 C5.02,38.177 5.948,38.514 6.216,38.854 C6.692,39.458 7.139,39.754 7.925,40.059 C8.103,40.096 8.28,40.133 8.458,40.171 C8.703,40.285 9.059,40.547 9.298,40.619 L10.083,40.619 C10.279,40.759 10.476,40.899 10.672,41.04 C10.83,41.002 10.989,40.965 11.148,40.928 C11.316,40.965 11.484,41.002 11.653,41.04 C11.681,41.077 11.709,41.114 11.737,41.152 C11.669,41.487 10.871,42.235 10.644,42.553 C10.126,43.277 9.522,43.762 8.906,44.375 C8.148,45.13 7.407,46.12 6.3,46.505 C5.96,46.622 5.345,46.774 4.898,46.673 C4.482,46.578 4.328,46.197 3.805,46.28 C3.193,47.411 5.232,48.165 6.328,47.906 C7.462,47.638 8.452,46.985 9.27,46.364 C9.791,45.97 10.111,45.254 10.924,45.159 C11.186,44.409 11.663,44.031 12.269,43.618 C12.628,43.374 12.937,42.874 13.194,42.525 C13.569,42.017 13.908,41.473 14.287,40.956 C14.492,40.741 14.698,40.526 14.903,40.311 C15.062,39.909 15.221,39.508 15.38,39.106 C15.75,38.507 16.39,37.945 16.641,37.256 C16.734,36.845 16.828,36.434 16.921,36.023 L16.921,36.023 Z M15.997,32.632 C15.879,33.319 15.89,34.227 15.352,34.482 C15.286,34.491 15.221,34.5 15.156,34.51 C14.798,34.177 14.311,33.69 13.783,33.557 L13.026,33.557 C12.866,33.492 12.733,33.322 12.493,33.276 C11.822,33.149 10.86,33.218 10.588,32.716 C10.42,32.252 11.256,31.737 11.512,31.539 C12.033,31.137 12.346,30.643 12.746,30.11 C12.89,29.917 13.155,29.907 13.362,29.773 C13.689,29.474 14.016,29.175 14.343,28.876 C15.821,28.98 16.276,31.003 15.997,32.632 L15.997,32.632 Z" id="Fill-5" sketch:type="MSShapeGroup"></path>
                <path d="M38.669,57.995 C37.856,57.349 37.193,56.515 36.343,55.893 C35.488,55.268 34.513,54.873 33.569,54.324 C33.41,54.174 33.251,54.025 33.092,53.875 C32.468,53.443 31.155,52.841 30.822,52.194 C30.651,51.861 30.932,50.79 31.018,50.288 C31.174,49.384 31.285,48.432 31.467,47.626 C31.485,47.364 31.504,47.102 31.523,46.841 C31.713,46.183 32.022,45.55 31.999,44.795 C31.981,44.194 32.585,43.243 31.999,42.833 C30.953,42.102 29.886,43.672 29.197,43.534 C29.112,43.48 29.15,43.529 29.112,43.422 C29.562,42.838 30.433,42.093 31.018,41.628 C31.285,41.417 31.374,41.092 31.579,40.815 C31.784,40.629 31.99,40.442 32.195,40.255 C32.353,40.04 32.37,39.803 32.504,39.554 C32.625,39.442 32.746,39.33 32.868,39.218 C33.234,38.693 33.677,38.188 33.933,37.592 C34.123,37.151 33.931,36.653 33.821,36.303 C33.802,36.06 33.784,35.817 33.765,35.575 C33.556,34.959 32.013,34.437 31.046,34.453 C30.735,34.6 30.35,34.487 29.981,34.538 C29.574,34.594 29.24,34.691 28.776,34.818 C27.492,35.169 26.227,35.769 25.021,36.247 C24.302,36.462 23.582,36.677 22.863,36.892 C22.536,37.079 22.209,37.266 21.882,37.452 C21.527,37.583 21.172,37.714 20.817,37.845 C20.621,38.013 20.424,38.181 20.228,38.349 C19.415,38.874 18.463,38.755 18.098,39.75 C18.147,40.235 18.883,40.92 19.556,40.591 C19.817,40.386 20.079,40.18 20.341,39.975 C20.537,39.918 20.733,39.863 20.929,39.806 C21.004,39.676 21.078,39.545 21.153,39.414 C21.387,39.377 21.62,39.339 21.854,39.302 C21.975,39.171 22.097,39.04 22.218,38.91 C22.489,38.835 22.76,38.76 23.031,38.685 C23.293,38.527 23.554,38.368 23.816,38.209 C24.049,38.19 24.283,38.172 24.516,38.153 C24.647,38.022 24.778,37.891 24.909,37.761 C25.18,37.742 25.451,37.723 25.721,37.705 C25.899,37.611 26.076,37.518 26.254,37.424 C26.469,37.415 26.684,37.406 26.899,37.396 C26.983,37.322 27.067,37.247 27.151,37.172 C27.45,37.079 27.749,36.985 28.047,36.892 C28.267,36.826 28.56,36.955 28.776,36.864 C28.916,36.742 29.056,36.621 29.197,36.499 C30.082,36.624 30.759,36.455 31.495,36.051 C31.925,36.097 32.14,36.383 32.336,36.668 C32.22,37.699 31.392,38.236 30.934,38.938 C30.66,39.358 30.478,39.787 30.178,40.171 C30.019,40.311 29.86,40.451 29.701,40.591 C27.154,43.943 23.928,46.628 20.453,49.055 C19.926,49.423 19.441,49.745 18.911,50.12 C18.556,50.447 18.201,50.774 17.846,51.101 C17.465,51.369 17.182,51.53 16.893,51.886 C16.628,52.212 15.825,52.565 16.165,53.287 C16.317,53.611 16.872,53.62 17.174,53.427 C17.954,52.927 18.736,52.323 19.5,51.773 C20.309,51.191 21.015,50.507 21.826,49.952 C22.405,49.578 22.984,49.204 23.563,48.831 C23.694,48.7 23.825,48.569 23.956,48.438 C24.171,48.326 24.386,48.214 24.6,48.102 C24.684,47.981 24.769,47.859 24.853,47.738 C26.379,46.66 28.118,45.922 29.813,45.019 C29.879,45.029 29.944,45.038 30.009,45.047 C30.028,45.075 30.047,45.103 30.065,45.131 C30.164,45.704 29.763,46.325 29.617,46.869 C29.317,47.981 29.214,49.331 28.944,50.512 C28.807,51.117 28.888,52.259 28.272,52.306 C27.71,51.738 28.082,51.003 27.235,50.484 C26.44,49.998 25.3,50.715 25.189,51.241 C25.236,51.437 25.282,51.633 25.329,51.829 C25.385,51.867 25.441,51.904 25.497,51.941 C25.822,51.919 26.02,51.775 26.198,51.605 L26.31,51.605 C26.963,52.475 25.759,54.128 25.385,54.856 C25.002,55.65 24.619,56.444 24.236,57.238 C23.136,59.09 21.371,61.231 19.612,62.423 C19.099,62.374 19.027,62.039 18.491,62.031 C18.472,62.04 18.453,62.05 18.435,62.059 C18.107,63.313 19.147,63.908 20.284,63.572 C21.153,63.316 21.95,62.558 22.611,62.031 C22.76,61.835 22.909,61.638 23.059,61.442 C23.227,61.265 23.451,61.262 23.648,61.106 C23.871,60.929 23.905,60.622 24.068,60.377 C24.351,59.952 24.788,59.624 25.077,59.228 C25.273,58.959 25.314,58.663 25.497,58.359 C25.647,58.247 25.796,58.135 25.946,58.023 C26.228,57.596 26.273,57.107 26.534,56.65 C26.665,56.482 26.796,56.314 26.927,56.145 C26.955,55.987 26.983,55.828 27.011,55.669 C27.136,55.368 27.433,55.103 27.571,54.744 C27.8,54.15 27.902,53.567 28.216,53.063 C28.413,53.109 28.511,53.229 28.608,53.371 C28.738,54.095 28.609,55.162 28.468,55.697 C28.487,55.912 28.505,56.127 28.524,56.342 C28.477,56.725 28.431,57.108 28.384,57.491 C28.319,58.901 28.253,60.312 28.188,61.723 C28.206,62.124 28.225,62.526 28.244,62.928 C28.281,63.89 28.319,64.852 28.356,65.814 C28.531,66.907 28.691,68.324 28.496,69.486 C28.436,69.842 28.527,70.123 28.58,70.41 C28.735,71.251 28.543,72.34 28.412,72.989 C28.293,73.581 28.584,74.015 27.879,74.026 C27.478,73.68 27.076,73.334 26.674,72.989 C26.238,72.331 26.157,71.557 25.834,70.775 C25.3,69.487 24.824,67.859 24.404,66.459 C24.339,66.029 24.273,65.599 24.208,65.17 C24.013,64.313 23.793,63.163 23.535,62.395 C23.479,62.367 23.423,62.339 23.367,62.311 L23.339,62.311 C23.059,62.811 23.352,64.188 23.479,64.749 C23.489,65.058 23.498,65.366 23.507,65.674 C24.358,68.888 24.475,72.626 26.534,74.614 C26.912,74.979 27.29,75.609 27.823,75.791 C28.216,75.819 28.608,75.847 29,75.875 C29.265,75.91 29.549,75.967 29.757,75.819 C30.117,75.564 30.494,73.46 30.374,72.737 C30.316,72.391 30.22,71.888 30.29,71.447 C30.992,67.023 29.694,62.791 30.514,58.331 C30.486,58.135 30.458,57.939 30.43,57.743 C30.467,57.537 30.504,57.332 30.542,57.126 C30.705,56.19 30.196,54.805 30.85,54.352 C31.126,54.39 32.404,55.481 32.7,55.697 C34.073,56.701 35.809,57.392 36.876,58.696 C37.062,58.901 37.249,59.107 37.436,59.312 C37.902,60.039 38.017,60.939 39.062,61.078 C40.365,60.506 39.449,58.614 38.669,57.995" id="Fill-6" sketch:type="MSShapeGroup"></path>
                <path d="M55.373,26.242 C55.569,26.158 55.765,26.074 55.961,25.99 L57.25,25.99 C57.877,25.888 58.444,25.777 58.988,25.682 L59.969,25.682 C60.333,25.588 60.698,25.495 61.062,25.401 C61.267,25.392 61.473,25.383 61.678,25.373 C61.744,25.299 61.809,25.224 61.875,25.149 C62.005,25.168 62.136,25.186 62.267,25.205 C62.875,25.316 63.294,25.223 63.64,24.953 C63.663,24.935 64.691,23.526 64.705,23.496 C64.789,23.253 64.873,23.01 64.957,22.767 C65.254,22.287 65.789,21.993 66.022,21.422 C66.123,21.175 65.977,20.938 66.05,20.637 C66.125,20.478 66.2,20.319 66.275,20.161 C66.466,20.084 66.663,20.169 66.891,20.104 C67.059,19.983 67.227,19.862 67.396,19.74 C67.809,19.517 68.107,19.513 68.629,19.348 C68.843,19.18 69.058,19.011 69.273,18.843 C69.479,18.853 69.684,18.862 69.89,18.871 C70.738,18.606 70.972,17.815 72.188,17.834 C72.508,18.162 71.376,20.987 71.151,21.534 C71.058,21.907 70.964,22.281 70.871,22.655 C70.787,22.841 70.703,23.028 70.619,23.215 L70.619,23.608 C70.469,23.822 70.32,24.037 70.17,24.252 C70.011,24.617 69.853,24.981 69.694,25.345 C68.888,27.586 67.864,29.831 65.434,30.474 C65.415,30.567 65.396,30.661 65.378,30.754 C65.96,31.053 66.93,30.67 67.312,30.446 C68.973,29.468 69.484,28.273 70.506,26.69 C71.333,25.41 71.967,24.05 72.524,22.487 C72.704,21.982 73.134,21.545 73.309,21.029 C73.374,20.712 73.44,20.394 73.505,20.076 C73.608,19.936 73.711,19.796 73.813,19.656 C74.01,19.096 74.206,18.535 74.402,17.974 C74.579,17.76 74.757,17.545 74.935,17.33 C75.054,17.143 75.041,16.896 75.215,16.769 C75.573,16.509 76.034,16.409 76.42,16.181 C76.569,16.069 76.719,15.957 76.868,15.845 C77.183,15.753 77.364,16.005 77.681,15.901 C77.821,15.798 77.961,15.695 78.101,15.592 C78.681,15.375 79.069,15.382 79.755,15.256 C80.169,15.18 80.244,14.807 80.596,14.724 C80.865,14.659 81.019,14.832 81.24,14.864 C81.957,14.495 81.828,12.86 80.708,13.07 C79.457,13.305 78.285,13.736 77.036,14.051 C76.738,14.126 76.444,14.525 75.999,14.359 C75.915,14.303 75.831,14.247 75.747,14.191 C75.789,13.858 75.986,13.517 76.083,13.238 C76.14,12.874 76.196,12.509 76.252,12.145 C76.463,11.462 76.779,10.717 76.924,10.015 C76.906,9.819 76.887,9.623 76.868,9.427 C76.999,9.174 77.13,8.922 77.261,8.67 L77.261,8.025 C77.33,7.631 77.503,7.167 77.569,6.82 C77.541,6.661 77.513,6.503 77.485,6.344 C77.514,6.155 77.607,5.742 77.653,5.447 C77.91,3.804 77.421,0.975 76.224,0.795 C75.722,0.979 75.343,1 75.467,1.776 C75.486,1.962 75.504,2.149 75.523,2.336 C75.476,2.498 75.364,2.528 75.355,2.785 C75.504,2.897 75.654,3.009 75.803,3.121 C75.943,3.834 75.66,5.134 75.523,5.783 C75.514,6.25 75.504,6.718 75.495,7.185 C75.402,7.409 75.308,7.633 75.215,7.857 C74.963,8.705 74.993,9.484 74.738,10.352 C74.541,11.024 74.259,11.857 74.094,12.509 C73.876,13.371 73.714,15.122 73.113,15.536 C72.707,15.816 72.182,15.823 71.684,16.013 C70.871,16.321 70.082,16.657 69.245,16.994 C69.04,17.124 68.834,17.255 68.629,17.386 C68.073,17.604 67.655,17.697 67.171,17.974 C67.031,18.077 66.891,18.18 66.751,18.283 C65.295,18.878 63.864,19.52 62.491,20.189 C62.379,20.17 62.267,20.151 62.155,20.132 C61.765,19.546 61.943,18.857 61.762,18.031 C61.542,17.021 61.441,15.881 61.174,14.892 C61.091,14.586 61.186,14.198 61.09,13.827 C61.032,13.602 60.802,13.503 60.866,13.21 L60.866,13.154 C61.047,13.056 61.273,13.117 61.482,13.07 C62.12,11.886 59.806,10.671 59.408,12.117 L59.408,13.406 C59.39,14.032 59.371,14.658 59.352,15.284 C59.475,16.009 59.725,16.73 59.857,17.358 C59.875,17.797 59.894,18.236 59.913,18.675 C60.021,19.071 60.469,20.789 60.305,21.113 C60.104,21.511 59.405,21.676 59.016,21.898 C58.287,22.328 57.559,22.758 56.83,23.187 C56.597,23.346 56.359,23.651 56.129,23.776 C55.933,23.813 55.737,23.851 55.541,23.888 C55.25,24.011 55.132,24.308 54.896,24.476 C54.264,24.927 53.88,24.721 54.055,25.878 C54.368,26.032 54.83,26.359 55.373,26.242 L55.373,26.242 Z M62.687,21.926 C62.687,21.926 64.216,21.151 64.257,21.141 C64.623,21.053 64.801,21.176 65.013,20.973 C65.041,20.992 65.069,21.011 65.098,21.029 L65.098,21.085 C64.423,21.932 64.289,23.025 63.192,23.468 C62.543,23.408 62.313,22.405 62.687,21.926 L62.687,21.926 Z M58.147,24.757 C58.709,23.988 58.647,23.914 59.773,23.692 C59.819,23.552 59.866,23.411 59.913,23.271 C60.031,23.068 60.318,22.991 60.501,22.851 L60.641,22.851 L60.641,22.879 C61.004,23.19 60.973,23.66 61.23,24.084 C61.417,24.289 61.604,24.495 61.79,24.701 C61.772,24.775 61.753,24.85 61.734,24.925 C61.417,24.971 61.099,25.018 60.781,25.065 C60.554,25.022 60.437,24.801 60.137,24.841 C59.589,24.914 58.818,25.1 58.231,24.925 C58.203,24.878 58.175,24.831 58.147,24.785 L58.147,24.757 L58.147,24.757 Z" id="Fill-7" sketch:type="MSShapeGroup"></path>
                <path d="M63.612,30.698 C63.575,30.773 63.537,30.848 63.5,30.922 L63.5,31.062 C63.528,31.109 63.556,31.156 63.584,31.203 L63.696,31.203 C63.743,31.147 63.79,31.091 63.836,31.034 C63.871,30.947 63.855,30.908 63.808,30.838 C63.754,30.743 63.726,30.733 63.612,30.698" id="Fill-8" sketch:type="MSShapeGroup"></path>
                <path d="M78.242,43.057 C78.886,42.805 79.531,42.553 80.175,42.301 C80.591,42.2 80.937,42.221 81.268,42.021 C81.432,41.921 81.613,41.64 81.549,41.32 C81.391,40.534 80.525,40.45 79.699,40.703 C79.185,40.918 78.671,41.133 78.157,41.348 C76.799,41.74 75.331,41.551 74.234,41.012 C73.873,40.834 73.519,40.774 73.281,40.479 L73.281,40.451 C73.794,39.763 74.108,39.036 74.514,38.209 C74.71,37.929 74.906,37.648 75.103,37.368 C75.924,35.982 76.718,34.345 77.233,32.716 C77.765,31.03 77.248,28.996 75.355,28.989 C75.103,29.007 74.85,29.026 74.598,29.045 C74.355,29.147 74.112,29.25 73.87,29.353 C73.683,29.381 73.496,29.409 73.309,29.437 C71.447,30.056 68.462,32.013 67.367,33.417 C67.237,33.501 67.106,33.585 66.975,33.669 C66.027,34.788 65.096,35.835 64.229,37.06 C63.948,37.457 63.764,38.303 63.36,38.573 C63.041,38.237 63.135,37.399 63.024,36.864 C62.94,36.621 62.855,36.378 62.771,36.135 C62.781,35.845 62.79,35.556 62.799,35.266 C62.762,34.921 62.725,34.575 62.687,34.229 C62.697,34.033 62.706,33.837 62.715,33.641 C62.593,33.156 62.512,32.414 62.491,31.763 C62.691,31.562 62.905,31.435 63.024,31.147 C62.957,30.342 61.961,29.755 61.426,30.53 C61.156,30.921 61.153,31.791 61.062,32.324 L61.062,33.893 C60.97,35.413 61.132,36.828 61.342,38.209 C61.379,39.162 61.417,40.115 61.454,41.068 C61.435,41.348 61.417,41.628 61.398,41.908 C61.463,42.31 61.529,42.712 61.594,43.113 C61.78,44.308 61.505,46.627 63.108,46.196 C63.348,46.085 63.579,45.789 63.696,45.552 C63.667,45.029 63.359,44.62 63.472,43.954 C63.701,42.604 63.82,41.249 64.257,40.087 C65.455,36.897 67.863,34.348 70.619,32.688 C71.854,31.944 73.478,30.782 75.411,30.81 C75.928,31.615 75.082,32.494 74.85,33.136 C74.584,33.876 74.132,34.573 73.841,35.238 C73.31,36.454 72.58,38.393 71.656,39.19 C71.48,39.16 69.696,37.496 69.582,37.312 C69.342,36.929 69.229,36.635 68.797,36.443 C67.743,36.47 67.838,37.722 67.592,38.601 C67.279,39.718 66.945,41.176 66.723,42.385 C66.531,43.427 66.648,44.781 66.218,45.58 C65.874,46.22 64.893,46.751 64.313,47.177 C63.207,47.99 61.994,48.828 60.697,49.447 C59.488,50.026 58.173,50.567 57.138,51.353 C56.694,51.69 54.214,52.62 54.84,53.511 C55.409,54.321 56.852,53.194 57.306,53.035 C57.465,53.016 57.624,52.997 57.783,52.978 C59.032,52.422 60.343,51.638 61.454,50.933 C62.087,50.53 62.801,50.254 63.416,49.84 C63.775,49.598 65.033,48.742 65.462,48.943 C65.591,49.691 64.896,51.141 64.761,51.801 C64.513,53.017 64.142,53.946 63.808,55.024 C63.79,55.239 63.771,55.454 63.752,55.669 C63.363,57.09 62.992,58.649 62.407,59.873 C62.203,60.3 62.195,60.743 61.987,61.134 C61.837,61.311 61.688,61.489 61.538,61.666 C61.058,62.437 61.456,63.139 61.903,63.516 C63.142,63.329 63.855,61.057 64.285,59.957 C64.512,59.375 64.907,58.682 65.098,58.079 C65.21,57.556 65.322,57.033 65.434,56.51 C65.682,55.683 66.042,54.649 66.359,53.847 C66.396,53.595 66.433,53.343 66.471,53.091 C66.536,53.025 66.602,52.96 66.667,52.894 C66.686,52.558 66.704,52.222 66.723,51.886 C66.863,51.661 67.003,51.437 67.143,51.213 C67.162,50.979 67.181,50.746 67.199,50.512 C67.422,49.609 67.769,47.842 68.292,47.289 C68.435,47.139 68.672,47.219 68.881,47.121 C69.529,46.818 70.233,46.506 70.927,46.168 C73.254,45.037 75.698,43.939 78.242,43.057 L78.242,43.057 Z M68.769,43.057 C68.731,43.067 68.694,43.076 68.657,43.085 C68.529,43.005 68.447,42.948 68.405,42.777 C68.358,42.533 68.707,42.263 68.769,41.992 C69.001,40.982 68.666,39.463 69.385,38.854 L69.582,38.854 C69.874,39.132 70.839,39.999 70.871,40.423 C70.321,41.001 69.381,42.756 68.769,43.057 L68.769,43.057 Z M69.329,45.075 C69.426,44.617 69.757,44.48 70.03,44.207 C70.462,43.772 70.745,43.274 71.123,42.777 C71.31,42.618 71.497,42.46 71.684,42.301 C71.96,41.924 71.922,41.753 72.356,41.516 C72.784,41.519 74.743,42.481 74.71,42.693 C74.628,42.826 73.58,43.227 73.365,43.31 C72.01,43.828 70.85,44.646 69.357,45.103 C69.348,45.094 69.339,45.085 69.329,45.075 L69.329,45.075 Z" id="Fill-9" sketch:type="MSShapeGroup"></path>
                <path d="M84.519,64.385 C84.417,63.953 84.114,63.718 83.959,63.376 C83.94,63.217 83.921,63.058 83.903,62.9 C83.819,62.663 83.445,62.295 83.23,62.171 C83.002,62.216 82.944,62.366 82.726,62.451 C81.99,61.878 81.46,60.998 80.876,60.265 C80.54,59.957 80.203,59.649 79.867,59.34 C79.027,58.137 77.913,57.147 76.812,56.201 C76.691,56.024 76.569,55.846 76.448,55.669 C76.167,55.299 75.778,54.978 75.411,54.688 C74.964,54.335 74.7,53.819 74.346,53.371 C73.591,52.416 72.289,52.06 70.675,52.026 C70.6,52.082 70.525,52.138 70.45,52.194 C70.38,52.267 70.37,52.296 70.366,52.446 C70.944,53.048 72.081,53.084 72.608,53.735 C72.995,54.213 73.49,54.613 73.87,55.08 C74.421,55.79 74.972,56.5 75.523,57.21 C75.922,57.662 76.49,57.997 76.868,58.472 C77.927,59.8 78.952,61.125 80.119,62.339 C80.878,63.128 82.255,65.46 83.342,65.702 C83.956,65.839 84.682,65.072 84.519,64.385" id="Fill-10" sketch:type="MSShapeGroup"></path>
            </g>
        </g>
    </g>
</svg>