<?xml version="1.0" encoding="UTF-8" standalone="no"?>
<svg width="100px" height="327px" viewBox="0 0 100 327" version="1.1" xmlns="http://www.w3.org/2000/svg" xmlns:xlink="http://www.w3.org/1999/xlink" xmlns:sketch="http://www.bohemiancoding.com/sketch/ns">
    <!-- Generator: Sketch 3.4.4 (17249) - http://www.bohemiancoding.com/sketch -->
    <title>vlogo</title>
    <desc>Created with Sketch.</desc>
    <defs></defs>
    <g id="Page-1" stroke="none" stroke-width="1" fill="none" fill-rule="evenodd" sketch:type="MSPage">
        <g id="vlogo" sketch:type="MSLayerGroup">
            <g id="直" sketch:type="MSShapeGroup">
                <g id="一般">
                    <g id="直">
                        <g id="LIGHT-UP-TAIWAN" transform="translate(6.000000, 194.594752)" fill="#1A1918">
                            <path d="M1.64,11.268758 L1.64,0.852478134 L3.668,0.852478134 L3.668,9.45448397 L8.379,9.45448397 L8.379,11.268758 L1.64,11.268758" id="Fill-1"></path>
                            <path d="M15.891,0.852478134 L17.919,0.852478134 L17.919,11.268758 L15.891,11.268758 L15.891,0.852478134 L15.891,0.852478134 Z" id="Fill-2"></path>
                            <path d="M32.607,10.1715685 C31.775,11.0350787 30.783,11.3570146 29.675,11.3570146 C28.537,11.3570146 27.604,10.9468222 26.874,10.2156968 C25.824,9.16263557 25.853,7.8598484 25.853,6.06162099 C25.853,4.26138776 25.824,2.9596035 26.874,1.90553936 C27.604,1.17441399 28.508,0.76522449 29.675,0.76522449 C32.082,0.76522449 33.307,2.34481633 33.584,4.09991837 L31.542,4.09991837 C31.309,3.12006997 30.71,2.57849563 29.675,2.57849563 C29.121,2.57849563 28.668,2.79813411 28.376,3.1351137 C27.983,3.57439067 27.881,4.056793 27.881,6.06162099 C27.881,8.06444315 27.983,8.56289213 28.376,9.00116618 C28.668,9.33814577 29.121,9.54274052 29.675,9.54274052 C30.288,9.54274052 30.783,9.32410496 31.119,8.9570379 C31.455,8.57693294 31.586,8.10957434 31.586,7.56699708 L31.586,7.17285131 L29.675,7.17285131 L29.675,5.47591837 L33.599,5.47591837 L33.599,6.99734111 C33.599,8.50372012 33.336,9.4113586 32.607,10.1715685" id="Fill-3"></path>
                            <path d="M47.062,11.268758 L47.062,6.90908455 L43.546,6.90908455 L43.546,11.268758 L41.519,11.268758 L41.519,0.852478134 L43.546,0.852478134 L43.546,5.10985423 L47.062,5.10985423 L47.062,0.852478134 L49.089,0.852478134 L49.089,11.268758 L47.062,11.268758" id="Fill-4"></path>
                            <path d="M61.342,2.66675219 L61.342,11.268758 L59.314,11.268758 L59.314,2.66675219 L56.601,2.66675219 L56.601,0.852478134 L64.054,0.852478134 L64.054,2.66675219 L61.342,2.66675219" id="Fill-5"></path>
                            <path d="M5.302,37.0858076 C3.172,37.0858076 1.479,35.6375977 1.479,33.4281749 L1.479,26.5812711 L3.507,26.5812711 L3.507,33.3549621 C3.507,34.554449 4.208,35.2715335 5.302,35.2715335 C6.396,35.2715335 7.11,34.554449 7.11,33.3549621 L7.11,26.5812711 L9.124,26.5812711 L9.124,33.4281749 C9.124,35.6375977 7.431,37.0858076 5.302,37.0858076" id="Fill-6"></path>
                            <path d="M21.273,33.0771545 L19.275,33.0771545 L19.275,36.997551 L17.247,36.997551 L17.247,26.5812711 L21.273,26.5812711 C23.418,26.5812711 24.701,28.0595685 24.701,29.8287114 C24.701,31.5988571 23.418,33.0771545 21.273,33.0771545 L21.273,33.0771545 L21.273,33.0771545 Z M21.171,28.3955452 L19.275,28.3955452 L19.275,31.2478367 L21.171,31.2478367 C22.09,31.2478367 22.674,30.6771778 22.674,29.8287114 C22.674,28.9812478 22.09,28.3955452 21.171,28.3955452 L21.171,28.3955452 L21.171,28.3955452 Z" id="Fill-7"></path>
                            <path d="M5.608,54.1253411 L5.608,62.7273469 L3.58,62.7273469 L3.58,54.1253411 L0.867,54.1253411 L0.867,52.3110671 L8.321,52.3110671 L8.321,54.1253411 L5.608,54.1253411" id="Fill-8"></path>
                            <path d="M20.864,62.7273469 L20.252,60.8839883 L16.561,60.8839883 L15.934,62.7273469 L13.819,62.7273469 L17.597,52.3110671 L19.187,52.3110671 L22.98,62.7273469 L20.864,62.7273469 L20.864,62.7273469 L20.864,62.7273469 Z M18.443,55.3829971 L17.13,59.1720117 L19.712,59.1720117 L18.443,55.3829971 L18.443,55.3829971 L18.443,55.3829971 Z" id="Fill-9"></path>
                            <path d="M30.855,52.3110671 L32.883,52.3110671 L32.883,62.7273469 L30.855,62.7273469 L30.855,52.3110671 L30.855,52.3110671 Z" id="Fill-10"></path>
                            <path d="M50.532,62.7273469 L48.84,62.7273469 L46.929,56.4079767 L45.019,62.7273469 L43.326,62.7273469 L40.554,52.3110671 L42.67,52.3110671 L44.274,58.8791603 L46.171,52.3110671 L47.688,52.3110671 L49.584,58.8791603 L51.203,52.3110671 L53.319,52.3110671 L50.532,62.7273469" id="Fill-11"></path>
                            <path d="M66.152,62.7273469 L65.54,60.8839883 L61.849,60.8839883 L61.222,62.7273469 L59.107,62.7273469 L62.885,52.3110671 L64.475,52.3110671 L68.268,62.7273469 L66.152,62.7273469 L66.152,62.7273469 L66.152,62.7273469 Z M63.731,55.3829971 L62.418,59.1720117 L65,59.1720117 L63.731,55.3829971 L63.731,55.3829971 L63.731,55.3829971 Z" id="Fill-12"></path>
                            <path d="M81.555,62.7273469 L77.442,56.3337609 L77.442,62.7273469 L75.414,62.7273469 L75.414,52.3110671 L77.223,52.3110671 L81.336,58.6896093 L81.336,52.3110671 L83.364,52.3110671 L83.364,62.7273469 L81.555,62.7273469" id="Fill-13"></path>
                        </g>
                        <g id="點亮台灣" transform="translate(5.000000, 125.393586)" fill="#1A1918">
                            <path d="M1.059,11.1524198 L1.161,11.9467289 L9.473,10.8716035 L9.371,10.0772945 L5.937,10.521586 L5.937,9.04228571 L9.279,9.04228571 L9.279,8.24095627 L5.937,8.24095627 L5.937,6.64030321 L9.13,6.64030321 L9.13,0.985865889 L1.945,0.985865889 L1.945,6.64030321 L5.138,6.64030321 L5.138,8.24095627 L1.796,8.24095627 L1.796,9.04228571 L5.138,9.04228571 L5.138,10.6248863 L1.059,11.1524198 L1.059,11.1524198 L1.059,11.1524198 Z M5.937,1.78619242 L8.332,1.78619242 L8.332,5.83897376 L5.937,5.83897376 L5.937,1.78619242 L5.937,1.78619242 Z M2.744,1.78619242 L5.139,1.78619242 L5.139,5.83897376 L2.744,5.83897376 L2.744,1.78619242 L2.744,1.78619242 Z" id="Fill-14"></path>
                            <path d="M3.909,2.67979009 L3.165,2.96862974 L3.93,4.94738192 L4.675,4.65753936 L3.909,2.67979009" id="Fill-15"></path>
                            <path d="M7.144,4.94738192 L7.909,2.96862974 L7.165,2.67979009 L6.4,4.65753936 L7.144,4.94738192" id="Fill-16"></path>
                            <path d="M0.873,16.2943673 L1.561,16.6985423 C2.575,14.9645015 2.749,13.0830321 2.75,13.0649796 L1.954,13.0017959 C1.953,13.0178426 1.782,14.7388455 0.873,16.2943673" id="Fill-17"></path>
                            <path d="M3.985,13.1943557 C4.209,13.9585773 4.377,15.0828455 4.448,16.2783207 L5.245,16.2301808 C5.171,14.9775394 4.991,13.7890845 4.752,12.9697026 L3.985,13.1943557" id="Fill-18"></path>
                            <path d="M6.077,12.9596735 C6.337,13.7409446 6.568,14.9013178 6.678,15.9874752 L7.472,15.9062391 C7.354,14.7488746 7.115,13.5523965 6.834,12.7059359 L6.077,12.9596735" id="Fill-19"></path>
                            <path d="M8.231,12.6196851 C8.462,13.2846181 8.759,14.2083032 9.003,15.4729796 L9.787,15.3205364 C9.532,14.0057143 9.225,13.0459242 8.985,12.3559184 L8.231,12.6196851" id="Fill-20"></path>
                            <path d="M16.267,4.51311953 L16.267,3.712793 L13.274,3.712793 L13.274,0.935720117 L12.476,0.935720117 L12.476,9.01721283 L10.663,9.01721283 L10.663,15.0958834 L15.893,15.0958834 L15.893,9.01721283 L13.274,9.01721283 L13.274,4.51311953 L16.267,4.51311953 L16.267,4.51311953 L16.267,4.51311953 Z M11.461,9.81753936 L15.095,9.81753936 L15.095,14.2955569 L11.461,14.2955569 L11.461,9.81753936 L11.461,9.81753936 Z" id="Fill-21"></path>
                            <path d="M34.57,1.87846064 L28.607,1.87846064 L28.607,0.0351020408 L27.809,0.0351020408 L27.809,1.87846064 L21.846,1.87846064 L21.846,2.67979009 L34.57,2.67979009 L34.57,1.87846064" id="Fill-22"></path>
                            <path d="M24.814,7.21597668 L31.683,7.21597668 L31.683,3.83013411 L24.814,3.83013411 L24.814,7.21597668 L24.814,7.21597668 Z M25.612,4.63046064 L30.884,4.63046064 L30.884,6.41464723 L25.612,6.41464723 L25.612,4.63046064 L25.612,4.63046064 Z" id="Fill-23"></path>
                            <path d="M22.115,9.31307289 L34.478,9.31307289 L34.478,10.9448163 L35.277,10.9448163 L35.277,8.51274636 L21.317,8.51274636 L21.317,10.9448163 L22.115,10.9448163 L22.115,9.31307289" id="Fill-24"></path>
                            <path d="M20.802,15.7909038 L20.979,16.571172 C26.028,15.4188222 26.648,11.861481 26.681,10.3841866 L25.882,10.367137 C25.847,11.9677901 25.141,14.8010262 20.802,15.7909038" id="Fill-25"></path>
                            <path d="M35.151,13.7489679 L34.765,14.7960117 C34.711,14.9394286 34.572,15.0367114 34.419,15.0367114 L30.844,15.0367114 C30.604,15.0367114 30.408,14.839137 30.408,14.5974344 L30.408,10.3270204 L29.61,10.3270204 L29.61,14.5974344 C29.61,15.2804198 30.164,15.8370379 30.844,15.8370379 L34.419,15.8370379 C34.902,15.8370379 35.341,15.5321516 35.512,15.0758251 L35.899,14.0267755 L35.151,13.7489679" id="Fill-26"></path>
                            <path d="M14.733,32.8324431 C13.509,30.9399417 12.057,29.0524548 11.361,28.3203265 L10.783,28.8739359 C11.085,29.1908571 11.54,29.7434636 12.054,30.4164198 L4.159,31.4163265 L7.201,25.6485598 L6.495,25.2744723 L3.191,31.5386822 L0.978,31.8184956 L1.078,32.6128047 L12.605,31.1535627 C13.086,31.8114752 13.591,32.5365831 14.063,33.2677085 L14.733,32.8324431" id="Fill-27"></path>
                            <path d="M3.223,41.6982157 L4.021,41.6982157 L4.021,40.6140641 L11.588,40.6140641 L11.588,41.6982157 L12.386,41.6982157 L12.386,35.1602099 L3.223,35.1602099 L3.223,41.6982157 L3.223,41.6982157 L3.223,41.6982157 Z M4.021,35.9605364 L11.588,35.9605364 L11.588,39.8137376 L4.021,39.8137376 L4.021,35.9605364 L4.021,35.9605364 Z" id="Fill-28"></path>
                            <path d="M20.925,26.191137 L22.977,28.2822157 L23.538,27.7286064 L21.486,25.6375277 L20.925,26.191137" id="Fill-29"></path>
                            <path d="M22.963,31.8937143 L20.912,29.8026356 L20.35,30.3572478 L22.402,32.4483265 L22.963,31.8937143" id="Fill-30"></path>
                            <path d="M22.245,35.3086414 C21.931,36.5291895 21.404,38.5721283 20.247,41.5598134 L20.981,41.8456443 C22.155,38.8148338 22.71,36.6625773 23.008,35.5062157 C23.074,35.2504723 23.129,35.0368513 23.177,34.8663557 L22.419,34.6517318 C22.369,34.827242 22.313,35.0458776 22.245,35.3086414" id="Fill-31"></path>
                            <path d="M23.691,34.3628921 L24.268,34.4902624 C24.514,33.3730146 24.681,32.2417259 24.682,32.229691 L24.098,32.1444431 C24.096,32.1554752 23.932,33.2657026 23.691,34.3628921" id="Fill-32"></path>
                            <path d="M25.455,32.2778309 L25.475,32.442309 C25.518,32.7742741 25.608,33.4642799 25.638,34.292688 L26.228,34.2716268 C26.197,33.4161399 26.105,32.7070787 26.062,32.3660875 L26.042,32.2116385 L25.455,32.2778309" id="Fill-33"></path>
                            <path d="M26.817,32.1715219 C26.925,32.4372945 27.257,33.593656 27.326,34.1923965 L27.914,34.1241983 C27.837,33.4562566 27.488,32.2517551 27.364,31.9468688 L26.817,32.1715219" id="Fill-34"></path>
                            <path d="M32.287,32.1494577 C32.066,33.4361983 31.902,33.9918134 31.804,34.2305073 L32.349,34.4571662 C32.511,34.0630204 32.681,33.3409213 32.869,32.2497493 L32.884,32.1675102 L32.304,32.051172 L32.287,32.1494577" id="Fill-35"></path>
                            <path d="M33.825,34.2315102 L34.416,34.2094461 C34.398,33.7320583 34.314,33.0139708 34.166,32.075242 L33.583,32.1675102 C33.727,33.083172 33.809,33.7771895 33.825,34.2315102" id="Fill-36"></path>
                            <path d="M35.546,31.9037434 L34.985,32.0912886 C35.117,32.4874402 35.337,33.1483615 35.569,34.151277 L36.144,34.0178892 C35.906,32.987895 35.681,32.3089213 35.546,31.9037434" id="Fill-37"></path>
                            <path d="M24.163,31.5948455 L27.086,30.9429504 L27.35,31.5918367 L27.897,31.3671837 L27.159,29.5559184 L26.612,29.7805714 L26.859,30.3863324 L25.021,30.7965248 C26.443,29.0995918 27.482,27.3284431 27.53,27.2452012 L27.02,26.9463324 C27.015,26.9553586 26.789,27.3394752 26.414,27.9101341 L24.827,28.2350787 C25.517,26.8731195 26.146,25.4931079 26.153,25.4770612 L25.615,25.2313469 C25.608,25.2483965 24.846,26.9212595 24.083,28.3905306 L24.091,28.3955452 L24.207,28.9662041 L25.94,28.6121749 C25.429,29.3453061 24.773,30.2168397 24.053,31.0081399 L24.057,31.0121516 L24.034,31.0171662 L24.163,31.5948455" id="Fill-38"></path>
                            <path d="M32.338,31.5948455 L35.261,30.9429504 L35.525,31.5918367 L36.072,31.3671837 L35.334,29.5559184 L34.787,29.7805714 L35.034,30.3863324 L33.196,30.7965248 C34.618,29.0995918 35.657,27.3284431 35.705,27.2452012 L35.195,26.9463324 C35.19,26.9553586 34.964,27.3394752 34.589,27.9101341 L33.002,28.2350787 C33.692,26.8731195 34.321,25.4931079 34.328,25.4770612 L33.79,25.2313469 C33.782,25.2483965 33.021,26.9212595 32.258,28.3905306 L32.266,28.3945423 L32.382,28.9662041 L34.114,28.6121749 C33.604,29.3453061 32.948,30.2168397 32.228,31.0081399 L32.232,31.0121516 L32.21,31.0171662 L32.338,31.5948455" id="Fill-39"></path>
                            <path d="M32.04,26.6885831 L30.255,26.6885831 L30.255,25.1822041 L29.664,25.1822041 L29.664,26.6885831 L27.903,26.6885831 L27.903,27.2813061 L32.04,27.2813061 L32.04,26.6885831" id="Fill-40"></path>
                            <path d="M28.506,28.1207464 L31.424,28.1207464 L31.424,28.7134694 L28.506,28.7134694 L28.506,28.1207464 L28.506,28.1207464 Z" id="Fill-41"></path>
                            <path d="M28.506,29.5158017 L31.424,29.5158017 L31.424,30.1085248 L28.506,30.1085248 L28.506,29.5158017 L28.506,29.5158017 Z" id="Fill-42"></path>
                            <path d="M28.605,33.9857959 L31.338,33.9857959 L31.338,31.2939708 L28.605,31.2939708 L28.605,33.9857959 L28.605,33.9857959 Z M29.196,31.8866939 L30.747,31.8866939 L30.747,33.3930729 L29.196,33.3930729 L29.196,31.8866939 L29.196,31.8866939 Z" id="Fill-43"></path>
                            <path d="M34.851,38.6383207 L25.839,38.6383207 L26.083,37.602309 C26.093,37.5611895 26.13,37.532105 26.172,37.532105 L34.555,37.532105 L34.555,34.9957318 L24.887,34.9957318 L24.887,35.6676851 L33.884,35.6676851 L33.884,36.8601516 L25.642,36.8601516 C25.6,36.8601516 25.563,36.8892362 25.553,36.9303557 L25.016,39.2119883 C25.004,39.2621341 25.042,39.3102741 25.093,39.3102741 L34.422,39.3102741 L33.993,41.114519 C33.966,41.1345773 33.949,41.1486181 33.922,41.1696793 L30.735,41.1696793 L30.735,41.8416327 L33.922,41.8416327 C34.266,41.8416327 34.565,41.6049446 34.644,41.2699708 L35.154,39.1297493 C35.184,39.0104023 35.2,38.8709971 35.125,38.7747172 C35.125,38.7747172 35.063,38.6383207 34.851,38.6383207" id="Fill-44"></path>
                        </g>
                        <g id="Logo" transform="translate(0.000000, 0.029155)">
                            <path d="M30.856,95.4554869 C31.664,95.4554869 32.434,94.9861224 32.781,94.1978309 C33.239,93.1588105 32.791,91.9492945 31.783,91.4538542 C31.243,91.2141574 30.709,90.9634286 30.178,90.7036735 C30.17,90.6996618 30.162,90.6946472 30.153,90.6906356 C29.695,90.4649796 29.24,90.2333061 28.79,89.9926064 C28.563,89.8722566 28.34,89.7448863 28.116,89.6205248 C27.888,89.4941574 27.658,89.368793 27.432,89.2374111 C26.993,88.9846764 26.56,88.7219125 26.13,88.4541341 C26.119,88.4471137 26.107,88.4410962 26.096,88.4330729 C25.595,88.1211662 25.1,87.7992303 24.613,87.4682682 C23.659,86.8725364 22.399,87.1322915 21.763,88.0730262 C21.111,89.036828 21.361,90.3486414 22.323,91.0025423 C22.831,91.349551 23.345,91.6855277 23.864,92.0104723 C23.879,92.0194985 23.893,92.0285248 23.907,92.037551 C24.377,92.3314052 24.851,92.6152303 25.329,92.892035 C25.574,93.0334461 25.823,93.1698426 26.07,93.307242 C26.319,93.4456443 26.566,93.5850496 26.817,93.7194402 C27.302,93.9781924 27.792,94.2299242 28.287,94.4726297 C28.305,94.4806531 28.322,94.4896793 28.339,94.4987055 C28.889,94.766484 29.445,95.0262391 30.007,95.2749621 C30.283,95.3973178 30.572,95.4554869 30.856,95.4554869" id="Fill-57" fill="#A7CD6A"></path>
                            <path d="M21.763,12.0339825 C22.17,12.6357318 22.832,12.9596735 23.506,12.9596735 C23.912,12.9596735 24.323,12.8413294 24.685,12.5956152 C28.894,9.73128863 33.505,7.62717201 38.35,6.33441399 C42.653,5.18206414 47.123,4.67458892 51.636,4.84508455 C52.805,4.887207 53.774,3.98057143 53.818,2.81618659 C53.86,1.67587172 52.993,0.716081633 51.867,0.634845481 C51.239,0.61077551 50.609,0.597737609 49.978,0.597737609 C45.398,0.597737609 40.895,1.23358601 36.567,2.45714286 C32.12,3.71981341 27.841,5.61030904 23.847,8.11358601 C23.311,8.44956268 22.783,8.79556851 22.262,9.14959767 C21.352,9.81753936 21.125,11.091242 21.763,12.0339825" id="Fill-58" fill="#50B584"></path>
                            <path d="M78.193,88.0730262 C77.541,87.1092245 76.234,86.8564898 75.271,87.5113936 C71.505,90.0748455 67.417,92.0275219 63.127,93.3353236 C58.362,94.7955685 53.372,95.454484 48.32,95.2619242 C47.149,95.2117784 46.183,96.1264373 46.139,97.2908222 C46.096,98.4301341 46.964,99.3909271 48.09,99.4721633 C48.718,99.4962332 49.347,99.5082682 49.978,99.5082682 C53.054,99.5082682 56.095,99.2244431 59.072,98.6678251 C59.143,98.6547872 59.213,98.6397434 59.284,98.6267055 C59.776,98.5324315 60.266,98.4301341 60.755,98.3208163 C60.909,98.2867172 61.062,98.2496093 61.215,98.2145073 C61.612,98.1212362 62.008,98.0229504 62.402,97.9206531 C62.629,97.861481 62.855,97.8003032 63.081,97.7381224 C63.392,97.6518717 63.702,97.5626122 64.012,97.470344 C64.306,97.3830904 64.599,97.2938309 64.891,97.2005598 C65.121,97.1273469 65.35,97.0511254 65.58,96.9749038 C65.937,96.8545539 66.295,96.7321983 66.65,96.6038251 C66.801,96.5496676 66.952,96.4925015 67.102,96.4363382 C67.523,96.2798834 67.943,96.1194169 68.36,95.9509271 C68.43,95.9228455 68.499,95.8937609 68.569,95.8646764 C71.169,94.7995802 73.692,93.508828 76.109,91.9934227 C76.646,91.6564431 77.176,91.3094344 77.698,90.9544023 C78.604,90.2864606 78.83,89.0137609 78.193,88.0730262" id="Fill-59" fill="#53B475"></path>
                            <path d="M10.89,78.7148222 C11.297,78.7148222 11.708,78.597481 12.07,78.3507638 C13.031,77.696863 13.281,76.3840466 12.629,75.4202449 C9.925,71.4246297 7.909,67.0649563 6.607,62.489656 C5.307,57.9384257 4.72,53.1926297 4.901,48.3906706 C4.945,47.2262857 4.039,46.2464373 2.878,46.202309 C1.737,46.1621924 0.784,47.0297143 0.703,48.1579942 C0.679,48.788828 0.667,49.4196618 0.667,50.0535044 C0.667,54.7210729 1.321,59.3074052 2.58,63.7122099 C3.839,68.0979592 5.703,72.3172245 8.16,76.260688 C8.491,76.7922332 8.831,77.3157551 9.18,77.8312536 C9.589,78.4049213 10.233,78.7148222 10.89,78.7148222" id="Fill-60" fill="#81C063"></path>
                            <path d="M5.962,32.8063673 C6.238,32.928723 6.527,32.9868921 6.811,32.9868921 C7.603,32.9868921 8.357,32.5335743 8.713,31.7723615 C8.946,31.244828 9.189,30.722309 9.443,30.2027988 C9.454,30.1807347 9.466,30.1586706 9.477,30.1356035 C9.695,29.691312 9.918,29.2490262 10.151,28.8107522 C10.279,28.5670437 10.415,28.3283499 10.547,28.0886531 C10.666,27.8750321 10.781,27.6614111 10.903,27.4497959 C11.46,26.4789738 12.052,25.5302157 12.677,24.6075335 C13.265,23.6507522 13.005,22.3930962 12.07,21.7562449 C11.108,21.1013411 9.8,21.3530729 9.148,22.3168746 C8.801,22.8293644 8.465,23.3468688 8.138,23.8703907 C8.138,23.8713936 8.138,23.8713936 8.137,23.8723965 C7.835,24.3568047 7.544,24.8462274 7.26,25.3396618 C7.126,25.5713353 6.998,25.8070204 6.869,26.0417026 C6.723,26.3044665 6.576,26.5662274 6.435,26.8309971 C6.184,27.306379 5.94,27.7847697 5.704,28.2681749 C5.689,28.2982624 5.674,28.3273469 5.659,28.3574344 C5.392,28.9070321 5.135,29.4626472 4.888,30.0242799 C4.418,31.090379 4.899,32.336 5.962,32.8063673" id="Fill-61" fill="#53B475"></path>
                            <path d="M67.174,5.90917784 C66.717,6.94819825 67.164,8.15671137 68.172,8.6521516 C68.712,8.8918484 69.247,9.14257726 69.779,9.40333528 C69.785,9.40734694 69.792,9.41035569 69.798,9.41336443 C70.258,9.64002332 70.714,9.87169679 71.167,10.1144023 C71.393,10.2347522 71.615,10.3611195 71.839,10.4844781 C72.067,10.6128513 72.297,10.7372128 72.524,10.8685948 C72.964,11.1223324 73.397,11.3850962 73.827,11.6528746 C73.838,11.659895 73.849,11.6659125 73.86,11.6729329 C74.361,11.9858426 74.855,12.3067755 75.342,12.6387405 C76.297,13.2344723 77.557,12.9747172 78.193,12.0339825 C78.846,11.0701808 78.595,9.75736443 77.634,9.10346356 C77.126,8.75846064 76.613,8.42248397 76.095,8.09753936 C76.075,8.08550437 76.053,8.07246647 76.033,8.05942857 C75.569,7.76958601 75.101,7.48977259 74.63,7.21597668 C74.38,7.07155685 74.126,6.9321516 73.872,6.79174344 C73.629,6.65634985 73.387,6.51995335 73.142,6.38857143 C72.652,6.12781341 72.157,5.87307289 71.656,5.62836152 C71.644,5.62234402 71.632,5.61532362 71.62,5.60930612 C71.068,5.34052478 70.512,5.08076968 69.949,4.83204665 C68.887,4.36067638 67.644,4.84307872 67.174,5.90917784" id="Fill-62" fill="#53B475"></path>
                            <path d="M87.887,21.7562449 C86.925,22.4101458 86.675,23.7219592 87.327,24.6867638 C89.99,28.6222041 91.987,32.9106706 93.29,37.4107522 C94.632,42.0251662 95.239,46.8421691 95.055,51.7163382 C95.012,52.880723 95.917,53.8595685 97.078,53.9036968 C97.105,53.9046997 97.132,53.9057026 97.159,53.9057026 C98.256,53.9057026 99.167,53.0562332 99.252,51.9600466 C99.276,51.3262041 99.289,50.6903557 99.289,50.0535044 C99.289,45.3428105 98.623,40.7133528 97.341,36.2724431 C96.082,31.9298192 94.23,27.7516735 91.796,23.8463207 C91.463,23.3107638 91.12,22.7832303 90.768,22.2637201 C90.104,21.3460525 88.83,21.114379 87.887,21.7562449" id="Fill-63" fill="#54B36C"></path>
                            <path d="M92.69,74.778379 C92.836,74.5246414 92.976,74.267895 93.117,74.0111487 C93.251,73.7694461 93.386,73.5297493 93.515,73.2860408 C93.776,72.7926064 94.031,72.2951603 94.276,71.7916968 C94.281,71.7806647 94.287,71.7696327 94.292,71.7586006 C94.561,71.2059942 94.82,70.6473703 95.068,70.0827289 C95.538,69.0166297 95.057,67.7710087 93.994,67.2996385 C92.959,66.8403032 91.753,67.2896093 91.258,68.3005481 C91.02,68.8421224 90.769,69.3796851 90.509,69.9122332 C90.506,69.9182507 90.503,69.9232653 90.5,69.9292828 C90.275,70.3916268 90.042,70.8509621 89.8,71.3052828 C89.682,71.5289329 89.558,71.7475685 89.436,71.9692128 C89.307,72.2018892 89.181,72.4365714 89.047,72.667242 C88.797,73.1025073 88.539,73.5317551 88.275,73.9579942 C88.265,73.9750437 88.255,73.9920933 88.245,74.0081399 C87.934,74.5085948 87.615,75.0020292 87.286,75.4894461 C86.689,76.4462274 86.948,77.7119067 87.887,78.3507638 C88.249,78.597481 88.659,78.7148222 89.066,78.7148222 C89.74,78.7148222 90.402,78.3908805 90.809,77.7901341 C91.153,77.281656 91.486,76.7671603 91.81,76.2486531 C91.825,76.2245831 91.84,76.1995102 91.855,76.1754402 C92.141,75.7140991 92.419,75.2477434 92.69,74.778379" id="Fill-64" fill="#54B36C"></path>
                            <path d="M87.325,24.6897726 C86.673,23.7249679 86.925,22.4101458 87.887,21.7562449 C88.83,21.114379 90.104,21.3460525 90.768,22.2637201 C87.238,17.0445481 82.791,12.6046414 77.647,9.11449563 C78.597,9.77140525 78.842,11.0741924 78.193,12.0339825 C77.557,12.9747172 76.297,13.2344723 75.342,12.6387405 C80.042,15.8380408 84.101,19.9088746 87.325,24.6897726" id="Fill-65" fill="#89C693"></path>
                            <path d="M97.159,53.9057026 C97.132,53.9057026 97.105,53.9046997 97.078,53.9036968 C95.917,53.8595685 95.01,52.869691 95.053,51.7053061 C94.846,57.4770845 93.554,63.0863907 91.258,68.3005481 C91.753,67.2896093 92.959,66.8403032 93.994,67.2996385 C95.052,67.7690029 95.533,69.0055977 95.074,70.0676851 C97.589,64.3801516 99.014,58.2563499 99.252,51.9600466 C99.167,53.0562332 98.256,53.9057026 97.159,53.9057026" id="Fill-66" fill="#89C693"></path>
                            <path d="M89.066,78.7148222 C88.659,78.7148222 88.249,78.597481 87.887,78.3507638 C86.948,77.7119067 86.689,76.4462274 87.286,75.4894461 C84.086,80.2161866 80.025,84.2910321 75.241,87.5284431 C75.256,87.518414 75.226,87.5394752 75.241,87.5284431 C76.203,86.8735394 77.541,87.1092245 78.193,88.0730262 C78.83,89.0137609 78.604,90.2864606 77.698,90.9544023 C82.898,87.4151137 87.322,82.9571545 90.8,77.8011662 C90.392,78.3948921 89.735,78.7148222 89.066,78.7148222" id="Fill-67" fill="#89C693"></path>
                            <path d="M46.139,97.2908222 C46.182,96.1324548 47.139,95.2187988 48.302,95.2579125 C42.559,95.0473003 36.972,93.7515335 31.783,91.4538542 C32.791,91.9492945 33.239,93.1588105 32.781,94.1978309 C32.434,94.9861224 31.664,95.4554869 30.856,95.4554869 C30.577,95.4554869 30.293,95.3993236 30.021,95.2809796 C35.697,97.8053178 41.807,99.2344723 48.09,99.4721633 C46.964,99.3909271 46.096,98.4301341 46.139,97.2908222" id="Fill-68" fill="#88C8AB"></path>
                            <path d="M21.763,88.0730262 C22.399,87.1322915 23.659,86.8725364 24.613,87.4682682 C19.828,84.2097959 15.707,80.0466939 12.456,75.1534694 C12.515,75.2417259 12.57,75.3319883 12.629,75.4202449 C13.281,76.3840466 13.031,77.696863 12.07,78.3507638 C11.708,78.597481 11.297,78.7148222 10.89,78.7148222 C10.233,78.7148222 9.589,78.4049213 9.18,77.8312536 C12.712,83.0564431 17.162,87.5003615 22.31,90.993516 C21.359,90.3366064 21.114,89.0328163 21.763,88.0730262" id="Fill-69" fill="#E8E979"></path>
                            <path d="M4.901,48.3906706 L4.896,48.6855277 C5.071,42.8044315 6.371,37.080793 8.713,31.7723615 C8.357,32.5335743 7.603,32.9868921 6.811,32.9868921 C6.527,32.9868921 6.238,32.928723 5.962,32.8063673 C4.904,32.3380058 4.424,31.102414 4.882,30.0403265 C2.365,35.7318717 0.94,41.8586822 0.703,48.1579942 C0.784,47.0297143 1.737,46.1621924 2.878,46.202309 C4.039,46.2464373 4.945,47.2262857 4.901,48.3906706" id="Fill-70" fill="#89C693"></path>
                            <path d="M23.506,12.9596735 C22.832,12.9596735 22.17,12.6357318 21.763,12.0339825 C21.125,11.091242 21.352,9.81753936 22.262,9.14959767 C17.06,12.6898892 12.634,17.1498542 9.155,22.3078484 C9.809,21.35207 11.111,21.1043499 12.07,21.7562449 C13.005,22.3930962 13.265,23.6507522 12.677,24.6075335 C15.924,19.8135977 20.071,15.6845948 24.945,12.4261224 C24.859,12.4842915 24.771,12.5374461 24.685,12.5956152 C24.323,12.8413294 23.912,12.9596735 23.506,12.9596735" id="Fill-71" fill="#88C8AB"></path>
                            <path d="M69.942,4.8290379 C64.266,2.30469971 58.149,0.872536443 51.867,0.634845481 C52.993,0.716081633 53.86,1.67587172 53.818,2.81618659 C53.774,3.98057143 52.805,4.887207 51.636,4.84508455 L51.341,4.84006997 C57.193,5.01457726 62.889,6.31335277 68.172,8.6521516 C67.164,8.15671137 66.717,6.94819825 67.174,5.90917784 C67.642,4.84809329 68.883,4.36869971 69.942,4.8290379" id="Fill-72" fill="#88C8AB"></path>
                        </g>
                        <g id="Page-1-+-Page-1" transform="translate(5.000000, 284.857143)" fill="#313030">
                            <g id="Page-1" transform="translate(0.000000, 25.000000)">
                                <path d="M34.597304,15.5396327 C30.5096879,15.6416539 28.4403009,15.6669066 27.0991616,15.4638745 C26.2806353,15.339631 25.6486848,15.1224573 24.9515331,14.8355861 C24.2523752,14.5466947 23.5401771,14.0022454 22.8339975,13.2173899 L22.7908644,13.1678945 L22.8159418,13.1052677 C23.7438056,10.8244394 24.0066167,8.49209551 24.0507529,8.04865723 L24.092883,7.60824928 C24.0958923,7.57491566 24.0858613,7.54360225 24.0637932,7.51935961 C24.0417251,7.49511697 24.0106291,7.48198554 23.97853,7.48198554 L22.0425548,7.48198554 C21.9883876,7.48198554 21.9422452,7.4577429 21.9161647,7.41632839 C21.8910873,7.37289366 21.8910873,7.31834772 21.9171678,7.2648119 L23.926369,2.78901463 C23.9424186,2.75265067 23.9384062,2.71325638 23.9173412,2.67992275 C23.89427,2.64557902 23.8601647,2.62739704 23.8200409,2.62739704 L19.9902204,2.62739704 L19.9902204,3.66477997 L22.4327591,3.66275975 L22.3725734,3.81023581 L20.33027,8.35573066 C20.3162266,8.39108451 20.3192359,8.43148891 20.3403009,8.46381243 C20.362369,8.49714606 20.3974774,8.51633815 20.4365981,8.51633815 L22.8540594,8.51633815 C22.9112359,8.51633815 22.9443381,8.54058078 22.9613907,8.56078298 C23.0005115,8.60724804 22.9934898,8.66886475 22.9924867,8.67593552 C22.8119294,9.92645166 22.4919418,11.19717 22.1107653,12.1628351 L22.0696384,12.2688967 L21.930208,12.0668747 C21.3554341,11.2385845 20.9331307,10.4335269 20.7455517,9.99513914 L19.9109759,10.3496877 C20.1888334,11.022421 20.7836693,12.0456624 21.5831368,13.2254708 L21.6342947,13.3062796 L21.6202514,13.3365829 C21.1648458,14.2951773 20.5840533,15.1042754 19.9430749,15.6759976 L20.6101337,16.4628733 C21.2310502,15.9143835 21.7917808,15.1739729 22.2772793,14.264874 L22.3454898,14.1345698 L22.4457994,14.2406313 C23.152982,14.9729611 23.8832359,15.4982182 24.615496,15.799231 C25.4159666,16.1305471 26.0549387,16.3477207 26.9537127,16.4830755 C27.7652173,16.6063089 28.8495641,16.6608548 30.468561,16.6608548 L30.5227282,16.6608548 C30.7564495,16.6598447 31.0042142,16.6588346 31.2650192,16.6578245 C32.2320037,16.6558043 33.3273845,16.6517638 34.6233845,16.6194403 L34.5983071,15.5396327 L34.597304,15.5396327 L34.597304,15.5396327 Z" id="Fill-1"></path>
                                <path d="M29.8012012,5.95247703 L32.0009907,5.95247703 L32.0009907,7.20905383 C32.0009907,7.29996372 31.9277647,7.37471186 31.8374861,7.37471186 L29.8012012,7.37471186 L29.8012012,5.95247703 L29.8012012,5.95247703 Z M29.8012012,3.58174893 L31.8374861,3.58174893 C31.9277647,3.58174893 32.0009907,3.65649707 32.0009907,3.74740697 L32.0009907,4.91812442 L29.8012012,4.91812442 L29.8012012,3.58174893 L29.8012012,3.58174893 Z M24.7375728,12.1424309 L24.7385759,13.1788037 L28.7128421,13.1767835 L28.7730279,13.1767835 L28.7730279,14.770737 L29.8022043,14.7687168 L29.8012012,13.1767835 L34.0643591,13.1767835 L34.063356,12.1404107 L29.8012012,12.1424309 L29.8012012,10.9080765 L33.425387,10.9080765 L33.4233808,9.8717037 L29.8012012,9.87372392 L29.8012012,8.40906447 L32.8807059,8.40906447 C32.9629598,8.40906447 33.0301672,8.34239721 33.0301672,8.25956819 L33.0301672,5.95247703 L34.7675294,5.95247703 L34.7655232,4.91812442 L33.0301672,4.91812442 L33.0301672,2.6968926 C33.0301672,2.61406358 32.9629598,2.54739633 32.8807059,2.54739633 L29.8012012,2.54739633 L29.8012012,0.89586653 L28.7710217,0.89788675 L28.7730279,2.54739633 L25.680483,2.54739633 L25.6824892,3.58376915 L28.7730279,3.58174893 L28.7730279,4.91812442 L24.7375728,4.91812442 L24.7385759,5.95348714 L28.7730279,5.95247703 L28.7730279,7.37471186 L25.680483,7.37471186 L25.6824892,8.41108469 L28.7730279,8.40906447 L28.7730279,9.87372392 L25.3524706,9.87372392 L25.3544768,10.9100967 L28.7730279,10.9080765 L28.7730279,12.1424309 L24.7375728,12.1424309 L24.7375728,12.1424309 Z" id="Fill-3"></path>
                                <path d="M52.669683,4.51700975 L52.6636644,4.51094909 L45.9639864,4.51094909 L45.9589709,5.64833292 L52.6636644,5.65439358 L52.669683,4.51700975 L52.669683,4.51700975 Z" id="Fill-30"></path>
                                <path d="M53.8833288,13.4696144 L44.7451245,13.4696144 L44.7391059,14.6069982 L53.8833288,14.6130589 L53.8893474,13.4756751 L53.8833288,13.4696144 L53.8833288,13.4696144 Z" id="Fill-32"></path>
                                <path d="M41.3397139,4.33226064 C41.1852372,4.84337628 40.9765932,5.33934028 40.7198006,5.80500097 L39.0677015,8.76260296 L39.9524322,9.2636175 C39.950426,9.26967816 39.9494229,9.27169838 39.9494229,9.27169838 C39.950426,9.27169838 39.9524322,9.26765794 39.9554415,9.26159728 L41.0708842,7.21511449 L41.0708842,16.6364102 L42.1793053,16.6232787 C42.1692743,16.6242888 42.1722836,5.39994687 42.1722836,5.39994687 L42.1722836,5.34641105 C42.1732867,5.32317852 42.1732867,5.30499654 42.1722836,5.29489544 C42.1712805,5.26863258 42.176296,5.24337983 42.1803084,5.22519785 L43.1332495,1.96153255 L42.1482093,1.67971186 L41.3397139,4.33226064 L41.3397139,4.33226064 Z" id="Fill-34"></path>
                                <path d="M3.94108607,6.77026206 L4.75158762,2.52173953 C4.75961238,2.47022393 4.74456594,2.4166881 4.71146378,2.3762837 C4.67635542,2.3358793 4.62720372,2.31264677 4.57403963,2.31264677 L0.592751703,2.31264677 C0.522534985,2.31264677 0.465358514,2.37022304 0.465358514,2.44093074 L0.465358514,16.7158048 C0.465358514,16.7279261 0.47639257,16.7390373 0.488429721,16.7390373 L1.47447307,16.7390373 C1.48751331,16.7390373 1.49754427,16.7289362 1.49754427,16.7158048 L1.49754427,3.48841477 C1.49754427,3.41366663 1.55873313,3.35204993 1.63396533,3.35204993 L3.46461548,3.35204993 C3.52580433,3.35204993 3.5599096,3.37730268 3.57796533,3.39750488 C3.61608297,3.44295982 3.6100644,3.50457653 3.60705511,3.5217484 L2.92996533,6.77632272 L3.47264025,10.4278702 C3.47364334,10.4733252 3.47364334,10.5692856 3.36229969,10.5692856 L2.20573003,10.5692856 C2.19369288,10.5692856 2.18265882,10.5793867 2.18265882,10.5925182 L2.18265882,11.5400013 C2.18265882,11.5450519 2.18366192,11.5490923 2.18366192,11.5531328 C2.18466502,11.5561631 2.18566811,11.5602035 2.18566811,11.564244 L4.13067121,11.564244 C4.27311084,11.564244 4.38445449,11.5177789 4.46169288,11.426869 C4.54996533,11.3228277 4.57504272,11.1753516 4.55999628,11.0834316 L4.55999628,11.0824215 L3.94008297,6.77632272 L3.94108607,6.77026206 L3.94108607,6.77026206 Z" id="Fill-36"></path>
                                <path d="M10.4759554,9.78432919 L10.4759554,8.39441787 L13.126135,8.39441787 L13.126135,9.62978236 C13.126135,9.7146316 13.0569214,9.78432919 12.9716582,9.78432919 L10.4759554,9.78432919 L10.4759554,9.78432919 Z M10.4759554,6.16914561 L12.9716582,6.16914561 C13.0569214,6.16914561 13.126135,6.2388432 13.126135,6.32470255 L13.126135,7.38531802 L10.4759554,7.38531802 L10.4759554,6.16914561 L10.4759554,6.16914561 Z M9.38057461,7.38531802 L6.71936099,7.38531802 L6.71936099,6.32470255 C6.71936099,6.2388432 6.78757152,6.16914561 6.87283467,6.16914561 L9.38057461,6.16914561 L9.38057461,7.38531802 L9.38057461,7.38531802 Z M9.38057461,9.78432919 L6.87283467,9.78432919 C6.78757152,9.78432919 6.71936099,9.7146316 6.71936099,9.62978236 L6.71936099,8.54997481 C6.71936099,8.46411546 6.78757152,8.39441787 6.87283467,8.39441787 L9.38057461,8.39441787 L9.38057461,9.78432919 L9.38057461,9.78432919 Z M15.5676706,14.9187182 C13.8724384,13.8277994 12.2123146,12.0116217 11.5863827,10.8863592 L11.5011195,10.7419134 L13.9697387,10.7419134 C14.057008,10.7419134 14.1282279,10.6691855 14.1282279,10.5823161 L14.1282279,5.36408797 C14.1282279,5.2762084 14.057008,5.2044906 13.9697387,5.2044906 L10.4759554,5.2044906 L10.4759554,3.62568872 L14.6036954,3.62568872 L14.6117201,2.62466974 L10.4759554,2.61658886 L10.4759554,0.682228272 L9.38960248,0.674147392 L9.38057461,2.61658886 L5.28894613,2.61658886 L5.28092136,3.61760784 L9.38057461,3.62568872 L9.38057461,5.2044906 L5.87475418,5.2044906 C5.78748483,5.2044906 5.71626502,5.2762084 5.71626502,5.36408797 L5.71626502,10.5823161 C5.71626502,10.6691855 5.78748483,10.7419134 5.87475418,10.7419134 L8.37747864,10.7419134 L8.28419071,10.8893895 C7.49776347,12.0803091 6.07537337,13.8732543 4.65298328,15.009628 C4.64596161,15.0156887 4.64395542,15.0227595 4.64295232,15.02781 C4.64194923,15.0348808 4.64395542,15.0429617 4.6489709,15.0480122 L5.2468161,15.7763015 C5.25383777,15.7843824 5.26286563,15.7864026 5.26788111,15.7864026 C5.26988731,15.7904431 5.28092136,15.7864026 5.28794303,15.780342 C7.38140433,14.035882 8.69245077,12.0833395 9.28728669,11.0742396 L9.38057461,10.9166625 L9.38057461,16.7732801 L10.4669276,16.782371 L10.4759554,10.8903996 L10.5712495,11.0772699 C11.234296,12.3843522 12.9867046,14.4510372 14.9276954,15.7055938 C14.9387294,15.7126646 14.955782,15.7116545 14.9668161,15.6995332 L15.5746923,14.9601327 C15.5807108,14.9510417 15.5807108,14.9419507 15.5807108,14.9379102 C15.5797077,14.9328597 15.5766985,14.9247788 15.5676706,14.9187182 L15.5676706,14.9187182 L15.5676706,14.9187182 Z" id="Fill-40"></path>
                            </g>
                            <g id="Page-1" transform="translate(0.000000, -0.000000)">
                                <path d="M19.8175846,4.18746964 L24.1365462,4.18746964 L24.1365462,5.75249729 C24.1365462,5.80274567 24.1780846,5.84357248 24.2279308,5.84357248 L25.1677385,5.84357248 C25.2175846,5.84357248 25.2580846,5.80274567 25.2580846,5.75249729 L25.2580846,4.18746964 L29.3631231,4.18746964 L29.3631231,5.75249729 C29.3631231,5.80274567 29.4036231,5.84357248 29.4534692,5.84357248 L30.3932769,5.84357248 C30.4441615,5.84357248 30.4846615,5.80274567 30.4846615,5.75249729 L30.4846615,4.18746964 L34.8036231,4.18746964 C34.8545077,4.18746964 34.8950077,4.14664283 34.8950077,4.09534761 L34.8950077,3.14900313 C34.8950077,3.09875475 34.8545077,3.05792794 34.8036231,3.05792794 L30.4846615,3.05792794 L30.4846615,1.49290029 C30.4846615,1.44265191 30.4441615,1.40077826 30.3932769,1.40077826 L29.4534692,1.40077826 C29.4036231,1.40077826 29.3631231,1.44265191 29.3631231,1.49290029 L29.3631231,3.05792794 L25.2580846,3.05792794 L25.2580846,1.49290029 C25.2580846,1.44265191 25.2175846,1.40077826 25.1677385,1.40077826 L24.2279308,1.40077826 C24.1780846,1.40077826 24.1365462,1.44265191 24.1365462,1.49290029 L24.1365462,3.05792794 L19.8175846,3.05792794 C19.7677385,3.05792794 19.7262,3.09875475 19.7262,3.14900313 L19.7262,4.09534761 C19.7262,4.14664283 19.7677385,4.18746964 19.8175846,4.18746964" id="Fill-1"></path>
                                <path d="M30.8411654,11.2140774 L27.8784346,11.2140774 L27.8784346,11.1952343 L27.8898577,8.67862792 L30.6833192,8.67862792 C30.77055,8.67862792 30.8411654,8.74981313 30.8411654,8.83774779 L30.8411654,11.2140774 L30.8411654,11.2140774 Z M26.7247038,8.69747106 L26.7215885,11.2140774 L23.7588577,11.2140774 L23.7588577,8.83774779 C23.7588577,8.74981313 23.8305115,8.67862792 23.9167038,8.67862792 L26.7257423,8.67862792 L26.7247038,8.69747106 L26.7247038,8.69747106 Z M34.8039346,11.2140774 L32.0146269,11.2140774 L32.0146269,7.68831611 C32.0146269,7.58258515 31.9294731,7.49569732 31.8245885,7.49569732 L27.89505,7.49569732 L27.89505,7.47685418 L27.9023192,6.04582221 C27.9023192,5.97044964 27.8431269,5.90973285 27.7683577,5.90973285 L26.8638577,5.908686 L26.8628192,5.908686 C26.8275115,5.908686 26.7942808,5.92229494 26.7683192,5.94741913 C26.7433962,5.97359016 26.7288577,6.00708908 26.7288577,6.04372852 L26.7267808,7.49569732 L22.7764731,7.49569732 C22.6715885,7.49569732 22.5853962,7.58258515 22.5853962,7.68831611 L22.5853962,11.2140774 L19.8178962,11.2140774 C19.7524731,11.2140774 19.70055,11.2674663 19.70055,11.3323705 L19.70055,12.2787149 C19.70055,12.3436191 19.7524731,12.397008 19.8178962,12.397008 L26.3674731,12.397008 L26.3529346,12.4252727 C25.6727423,13.78826 24.0755885,15.5982485 20.3340115,16.4734078 C20.2696269,16.4880636 20.2291269,16.5519209 20.2436654,16.6147314 L20.4472038,17.5369985 C20.4544731,17.5684037 20.4731654,17.5945748 20.5001654,17.6123711 C20.5271654,17.6291205 20.5603962,17.6343547 20.5925885,17.6280737 C24.7215115,16.6628861 26.5502423,14.6016557 27.3571269,13.0408154 L27.3747808,13.0073164 L27.3913962,13.0418622 C27.9864346,14.2656196 29.6137038,16.4566583 33.8267423,17.3663634 C33.8578962,17.3726444 33.8900885,17.3674102 33.9170885,17.3496139 C33.9440885,17.3318176 33.9617423,17.3045997 33.9690115,17.2742413 L34.1569731,16.3477868 C34.1694346,16.2849764 34.1278962,16.2232127 34.0655885,16.208557 C30.1028192,15.3501471 28.7818962,13.2753078 28.3976654,12.4242259 L28.3852038,12.397008 L34.8039346,12.397008 C34.8683192,12.397008 34.9212808,12.3436191 34.9212808,12.2787149 L34.9212808,11.3323705 C34.9212808,11.2674663 34.8683192,11.2140774 34.8039346,11.2140774 L34.8039346,11.2140774 L34.8039346,11.2140774 Z" id="Fill-3"></path>
                                <path d="M10.4293731,2.54895373 L10.4293731,0.947286637 L9.33171923,0.947286637 L9.33171923,2.54895373 L5.96398846,2.54895373 L5.96398846,0.947286637 L4.86737308,0.947286637 L4.86737308,2.54895373 L0.0374884615,2.54895373 L0.0374884615,3.65546492 L4.86737308,3.65546492 L4.86737308,4.93889228 L5.96398846,4.93889228 L5.96398846,3.65546492 L9.33171923,3.65546492 L9.33171923,4.93889228 L10.4293731,4.93889228 L10.4293731,3.65546492 L15.2582192,3.65546492 L15.2582192,2.54895373 L10.4293731,2.54895373 L10.4293731,2.54895373 Z" id="Fill-5"></path>
                                <path d="M53.5038231,16.2457198 C51.1776692,15.2281901 49.1069769,13.8337976 47.3488615,12.1012754 L47.3353615,12.0887133 L47.3478231,12.0740575 C48.5109,10.7853959 49.5420923,9.32819291 50.4112846,7.74327528 C50.4268615,7.71396372 50.4310154,7.6804648 50.4216692,7.64801272 C50.4123231,7.61660749 50.3915538,7.59043645 50.3624769,7.57473384 L49.5150923,7.10888948 C49.4569385,7.07748425 49.3842462,7.09842107 49.3520538,7.15704418 C48.5451692,8.62785612 47.5887462,9.98456237 46.5097846,11.1894766 L46.4952462,11.2062261 L46.4817462,11.1894766 C45.4027846,9.98456237 44.4463615,8.62785612 43.6394769,7.15704418 C43.6166308,7.11726421 43.5761308,7.09423371 43.5335538,7.09423371 C43.5138231,7.09423371 43.4940923,7.09842107 43.4764385,7.10888948 L42.6280154,7.57473384 C42.5999769,7.59043645 42.5792077,7.61660749 42.5698615,7.64801272 C42.5605154,7.6804648 42.5636308,7.71396372 42.5802462,7.74327528 C43.4494385,9.32819291 44.4806308,10.7853959 45.6426692,12.0740575 L45.6561692,12.0887133 L45.6426692,12.1012754 C43.8845538,13.8337976 41.8128231,15.2281901 39.4877077,16.2457198 C39.4264385,16.2718908 39.3984,16.3430761 39.4243615,16.4037928 L39.8034,17.2998889 C39.8158615,17.3302473 39.8397462,17.3543247 39.8698615,17.3658399 C39.9010154,17.378402 39.9342462,17.378402 39.9643615,17.3647931 C42.4286308,16.2875935 44.6218615,14.8115473 46.4817462,12.9795752 L46.4952462,12.9659662 L46.5097846,12.9795752 C48.3696692,14.8115473 50.5618615,16.2875935 53.0271692,17.3647931 C53.0562462,17.378402 53.0894769,17.378402 53.1206308,17.3658399 C53.1517846,17.3543247 53.1756692,17.3302473 53.1881308,17.2998889 L53.5671692,16.4037928 C53.5931308,16.3430761 53.5650923,16.2718908 53.5038231,16.2457198" id="Fill-24"></path>
                                <path d="M46.0125692,2.78051501 L46.9783385,2.78051501 C47.0448,2.78051501 47.0998385,2.72503243 47.0998385,2.65803459 L47.0998385,0.74022144 C47.0998385,0.672176759 47.0448,0.617741015 46.9783385,0.617741015 L46.0125692,0.617741015 C45.9461077,0.617741015 45.8910692,0.672176759 45.8910692,0.74022144 L45.8910692,2.65803459 C45.8910692,2.72503243 45.9461077,2.78051501 46.0125692,2.78051501" id="Fill-22"></path>
                                <path d="M53.6332154,4.09618508 L39.3574846,4.09618508 C39.2982923,4.09618508 39.2494846,4.14538662 39.2494846,4.20505657 L39.2494846,5.17966577 C39.2494846,5.24038256 39.2982923,5.28853725 39.3574846,5.28853725 L53.6332154,5.28853725 C53.6934462,5.28853725 53.7412154,5.24038256 53.7412154,5.17966577 L53.7412154,4.20505657 C53.7412154,4.14538662 53.6934462,4.09618508 53.6332154,4.09618508" id="Fill-20"></path>
                                <path d="M4.34689615,14.4426405 C4.33339615,14.4217036 4.31262692,14.4080947 4.28770385,14.4028605 C4.28147308,14.4018137 4.27628077,14.4007668 4.27005,14.4007668 C4.25135769,14.4007668 4.23370385,14.406001 4.21812692,14.4164694 L0.777703846,16.7310354 C0.756934615,16.7446444 0.743434615,16.7655812 0.738242308,16.7896585 C0.73305,16.8147827 0.738242308,16.8399069 0.751742308,16.8597969 L1.25851154,17.6250378 C1.27201154,17.6459747 1.29278077,17.6606304 1.31770385,17.6648178 C1.34158846,17.670052 1.36651154,17.6648178 1.38728077,17.6512089 L4.82770385,15.3366429 C4.84847308,15.3230339 4.86197308,15.3020971 4.86716538,15.2780198 C4.87131923,15.2528956 4.86716538,15.2288182 4.85366538,15.2078814 L4.34689615,14.4426405 L4.34689615,14.4426405 Z" id="Fill-18"></path>
                                <path d="M10.7856692,14.6192426 C10.7700923,14.609821 10.7534769,14.6045868 10.7358231,14.6045868 C10.7295923,14.6045868 10.7223231,14.6056336 10.7160923,14.6066805 C10.6922077,14.6119147 10.6714385,14.6265705 10.6579385,14.6475073 L10.1677846,15.4232167 C10.1397462,15.467184 10.1532462,15.5247603 10.1958231,15.5519781 L13.5562846,17.7116116 C13.5999,17.7377826 13.6570154,17.7252205 13.6850538,17.6823 L14.1752077,16.9065907 C14.2022077,16.8636702 14.1897462,16.8060939 14.1461308,16.7778292 L10.7856692,14.6192426 L10.7856692,14.6192426 Z" id="Fill-16"></path>
                                <path d="M11.7056423,13.5198499 L11.7056423,12.5588497 C11.7056423,12.5190697 11.67345,12.4855708 11.6339885,12.4855708 L3.90264231,12.4855708 C3.86318077,12.4855708 3.83098846,12.5190697 3.83098846,12.5588497 L3.83098846,13.5198499 C3.83098846,13.5596299 3.86318077,13.592082 3.90264231,13.592082 L7.23610385,13.592082 L7.23610385,16.5200969 C7.23610385,16.6143126 7.16029615,16.6896852 7.06683462,16.6896852 L6.29110385,16.6896852 C6.21945,16.6896852 6.16129615,16.7493551 6.16129615,16.8205403 L6.16129615,17.6653412 C6.16129615,17.7375733 6.21945,17.7961964 6.29110385,17.7961964 L7.84983462,17.7961964 C8.11568077,17.7961964 8.33271923,17.5774066 8.33271923,17.3083684 L8.33271923,13.592082 L11.6339885,13.592082 C11.67345,13.592082 11.7056423,13.5596299 11.7056423,13.5198499" id="Fill-14"></path>
                                <path d="M5.83054615,10.0806624 L5.83054615,11.0427095 C5.83054615,11.0824895 5.86273846,11.1149415 5.9022,11.1149415 L9.52227692,11.1149415 C9.5607,11.1149415 9.59393077,11.0824895 9.59393077,11.0427095 L9.59393077,10.0806624 C9.59393077,10.0408824 9.5607,10.0084303 9.52227692,10.0084303 L5.9022,10.0084303 C5.86273846,10.0084303 5.83054615,10.0408824 5.83054615,10.0806624" id="Fill-12"></path>
                                <path d="M11.1895269,9.20079233 C11.1853731,9.20079233 11.1812192,9.20183917 11.1770654,9.20183917 C11.1396808,9.20183917 11.1033346,9.18404287 11.0804885,9.15473132 C10.5976038,8.54232919 10.1894885,7.8723508 9.86652692,7.16363928 C9.84991154,7.12699984 9.85198846,7.08617303 9.87379615,7.05267411 C9.89664231,7.01708151 9.93610385,6.99509784 9.97868077,6.99509784 L12.19995,6.99509784 C12.2425269,6.99509784 12.28095,7.01708151 12.3037962,7.05372095 C12.3256038,7.09036039 12.3266423,7.13432773 12.3069115,7.17306085 L11.2850654,9.13693502 C11.2663731,9.17252762 11.2310654,9.19660497 11.1895269,9.20079233 M12.0691038,10.0131411 L14.0504885,6.20054534 C14.0857962,6.13459434 14.0837192,6.05608125 14.0442577,5.99222394 C14.0058346,5.92731978 13.9383346,5.88963349 13.8635654,5.88963349 L8.35452692,5.88963349 C8.32337308,5.88963349 8.30156538,5.89800822 8.28910385,5.91580452 C8.26625769,5.9482566 8.27871923,6.0089734 8.28598846,6.02991022 L8.47291154,6.61300079 C8.82702692,7.71323093 10.3203346,11.4326579 14.6808346,13.1431964 L15.0764885,12.1120578 C13.7129885,11.669244 12.34845,10.4025661 12.0877962,10.152371 C12.0504115,10.1167784 12.0431423,10.0633895 12.0691038,10.0131411" id="Fill-10"></path>
                                <path d="M7.38792692,6.63529851 L7.61223462,6.02917743 C7.61327308,6.02813059 7.63923462,5.96217959 7.61223462,5.92135278 C7.59769615,5.90041596 7.56861923,5.88890071 7.52604231,5.88890071 L3.58715769,5.88890071 L3.60273462,5.86063599 C3.76577308,5.56333308 3.90181154,5.27649858 4.00565769,5.00746038 C4.02123462,4.96872726 4.02331154,4.93732202 4.01085,4.91533835 C3.99527308,4.88812048 3.96308077,4.88183943 3.96308077,4.88183943 L3.06169615,4.60652019 C3.04508077,4.61070755 2.97654231,4.62536333 2.95681154,4.67456487 C2.79896538,5.07864559 2.13642692,6.52747386 0.229811538,8.23591876 C0.206965385,8.25685559 0.194503846,8.27779241 0.194503846,8.29977608 C0.193465385,8.32908763 0.214234615,8.35002446 0.214234615,8.35002446 L0.839388462,9.07548544 C0.839388462,9.07548544 0.857042308,9.0974691 0.884042308,9.09956278 C0.902734615,9.10165647 0.924542308,9.09328174 0.94635,9.0744386 C1.70858077,8.40027284 2.37008077,7.68318659 2.91008077,6.94202299 L2.91631154,6.9346951 L5.80427308,6.9346951 C5.85723462,6.9346951 5.90500385,6.96191297 5.93096538,7.00692715 C5.95692692,7.05194132 5.95796538,7.10637707 5.93200385,7.15243808 C5.63188846,7.68946764 5.26115769,8.24429349 4.85927308,8.75619886 L4.84577308,8.77294832 L4.83019615,8.7572457 L3.89454231,7.80462017 L3.11465769,8.58242321 L4.12300385,9.60937447 L4.11054231,9.6229834 C3.90596538,9.84072638 3.69204231,10.0521883 3.47500385,10.2510881 L3.46150385,10.2636502 L3.44800385,10.2500413 L2.43550385,9.21890269 L1.65561923,9.99775257 L2.61204231,10.9723618 L2.59438846,10.9849239 C1.80100385,11.5868576 0.942196154,12.0809666 0.0408115385,12.4557358 C0.00758076923,12.4693447 -0.00903461538,12.5080779 0.00446538462,12.5405299 L0.364811538,13.4387197 C0.371042308,13.456516 0.385580769,13.470125 0.404273077,13.4784997 C0.422965385,13.4858276 0.442696154,13.4858276 0.46035,13.4784997 C5.59242692,11.3460841 7.37027308,6.68240636 7.38792692,6.63529851" id="Fill-7"></path>
                            </g>
                        </g>
                    </g>
                </g>
            </g>
        </g>
    </g>
</svg>