<?xml version="1.0" encoding="UTF-8" standalone="no"?>
<svg width="1358px" height="400px" viewBox="0 0 1358 400" version="1.1" xmlns="http://www.w3.org/2000/svg" xmlns:xlink="http://www.w3.org/1999/xlink" xmlns:sketch="http://www.bohemiancoding.com/sketch/ns">
    <!-- Generator: Sketch 3.3.2 (12043) - http://www.bohemiancoding.com/sketch -->
    <title>left@3x</title>
    <desc>Created with Sketch.</desc>
    <defs></defs>
    <g id="Page-1" stroke="none" stroke-width="1" fill="none" fill-rule="evenodd" sketch:type="MSPage">
        <g id="illustration-hope" sketch:type="MSArtboardGroup" transform="translate(-7.000000, -103.000000)">
            <g id="left" sketch:type="MSLayerGroup" transform="translate(7.000000, 103.000000)">
                <g id="Group" transform="translate(0.000000, 19.604938)" sketch:type="MSShapeGroup">
                    <g id="Oval-6-+-Line" transform="translate(0.000000, 84.021164)">
                        <ellipse id="Oval-6" fill="#F2F2F2" cx="298.941176" cy="119.730159" rx="55.3076181" ry="55.313933"></ellipse>
                        <ellipse id="Oval-6" fill="#F2F2F2" cx="87.512054" cy="87.7093977" rx="87.3247235" ry="87.334694"></ellipse>
                        <path d="M294.45286,147.083492 L294.45286,234.605536 C294.45286,236.925717 296.333523,238.806594 298.653439,238.806594 C300.973354,238.806594 302.854017,236.925717 302.854017,234.605536 L302.854017,147.083492 C302.854017,144.763311 300.973354,142.882433 298.653439,142.882433 C296.333523,142.882433 294.45286,144.763311 294.45286,147.083492 L294.45286,147.083492 Z" id="Shape" fill="#D2D2D2"></path>
                        <path d="M83.560717,133.733686 L83.560717,234.227102 C83.560717,236.547282 85.4413801,238.42816 87.7612956,238.42816 C90.0812111,238.42816 91.9618742,236.547282 91.9618742,234.227102 L91.9618742,133.733686 C91.9618742,131.413506 90.0812111,129.532628 87.7612956,129.532628 C85.4413801,129.532628 83.560717,131.413506 83.560717,133.733686 L83.560717,133.733686 Z" id="Shape" fill="#D2D2D2"></path>
                    </g>
                    <g id="TREE" transform="translate(93.112825, 110.627866)">
                        <circle id="Oval-40" fill="#FFFFFF" cx="65.3871745" cy="63.2671958" r="62.5"></circle>
                        <path d="M65.4590164,130.232804 C101.417707,130.232804 130.567985,101.079198 130.567985,65.1164021 C130.567985,29.1536063 101.417707,0 65.4590164,0 C29.5003262,0 0.350048216,29.1536063 0.350048216,65.1164021 C0.350048216,101.079198 29.5003262,130.232804 65.4590164,130.232804 L65.4590164,130.232804 Z M65.4590164,121.830688 C34.1401572,121.830688 8.7512054,96.4388372 8.7512054,65.1164021 C8.7512054,33.793967 34.1401572,8.4021164 65.4590164,8.4021164 C96.7778756,8.4021164 122.166827,33.793967 122.166827,65.1164021 C122.166827,96.4388372 96.7778756,121.830688 65.4590164,121.830688 L65.4590164,121.830688 Z" id="Shape" fill="#CACACA"></path>
                        <path d="M0,64.941358 C0,76.0082019 2.774575,86.6827611 7.9906103,96.1754634 C9.10790481,98.2088362 11.6618371,98.951361 13.6949778,97.8339389 C15.7281184,96.7165168 16.4705584,94.1622929 15.3532639,92.1289201 C10.8142891,83.8684054 8.40115718,74.5844179 8.40115718,64.941358 C8.40115718,62.6211776 6.52049409,60.7402998 4.20057859,60.7402998 C1.8806631,60.7402998 0,62.6211776 0,64.941358 L0,64.941358 Z M64.9339441,0 C54.7078729,0 44.8117192,2.36923652 35.8640948,6.85646874 C33.7902973,7.89647784 32.95215,10.4209088 33.9920404,12.494943 C35.0319307,14.5689772 37.5560735,15.4072202 39.6298709,14.3672111 C47.4152083,10.4628657 56.02283,8.4021164 64.9339441,8.4021164 C67.2538596,8.4021164 69.1345227,6.52123858 69.1345227,4.2010582 C69.1345227,1.88087782 67.2538596,0 64.9339441,0 L64.9339441,0 Z" id="Shape" fill="#EAEAEA"></path>
                        <path d="M60.3113828,111.496842 L60.3113828,209.356034 C60.3113828,211.676214 62.1920459,213.557092 64.5119614,213.557092 C66.8318769,213.557092 68.71254,211.676214 68.71254,209.356034 L68.71254,111.496842 C68.71254,109.176661 66.8318769,107.295784 64.5119614,107.295784 C62.1920459,107.295784 60.3113828,109.176661 60.3113828,111.496842 L60.3113828,111.496842 Z" id="Shape" fill="#CACACA"></path>
                    </g>
                    <path d="M261.228525,143.729178 L310.935372,105.919654 C312.7819,104.515092 313.140314,101.879392 311.735913,100.032654 C310.331511,98.1859152 307.696112,97.82746 305.849585,99.2320218 L256.142738,137.041546 C254.29621,138.446107 253.937796,141.081807 255.342197,142.928546 C256.746599,144.775284 259.381998,145.133739 261.228525,143.729178 L261.228525,143.729178 Z" id="Shape" fill="#C6C6C6"></path>
                    <g id="tree" transform="translate(413.756991, 217.754850)" fill="#D6D6D6">
                        <path d="M34.6547734,69.3174603 C53.7940762,69.3174603 69.3095468,53.8002183 69.3095468,34.6587302 C69.3095468,15.517242 53.7940762,0 34.6547734,0 C15.5154705,0 0,15.517242 0,34.6587302 C0,53.8002183 15.5154705,69.3174603 34.6547734,69.3174603 L34.6547734,69.3174603 Z M34.6547734,60.9153439 C20.1553015,60.9153439 8.40115718,49.1598575 8.40115718,34.6587302 C8.40115718,20.1576028 20.1553015,8.4021164 34.6547734,8.4021164 C49.1542452,8.4021164 60.9083896,20.1576028 60.9083896,34.6587302 C60.9083896,49.1598575 49.1542452,60.9153439 34.6547734,60.9153439 L34.6547734,60.9153439 Z" id="Shape"></path>
                        <path d="M30.5165052,45.8245818 L30.5165052,102.972379 C30.5165052,105.29256 32.3971683,107.173437 34.7170838,107.173437 C37.0369993,107.173437 38.9176624,105.29256 38.9176624,102.972379 L38.9176624,45.8245818 C38.9176624,43.5044015 37.0369993,41.6235236 34.7170838,41.6235236 C32.3971683,41.6235236 30.5165052,43.5044015 30.5165052,45.8245818 L30.5165052,45.8245818 Z" id="Shape"></path>
                    </g>
                    <g id="tree" transform="translate(310.842816, 88.222222)" fill="#D7D7D7">
                        <path d="M65.1089682,130.232804 C101.067658,130.232804 130.217936,101.079198 130.217936,65.1164021 C130.217936,29.1536063 101.067658,0 65.1089682,0 C29.150278,0 0,29.1536063 0,65.1164021 C0,101.079198 29.150278,130.232804 65.1089682,130.232804 L65.1089682,130.232804 Z M65.1089682,121.830688 C33.790109,121.830688 8.40115718,96.4388372 8.40115718,65.1164021 C8.40115718,33.793967 33.790109,8.4021164 65.1089682,8.4021164 C96.4278274,8.4021164 121.816779,33.793967 121.816779,65.1164021 C121.816779,96.4388372 96.4278274,121.830688 65.1089682,121.830688 L65.1089682,121.830688 Z" id="Shape"></path>
                        <path d="M59.9613346,87.4016509 L59.9613346,229.509973 C59.9613346,231.830153 61.8419977,233.711031 64.1619132,233.711031 C66.4818287,233.711031 68.3624918,231.830153 68.3624918,229.509973 L68.3624918,87.4016509 C68.3624918,85.0814705 66.4818287,83.2005927 64.1619132,83.2005927 C61.8419977,83.2005927 59.9613346,85.0814705 59.9613346,87.4016509 L59.9613346,87.4016509 Z" id="Shape"></path>
                        <path d="M67.9391242,115.132615 L91.7424029,93.4271478 C93.456718,91.8639174 93.579341,89.206783 92.016289,87.4922722 C90.4532369,85.7777613 87.7964059,85.6551243 86.0820908,87.2183548 L62.2788121,108.923822 C60.564497,110.487053 60.4418741,113.144187 62.0049261,114.858698 C63.5679781,116.573209 66.2248091,116.695846 67.9391242,115.132615 L67.9391242,115.132615 Z" id="Shape"></path>
                    </g>
                    <g id="tree" transform="translate(166.622951, 0.000000)">
                        <circle id="Oval-41" fill="#FFFFFF" cx="93.3770492" cy="98" r="89"></circle>
                        <path d="M93.1128255,186.672697 C144.537619,186.672697 186.225651,144.979905 186.225651,93.5492397 C186.225651,42.1185747 144.537619,0.425782926 93.1128255,0.425782926 C41.6880319,0.425782926 0,42.1185747 0,93.5492397 C0,144.979905 41.6880319,186.672697 93.1128255,186.672697 L93.1128255,186.672697 Z M93.1128255,178.27058 C46.3278629,178.27058 8.40115718,140.339544 8.40115718,93.5492397 C8.40115718,46.7589354 46.3278629,8.82789933 93.1128255,8.82789933 C139.897788,8.82789933 177.824494,46.7589354 177.824494,93.5492397 C177.824494,140.339544 139.897788,178.27058 93.1128255,178.27058 L93.1128255,178.27058 Z" id="Shape" fill="#CECECE"></path>
                        <path d="M87.9651919,105.704727 L87.9651919,317.734057 C87.9651919,320.054237 89.845855,321.935115 92.1657705,321.935115 C94.485686,321.935115 96.3663491,320.054237 96.3663491,317.734057 L96.3663491,105.704727 C96.3663491,103.384546 94.485686,101.503668 92.1657705,101.503668 C89.845855,101.503668 87.9651919,103.384546 87.9651919,105.704727 L87.9651919,105.704727 Z" id="Shape" fill="#CECECE"></path>
                        <g id="Group" transform="translate(11.901639, 24.506173)">
                            <path d="M138.476319,66.7193664 C138.476319,61.2439457 143.722483,55.5513689 143.722483,55.5513689 C143.722483,55.5513689 148.018107,60.0595805 148.490204,65.9669458 C148.9623,71.874311 147.118754,76.8742781 143.722483,76.8742781 C140.326212,76.8742781 138.476319,72.1947872 138.476319,66.7193664 Z" id="Path-50" fill="#F2F2F2" transform="translate(143.519769, 66.212824) rotate(38.000000) translate(-143.519769, -66.212824) "></path>
                            <path d="M25.392773,36.9053709 C25.392773,31.4299501 30.6389372,25.7373733 30.6389372,25.7373733 C30.6389372,25.7373733 34.9345612,30.245585 35.4066579,36.1529502 C35.8787545,42.0603154 34.0352081,47.0602825 30.6389372,47.0602825 C27.2426663,47.0602825 25.392773,42.3807916 25.392773,36.9053709 Z" id="Path-50" fill="#F2F2F2" transform="translate(30.436223, 36.398828) rotate(84.000000) translate(-30.436223, -36.398828) "></path>
                            <path d="M114.745559,12.7862069 C114.745559,7.31078614 119.991723,1.61820936 119.991723,1.61820936 C119.991723,1.61820936 124.287347,6.12642098 124.759444,12.0337862 C125.231541,17.9411514 123.387994,22.9411186 119.991723,22.9411186 C116.595453,22.9411186 114.745559,18.2616277 114.745559,12.7862069 Z" id="Path-50" fill="#EAEAEA" transform="translate(119.789009, 12.279664) rotate(84.000000) translate(-119.789009, -12.279664) "></path>
                            <path d="M67.2348481,12.5809022 C67.2348481,7.10548148 72.4810123,1.4129047 72.4810123,1.4129047 C72.4810123,1.4129047 76.7766363,5.92111633 77.248733,11.8284816 C77.7208296,17.7358468 75.8772832,22.7358139 72.4810123,22.7358139 C69.0847414,22.7358139 67.2348481,18.056323 67.2348481,12.5809022 Z" id="Path-50" fill="#F2F2F2" transform="translate(72.278298, 12.074359) rotate(38.000000) translate(-72.278298, -12.074359) "></path>
                            <path d="M42.5050204,56.0579118 C42.5050204,50.5824911 47.7511846,44.8899143 47.7511846,44.8899143 C47.7511846,44.8899143 52.0468086,49.3981259 52.5189053,55.3054912 C52.991002,61.2128564 51.1474555,66.2128235 47.7511846,66.2128235 C44.3549137,66.2128235 42.5050205,61.5333326 42.5050204,56.0579118 Z" id="Path-50" fill="#F2F2F2" transform="translate(47.548470, 55.551369) rotate(38.000000) translate(-47.548470, -55.551369) "></path>
                            <path d="M87.1657565,63.2163401 C87.1657565,56.5841056 93.5202985,49.6888357 93.5202985,49.6888357 C93.5202985,49.6888357 98.723476,55.149515 99.2953144,62.3049526 C99.8671527,69.4603902 97.634113,75.5167201 93.5202985,75.5167201 C89.406484,75.5167201 87.1657565,69.8485746 87.1657565,63.2163401 Z" id="Path-50" fill="#F2F2F2" transform="translate(93.274756, 62.602778) rotate(38.000000) translate(-93.274756, -62.602778) "></path>
                            <path d="M112.608694,66.7193664 C112.608694,61.2439457 117.854859,55.5513689 117.854859,55.5513689 C117.854859,55.5513689 122.150483,60.0595805 122.622579,65.9669458 C123.094676,71.874311 121.25113,76.8742781 117.854859,76.8742781 C114.458588,76.8742781 112.608694,72.1947872 112.608694,66.7193664 Z" id="Path-50" fill="#C6C6C6" transform="translate(117.652144, 66.212824) rotate(1.000000) translate(-117.652144, -66.212824) "></path>
                            <path d="M89.1374921,11.6990217 C89.1374921,6.2236009 94.3836563,0.531024122 94.3836563,0.531024122 C94.3836563,0.531024122 98.6792803,5.03923575 99.151377,10.946601 C99.6234736,16.8539662 97.7799272,21.8539333 94.3836563,21.8539333 C90.9873854,21.8539333 89.1374921,17.1744424 89.1374921,11.6990217 Z" id="Path-50" fill="#EAEAEA" transform="translate(94.180942, 11.192479) rotate(1.000000) translate(-94.180942, -11.192479) "></path>
                            <path d="M41.3672239,12.5809022 C41.3672239,7.10548148 46.6133881,1.4129047 46.6133881,1.4129047 C46.6133881,1.4129047 50.9090121,5.92111633 51.3811088,11.8284816 C51.8532054,17.7358468 50.009659,22.7358139 46.6133881,22.7358139 C43.2171172,22.7358139 41.3672239,18.056323 41.3672239,12.5809022 Z" id="Path-50" fill="#EAEAEA" transform="translate(46.410674, 12.074359) rotate(1.000000) translate(-46.410674, -12.074359) "></path>
                            <path d="M65.3342134,65.8740678 C65.3342134,60.3986471 70.5803776,54.7060703 70.5803776,54.7060703 C70.5803776,54.7060703 74.8760016,59.2142819 75.3480983,65.1216472 C75.8201949,71.0290124 73.9766485,76.0289795 70.5803776,76.0289795 C67.1841067,76.0289795 65.3342134,71.3494886 65.3342134,65.8740678 Z" id="Path-50" fill="#F2F2F2" transform="translate(70.377663, 65.367525) rotate(-44.000000) translate(-70.377663, -65.367525) "></path>
                            <path d="M52.196092,90.8292943 C52.196092,85.3538735 57.4422562,79.6612967 57.4422562,79.6612967 C57.4422562,79.6612967 61.7378802,84.1695083 62.2099769,90.0768736 C62.6820736,95.9842388 60.8385271,100.984206 57.4422562,100.984206 C54.0459853,100.984206 52.1960921,96.304715 52.196092,90.8292943 Z" id="Path-50" fill="#F2F2F2" transform="translate(57.239542, 90.322751) rotate(-44.000000) translate(-57.239542, -90.322751) "></path>
                            <path d="M12.826981,98.7700277 C12.826981,93.2946069 18.0731452,87.6020302 18.0731452,87.6020302 C18.0731452,87.6020302 22.3687692,92.1102418 22.8408659,98.017607 C23.3129625,103.924972 21.4694161,108.924939 18.0731452,108.924939 C14.6768743,108.924939 12.826981,104.245448 12.826981,98.7700277 Z" id="Path-50" fill="#F2F2F2" transform="translate(17.870431, 98.263485) rotate(-73.000000) translate(-17.870431, -98.263485) "></path>
                            <path d="M6.32645852,65.8740678 C6.32645851,60.3986471 11.5726227,54.7060703 11.5726227,54.7060703 C11.5726227,54.7060703 15.8682467,59.2142819 16.3403434,65.1216472 C16.81244,71.0290124 14.9688936,76.0289795 11.5726227,76.0289795 C8.17635177,76.0289795 6.32645853,71.3494886 6.32645852,65.8740678 Z" id="Path-50" fill="#C6C6C6" transform="translate(11.369908, 65.367525) rotate(-44.000000) translate(-11.369908, -65.367525) "></path>
                            <path d="M135.792107,90.8292943 C135.792107,85.3538735 141.038271,79.6612967 141.038271,79.6612967 C141.038271,79.6612967 145.333895,84.1695083 145.805992,90.0768736 C146.278089,95.9842388 144.434542,100.984206 141.038271,100.984206 C137.642,100.984206 135.792107,96.304715 135.792107,90.8292943 Z" id="Path-50" fill="#C6C6C6" transform="translate(140.835557, 90.322751) rotate(93.000000) translate(-140.835557, -90.322751) "></path>
                            <path d="M112.320905,35.8089495 C112.320905,30.3335287 117.567069,24.6409519 117.567069,24.6409519 C117.567069,24.6409519 121.862693,29.1491636 122.33479,35.0565288 C122.806886,40.963894 120.96334,45.9638612 117.567069,45.9638612 C114.170798,45.9638612 112.320905,41.2843702 112.320905,35.8089495 Z" id="Path-50" fill="#F2F2F2" transform="translate(117.364355, 35.302407) rotate(-114.000000) translate(-117.364355, -35.302407) "></path>
                            <path d="M100.994972,94.1785548 C100.994972,88.7031341 106.241137,83.0105573 106.241137,83.0105573 C106.241137,83.0105573 110.536761,87.5187689 111.008857,93.4261341 C111.480954,99.3334994 109.637407,104.333466 106.241137,104.333466 C102.844866,104.333466 100.994972,99.6539756 100.994972,94.1785548 Z" id="Path-50" fill="#F2F2F2" transform="translate(106.038422, 93.672012) rotate(-114.000000) translate(-106.038422, -93.672012) "></path>
                            <path d="M99.9710149,130.965698 C99.9710149,125.490278 105.217179,119.797701 105.217179,119.797701 C105.217179,119.797701 109.512803,124.305912 109.9849,130.213278 C110.456996,136.120643 108.61345,141.12061 105.217179,141.12061 C101.820908,141.12061 99.9710149,136.441119 99.9710149,130.965698 Z" id="Path-50" fill="#F2F2F2" transform="translate(105.014465, 130.459155) rotate(-114.000000) translate(-105.014465, -130.459155) "></path>
                            <path d="M68.3550035,38.0376817 C68.3550035,32.562261 73.6011677,26.8696842 73.6011677,26.8696842 C73.6011677,26.8696842 77.8967917,31.3778958 78.3688884,37.2852611 C78.840985,43.1926263 76.9974386,48.1925934 73.6011677,48.1925934 C70.2048968,48.1925934 68.3550035,43.5131025 68.3550035,38.0376817 Z" id="Path-50" fill="#C6C6C6" transform="translate(73.398453, 37.531139) rotate(-66.000000) translate(-73.398453, -37.531139) "></path>
                            <path d="M35.9121914,127.7807 C35.9121914,122.305279 41.1583556,116.612702 41.1583556,116.612702 C41.1583556,116.612702 45.4539796,121.120914 45.9260762,127.028279 C46.3981729,132.935645 44.5546265,137.935612 41.1583555,137.935612 C37.7620846,137.935612 35.9121914,133.256121 35.9121914,127.7807 Z" id="Path-50" fill="#C6C6C6" transform="translate(40.955641, 127.274157) rotate(-66.000000) translate(-40.955641, -127.274157) "></path>
                            <path d="M119.169933,113.076996 C119.169933,107.601576 124.416097,101.908999 124.416097,101.908999 C124.416097,101.908999 128.711722,106.41721 129.183818,112.324576 C129.655915,118.231941 127.812368,123.231908 124.416097,123.231908 C121.019827,123.231908 119.169933,118.552417 119.169933,113.076996 Z" id="Path-50" fill="#C6C6C6" transform="translate(124.213383, 112.570453) rotate(-66.000000) translate(-124.213383, -112.570453) "></path>
                            <path d="M138.972106,37.9984071 C138.972106,32.5229863 144.21827,26.8304096 144.21827,26.8304096 C144.21827,26.8304096 148.513894,31.3386212 148.985991,37.2459864 C149.458087,43.1533517 147.614541,48.1533188 144.21827,48.1533188 C140.821999,48.1533188 138.972106,43.4738279 138.972106,37.9984071 Z" id="Path-50" fill="#F2F2F2" transform="translate(144.015556, 37.491864) rotate(44.000000) translate(-144.015556, -37.491864) "></path>
                            <path d="M25.8375106,83.6793083 C25.8375106,78.2038875 31.0836748,72.5113107 31.0836748,72.5113107 C31.0836748,72.5113107 35.3792988,77.0195224 35.8513954,82.9268876 C36.3234921,88.8342528 34.4799457,93.83422 31.0836747,93.83422 C27.6874038,93.83422 25.8375106,89.154729 25.8375106,83.6793083 Z" id="Path-50" fill="#C6C6C6" transform="translate(30.880960, 83.172765) rotate(6.000000) translate(-30.880960, -83.172765) "></path>
                        </g>
                        <path d="M0,93.2338334 C0,109.105136 3.97806321,124.409848 11.4571484,138.021092 C12.5744429,140.054465 15.1283752,140.79699 17.1615159,139.679568 C19.1946565,138.562146 19.9370965,136.007922 18.819802,133.974549 C12.0177773,121.595493 8.40115718,107.681352 8.40115718,93.2338334 C8.40115718,90.9136531 6.52049409,89.0327752 4.20057859,89.0327752 C1.8806631,89.0327752 0,90.9136531 0,93.2338334 L0,93.2338334 Z M186.225651,93.2338334 C186.225651,65.4449135 173.977327,39.6417282 153.157774,22.0571538 C151.385357,20.5601378 148.735096,20.7835587 147.238251,22.5561783 C145.741406,24.3287979 145.964802,26.9793612 147.737219,28.4763772 C166.686191,44.4810252 177.824494,67.9457612 177.824494,93.2338334 C177.824494,95.5540138 179.705157,97.4348916 182.025072,97.4348916 C184.344988,97.4348916 186.225651,95.5540138 186.225651,93.2338334 L186.225651,93.2338334 Z M93.1128255,0.110376648 C78.4471479,0.110376648 64.2583316,3.50731881 51.4288529,9.94130031 C49.3550555,10.9813094 48.5169082,13.5057403 49.5567985,15.5797746 C50.5966889,17.6538088 53.1208316,18.4920518 55.1946291,17.4520427 C66.8618207,11.600948 79.762105,8.51249305 93.1128255,8.51249305 C95.432741,8.51249305 97.3134041,6.63161523 97.3134041,4.31143485 C97.3134041,1.99125447 95.432741,0.110376648 93.1128255,0.110376648 L93.1128255,0.110376648 Z" id="Shape" fill="#C6C6C6"></path>
                    </g>
                    <path d="M261.002636,153.685432 L217.596657,124.978201 C215.661582,123.698409 213.055536,124.229799 211.77589,126.165095 C210.496244,128.10039 211.027574,130.706734 212.962649,131.986526 L256.368627,160.693757 C258.303702,161.973549 260.909748,161.442159 262.189394,159.506863 C263.46904,157.571568 262.93771,154.965224 261.002636,153.685432 L261.002636,153.685432 Z" id="Shape" fill="#CECECE"></path>
                </g>
                <g id="grass" transform="translate(106.819672, 282.871252)" sketch:type="MSShapeGroup">
                    <g transform="translate(149.415622, 0.000000)" id="Group">
                        <g transform="translate(28.003857, 26.981881) scale(-1, 1) translate(-28.003857, -26.981881) translate(0.000000, 0.375179)">
                            <path d="M31.8527553,35.8060449 C31.8860292,35.7299191 31.9720396,35.5430854 32.1089774,35.2618698 C32.3493283,34.7682846 32.6373436,34.2118742 32.9709238,33.6091202 C33.9264369,31.8825803 35.0424656,30.1563046 36.2940209,28.5641929 C39.5842998,24.3786072 43.0948819,22.0131621 46.5188099,22.0131621 C48.8387254,22.0131621 50.7193885,20.1322842 50.7193885,17.8121039 C50.7193885,15.4919235 48.8387254,13.6110457 46.5188099,13.6110457 C39.9804647,13.6110457 34.4131668,17.3623146 29.6895551,23.3712524 C28.1362486,25.3472239 26.7807615,27.4438945 25.6205543,29.5403009 C24.9182681,30.8092787 24.4274304,31.8172641 24.1549593,32.4406379 C23.2257339,34.5665683 24.1956582,37.0433474 26.3213459,37.9726789 C28.4470336,38.9020103 30.9235299,37.9319753 31.8527553,35.8060449 L31.8527553,35.8060449 Z" id="Shape" fill="#E0E0E0"></path>
                            <path d="M32.1708526,33.5931766 C32.1439789,33.3819064 32.0931075,33.0603643 32.012331,32.6432407 C31.8857572,31.9896237 31.7174208,31.271906 31.500834,30.5045543 C30.8835005,28.3173852 29.9938569,26.127729 28.7655331,24.0541044 C25.8186095,19.0791841 21.4036779,15.5738282 15.4056904,14.4439846 C13.1258613,14.0145322 10.9295945,15.5147698 10.5001911,17.7948592 C10.0707877,20.0749486 11.5708541,22.2714662 13.8506831,22.7009187 C17.272416,23.345472 19.7429537,25.3070231 21.5375529,28.3366192 C22.3638104,29.7314856 22.984052,31.2580699 23.4156359,32.7871412 C23.5661702,33.3204737 23.681111,33.8105341 23.7644365,34.2408206 C23.8095996,34.4740391 23.8322218,34.617027 23.836862,34.6535062 C24.1296305,36.9551369 26.2325936,38.5836144 28.5339616,38.2908125 C30.8353295,37.9980105 32.4636211,35.8948073 32.1708526,33.5931766 L32.1708526,33.5931766 Z" id="Shape" fill="#C8C8C8"></path>
                            <path d="M31.9959756,49.4338659 C32.0160051,49.3726734 32.0772541,49.2000027 32.1805416,48.9324354 C32.3653375,48.45372 32.5940947,47.9118348 32.8672521,47.3235109 C33.6514106,45.6345978 34.6208311,43.9453592 35.76934,42.3896493 C39.6300288,37.1601624 44.3178874,34.8052975 50.3966274,36.3088612 C52.6486892,36.865904 54.9258668,35.4916112 55.482846,33.2392923 C56.0398252,30.9869735 54.6656893,28.7095359 52.4136275,28.1524931 C42.5929683,25.7233734 34.7051268,29.6856945 29.0107712,37.3989703 C27.5002783,39.4450049 26.2550883,41.6147783 25.2475164,43.7848772 C24.8935681,44.5472076 24.5928729,45.2595013 24.3431808,45.906331 C24.1857755,46.3140908 24.0759181,46.6237966 24.0117389,46.8198716 C23.2899867,49.0249094 24.4922233,51.3976083 26.6970093,52.1194429 C28.9017954,52.8412775 31.2742235,51.6389037 31.9959756,49.4338659 L31.9959756,49.4338659 Z" id="Shape" fill="#C8C8C8"></path>
                            <path d="M31.9959756,47.2735503 C31.9317964,47.0774753 31.8219391,46.7677695 31.6645338,46.3600097 C31.4148416,45.71318 31.1141464,45.0008863 30.7601982,44.2385559 C29.7526262,42.068457 28.5074363,39.8986836 26.9969434,37.8526491 C21.3025877,30.1393732 13.4147463,26.1770521 3.59408704,28.6061718 C1.3420253,29.1632146 -0.0321106072,31.4406522 0.524868592,33.6929711 C1.08184779,35.9452899 3.3590254,37.3195827 5.61108714,36.76254 C11.6898271,35.2589762 16.3776857,37.6138411 20.2383746,42.843328 C21.3868834,44.3990379 22.356304,46.0882765 23.1404625,47.7771897 C23.4136199,48.3655135 23.642377,48.9073987 23.827173,49.3861141 C23.9304605,49.6536814 23.9917094,49.8263522 24.0117389,49.8875446 C24.7334911,52.0925824 27.1059191,53.2949562 29.3107052,52.5731216 C31.5154913,51.851287 32.7177278,49.4785881 31.9959756,47.2735503 L31.9959756,47.2735503 Z" id="Shape" fill="#E0E0E0"></path>
                            <ellipse id="Oval-17" fill="#D6D6D6" cx="27.6538091" cy="3.85097002" rx="3.85053038" ry="3.85097002"></ellipse>
                            <ellipse id="Oval-17" fill="#979797" cx="19.9527483" cy="10.1525573" rx="1.75024108" ry="1.75044092"></ellipse>
                            <path d="M23.8032787,15.0537919 L23.8032787,48.9693913 C23.8032787,51.2895717 25.6839418,53.1704495 28.0038573,53.1704495 C30.3237728,53.1704495 32.2044359,51.2895717 32.2044359,48.9693913 L32.2044359,15.0537919 C32.2044359,12.7336115 30.3237728,10.8527337 28.0038573,10.8527337 C25.6839418,10.8527337 23.8032787,12.7336115 23.8032787,15.0537919 L23.8032787,15.0537919 Z" id="Shape" fill="#C8C8C8"></path>
                            <ellipse id="Oval-17" fill="#ACACAC" cx="36.4050145" cy="9.10229277" rx="2.80038573" ry="2.80070547"></ellipse>
                            <ellipse id="Oval-17" fill="#ACACAC" cx="14.7020251" cy="28.707231" rx="2.80038573" ry="2.80070547"></ellipse>
                            <ellipse id="Oval-17" fill="#EEEEEE" cx="37.4551591" cy="29.0573192" rx="3.85053038" ry="3.85097002"></ellipse>
                        </g>
                    </g>
                    <g transform="translate(224.123433, 0.000000)" id="Group">
                        <g transform="translate(28.003857, 26.981881) scale(-1, 1) translate(-28.003857, -26.981881) translate(0.000000, 0.375179)">
                            <path d="M31.8527553,35.8060449 C31.8860292,35.7299191 31.9720396,35.5430854 32.1089774,35.2618698 C32.3493283,34.7682846 32.6373436,34.2118742 32.9709238,33.6091202 C33.9264369,31.8825803 35.0424656,30.1563046 36.2940209,28.5641929 C39.5842998,24.3786072 43.0948819,22.0131621 46.5188099,22.0131621 C48.8387254,22.0131621 50.7193885,20.1322842 50.7193885,17.8121039 C50.7193885,15.4919235 48.8387254,13.6110457 46.5188099,13.6110457 C39.9804647,13.6110457 34.4131668,17.3623146 29.6895551,23.3712524 C28.1362486,25.3472239 26.7807615,27.4438945 25.6205543,29.5403009 C24.9182681,30.8092787 24.4274304,31.8172641 24.1549593,32.4406379 C23.2257339,34.5665683 24.1956582,37.0433474 26.3213459,37.9726789 C28.4470336,38.9020103 30.9235299,37.9319753 31.8527553,35.8060449 L31.8527553,35.8060449 Z" id="Shape" fill="#E0E0E0"></path>
                            <path d="M32.1708526,33.5931766 C32.1439789,33.3819064 32.0931075,33.0603643 32.012331,32.6432407 C31.8857572,31.9896237 31.7174208,31.271906 31.500834,30.5045543 C30.8835005,28.3173852 29.9938569,26.127729 28.7655331,24.0541044 C25.8186095,19.0791841 21.4036779,15.5738282 15.4056904,14.4439846 C13.1258613,14.0145322 10.9295945,15.5147698 10.5001911,17.7948592 C10.0707877,20.0749486 11.5708541,22.2714662 13.8506831,22.7009187 C17.272416,23.345472 19.7429537,25.3070231 21.5375529,28.3366192 C22.3638104,29.7314856 22.984052,31.2580699 23.4156359,32.7871412 C23.5661702,33.3204737 23.681111,33.8105341 23.7644365,34.2408206 C23.8095996,34.4740391 23.8322218,34.617027 23.836862,34.6535062 C24.1296305,36.9551369 26.2325936,38.5836144 28.5339616,38.2908125 C30.8353295,37.9980105 32.4636211,35.8948073 32.1708526,33.5931766 L32.1708526,33.5931766 Z" id="Shape" fill="#C8C8C8"></path>
                            <path d="M31.9959756,49.4338659 C32.0160051,49.3726734 32.0772541,49.2000027 32.1805416,48.9324354 C32.3653375,48.45372 32.5940947,47.9118348 32.8672521,47.3235109 C33.6514106,45.6345978 34.6208311,43.9453592 35.76934,42.3896493 C39.6300288,37.1601624 44.3178874,34.8052975 50.3966274,36.3088612 C52.6486892,36.865904 54.9258668,35.4916112 55.482846,33.2392923 C56.0398252,30.9869735 54.6656893,28.7095359 52.4136275,28.1524931 C42.5929683,25.7233734 34.7051268,29.6856945 29.0107712,37.3989703 C27.5002783,39.4450049 26.2550883,41.6147783 25.2475164,43.7848772 C24.8935681,44.5472076 24.5928729,45.2595013 24.3431808,45.906331 C24.1857755,46.3140908 24.0759181,46.6237966 24.0117389,46.8198716 C23.2899867,49.0249094 24.4922233,51.3976083 26.6970093,52.1194429 C28.9017954,52.8412775 31.2742235,51.6389037 31.9959756,49.4338659 L31.9959756,49.4338659 Z" id="Shape" fill="#C8C8C8"></path>
                            <path d="M31.9959756,47.2735503 C31.9317964,47.0774753 31.8219391,46.7677695 31.6645338,46.3600097 C31.4148416,45.71318 31.1141464,45.0008863 30.7601982,44.2385559 C29.7526262,42.068457 28.5074363,39.8986836 26.9969434,37.8526491 C21.3025877,30.1393732 13.4147463,26.1770521 3.59408704,28.6061718 C1.3420253,29.1632146 -0.0321106072,31.4406522 0.524868592,33.6929711 C1.08184779,35.9452899 3.3590254,37.3195827 5.61108714,36.76254 C11.6898271,35.2589762 16.3776857,37.6138411 20.2383746,42.843328 C21.3868834,44.3990379 22.356304,46.0882765 23.1404625,47.7771897 C23.4136199,48.3655135 23.642377,48.9073987 23.827173,49.3861141 C23.9304605,49.6536814 23.9917094,49.8263522 24.0117389,49.8875446 C24.7334911,52.0925824 27.1059191,53.2949562 29.3107052,52.5731216 C31.5154913,51.851287 32.7177278,49.4785881 31.9959756,47.2735503 L31.9959756,47.2735503 Z" id="Shape" fill="#E0E0E0"></path>
                            <ellipse id="Oval-17" fill="#D6D6D6" cx="27.6538091" cy="3.85097002" rx="3.85053038" ry="3.85097002"></ellipse>
                            <ellipse id="Oval-17" fill="#979797" cx="19.9527483" cy="10.1525573" rx="1.75024108" ry="1.75044092"></ellipse>
                            <path d="M23.8032787,15.0537919 L23.8032787,48.9693913 C23.8032787,51.2895717 25.6839418,53.1704495 28.0038573,53.1704495 C30.3237728,53.1704495 32.2044359,51.2895717 32.2044359,48.9693913 L32.2044359,15.0537919 C32.2044359,12.7336115 30.3237728,10.8527337 28.0038573,10.8527337 C25.6839418,10.8527337 23.8032787,12.7336115 23.8032787,15.0537919 L23.8032787,15.0537919 Z" id="Shape" fill="#C8C8C8"></path>
                            <ellipse id="Oval-17" fill="#ACACAC" cx="36.4050145" cy="9.10229277" rx="2.80038573" ry="2.80070547"></ellipse>
                            <ellipse id="Oval-17" fill="#ACACAC" cx="14.7020251" cy="28.707231" rx="2.80038573" ry="2.80070547"></ellipse>
                            <ellipse id="Oval-17" fill="#EEEEEE" cx="37.4551591" cy="29.0573192" rx="3.85053038" ry="3.85097002"></ellipse>
                        </g>
                    </g>
                    <g transform="translate(74.707811, 0.000000)" id="Group">
                        <g transform="translate(28.003857, 26.981881) scale(-1, 1) translate(-28.003857, -26.981881) translate(0.000000, 0.375179)">
                            <path d="M31.8527553,35.8060449 C31.8860292,35.7299191 31.9720396,35.5430854 32.1089774,35.2618698 C32.3493283,34.7682846 32.6373436,34.2118742 32.9709238,33.6091202 C33.9264369,31.8825803 35.0424656,30.1563046 36.2940209,28.5641929 C39.5842998,24.3786072 43.0948819,22.0131621 46.5188099,22.0131621 C48.8387254,22.0131621 50.7193885,20.1322842 50.7193885,17.8121039 C50.7193885,15.4919235 48.8387254,13.6110457 46.5188099,13.6110457 C39.9804647,13.6110457 34.4131668,17.3623146 29.6895551,23.3712524 C28.1362486,25.3472239 26.7807615,27.4438945 25.6205543,29.5403009 C24.9182681,30.8092787 24.4274304,31.8172641 24.1549593,32.4406379 C23.2257339,34.5665683 24.1956582,37.0433474 26.3213459,37.9726789 C28.4470336,38.9020103 30.9235299,37.9319753 31.8527553,35.8060449 L31.8527553,35.8060449 Z" id="Shape" fill="#E0E0E0"></path>
                            <path d="M32.1708526,33.5931766 C32.1439789,33.3819064 32.0931075,33.0603643 32.012331,32.6432407 C31.8857572,31.9896237 31.7174208,31.271906 31.500834,30.5045543 C30.8835005,28.3173852 29.9938569,26.127729 28.7655331,24.0541044 C25.8186095,19.0791841 21.4036779,15.5738282 15.4056904,14.4439846 C13.1258613,14.0145322 10.9295945,15.5147698 10.5001911,17.7948592 C10.0707877,20.0749486 11.5708541,22.2714662 13.8506831,22.7009187 C17.272416,23.345472 19.7429537,25.3070231 21.5375529,28.3366192 C22.3638104,29.7314856 22.984052,31.2580699 23.4156359,32.7871412 C23.5661702,33.3204737 23.681111,33.8105341 23.7644365,34.2408206 C23.8095996,34.4740391 23.8322218,34.617027 23.836862,34.6535062 C24.1296305,36.9551369 26.2325936,38.5836144 28.5339616,38.2908125 C30.8353295,37.9980105 32.4636211,35.8948073 32.1708526,33.5931766 L32.1708526,33.5931766 Z" id="Shape" fill="#C8C8C8"></path>
                            <path d="M31.9959756,49.4338659 C32.0160051,49.3726734 32.0772541,49.2000027 32.1805416,48.9324354 C32.3653375,48.45372 32.5940947,47.9118348 32.8672521,47.3235109 C33.6514106,45.6345978 34.6208311,43.9453592 35.76934,42.3896493 C39.6300288,37.1601624 44.3178874,34.8052975 50.3966274,36.3088612 C52.6486892,36.865904 54.9258668,35.4916112 55.482846,33.2392923 C56.0398252,30.9869735 54.6656893,28.7095359 52.4136275,28.1524931 C42.5929683,25.7233734 34.7051268,29.6856945 29.0107712,37.3989703 C27.5002783,39.4450049 26.2550883,41.6147783 25.2475164,43.7848772 C24.8935681,44.5472076 24.5928729,45.2595013 24.3431808,45.906331 C24.1857755,46.3140908 24.0759181,46.6237966 24.0117389,46.8198716 C23.2899867,49.0249094 24.4922233,51.3976083 26.6970093,52.1194429 C28.9017954,52.8412775 31.2742235,51.6389037 31.9959756,49.4338659 L31.9959756,49.4338659 Z" id="Shape" fill="#C8C8C8"></path>
                            <path d="M31.9959756,47.2735503 C31.9317964,47.0774753 31.8219391,46.7677695 31.6645338,46.3600097 C31.4148416,45.71318 31.1141464,45.0008863 30.7601982,44.2385559 C29.7526262,42.068457 28.5074363,39.8986836 26.9969434,37.8526491 C21.3025877,30.1393732 13.4147463,26.1770521 3.59408704,28.6061718 C1.3420253,29.1632146 -0.0321106072,31.4406522 0.524868592,33.6929711 C1.08184779,35.9452899 3.3590254,37.3195827 5.61108714,36.76254 C11.6898271,35.2589762 16.3776857,37.6138411 20.2383746,42.843328 C21.3868834,44.3990379 22.356304,46.0882765 23.1404625,47.7771897 C23.4136199,48.3655135 23.642377,48.9073987 23.827173,49.3861141 C23.9304605,49.6536814 23.9917094,49.8263522 24.0117389,49.8875446 C24.7334911,52.0925824 27.1059191,53.2949562 29.3107052,52.5731216 C31.5154913,51.851287 32.7177278,49.4785881 31.9959756,47.2735503 L31.9959756,47.2735503 Z" id="Shape" fill="#E0E0E0"></path>
                            <ellipse id="Oval-17" fill="#D6D6D6" cx="27.6538091" cy="3.85097002" rx="3.85053038" ry="3.85097002"></ellipse>
                            <ellipse id="Oval-17" fill="#979797" cx="19.9527483" cy="10.1525573" rx="1.75024108" ry="1.75044092"></ellipse>
                            <path d="M23.8032787,15.0537919 L23.8032787,48.9693913 C23.8032787,51.2895717 25.6839418,53.1704495 28.0038573,53.1704495 C30.3237728,53.1704495 32.2044359,51.2895717 32.2044359,48.9693913 L32.2044359,15.0537919 C32.2044359,12.7336115 30.3237728,10.8527337 28.0038573,10.8527337 C25.6839418,10.8527337 23.8032787,12.7336115 23.8032787,15.0537919 L23.8032787,15.0537919 Z" id="Shape" fill="#C8C8C8"></path>
                            <ellipse id="Oval-17" fill="#ACACAC" cx="36.4050145" cy="9.10229277" rx="2.80038573" ry="2.80070547"></ellipse>
                            <ellipse id="Oval-17" fill="#ACACAC" cx="14.7020251" cy="28.707231" rx="2.80038573" ry="2.80070547"></ellipse>
                            <ellipse id="Oval-17" fill="#EEEEEE" cx="37.4551591" cy="29.0573192" rx="3.85053038" ry="3.85097002"></ellipse>
                        </g>
                    </g>
                    <g id="Group">
                        <g transform="translate(28.003857, 26.981881) scale(-1, 1) translate(-28.003857, -26.981881) translate(0.000000, 0.375179)">
                            <path d="M31.8527553,35.8060449 C31.8860292,35.7299191 31.9720396,35.5430854 32.1089774,35.2618698 C32.3493283,34.7682846 32.6373436,34.2118742 32.9709238,33.6091202 C33.9264369,31.8825803 35.0424656,30.1563046 36.2940209,28.5641929 C39.5842998,24.3786072 43.0948819,22.0131621 46.5188099,22.0131621 C48.8387254,22.0131621 50.7193885,20.1322842 50.7193885,17.8121039 C50.7193885,15.4919235 48.8387254,13.6110457 46.5188099,13.6110457 C39.9804647,13.6110457 34.4131668,17.3623146 29.6895551,23.3712524 C28.1362486,25.3472239 26.7807615,27.4438945 25.6205543,29.5403009 C24.9182681,30.8092787 24.4274304,31.8172641 24.1549593,32.4406379 C23.2257339,34.5665683 24.1956582,37.0433474 26.3213459,37.9726789 C28.4470336,38.9020103 30.9235299,37.9319753 31.8527553,35.8060449 L31.8527553,35.8060449 Z" id="Shape" fill="#E0E0E0"></path>
                            <path d="M32.1708526,33.5931766 C32.1439789,33.3819064 32.0931075,33.0603643 32.012331,32.6432407 C31.8857572,31.9896237 31.7174208,31.271906 31.500834,30.5045543 C30.8835005,28.3173852 29.9938569,26.127729 28.7655331,24.0541044 C25.8186095,19.0791841 21.4036779,15.5738282 15.4056904,14.4439846 C13.1258613,14.0145322 10.9295945,15.5147698 10.5001911,17.7948592 C10.0707877,20.0749486 11.5708541,22.2714662 13.8506831,22.7009187 C17.272416,23.345472 19.7429537,25.3070231 21.5375529,28.3366192 C22.3638104,29.7314856 22.984052,31.2580699 23.4156359,32.7871412 C23.5661702,33.3204737 23.681111,33.8105341 23.7644365,34.2408206 C23.8095996,34.4740391 23.8322218,34.617027 23.836862,34.6535062 C24.1296305,36.9551369 26.2325936,38.5836144 28.5339616,38.2908125 C30.8353295,37.9980105 32.4636211,35.8948073 32.1708526,33.5931766 L32.1708526,33.5931766 Z" id="Shape" fill="#C8C8C8"></path>
                            <path d="M31.9959756,49.4338659 C32.0160051,49.3726734 32.0772541,49.2000027 32.1805416,48.9324354 C32.3653375,48.45372 32.5940947,47.9118348 32.8672521,47.3235109 C33.6514106,45.6345978 34.6208311,43.9453592 35.76934,42.3896493 C39.6300288,37.1601624 44.3178874,34.8052975 50.3966274,36.3088612 C52.6486892,36.865904 54.9258668,35.4916112 55.482846,33.2392923 C56.0398252,30.9869735 54.6656893,28.7095359 52.4136275,28.1524931 C42.5929683,25.7233734 34.7051268,29.6856945 29.0107712,37.3989703 C27.5002783,39.4450049 26.2550883,41.6147783 25.2475164,43.7848772 C24.8935681,44.5472076 24.5928729,45.2595013 24.3431808,45.906331 C24.1857755,46.3140908 24.0759181,46.6237966 24.0117389,46.8198716 C23.2899867,49.0249094 24.4922233,51.3976083 26.6970093,52.1194429 C28.9017954,52.8412775 31.2742235,51.6389037 31.9959756,49.4338659 L31.9959756,49.4338659 Z" id="Shape" fill="#C8C8C8"></path>
                            <path d="M31.9959756,47.2735503 C31.9317964,47.0774753 31.8219391,46.7677695 31.6645338,46.3600097 C31.4148416,45.71318 31.1141464,45.0008863 30.7601982,44.2385559 C29.7526262,42.068457 28.5074363,39.8986836 26.9969434,37.8526491 C21.3025877,30.1393732 13.4147463,26.1770521 3.59408704,28.6061718 C1.3420253,29.1632146 -0.0321106072,31.4406522 0.524868592,33.6929711 C1.08184779,35.9452899 3.3590254,37.3195827 5.61108714,36.76254 C11.6898271,35.2589762 16.3776857,37.6138411 20.2383746,42.843328 C21.3868834,44.3990379 22.356304,46.0882765 23.1404625,47.7771897 C23.4136199,48.3655135 23.642377,48.9073987 23.827173,49.3861141 C23.9304605,49.6536814 23.9917094,49.8263522 24.0117389,49.8875446 C24.7334911,52.0925824 27.1059191,53.2949562 29.3107052,52.5731216 C31.5154913,51.851287 32.7177278,49.4785881 31.9959756,47.2735503 L31.9959756,47.2735503 Z" id="Shape" fill="#E0E0E0"></path>
                            <ellipse id="Oval-17" fill="#D6D6D6" cx="27.6538091" cy="3.85097002" rx="3.85053038" ry="3.85097002"></ellipse>
                            <ellipse id="Oval-17" fill="#979797" cx="19.9527483" cy="10.1525573" rx="1.75024108" ry="1.75044092"></ellipse>
                            <path d="M23.8032787,15.0537919 L23.8032787,48.9693913 C23.8032787,51.2895717 25.6839418,53.1704495 28.0038573,53.1704495 C30.3237728,53.1704495 32.2044359,51.2895717 32.2044359,48.9693913 L32.2044359,15.0537919 C32.2044359,12.7336115 30.3237728,10.8527337 28.0038573,10.8527337 C25.6839418,10.8527337 23.8032787,12.7336115 23.8032787,15.0537919 L23.8032787,15.0537919 Z" id="Shape" fill="#C8C8C8"></path>
                            <ellipse id="Oval-17" fill="#ACACAC" cx="36.4050145" cy="9.10229277" rx="2.80038573" ry="2.80070547"></ellipse>
                            <ellipse id="Oval-17" fill="#ACACAC" cx="14.7020251" cy="28.707231" rx="2.80038573" ry="2.80070547"></ellipse>
                            <ellipse id="Oval-17" fill="#EEEEEE" cx="37.4551591" cy="29.0573192" rx="3.85053038" ry="3.85097002"></ellipse>
                        </g>
                    </g>
                </g>
                <g id="land" transform="translate(39.905497, 334.384480)" sketch:type="MSShapeGroup">
                    <path d="M106.764706,9.75220459 L601.034752,9.75220459 C603.354668,9.75220459 605.235331,7.87132676 605.235331,5.55114638 C605.235331,3.23096601 603.354668,1.35008818 601.034752,1.35008818 L106.764706,1.35008818 C104.44479,1.35008818 102.564127,3.23096601 102.564127,5.55114638 C102.564127,7.87132676 104.44479,9.75220459 106.764706,9.75220459 L106.764706,9.75220459 Z" id="Shape" fill="#F2F2F2"></path>
                    <path d="M752.764706,8.75220459 L1247.03475,8.75220459 C1249.35467,8.75220459 1251.23533,6.87132676 1251.23533,4.55114638 C1251.23533,2.23096601 1249.35467,0.350088183 1247.03475,0.350088183 L752.764706,0.350088183 C750.44479,0.350088183 748.564127,2.23096601 748.564127,4.55114638 C748.564127,6.87132676 750.44479,8.75220459 752.764706,8.75220459 L752.764706,8.75220459 Z" id="Shape" fill="#F2F2F2"></path>
                    <path d="M462.702002,37.0590829 L630.438803,37.0590829 C632.758718,37.0590829 634.639381,35.1782051 634.639381,32.8580247 C634.639381,30.5378443 632.758718,28.6569665 630.438803,28.6569665 L462.702002,28.6569665 C460.382086,28.6569665 458.501423,30.5378443 458.501423,32.8580247 C458.501423,35.1782051 460.382086,37.0590829 462.702002,37.0590829 L462.702002,37.0590829 Z" id="Shape" fill="#E0E0E0"></path>
                    <path d="M1145.702,37.0590829 L1313.4388,37.0590829 C1315.75872,37.0590829 1317.63938,35.1782051 1317.63938,32.8580247 C1317.63938,30.5378443 1315.75872,28.6569665 1313.4388,28.6569665 L1145.702,28.6569665 C1143.38209,28.6569665 1141.50142,30.5378443 1141.50142,32.8580247 C1141.50142,35.1782051 1143.38209,37.0590829 1145.702,37.0590829 L1145.702,37.0590829 Z" id="Shape" fill="#E0E0E0"></path>
                    <path d="M206.129977,60.1184484 L289.139828,60.1184484 C291.459743,60.1184484 293.340406,58.2375706 293.340406,55.9173902 C293.340406,53.5972098 291.459743,51.716332 289.139828,51.716332 L206.129977,51.716332 C203.810061,51.716332 201.929398,53.5972098 201.929398,55.9173902 C201.929398,58.2375706 203.810061,60.1184484 206.129977,60.1184484 L206.129977,60.1184484 Z" id="Shape" fill="#E0E0E0"></path>
                    <path d="M335.284451,37.0590829 L362.65219,37.0590829 C364.972105,37.0590829 366.852768,35.1782051 366.852768,32.8580247 C366.852768,30.5378443 364.972105,28.6569665 362.65219,28.6569665 L335.284451,28.6569665 C332.964536,28.6569665 331.083873,30.5378443 331.083873,32.8580247 C331.083873,35.1782051 332.964536,37.0590829 335.284451,37.0590829 L335.284451,37.0590829 Z" id="Shape" fill="#CACACA"></path>
                    <path d="M418.595927,62.2654321 L480.967232,62.2654321 C483.287147,62.2654321 485.16781,60.3845543 485.16781,58.0643739 C485.16781,55.7441935 483.287147,53.8633157 480.967232,53.8633157 L418.595927,53.8633157 C416.276011,53.8633157 414.395348,55.7441935 414.395348,58.0643739 C414.395348,60.3845543 416.276011,62.2654321 418.595927,62.2654321 L418.595927,62.2654321 Z" id="Shape" fill="#CACACA"></path>
                    <path d="M717.378475,62.2654321 L779.74978,62.2654321 C782.069695,62.2654321 783.950358,60.3845543 783.950358,58.0643739 C783.950358,55.7441935 782.069695,53.8633157 779.74978,53.8633157 L717.378475,53.8633157 C715.058559,53.8633157 713.177896,55.7441935 713.177896,58.0643739 C713.177896,60.3845543 715.058559,62.2654321 717.378475,62.2654321 L717.378475,62.2654321 Z" id="Shape" fill="#CACACA"></path>
                    <path d="M43.3442392,58.0643739 L105.715544,58.0643739 C108.03546,58.0643739 109.916123,56.1834961 109.916123,53.8633157 C109.916123,51.5431353 108.03546,49.6622575 105.715544,49.6622575 L43.3442392,49.6622575 C41.0243237,49.6622575 39.1436606,51.5431353 39.1436606,53.8633157 C39.1436606,56.1834961 41.0243237,58.0643739 43.3442392,58.0643739 L43.3442392,58.0643739 Z" id="Shape" fill="#CACACA"></path>
                    <path d="M506.107981,37.0590829 L560.777242,37.0590829 C563.097158,37.0590829 564.977821,35.1782051 564.977821,32.8580247 C564.977821,30.5378443 563.097158,28.6569665 560.777242,28.6569665 L506.107981,28.6569665 C503.788065,28.6569665 501.907402,30.5378443 501.907402,32.8580247 C501.907402,35.1782051 503.788065,37.0590829 506.107981,37.0590829 L506.107981,37.0590829 Z" id="Shape" fill="#FFFFFF"></path>
                    <path d="M1189.10798,37.0590829 L1243.77724,37.0590829 C1246.09716,37.0590829 1247.97782,35.1782051 1247.97782,32.8580247 C1247.97782,30.5378443 1246.09716,28.6569665 1243.77724,28.6569665 L1189.10798,28.6569665 C1186.78807,28.6569665 1184.9074,30.5378443 1184.9074,32.8580247 C1184.9074,35.1782051 1186.78807,37.0590829 1189.10798,37.0590829 L1189.10798,37.0590829 Z" id="Shape" fill="#FFFFFF"></path>
                    <path d="M249.535956,60.1184484 L304.205217,60.1184484 C306.525132,60.1184484 308.405796,58.2375706 308.405796,55.9173902 C308.405796,53.5972098 306.525132,51.716332 304.205217,51.716332 L249.535956,51.716332 C247.21604,51.716332 245.335377,53.5972098 245.335377,55.9173902 C245.335377,58.2375706 247.21604,60.1184484 249.535956,60.1184484 L249.535956,60.1184484 Z" id="Shape" fill="#F2F2F2"></path>
                    <path d="M94.4512787,37.0590829 L262.188079,37.0590829 C264.507995,37.0590829 266.388658,35.1782051 266.388658,32.8580247 C266.388658,30.5378443 264.507995,28.6569665 262.188079,28.6569665 L94.4512787,28.6569665 C92.1313632,28.6569665 90.2507001,30.5378443 90.2507001,32.8580247 C90.2507001,35.1782051 92.1313632,37.0590829 94.4512787,37.0590829 L94.4512787,37.0590829 Z" id="Shape" fill="#D6D6D6"></path>
                    <path d="M10.0896586,9.75220459 L177.826459,9.75220459 C180.146375,9.75220459 182.027038,7.87132676 182.027038,5.55114638 C182.027038,3.23096601 180.146375,1.35008818 177.826459,1.35008818 L10.0896586,1.35008818 C7.76974314,1.35008818 5.88908004,3.23096601 5.88908004,5.55114638 C5.88908004,7.87132676 7.76974314,9.75220459 10.0896586,9.75220459 L10.0896586,9.75220459 Z" id="Shape" fill="#EAEAEA"></path>
                    <path d="M578.979749,9.75220459 L681.194427,9.75220459 C683.514342,9.75220459 685.395005,7.87132676 685.395005,5.55114638 C685.395005,3.23096601 683.514342,1.35008818 681.194427,1.35008818 L578.979749,1.35008818 C576.659834,1.35008818 574.779171,3.23096601 574.779171,5.55114638 C574.779171,7.87132676 576.659834,9.75220459 578.979749,9.75220459 L578.979749,9.75220459 Z" id="Shape" fill="#CFCFCF"></path>
                    <path d="M4.20057859,9.75220459 L105.715544,9.75220459 C108.03546,9.75220459 109.916123,7.87132676 109.916123,5.55114638 C109.916123,3.23096601 108.03546,1.35008818 105.715544,1.35008818 L4.20057859,1.35008818 C1.8806631,1.35008818 0,3.23096601 0,5.55114638 C0,7.87132676 1.8806631,9.75220459 4.20057859,9.75220459 L4.20057859,9.75220459 Z" id="Shape" fill="#CACACA"></path>
                </g>
                <path d="M459.478734,152.714143 C458.43308,149.819345 457.863067,146.697015 457.863067,143.441537 C457.863067,128.370816 470.078905,116.153582 485.147906,116.153582 C497.438769,116.153582 507.831518,124.281302 511.245801,135.455809 C513.334066,134.625434 515.611565,134.168931 517.995674,134.168931 C528.090441,134.168931 536.273867,142.353291 536.273867,152.449211 C536.273867,152.53767 536.273239,152.625982 536.271986,152.714143 L459.478734,152.714143 Z" id="Oval-8" fill-opacity="0.100000001" fill="#000000" sketch:type="MSShapeGroup"></path>
                <path d="M161.93775,37.1850422 C160.892096,34.2902442 160.322083,31.1679147 160.322083,27.9124362 C160.322083,12.8417151 172.537922,0.624481624 187.606922,0.624481624 C199.897785,0.624481624 210.290534,8.75220118 213.704817,19.9267085 C215.793083,19.0963338 218.070581,18.6398303 220.45469,18.6398303 C230.549457,18.6398303 238.732883,26.8241906 238.732883,36.9201106 C238.732883,37.0085693 238.732255,37.0968812 238.731003,37.1850422 L161.93775,37.1850422 Z" id="Oval-8" fill="#F2F2F2" sketch:type="MSShapeGroup"></path>
                <path d="M642.282141,92.5602715 C643.222657,90.1415269 643.738669,87.5107276 643.738669,84.7593935 C643.738669,72.868469 634.100271,63.2289702 622.210704,63.2289702 C619.402713,63.2289702 616.720286,63.7666378 614.260737,64.7446489 C610.239411,51.5833697 597.998883,42.010582 583.522766,42.010582 C565.774572,42.010582 551.386818,56.3999788 551.386818,74.1501994 C551.386818,74.432899 551.390468,74.7147462 551.397722,74.9956963 C549.995562,74.6471944 548.528791,74.4622345 547.018825,74.4622345 C537.024696,74.4622345 528.922854,82.5650016 528.922854,92.5602715 L642.282141,92.5602715 Z" id="Oval-8" fill-opacity="0.05" fill="#000000" sketch:type="MSShapeGroup"></path>
                <g id="bike" transform="translate(523.672131, 270.268078)" sketch:type="MSShapeGroup">
                    <path d="M49.0067502,52.5132275 L86.4619094,52.5132275 C88.7818249,52.5132275 90.6624879,50.6323497 90.6624879,48.3121693 C90.6624879,45.9919889 88.7818249,44.1111111 86.4619094,44.1111111 L49.0067502,44.1111111 C46.6868347,44.1111111 44.8061716,45.9919889 44.8061716,48.3121693 C44.8061716,50.6323497 46.6868347,52.5132275 49.0067502,52.5132275 L49.0067502,52.5132275 Z" id="Shape" fill="#BCBCBC"></path>
                    <path d="M42.7058824,33.6084656 L94.5130183,33.6084656 C96.8329338,33.6084656 98.7135969,31.7275878 98.7135969,29.4074074 C98.7135969,27.087227 96.8329338,25.2063492 94.5130183,25.2063492 L42.7058824,25.2063492 C40.3859669,25.2063492 38.5053038,27.087227 38.5053038,29.4074074 C38.5053038,31.7275878 40.3859669,33.6084656 42.7058824,33.6084656 L42.7058824,33.6084656 Z" id="Shape" fill="#BCBCBC"></path>
                    <path d="M25.5535198,71.4179894 C39.666339,71.4179894 51.1070395,59.9759827 51.1070395,45.861552 C51.1070395,31.7471214 39.666339,20.3051146 25.5535198,20.3051146 C11.4407005,20.3051146 0,31.7471214 0,45.861552 C0,59.9759827 11.4407005,71.4179894 25.5535198,71.4179894 L25.5535198,71.4179894 Z M25.5535198,63.015873 C16.0805315,63.015873 8.40115718,55.3356219 8.40115718,45.861552 C8.40115718,36.3874822 16.0805315,28.707231 25.5535198,28.707231 C35.026508,28.707231 42.7058824,36.3874822 42.7058824,45.861552 C42.7058824,55.3356219 35.026508,63.015873 25.5535198,63.015873 L25.5535198,63.015873 Z" id="Shape" fill="#E6E6E6"></path>
                    <path d="M108.164899,71.4179894 C122.277718,71.4179894 133.718419,59.9759827 133.718419,45.861552 C133.718419,31.7471214 122.277718,20.3051146 108.164899,20.3051146 C94.0520795,20.3051146 82.611379,31.7471214 82.611379,45.861552 C82.611379,59.9759827 94.0520795,71.4179894 108.164899,71.4179894 L108.164899,71.4179894 Z M108.164899,63.015873 C98.6919105,63.015873 91.0125362,55.3356219 91.0125362,45.861552 C91.0125362,36.3874822 98.6919105,28.707231 108.164899,28.707231 C117.637887,28.707231 125.317261,36.3874822 125.317261,45.861552 C125.317261,55.3356219 117.637887,63.015873 108.164899,63.015873 L108.164899,63.015873 Z" id="Shape" fill="#E6E6E6"></path>
                    <path d="M81.2534041,5.49535392 L85.4539826,34.9027613 C85.7820682,37.1996227 87.9097956,38.7956005 90.2063948,38.4674774 C92.502994,38.1393544 94.0987895,36.011384 93.7707039,33.7145226 L89.5701254,4.30711522 C89.2420398,2.01025383 87.1143124,0.414276073 84.8177132,0.742399129 C82.521114,1.07052218 80.9253185,3.19849253 81.2534041,5.49535392 L81.2534041,5.49535392 Z" id="Shape" fill="#BBBBBB"></path>
                    <path d="M5.38550157,40.6105041 L41.2523243,58.1059198 C43.3374506,59.1230199 45.8522078,58.2570207 46.8691918,56.1716564 C47.8861758,54.0862921 47.0202755,51.5712477 44.9351493,50.5541476 L9.06832648,33.0587319 C6.98320024,32.0416318 4.46844301,32.907631 3.45145899,34.9929953 C2.43447498,37.0783596 3.30037533,39.593404 5.38550157,40.6105041 L5.38550157,40.6105041 Z" id="Shape" fill="#E6E6E6"></path>
                    <path d="M30.4616391,27.5242786 L13.5792351,62.1422885 L11.7378227,65.9181746 L19.2887327,69.60142 L21.1301452,65.8255339 L38.0125492,31.207524 L39.8539617,27.4316379 L32.3030516,23.7483925 L30.4616391,27.5242786 L30.4616391,27.5242786 Z" id="Shape" fill="#E6E6E6"></path>
                    <path d="M90.8038691,34.576803 L119.021316,62.797472 C120.661744,64.4380873 123.321404,64.4380873 124.961832,62.797472 C126.60226,61.1568567 126.60226,58.4968938 124.961832,56.8562785 L96.7443843,28.6356095 C95.1039563,26.9949942 92.4442971,26.9949942 90.8038691,28.6356095 C89.1634411,30.2762248 89.1634411,32.9361877 90.8038691,34.576803 L90.8038691,34.576803 Z" id="Shape" fill="#E6E6E6"></path>
                    <path d="M118.773795,30.3684576 L91.5419334,57.6034284 L88.5716757,60.5740251 L94.512191,66.5152186 L97.4824486,63.5446219 L124.71431,36.3096511 L127.684568,33.3390543 L121.744053,27.3978608 L118.773795,30.3684576 L118.773795,30.3684576 Z" id="Shape" fill="#E6E6E6"></path>
                    <path d="M48.656702,14.7037037 L68.2718995,14.7037037 C70.591815,14.7037037 72.472478,12.8228259 72.472478,10.5026455 C72.472478,8.18246513 70.591815,6.3015873 68.2718995,6.3015873 L48.656702,6.3015873 C46.3367865,6.3015873 44.4561234,8.18246513 44.4561234,10.5026455 C44.4561234,12.8228259 46.3367865,14.7037037 48.656702,14.7037037 L48.656702,14.7037037 Z" id="Shape" fill="#BBBBBB"></path>
                </g>
                <path d="M988.478734,99.5602715 C987.43308,96.6654734 986.863067,93.5431439 986.863067,90.2876655 C986.863067,75.2169443 999.078905,62.9997109 1014.14791,62.9997109 C1026.43877,62.9997109 1036.83152,71.1274304 1040.2458,82.3019377 C1042.33407,81.4715631 1044.61157,81.0150596 1046.99567,81.0150596 C1057.09044,81.0150596 1065.27387,89.1994198 1065.27387,99.2953399 C1065.27387,99.3837985 1065.27324,99.4721105 1065.27199,99.5602715 L988.478734,99.5602715 Z" id="Oval-8" fill-opacity="0.100000001" fill="#000000" sketch:type="MSShapeGroup" transform="translate(1026.068467, 81.279991) scale(-1, 1) translate(-1026.068467, -81.279991) "></path>
                <path d="M1004.28214,99.5602715 C1005.22266,97.1415269 1005.73867,94.5107276 1005.73867,91.7593935 C1005.73867,79.868469 996.100271,70.2289702 984.210704,70.2289702 C981.402713,70.2289702 978.720286,70.7666378 976.260737,71.7446489 C972.239411,58.5833697 959.998883,49.010582 945.522766,49.010582 C927.774572,49.010582 913.386818,63.3999788 913.386818,81.1501994 C913.386818,81.432899 913.390468,81.7147462 913.397722,81.9956963 C911.995562,81.6471944 910.528791,81.4622345 909.018825,81.4622345 C899.024696,81.4622345 890.922854,89.5650016 890.922854,99.5602715 L1004.28214,99.5602715 Z" id="Oval-8" fill-opacity="0.05" fill="#000000" sketch:type="MSShapeGroup"></path>
                <path d="M889.104417,150.109961 C890.278626,147.090222 890.922854,143.805738 890.922854,140.370769 C890.922854,125.525262 878.889567,113.490601 864.045755,113.490601 C860.540051,113.490601 857.191112,114.161865 854.12043,115.382886 C849.09991,98.9513743 833.817932,87 815.74488,87 C793.586725,87 775.623992,104.964784 775.623992,127.125469 C775.623992,127.478412 775.628548,127.830291 775.637605,128.18105 C773.887044,127.745954 772.055819,127.515037 770.170667,127.515037 C757.693259,127.515037 747.578322,137.631129 747.578322,150.109961 L889.104417,150.109961 Z" id="Oval-8" fill-opacity="0.05" fill="#000000" sketch:type="MSShapeGroup"></path>
            </g>
        </g>
    </g>
</svg>