<?xml version="1.0" encoding="UTF-8" standalone="no"?>
<svg width="1358px" height="400px" viewBox="0 0 1358 400" version="1.1" xmlns="http://www.w3.org/2000/svg" xmlns:xlink="http://www.w3.org/1999/xlink" xmlns:sketch="http://www.bohemiancoding.com/sketch/ns">
    <!-- Generator: Sketch 3.3.2 (12043) - http://www.bohemiancoding.com/sketch -->
    <title>right@3x</title>
    <desc>Created with Sketch.</desc>
    <defs></defs>
    <g id="Page-1" stroke="none" stroke-width="1" fill="none" fill-rule="evenodd" sketch:type="MSPage">
        <g id="illustration-hope" sketch:type="MSArtboardGroup" transform="translate(-1365.000000, -103.000000)">
            <g id="right" sketch:type="MSLayerGroup" transform="translate(1505.000000, 127.000000)">
                <g id="sun" transform="translate(653.262048, 13.996248)" sketch:type="MSShapeGroup">
                    <path d="M360.438339,300.569418 C360.94252,296.008442 361.201355,291.37352 361.201355,286.678143 C361.201355,217.630685 305.228386,161.65666 236.182229,161.65666 C167.136072,161.65666 111.163102,217.630685 111.163102,286.678143 C111.163102,291.37352 111.421938,296.008442 111.926119,300.569418 L360.438339,300.569418 Z" id="Oval-40" fill="#F3F3F3"></path>
                    <path d="M320.688903,300.569418 C321.031797,297.467495 321.207831,294.315281 321.207831,291.121951 C321.207831,244.162723 283.140572,206.094747 236.182229,206.094747 C189.223885,206.094747 151.156627,244.162723 151.156627,291.121951 C151.156627,294.315281 151.332661,297.467495 151.675555,300.569418 L320.688903,300.569418 Z" id="Oval-40" fill="#FFFFFF"></path>
                    <path d="M351.299197,286.573171 C351.299197,252.441624 336.353149,220.730277 310.898048,198.993266 C309.134579,197.487378 306.484264,197.696215 304.978403,199.459717 C303.472543,201.22322 303.681376,203.873585 305.444846,205.379473 C329.050839,225.537466 342.901606,254.924933 342.901606,286.573171 C342.901606,288.892145 344.781471,290.772045 347.100402,290.772045 C349.419332,290.772045 351.299197,288.892145 351.299197,286.573171 L351.299197,286.573171 Z M236.182229,171.454034 C219.288181,171.454034 202.901465,175.098421 187.896155,182.041204 C185.791575,183.014968 184.874853,185.510492 185.848599,187.615112 C186.822346,189.719731 189.317822,190.63647 191.422402,189.662706 C205.328044,183.228727 220.512224,179.851782 236.182229,179.851782 C238.501159,179.851782 240.381024,177.971882 240.381024,175.652908 C240.381024,173.333934 238.501159,171.454034 236.182229,171.454034 L236.182229,171.454034 Z M126.619795,251.148261 C122.953487,262.495946 121.065261,274.409552 121.065261,286.573171 C121.065261,288.892145 122.945126,290.772045 125.264056,290.772045 C127.582987,290.772045 129.462851,288.892145 129.462851,286.573171 C129.462851,275.288788 131.213028,264.246189 134.610653,253.730114 C135.323598,251.523457 134.11274,249.156642 131.906126,248.443683 C129.699511,247.730724 127.33274,248.941605 126.619795,251.148261 L126.619795,251.148261 Z" id="Shape" fill="#FFFFFF"></path>
                    <path d="M17.5316079,75.2427114 L117.252993,162.369353 C118.999305,163.895106 121.651814,163.716282 123.177539,161.969938 C124.703263,160.223594 124.524442,157.571035 122.778131,156.045281 L23.0567455,68.9186395 C21.3104342,67.3928861 18.657925,67.5717103 17.1322003,69.3180545 C15.6064757,71.0643988 15.7852966,73.716958 17.5316079,75.2427114 L17.5316079,75.2427114 Z" id="Shape" fill="#EAEAEA"></path>
                    <path d="M327.12844,180.156658 C301.598342,158.355604 269.197559,146.172389 234.926281,146.172389 C232.607351,146.172389 230.727486,148.052289 230.727486,150.371264 C230.727486,152.690238 232.607351,154.570138 234.926281,154.570138 C267.179345,154.570138 297.651524,166.028167 321.675238,186.542865 C323.438707,188.048754 326.089022,187.839917 327.594883,186.076415 C329.100743,184.312912 328.89191,181.662547 327.12844,180.156658 L327.12844,180.156658 Z M175.33968,159.23693 C139.46067,175.83773 111.894377,206.841243 99.7213885,244.518173 C99.0084429,246.724829 100.219301,249.091645 102.425915,249.804604 C104.63253,250.517563 106.999301,249.306682 107.712246,247.100026 C119.163348,211.657426 145.107885,182.477886 178.865927,166.858432 C180.970507,165.884668 181.887229,163.389144 180.913483,161.284524 C179.939737,159.179905 177.44426,158.263166 175.33968,159.23693 L175.33968,159.23693 Z" id="Shape" fill="#EAEAEA"></path>
                    <path d="M33.7380709,202.27814 L77.8254203,220.473262 C79.9689793,221.357922 82.4238223,220.337351 83.3084657,218.193751 C84.193109,216.050152 83.1725563,213.595263 81.0289974,212.710603 L36.941648,194.515481 C34.798089,193.630821 32.343246,194.651392 31.4586026,196.794992 C30.5739592,198.938591 31.594512,201.39348 33.7380709,202.27814 L33.7380709,202.27814 Z" id="Shape" fill="#F3F3F3"></path>
                    <path d="M286.333505,49.4078642 L266.039329,134.085163 C265.498858,136.340273 266.888813,138.606547 269.143881,139.147028 C271.398949,139.687509 273.66518,138.297527 274.205651,136.042417 L294.499828,51.3651189 C295.040299,49.1100087 293.650343,46.8437343 291.395276,46.3032534 C289.140208,45.7627724 286.873976,47.1527541 286.333505,49.4078642 L286.333505,49.4078642 Z" id="Shape" fill="#F3F3F3"></path>
                    <path d="M462.089109,144.604638 L369.715615,190.792255 C367.641501,191.829332 366.8008,194.351482 367.837857,196.425636 C368.874914,198.49979 371.397017,199.340507 373.471132,198.30343 L465.844626,152.115812 C467.91874,151.078736 468.759441,148.556585 467.722384,146.482431 C466.685327,144.408278 464.163224,143.567561 462.089109,144.604638 L462.089109,144.604638 Z" id="Shape" fill="#EAEAEA"></path>
                    <path d="M445.897646,2.39868074 L329.730979,159.156654 C328.35029,161.019788 328.74136,163.649447 330.604459,165.030162 C332.467557,166.410878 335.097167,166.0198 336.477856,164.156666 L452.644523,7.39869262 C454.025212,5.53555892 453.634142,2.90589984 451.771043,1.52518469 C449.907945,0.144469537 447.278335,0.535547039 445.897646,2.39868074 L445.897646,2.39868074 Z" id="Shape" fill="#F3F3F3"></path>
                    <path d="M4.19879518,275.376173 L75.2284137,275.376173 C77.5473442,275.376173 79.4272088,273.496273 79.4272088,271.177298 C79.4272088,268.858324 77.5473442,266.978424 75.2284137,266.978424 L4.19879518,266.978424 C1.87986463,266.978424 0,268.858324 0,271.177298 C0,273.496273 1.87986463,275.376173 4.19879518,275.376173 L4.19879518,275.376173 Z" id="Shape" fill="#F3F3F3"></path>
                </g>
                <path d="M974.685263,37.1657117 C973.640052,34.2724185 973.070281,31.1517121 973.070281,27.8979261 C973.070281,12.8350393 985.280933,0.62415699 1000.34354,0.62415699 C1012.62918,0.62415699 1023.01752,8.74765138 1026.43035,19.9163496 C1028.51773,19.0864067 1030.79426,18.6301405 1033.17736,18.6301405 C1043.26784,18.6301405 1051.44779,26.8102461 1051.44779,36.9009178 C1051.44779,36.9893305 1051.44716,37.0775965 1051.44591,37.1657117 L974.685263,37.1657117 Z" id="Oval-8" fill="#F2F2F2" sketch:type="MSShapeGroup"></path>
                <path d="M1215.32294,154.905547 C1216.97288,150.662771 1217.87811,146.048026 1217.87811,141.221846 C1217.87811,120.3637 1200.96956,103.454832 1180.11181,103.454832 C1175.18578,103.454832 1170.48002,104.397967 1166.16526,106.113519 C1159.11069,83.0270144 1137.63725,66.2351656 1112.24193,66.2351656 C1081.10645,66.2351656 1055.86615,91.4759401 1055.86615,122.612013 C1055.86615,123.107903 1055.87255,123.602298 1055.88528,124.095119 C1053.42548,123.483804 1050.85234,123.159361 1048.20342,123.159361 C1030.67082,123.159361 1016.45783,137.372613 1016.45783,154.905547 L1215.32294,154.905547 Z" id="Oval-8" fill="#F3F3F3" sketch:type="MSShapeGroup"></path>
                <path d="M561.103937,186.849906 C560.058727,183.956613 559.488956,180.835907 559.488956,177.582121 C559.488956,162.519234 571.699608,150.308352 586.762211,150.308352 C599.047856,150.308352 609.436192,158.431846 612.849026,169.600544 C614.936405,168.770601 617.212936,168.314335 619.596033,168.314335 C629.686514,168.314335 637.866466,176.494441 637.866466,186.585112 C637.866466,186.673525 637.865838,186.761791 637.864586,186.849906 L561.103937,186.849906 Z" id="Oval-8" fill-opacity="0.1" fill="#000000" sketch:type="MSShapeGroup"></path>
                <path d="M817.531877,77.8347806 C821.555942,78.8830014 825.803076,84.1897954 826.664137,85.3984636 C826.961751,85.816222 829.832032,90.8557662 829.832032,90.8557662 C829.832032,90.8557662 834.391258,87.8521015 834.707542,87.6672684 C835.621865,87.1329482 842.199706,82.9866275 847.28841,84.3360627 C852.377115,85.6854979 853.595361,89.4428694 853.725627,89.6661312 C854.707057,91.8449985 857.18807,92.8001883 859.307445,91.8590599 C861.42682,90.9179315 862.381992,88.4368711 861.440881,86.3174563 C861.341318,86.0932356 860.292422,84.3408148 859.83531,83.7466735 C858.593641,82.1327852 853.765944,77.8347806 850.966273,76.7865595 C847.831382,75.6128293 843.778715,75.6655217 840.400145,76.2998046 C837.902394,76.7687252 834.707541,79.1022699 832.618165,78.7404783 C830.731533,78.4137935 829.170678,75.941147 827.625117,74.4411623 C824.959998,71.8546338 822.328239,70.0805718 819.332032,69.595459 C814.97876,68.890625 809.759695,69.5283113 805.306472,73.1936613 C804.289162,74.0309868 801.746764,76.8205374 801.526985,77.1260362 C800.172735,79.0084759 800.600888,81.6323521 802.483293,82.9866276 C804.365697,84.3409031 806.989523,83.9127414 808.343773,82.0303016 C808.40659,81.9429846 813.507812,76.7865599 817.531877,77.8347806 Z" id="Shape" fill="#BBBBBB" sketch:type="MSShapeGroup"></path>
                <path d="M863.70605,116.836861 C866.957957,114.589543 869.261236,114.344987 872.86565,115.297607 C878.689698,116.836861 881.723658,123.566907 882.679883,125.231734 C882.785516,125.415646 885.529398,131.497417 885.529398,131.497417 C885.529398,131.497417 890.398128,128.974271 890.740562,128.817546 C891.731419,128.36405 898.703303,125.996397 900.802239,125.742906 C903.346576,125.435623 904.807004,125.919826 906.507432,126.452724 C910.439454,127.684983 913.611773,133.815167 913.637668,133.881496 C914.336062,136.037373 916.703641,137.246672 918.909779,136.532238 C921.115916,135.817804 922.325192,133.45018 921.610772,131.244001 C921.517417,130.955714 921.36144,130.556182 921.130853,130.06187 C920.786798,129.324315 920.344443,128.526226 919.79201,127.684984 C918.278699,125.380517 916.187469,123.114764 913.437957,121.035588 C912.656041,120.444304 911.828468,119.874749 910.95427,119.329026 C907.859466,117.397079 904.071448,116.889311 899.795386,117.405736 C896.97907,117.745867 890.87105,119.943165 889.326172,119.523201 C887.803029,119.109145 887.274398,116.81443 885.532037,114.824903 C882.944204,111.869968 879.977009,109.449335 876.594254,107.773036 C870.547502,104.776614 864.437915,106.123177 858.931868,109.928278 C857.804258,110.707544 854.920209,113.312786 854.668707,113.594751 C853.125111,115.325319 853.276655,117.979576 855.007189,119.523201 C856.737724,121.066826 859.391931,120.91528 860.935527,119.184713 C861.019309,119.090783 862.929916,117.373229 863.70605,116.836861 Z" id="Shape" fill="#BBBBBB" sketch:type="MSShapeGroup"></path>
                <path d="M847.349609,313.794922 L1100.42578,315.277344 L1120.07227,255.082031 L1084.48633,254.210938 L1082.63281,238.496094 L879.857422,228.228516 L875.779297,254.675781 L830.169922,255.046875 L847.349609,313.794922 Z" id="Path-244" fill="#FFFFFF" sketch:type="MSShapeGroup"></path>
                <g id="ship" transform="translate(820.514056, 163.056285)" sketch:type="MSShapeGroup">
                    <path d="M168.03819,49.9238273 L243.069376,51.7776991 L243.069374,72.386843 C243.069374,74.2420224 244.573265,75.7459425 246.42841,75.7459425 C248.283554,75.7459425 249.787446,74.2420224 249.787446,72.386843 L249.787446,48.2501503 L249.787446,44.9594551 L246.497509,44.8917616 L164.61969,43.2070502 L161.32403,43.139239 L161.194163,46.4330997 L160.3877,66.8876462 C160.314612,68.7413853 161.758087,70.303388 163.611791,70.3764769 C165.465495,70.4495659 167.027469,69.0060637 167.100556,67.1523246 L168.03819,49.9238273 Z" id="Shape" fill="#AFAFAF"></path>
                    <path d="M59.4058658,68.1126838 L258.375434,78.9788709 L258.375431,89.6292907 C258.375431,91.4844701 265.093503,91.4844701 265.093503,89.6292907 L265.093503,75.9316587 L265.093503,72.7503528 L261.916955,72.5775201 L56.5626169,61.4044067 L53.3695495,61.2306752 L53.0390778,64.4114033 L50.6294985,87.4485974 C50.4377808,89.2938436 57.6194216,89.2938436 57.8111392,87.4485974 L59.4058658,68.1126838 Z" id="Shape" fill="#C3C3C3"></path>
                    <path d="M253.317912,91.6253734 L291.107069,6.24826273 C292.045649,4.12772622 291.087517,1.64780762 288.967021,0.709209489 C286.846524,-0.229388638 284.366652,0.728761734 283.428072,2.84929824 L245.638915,88.2264089 C244.700335,90.3469454 245.658467,92.8268641 247.778963,93.7654622 C249.89946,94.7040603 252.379332,93.7459099 253.317912,91.6253734 L253.317912,91.6253734 Z" id="Shape" fill="#D9D9D9"></path>
                    <path d="M263.890839,15.3937338 L297.4812,30.0897938 C299.605706,31.0192824 302.081443,30.0504975 303.010914,27.9259523 C303.940385,25.801407 302.971618,23.3256234 300.847113,22.3961349 L267.256751,7.70007483 C265.132246,6.77058628 262.656509,7.73937116 261.727038,9.86391642 C260.797567,11.9884617 261.766334,14.4642452 263.890839,15.3937338 L263.890839,15.3937338 Z" id="Shape" fill="#D9D9D9"></path>
                    <path d="M257.993649,36.6995963 L292.983609,41.598283 C295.280143,41.9198038 297.40249,40.3187043 297.724005,38.0221273 C298.04552,35.7255503 296.444451,33.6031628 294.147917,33.281642 L259.157957,28.3829553 C256.861423,28.0614345 254.739076,29.6625339 254.417561,31.9591109 C254.096046,34.2556879 255.697116,36.3780755 257.993649,36.6995963 L257.993649,36.6995963 Z" id="Shape" fill="#D9D9D9"></path>
                    <path d="M0.152282533,86.9598895 L22.4185543,154.849244 L281.890845,156.072496 L304.706179,86.9598895 L0.152282533,86.9598895 Z M11.7525453,95.357638 L293.391217,95.357638 L275.858014,148.820667 L27.8765688,148.820667 L11.7525453,95.357638 Z" id="Shape" fill="#D6D6D6"></path>
                    <path d="M25.6301623,95.5313495 L66.2185157,113.026659 C68.3480455,113.944577 70.8184761,112.962339 71.7363768,110.832769 C72.6542776,108.703199 71.6720582,106.232722 69.5425284,105.314804 L28.954175,87.8194947 C26.8246453,86.9015767 24.3542147,87.8838146 23.4363139,90.0133845 C22.5184132,92.1429544 23.5006325,94.6134315 25.6301623,95.5313495 L25.6301623,95.5313495 Z" id="Shape" fill="#F3F3F3"></path>
                    <path d="M67.0570706,113.288067 L75.8045606,115.037598 C78.078459,115.492386 80.2904898,114.017671 80.7452695,111.74373 C81.2000492,109.469788 79.725362,107.257716 77.4514635,106.802928 L68.7039736,105.053397 C66.4300751,104.598608 64.2180444,106.073323 63.7632647,108.347265 C63.308485,110.621206 64.7831721,112.833278 67.0570706,113.288067 L67.0570706,113.288067 Z" id="Shape" fill="#C3C3C3"></path>
                    <path d="M238.513663,121.687388 L255.444288,119.447988 C257.743197,119.143914 259.360334,117.033744 259.056265,114.734792 C258.752196,112.43584 256.642066,110.818672 254.343157,111.122747 L237.412531,113.362146 C235.113623,113.666221 233.496486,115.776391 233.800555,118.075343 C234.104624,120.374295 236.214754,121.991463 238.513663,121.687388 L238.513663,121.687388 Z" id="Shape" fill="#B6B6B6"></path>
                    <path d="M269.872567,115.742075 L293.31584,111.193294 C295.592315,110.751582 297.07969,108.548021 296.637986,106.271504 C296.196282,103.994986 293.992763,102.507583 291.716288,102.949295 L268.273015,107.498076 C265.996541,107.939788 264.509165,110.143349 264.950869,112.419866 C265.392573,114.696383 267.596092,116.183787 269.872567,115.742075 L269.872567,115.742075 Z" id="Shape" fill="#B6B6B6"></path>
                    <path d="M229.184237,137.863039 C239.42618,137.863039 247.728916,129.560147 247.728916,119.318011 C247.728916,109.075875 239.42618,100.772983 229.184237,100.772983 C218.942294,100.772983 210.639558,109.075875 210.639558,119.318011 C210.639558,129.560147 218.942294,137.863039 229.184237,137.863039 L229.184237,137.863039 Z M229.184237,129.465291 C223.580155,129.465291 219.037149,124.922199 219.037149,119.318011 C219.037149,113.713824 223.580155,109.170732 229.184237,109.170732 C234.788319,109.170732 239.331325,113.713824 239.331325,119.318011 C239.331325,124.922199 234.788319,129.465291 229.184237,129.465291 L229.184237,129.465291 Z" id="Shape" fill="#B6B6B6"></path>
                    <path d="M191.81947,137.863039 C202.061414,137.863039 210.364149,129.560147 210.364149,119.318011 C210.364149,109.075875 202.061414,100.772983 191.81947,100.772983 C181.577527,100.772983 173.274792,109.075875 173.274792,119.318011 C173.274792,129.560147 181.577527,137.863039 191.81947,137.863039 L191.81947,137.863039 Z M191.81947,129.465291 C186.215388,129.465291 181.672382,124.922199 181.672382,119.318011 C181.672382,113.713824 186.215388,109.170732 191.81947,109.170732 C197.423552,109.170732 201.966559,113.713824 201.966559,119.318011 C201.966559,124.922199 197.423552,129.465291 191.81947,129.465291 L191.81947,129.465291 Z" id="Shape" fill="#B6B6B6"></path>
                    <path d="M112.461557,118.340149 C112.526756,118.351099 112.647628,118.371042 112.822589,118.399378 C113.109145,118.445787 113.446608,118.499386 113.833393,118.559573 C114.932348,118.73058 116.2095,118.920721 117.652179,119.125186 C121.764021,119.70794 126.385237,120.290164 131.414675,120.833348 C150.240109,122.866516 169.386374,123.813565 187.302604,123.068881 C187.367018,123.066198 187.367018,123.066198 187.431433,123.063495 C189.748317,122.966084 191.547556,121.008875 191.450146,118.691948 C191.352737,116.37502 189.395565,114.575747 187.078681,114.673159 C187.016275,114.675778 187.016275,114.675778 186.953867,114.678377 C169.509179,115.403462 150.759494,114.476029 132.316364,112.48415 C127.382719,111.951311 122.853287,111.380652 118.830538,110.810524 C117.426111,110.61148 116.186528,110.426933 115.124572,110.261683 C114.755038,110.20418 114.434683,110.153299 114.165103,110.109639 C114.006383,110.083934 113.90162,110.066648 113.85241,110.058384 C111.565507,109.674303 109.400252,111.21688 109.016179,113.503827 C108.632105,115.790773 110.174653,117.956068 112.461557,118.340149 L112.461557,118.340149 Z" id="Shape" fill="#B6B6B6"></path>
                </g>
                <g id="sea" transform="translate(18.000000, 311.416510)" sketch:type="MSShapeGroup">
                    <path d="M639.110944,8.74765478 L1133.17114,8.74765478 C1135.49007,8.74765478 1137.36994,6.86775473 1137.36994,4.54878049 C1137.36994,2.22980625 1135.49007,0.349906191 1133.17114,0.349906191 L639.110944,0.349906191 C636.792013,0.349906191 634.912149,2.22980625 634.912149,4.54878049 C634.912149,6.86775473 636.792013,8.74765478 639.110944,8.74765478 L639.110944,8.74765478 Z" id="Shape" fill="#CFCFCF"></path>
                    <path d="M4.74100712,35.6904315 L498.801205,35.6904315 C501.120135,35.6904315 503,33.8105315 503,31.4915572 C503,29.172583 501.120135,27.2926829 498.801205,27.2926829 L4.74100712,27.2926829 C2.42207657,27.2926829 0.542211939,29.172583 0.542211939,31.4915572 C0.542211939,33.8105315 2.42207657,35.6904315 4.74100712,35.6904315 L4.74100712,35.6904315 Z" id="Shape" fill="#EAEAEA"></path>
                    <path d="M676.550201,8.74765478 L710.142527,8.74765478 C712.461458,8.74765478 714.341322,6.86775473 714.341322,4.54878049 C714.341322,2.22980625 712.461458,0.349906191 710.142527,0.349906191 L676.550201,0.349906191 C674.23127,0.349906191 672.351406,2.22980625 672.351406,4.54878049 C672.351406,6.86775473 674.23127,8.74765478 676.550201,8.74765478 L676.550201,8.74765478 Z" id="Shape" fill="#EAEAEA"></path>
                    <path d="M507.198795,8.74765478 L608.670661,8.74765478 C610.989592,8.74765478 612.869456,6.86775473 612.869456,4.54878049 C612.869456,2.22980625 610.989592,0.349906191 608.670661,0.349906191 L507.198795,0.349906191 C504.879865,0.349906191 503,2.22980625 503,4.54878049 C503,6.86775473 504.879865,8.74765478 507.198795,8.74765478 L507.198795,8.74765478 Z" id="Shape" fill="#CFCFCF"></path>
                    <path d="M88.1987952,8.74765478 L189.670661,8.74765478 C191.989592,8.74765478 193.869456,6.86775473 193.869456,4.54878049 C193.869456,2.22980625 191.989592,0.349906191 189.670661,0.349906191 L88.1987952,0.349906191 C85.8798646,0.349906191 84,2.22980625 84,4.54878049 C84,6.86775473 85.8798646,8.74765478 88.1987952,8.74765478 L88.1987952,8.74765478 Z" id="Shape" fill="#CFCFCF"></path>
                    <path d="M886.569026,33.5909944 L1054.23461,33.5909944 C1056.55354,33.5909944 1058.43341,31.7110943 1058.43341,29.3921201 C1058.43341,27.0731458 1056.55354,25.1932458 1054.23461,25.1932458 L886.569026,25.1932458 C884.250096,25.1932458 882.370231,27.0731458 882.370231,29.3921201 C882.370231,31.7110943 884.250096,33.5909944 886.569026,33.5909944 L886.569026,33.5909944 Z" id="Shape" fill="#E0E0E0"></path>
                    <path d="M270.569026,61.2335835 L438.234612,61.2335835 C440.553543,61.2335835 442.433407,59.3536834 442.433407,57.0347092 C442.433407,54.715735 440.553543,52.8358349 438.234612,52.8358349 L270.569026,52.8358349 C268.250096,52.8358349 266.370231,54.715735 266.370231,57.0347092 C266.370231,59.3536834 268.250096,61.2335835 270.569026,61.2335835 L270.569026,61.2335835 Z" id="Shape" fill="#E0E0E0"></path>
                    <path d="M676.46776,35.6904315 L790.82659,35.6904315 C793.14552,35.6904315 795.025385,33.8105315 795.025385,31.4915572 C795.025385,29.172583 793.14552,27.2926829 790.82659,27.2926829 L676.46776,27.2926829 C674.14883,27.2926829 672.268965,29.172583 672.268965,31.4915572 C672.268965,33.8105315 674.14883,35.6904315 676.46776,35.6904315 L676.46776,35.6904315 Z" id="Shape" fill="#E0E0E0"></path>
                    <path d="M588.608073,35.6904315 L651.797361,35.6904315 C654.116291,35.6904315 655.996156,33.8105315 655.996156,31.4915572 C655.996156,29.172583 654.116291,27.2926829 651.797361,27.2926829 L588.608073,27.2926829 C586.289143,27.2926829 584.409278,29.172583 584.409278,31.4915572 C584.409278,33.8105315 586.289143,35.6904315 588.608073,35.6904315 L588.608073,35.6904315 Z" id="Shape" fill="#E0E0E0"></path>
                    <path d="M783.557764,61.2335835 L845.902589,61.2335835 C848.221519,61.2335835 850.101384,59.3536834 850.101384,57.0347092 C850.101384,54.715735 848.221519,52.8358349 845.902589,52.8358349 L783.557764,52.8358349 C781.238834,52.8358349 779.358969,54.715735 779.358969,57.0347092 C779.358969,59.3536834 781.238834,61.2335835 783.557764,61.2335835 L783.557764,61.2335835 Z" id="Shape" fill="#CACACA"></path>
                    <path d="M929.956577,33.5909944 L984.602627,33.5909944 C986.921558,33.5909944 988.801422,31.7110943 988.801422,29.3921201 C988.801422,27.0731458 986.921558,25.1932458 984.602627,25.1932458 L929.956577,25.1932458 C927.637646,25.1932458 925.757781,27.0731458 925.757781,29.3921201 C925.757781,31.7110943 927.637646,33.5909944 929.956577,33.5909944 L929.956577,33.5909944 Z" id="Shape" fill="#CFCFCF"></path>
                    <path d="M313.956577,61.2335835 L368.602627,61.2335835 C370.921558,61.2335835 372.801422,59.3536834 372.801422,57.0347092 C372.801422,54.715735 370.921558,52.8358349 368.602627,52.8358349 L313.956577,52.8358349 C311.637646,52.8358349 309.757781,54.715735 309.757781,57.0347092 C309.757781,59.3536834 311.637646,61.2335835 313.956577,61.2335835 L313.956577,61.2335835 Z" id="Shape" fill="#CFCFCF"></path>
                    <path d="M708.873399,35.6904315 L769.132815,35.6904315 C771.451746,35.6904315 773.331611,33.8105315 773.331611,31.4915572 C773.331611,29.172583 771.451746,27.2926829 769.132815,27.2926829 L708.873399,27.2926829 C706.554469,27.2926829 704.674604,29.172583 704.674604,31.4915572 C704.674604,33.8105315 706.554469,35.6904315 708.873399,35.6904315 L708.873399,35.6904315 Z" id="Shape" fill="#FFFFFF"></path>
                </g>
                <path d="M228.478734,81.2802803 C227.43308,78.3854823 226.863067,75.2631528 226.863067,72.0076743 C226.863067,56.9369532 239.078905,44.7197197 254.147906,44.7197197 C266.438769,44.7197197 276.831518,52.8474393 280.245801,64.0219466 C282.334066,63.1915719 284.611565,62.7350684 286.995674,62.7350684 C297.090441,62.7350684 305.273867,70.9194287 305.273867,81.0153487 C305.273867,81.1038074 305.273239,81.1921193 305.271986,81.2802803 L228.478734,81.2802803 Z" id="Oval-8" fill-opacity="0.100000001" fill="#000000" sketch:type="MSShapeGroup" transform="translate(266.068467, 63.000000) scale(-1, 1) translate(-266.068467, -63.000000) "></path>
                <path d="M142.104417,126.109961 C143.278626,123.090222 143.922854,119.805738 143.922854,116.370769 C143.922854,101.525262 131.889567,89.4906009 117.045755,89.4906009 C113.540051,89.4906009 110.191112,90.1618648 107.12043,91.382886 C102.09991,74.9513743 86.817932,63 68.7448796,63 C46.586725,63 28.6239915,80.9647844 28.6239915,103.125469 C28.6239915,103.478412 28.6285479,103.830291 28.6376049,104.18105 C26.8870442,103.745954 25.0558193,103.515037 23.1706669,103.515037 C10.6932595,103.515037 0.578322202,113.631129 0.578322202,126.109961 L142.104417,126.109961 Z" id="Oval-8" fill-opacity="0.05" fill="#000000" sketch:type="MSShapeGroup"></path>
            </g>
        </g>
    </g>
</svg>