<?xml version="1.0" encoding="UTF-8" standalone="no"?>
<svg width="128px" height="128px" viewBox="0 0 128 128" version="1.1" xmlns="http://www.w3.org/2000/svg" xmlns:xlink="http://www.w3.org/1999/xlink" xmlns:sketch="http://www.bohemiancoding.com/sketch/ns">
    <!-- Generator: Sketch 3.3.1 (12002) - http://www.bohemiancoding.com/sketch -->
    <title>hualien</title>
    <desc>Created with Sketch.</desc>
    <defs></defs>
    <g id="cities" stroke="none" stroke-width="1" fill="none" fill-rule="evenodd" sketch:type="MSPage">
        <g id="county" sketch:type="MSArtboardGroup" transform="translate(-512.000000, 0.000000)">
            <g id="grid" sketch:type="MSLayerGroup" transform="translate(14.000000, 14.000000)">
                <circle id="Oval-Copy-4" sketch:type="MSShapeGroup" cx="562" cy="50" r="50"></circle>
            </g>
            <path d="M583.357921,88.0669023 L582.545162,87.8379242 L581.994356,87.40974 L581.260111,87.2262671 L580.342425,87.2262671 L579.669487,87.4707363 L578.628943,88.3266205 L576.854394,91.505204 L576.793086,91.5662003 L576.915703,92.6665537 L577.405442,93.2167304 L578.200754,93.6446725 L578.200754,93.7059108 L575.263286,98.1683207 L575.140912,100.307789 L574.712481,100.857724 L574.161918,101.22467 L573.855861,101.835843 L573.488496,103.3029 L572.937933,103.731084 L572.937933,104.647964 L572.570568,105.320134 L572.509502,105.992545 L571.775014,107.398606 L570.734711,108.254248 L570.489963,108.926659 L570.673645,109.782059 L570.673645,112.532701 L570.428654,113.20487 L568.04175,113.571816 L567.430121,114 L566.940382,113.939004 L566.879073,113.08312 L566.450642,112.288474 L565.960903,111.860289 L564.859534,111.799293 L564.614543,111.61582 L564.18587,111.065886 L563.451867,110.821174 L562.839995,110.454229 L562.839995,109.782059 L561.922067,108.498233 L561.922067,107.459118 L561.61601,106.786949 L561.187337,106.237014 L559.963351,105.442368 L558.678058,106.053541 L558.555684,106.359249 L558.310451,106.359249 L557.637756,106.053541 L557.331699,105.442368 L556.475079,104.464491 L555.618216,104.403253 L554.333165,103.608607 L553.292621,103.608607 L552.986321,102.997676 L552.802881,102.814203 L551.884953,100.613497 L551.946019,99.6966162 L551.028091,98.5352665 L550.844408,97.9243356 L551.028091,97.190928 L550.967025,96.3350438 L547.234003,93.7678753 L546.5,93.5844024 L546.744749,92.7287602 L547.173422,92.1178293 L547.968734,91.872876 L547.846359,91.3231834 L548.213725,90.7734908 L549.009279,90.6507721 L549.376401,90.1010795 L549.376401,88.3895532 L548.826081,88.0228494 L548.703464,87.6251634 L549.009763,87.349954 L549.744009,87.1664811 L550.478254,86.6773007 L551.212258,86.4940698 L551.396183,85.6381856 L551.15095,84.9050201 L550.600629,84.4768359 L551.02906,83.9876555 L551.212985,83.1930096 L551.702724,82.643075 L552.253287,82.2761292 L552.43697,81.5427216 L552.987291,81.1760178 L553.844153,81.2370141 L554.51709,80.9313066 L555.435019,80.9313066 L555.741075,80.8088299 L556.352947,81.1760178 L557.087192,81.3592487 L558.249869,80.3813719 L558.249869,78.547611 L558.433794,77.8144455 L558.984115,77.4472576 L558.433794,75.9192041 L559.045423,75.6132546 L559.963351,75.8579658 L560.636289,75.5520163 L561.003654,75.0023237 L561.799208,74.6351358 L562.900576,74.5741395 L563.818505,72.5569056 L564.124562,70.0507334 L564.430861,69.4395604 L564.430861,68.52268 L564.9206,67.1776153 L564.9206,64.9159123 L564.308971,64.3659776 L564.247663,63.5100934 L564.431345,62.8381662 L562.473115,61.4318633 L562.534423,60.5762211 L563.329977,60.3927482 L564.06398,59.8428136 L564.06398,59.4758677 L563.880298,58.7424602 L564.002672,57.886818 L564.553477,57.5198722 L564.798226,56.7252263 L564.859534,55.8085879 L565.104283,55.0751803 L565.594022,54.4640074 L565.655088,53.5471269 L566.205651,52.9971922 L566.939897,52.8137193 L566.817523,51.4686547 L566.389092,50.7352471 L567.429394,49.8183667 L567.368086,49.0852011 L567.123095,48.2905553 L567.123095,47.3736748 L567.30702,46.8847364 L567.30702,45.0509755 L566.81728,44.4398025 L566.572289,44.3785642 L566.572289,43.522922 L568.041265,40.4053348 L568.102331,38.6328121 L568.653137,38.0828775 L569.265008,37.77717 L569.632131,37.165997 L570.244002,36.8602895 L570.733742,36.0046473 L570.917424,35.3934744 L570.97849,34.5375902 L570.611368,33.9878976 L569.754748,33.865663 L569.509757,33.1932517 L569.081083,32.7040713 L568.163397,32.3983638 L567.979472,32.1536525 L567.918407,30.6255991 L568.591344,29.0365494 L569.32559,28.8530764 L569.815329,28.4248923 L570.488509,28.1191848 L571.406437,27.2023043 L572.324365,27.2023043 L572.691488,26.6523697 L572.267419,25.2976231 L572.750373,24.9226896 L572.96677,24.4906327 L572.923393,23.885511 L573.832113,23.4965387 L574.091644,23.1078085 L574.740833,23.1511352 L575.087116,22.8485743 L575.217002,22.2867793 L575.000363,21.1629472 L575.30327,20.6873215 L575.865949,20.47093 L576.254882,20.2119378 L576.687675,19.2178438 L577.033957,18.8291136 L577.683389,18.8291136 L578.115698,18.5265527 L578.462223,18.0944958 L578.981526,17.0570751 L579.154788,15.2850365 L579.371427,14.8096529 L579.933622,14.507092 L580.242829,14.1534589 L583.156064,16.0172339 L585.114295,16.0172339 L585.848298,16.3229414 L586.827535,16.445176 L588.785765,17.7899985 L590.805304,18.0347098 L591.53955,17.8512369 L590.805304,17.2403059 L590.988745,16.5068984 L591.784299,16.3234255 L592.335104,15.9564796 L592.885425,16.2011909 L593.375164,15.7727647 L593.191482,15.4060609 L592.701742,14.9781188 L592.76305,14.1834729 L593.25279,14 L594.293092,14.9168805 L595.455769,15.2838263 L596.55738,16.1394685 L598.760359,17.0563489 L600.53515,17.1785835 L602.493381,18.1567023 L603.5,18.2760323 L603.469709,18.5846444 L603.318256,18.8872053 L602.954768,19.0459893 L602.735221,19.4090623 L602.189989,19.9006632 L601.546373,20.8458634 L601.516083,22.1923803 L601.235955,22.4041729 L600.963339,23.0470543 L600.599851,23.1983347 L600.410837,23.6594375 L600.350256,23.6896936 L599.494605,23.7804618 L598.760117,25.0967227 L598.45721,25.3387714 L598.05592,25.3992835 L597.261093,26.1026771 L596.897605,26.1934453 L596.678058,26.4657501 L596.375151,26.6545481 L595.428629,27.9328073 L595.178791,28.7269691 L595.178791,30.1037421 L595.761826,31.1476981 L595.580082,31.3292346 L595.458919,32.5849833 L595.398338,32.7060076 L595.307466,32.6454955 L594.966757,33.2356102 L594.63356,33.349131 L593.853514,34.2495522 L593.482514,34.4463378 L592.429853,35.5810621 L592.2784,35.9138791 L592.308691,38.7882074 L592.460144,39.0907683 L592.581307,39.884688 L594.323141,41.6927918 L594.323141,42.1466331 L594.080815,42.9708089 L593.740106,42.8800407 L593.649234,43.2808733 L593.8082,43.5834342 L593.437199,43.7044585 L593.164584,44.3170838 L593.558362,44.3170838 L593.376618,45.0507334 L592.914746,45.0809895 L592.733002,44.8086847 L592.369514,44.8086847 L592.119677,45.0204773 L591.968224,45.4210679 L591.695608,45.6933727 L591.446012,46.4270223 L591.78648,47.1606719 L591.81677,48.5071888 L591.574445,49.3316067 L591.544154,50.6098659 L591.415722,51.0106986 L591.385431,52.3572155 L591.233978,52.6597763 L591.143106,53.4841942 L590.681234,54.5281503 L590.681234,54.9819916 L590.529781,55.322312 L590.469199,55.7156412 L590.014839,56.668829 L589.946746,57.0924142 L589.151677,58.2573946 L589.000223,58.7717481 L589.000223,61.3132594 L589.121386,61.6460764 L588.788189,63.2043859 L587.93278,64.5206468 L587.53149,64.7929515 L587.53149,65.2240403 L587.380036,65.5568572 L587.349746,65.987946 L587.56178,66.1392264 L587.743524,66.7516096 L587.53149,67.0239144 L587.470908,67.4247471 L587.319455,67.7273079 L587.10742,69.4066418 L586.887874,69.655952 L586.918164,69.9585129 L587.10742,70.2383212 L586.857583,70.5106259 L586.494095,70.6619064 L586.372932,71.4863242 L586.062514,71.8569008 L586.032223,74.9430217 L585.820188,75.366607 L585.789898,76.3197947 L585.577863,77.0534444 L585.237396,77.3560052 L585.146524,77.7568379 L584.752745,78.3317035 L584.714943,78.7928063 L584.412036,79.5869681 L584.381745,80.4718981 L584.169711,80.8122186 L584.109129,81.3265721 L584.230292,81.4173404 L584.381745,81.817931 L584.381745,82.7331171 L584.783036,83.3457424 L584.752745,84.2306724 L584.624071,84.6010069 L584.381745,84.8733117 L584.018257,85.0245921 L583.586676,85.0548482 L583.677548,85.1758726 L584.078839,85.4254248 L583.889583,85.7884978 L583.889583,86.2498427 L583.677548,87.0440045 L583.677548,87.5051072 L583.526095,87.8681803 L583.357921,88.0669023 L583.357921,88.0669023 Z" id="hualien" stroke-opacity="0.1" stroke="#000000" stroke-width="0.5" fill="#FFFFFF" sketch:type="MSShapeGroup"></path>
        </g>
    </g>
</svg>