<?xml version="1.0" encoding="UTF-8" standalone="no"?>
<svg width="128px" height="128px" viewBox="0 0 128 128" version="1.1" xmlns="http://www.w3.org/2000/svg" xmlns:xlink="http://www.w3.org/1999/xlink" xmlns:sketch="http://www.bohemiancoding.com/sketch/ns">
    <!-- Generator: Sketch 3.3.1 (12002) - http://www.bohemiancoding.com/sketch -->
    <title>miaoli</title>
    <desc>Created with Sketch.</desc>
    <defs></defs>
    <g id="cities" stroke="none" stroke-width="1" fill="none" fill-rule="evenodd" sketch:type="MSPage">
        <g id="county" sketch:type="MSArtboardGroup" transform="translate(-384.000000, -128.000000)">
            <g id="grid" sketch:type="MSLayerGroup" transform="translate(14.000000, 14.000000)">
                <circle id="Oval-Copy-8" sketch:type="MSShapeGroup" cx="434" cy="178" r="50"></circle>
            </g>
            <path d="M448.483822,160.918269 L449.163966,161.256351 L450.466378,161.256351 L450.862979,161.763473 L451.543571,161.48159 L452.110208,161.031111 L453.696163,160.918269 L453.299562,161.425391 L453.922728,161.763473 L453.469598,162.32724 L453.356091,163.059602 L452.959041,163.679121 L452.789006,164.242888 L453.695714,164.580969 L453.809221,165.369529 L454.545894,166.664766 L455.169508,167.284285 L455.566109,167.960895 L457.039006,168.918049 L457.832207,169.030446 L458.342315,169.594213 L458.398844,170.383219 L459.192494,170.720854 L459.986145,170.833697 L460.892853,172.24133 L461.45949,172.63561 L462.196611,172.804651 L462.593212,173.48126 L463.669059,174.326019 L464.349652,173.931739 L465.255912,173.7065 L465.652512,173.87554 L466.276576,175.283619 L467.126306,175.508859 L467.636863,177.029334 L468.260029,177.367416 L468.089993,178.099778 L467.692943,178.663545 L467.636863,179.452105 L467.126306,180.071624 L466.616647,181.930181 L465.709939,183.394458 L466.899293,184.351613 L467.579436,185.646404 L467.635965,186.491608 L467.4094,187.167771 L466.446611,188.181125 L466.10654,188.857288 L466.10654,189.75869 L466.503141,190.603449 L466.503141,191.560604 L469.16584,191.560604 L470.695265,191.898685 L472.224691,191.27872 L473.18748,190.433516 L474.038108,190.433516 L474.717803,190.602557 L475.341866,190.377318 L478.740341,190.546358 L479.307426,191.053035 L480.157157,191.053035 L480.780772,190.715399 L482.707247,190.715399 L483.896152,189.926393 L484.576296,189.700708 L486.21878,189.813997 L486.729336,190.489714 L486.615829,191.784951 L486.842394,192.348272 L487.579067,192.742551 L487.919139,193.249674 L488.599731,193.588202 L488.882825,194.264365 L489.845614,195.333917 L490.129605,196.01008 L490.639264,196.573401 L491.319408,196.967681 L491.716009,197.531448 L491.716009,199.220964 L492,199.559046 L491.886493,200.122367 L491.931358,201.847565 L491.130529,202.246305 L490.248944,202.96261 L489.607833,203.759198 L489.527526,204.874243 L488.00483,207.3434 L488.00483,208.537836 L487.043386,208.776902 L485.841022,208.776902 L485.040193,207.661857 L485.44128,207.024497 L484.239365,206.546811 L483.35778,206.945105 L483.037,207.901814 L482.476196,208.697957 L481.435343,209.016859 L479.272432,212.043092 L478.390848,212.361995 L475.987913,212.361995 L475.186636,212.919518 L474.866304,213.795497 L474.545524,213.875335 L473.664388,214.831597 L473.504223,215.946643 L472.542779,216.185708 L471.020083,217.45909 L470.058192,217.698156 L467.814974,217.45909 L465.812229,218.175841 L463.408846,221.20252 L462.20693,221.282357 L461.325794,220.804226 L459.883405,219.450561 L459.723688,218.335515 L458.922411,217.777993 L457.720495,216.025588 L456.999974,216.184816 L455.798058,216.184816 L454.916473,215.78563 L452.673256,215.627294 L449.949541,214.670585 L447.78663,214.591194 L446.825187,214.989488 L446.184076,215.626848 L446.184076,216.822176 L446.584714,217.698156 L446.74488,219.928246 L446.343793,220.804226 L445.542516,221.441585 L444.581073,221.760488 L439.934472,221.601706 L439.053336,222 L436.650401,222 L434.326428,221.284141 L432.884487,219.93003 L432.403542,219.054051 L431.683469,218.496528 L426.636229,217.539819 L425.113085,216.266437 L423.991476,215.947535 L423.350813,215.071555 L421.748258,214.194683 L421.107595,213.478824 L420.145704,213.159922 L419.584899,212.44317 L419.183812,212.284834 L417.82173,212.125606 L417.260926,211.329017 L415.818986,210.3732 L412.454159,206.071802 L412.294442,206.071802 L411.893355,205.275214 L409.89061,204.479517 L408.84886,202.80695 L408.689591,201.930078 L407,199.825319 L407.707511,199.508646 L409.403832,198.101013 L410.76367,196.344594 L411.044073,195.731319 L413.371635,192.692597 L413.93244,191.28541 L414.563232,190.4353 L418.811438,177.877215 L419.820886,176.581086 L419.876966,176.246573 L420.395598,175.68905 L421.811517,175.341156 L423.003114,176.358077 L423.507838,177.096683 L423.676079,176.413829 L423.507838,175.508413 L424.698987,174.783633 L425.315871,174.783633 L425.778423,174.895138 L425.722342,174.156532 L424.979389,173.822018 L424.306424,173.320248 L424.755067,172.929982 L425.035469,171.466597 L426.395308,169.096903 L427.138261,168.985398 L428.035548,167.912279 L430.531352,167.800774 L432.508076,166.894911 L433.587512,166.894911 L435.339913,167.522013 L435.802016,167.968031 L436.811464,168.19104 L437.386177,167.856526 L437.049694,167.410508 L436.194579,167.299004 L435.521614,167.006416 L435.171672,166.281636 L434.386546,166.170132 L434.442626,165.375774 L434.89127,164.874003 L435.577695,164.53949 L438.059142,162.448557 L438.297371,161.723778 L438.689935,161.208181 L438.858176,160.539154 L438.858176,159.689043 L439.41898,158.449113 L439.993693,157.947342 L440.386256,157.375993 L441.253932,157 L441.463,157.437098 L442.030534,157.718535 L442.936794,157.718535 L443.560409,157.493296 L444.070516,157.099016 L444.694131,157.324255 L445.54431,158.337608 L445.770875,159.06997 L445.770875,159.746133 L447.583844,160.253702 L448.483822,160.918269 L448.483822,160.918269 Z" id="miaoli" stroke-opacity="0.1" stroke="#000000" stroke-width="0.560804391" fill="#FFFFFF" sketch:type="MSShapeGroup"></path>
        </g>
    </g>
</svg>