<?xml version="1.0" encoding="UTF-8" standalone="no"?>
<svg width="128px" height="128px" viewBox="0 0 128 128" version="1.1" xmlns="http://www.w3.org/2000/svg" xmlns:xlink="http://www.w3.org/1999/xlink" xmlns:sketch="http://www.bohemiancoding.com/sketch/ns">
    <!-- Generator: Sketch 3.3.1 (12002) - http://www.bohemiancoding.com/sketch -->
    <title>pingtung</title>
    <desc>Created with Sketch.</desc>
    <defs></defs>
    <g id="cities" stroke="none" stroke-width="1" fill="none" fill-rule="evenodd" sketch:type="MSPage">
        <g id="county" sketch:type="MSArtboardGroup" transform="translate(-256.000000, 0.000000)">
            <g id="grid" sketch:type="MSLayerGroup" transform="translate(14.000000, 14.000000)">
                <circle id="Oval-Copy-2" sketch:type="MSShapeGroup" cx="306" cy="50" r="50"></circle>
            </g>
            <path d="M340.13847,81.2877447 L339.518574,81.8358003 L338.511894,82.2273129 L337.659805,80.7399991 L336.730727,80.5050295 L335.491241,80.5050295 L335.103538,79.6441978 L334.252062,79.3308018 L333.55487,78.8611727 L332.238089,78.9392892 L332.083191,78.2350005 L332.315691,77.2173158 L332.858292,76.9042298 L332.006203,76.5908337 L331.696408,75.8081185 L330.224422,74.9475968 L330.767023,74.2429982 L331.54151,73.8514856 L331.463602,71.5030301 L330.689421,71.033401 L330.302024,70.2506858 L329.450242,70.2506858 L328.288358,68.9980316 L327.203769,68.449666 L328.675755,63.909608 L330.689421,63.596522 L331.076818,62.7353803 L330.844319,61.7176956 L329.992536,61.0915234 L329.218356,59.4470466 L327.97887,58.6646414 L327.901575,57.7253832 L327.591166,56.786125 L328.907948,55.7684403 L328.907948,54.5945225 L327.669075,52.089524 L327.513871,50.7587532 L326.97127,50.4450472 L326.661475,49.506099 L326.816372,48.4102977 L327.668155,46.8442474 L327.280758,45.9834157 L327.745757,45.2791271 L328.055858,44.4182954 L327.978256,43.3224941 L328.288358,42.539779 L328.907948,41.9132969 L329.140754,40.9740387 L329.683048,40.3475565 L329.76065,40.0344705 L331.000136,38.3118771 L331.077432,37.2160759 L331.620033,36.5117872 L331.697635,35.729382 L332.704315,35.8859251 L333.788597,35.3378695 L335.647979,34.9460469 L336.57767,32.989104 L339.985413,32.832251 L340.60531,32.1279623 L340.682605,31.0321611 L341.225206,30.4056789 L341.380104,27.3520048 L342,26.7258327 L341.689898,26.0212341 L341.689898,24.8470063 L341.379797,23.8299416 L340.605617,23.437809 L339.59863,23.3596925 L338.746541,22.5772873 L338.514348,22.1070382 L338.204246,19.5239232 L337.042362,18.741518 L336.345477,18.9761776 L336.267875,18.584665 L335.493695,18.1928424 L335.1839,18.1147259 L334.176914,18.1147259 L333.711915,18.8190146 L332.162634,19.6014197 L331.620033,20.3060184 L330.76825,20.7756475 L329.916161,20.3060184 L327.97979,17.9575629 L325.346227,16.3133961 L324.184343,16.3133961 L323.254959,16.5483656 L322.247972,18.0356794 L321.318894,18.270649 L321.008486,18.584045 L320.15701,18.584045 L319.304921,18.1922224 L319.304921,17.0179947 L318.762627,16.3918226 L317.833242,16 L316.903858,16.2349695 L316.051769,16.8614517 L314.967794,16.9398782 L312.95382,18.3490755 L312.566424,18.5056185 L311.326937,19.5233032 L311.249642,19.9151258 L310.475155,20.9321905 L309.77827,21.4808661 L308.693988,21.5589826 L306.834606,21.0890435 L305.982823,21.4808661 L304.820939,21.4808661 L304.355634,20.7762675 L302.961557,20.6981509 L302.419262,20.4631814 L301.644775,20.854694 L301.179776,23.9080581 L300.792073,24.6904633 L300.637175,25.708148 L300.249778,26.5689797 L300.327074,31.2655807 L300.094881,31.6574032 L300.172176,33.0666005 L299.629882,35.1797765 L299.087281,35.8843751 L298.467385,37.7632015 L298.389783,43.3999907 L299.474064,44.7307615 L298.622282,49.819185 L298.234578,50.6800167 L297.479415,51.3638463 L297.42175,51.9345309 L297.191705,52.2832654 L297.153364,53.4550133 L297,53.8521056 L297.230046,54.3945814 L297.268387,57.213596 L298.159737,57.2910925 L298.773192,57.8819263 L298.734851,58.4340117 L298.466464,58.5115082 L299.01244,59.2477255 L300.555586,60.3909546 L300.833481,60.7784374 L301.255231,60.9721787 L301.446936,61.010927 L302.376627,61.5242642 L302.730898,61.9117469 L303.190989,62.2313427 L304.082339,62.5413289 L304.427408,62.8513151 L304.897008,63.0838048 L305.203735,63.3646523 L305.711676,63.5971419 L306.056745,63.9071281 L308.999489,65.5153366 L309.344557,65.9415676 L309.852498,66.1061703 L313.178652,68.7993304 L313.456547,69.1964228 L314.070002,70.8722082 L313.954979,71.1143074 L315.622964,72.247307 L317.405971,74.5142361 L317.559335,74.988825 L317.559335,76.4705591 L318.10531,77.371379 L318.335355,78.427192 L318.297015,78.9789674 L318.143651,79.4439467 L318.181992,79.9185356 L319.41841,80.9743486 L319.686797,81.3618314 L320.079715,81.6814272 L320.309761,82.0689099 L320.616488,83.1634712 L321.622861,84.2189743 L321.354475,84.7710597 L321.354475,85.3618934 L321.469498,85.9043693 L321.823768,86.291852 L322.3222,87.8225639 L322.360541,89.5470172 L322.667269,90.5640819 L322.667269,91.1546056 L322.868482,91.5420884 L323.021846,92.2104186 L323.405255,92.5591531 L323.635301,92.9466359 L323.721491,93.4987213 L324.143242,93.9249523 L324.219924,95.0294332 L324.449969,95.4169159 L324.411628,96.0077497 L324.181583,96.3952324 L322.59028,96.8602117 L322.666962,97.3735489 L323.213244,97.4897937 L323.366608,97.886576 L323.443289,98.584045 L323.634994,98.9811373 L323.443289,99.3686201 L323.174903,99.6786063 L322.398575,100.153195 L322.321894,100.656923 L322.628621,101.015267 L321.469191,102.109828 L321.469191,103.242828 L321.938484,103.514066 L321.938484,104.104899 L322.321894,104.453634 L322.206871,104.928223 L323.404949,105.983726 L323.519971,106.409957 L323.912889,106.807049 L324.142935,107.194532 L324.296299,107.979107 L324.027912,108.918675 L324.066253,110.759373 L323.721185,111.582697 L323.989571,111.931431 L324.526344,112.008928 L324.80424,113.025992 L325.110967,113.539329 L326.308738,113.655574 L326.778338,112.909748 L327.123407,112.63851 L327.200089,112.125172 L326.970043,111.146856 L327.161748,110.720625 L327.593007,110.526884 L328.206462,109.858553 L328.59938,109.664812 L329.174494,109.664812 L329.327858,110.091043 L330.612433,110.991863 L330.765796,111.030611 L331.465442,110.991863 L331.963874,111.108108 L332.155579,111.5052 L332.625179,111.621445 L333.046929,111.892683 L333.631245,112.086424 L334.215868,112.125172 L335.375605,113.30715 L335.413946,113.849626 L335.98906,114.043367 L336.266955,114.285466 L336.45866,114.672949 L336.497001,115.215425 L337.311363,116 L337.886477,116 L338.279395,115.728762 L338.202713,115.215425 L337.886477,114.944187 L337.771454,114.440459 L337.809795,113.888374 L337.656431,113.462143 L336.151932,111.146856 L336.151932,108.879927 L336.305296,108.444086 L336.113591,108.017855 L336.266955,107.078287 L336.573683,106.962042 L336.612024,106.448705 L337.656431,106.293712 L338.164372,106.099971 L338.356077,105.712488 L338.816168,105.596243 L339.209086,105.276957 L339.36245,104.811978 L339.400791,104.259892 L339.669177,103.949906 L340.215459,103.911158 L340.330482,102.855345 L341.451571,102.109828 L341.566594,101.673988 L340.953139,100.899022 L340.914798,98.0025109 L340.560528,97.4891737 L340.560528,96.89834 L341.374889,95.5130117 L341.681617,95.1834963 L341.681617,94.7092174 L341.221525,94.5154761 L340.598869,93.8471458 L340.407164,93.3434182 L340.330482,91.8514546 L340.67555,91.618655 L340.828914,91.4249136 L341.049451,91.2699205 L341.145457,91.0470404 L340.87707,90.6208094 L340.896394,89.4874998 L340.637516,89.0904075 L340.876764,88.7221439 L341.030434,88.2959128 L340.972769,87.4725895 L340.876764,87.1722128 L340.752539,86.9976906 L340.771863,86.6489561 L340.580158,86.3969373 L340.484152,86.135309 L340.541817,85.6315814 L340.973076,85.2732373 L341.088099,85.079496 L341.165088,84.2946109 L341.088406,84.0425921 L341.14607,83.6743285 L340.877684,83.3550427 L341.10773,82.337978 L341.414457,81.9892435 L341.567821,81.5630124 L341.261093,81.2046684 L341.21171,80.921341 L341.067855,80.9743486 L340.13847,81.2877447 Z" id="pingtung" stroke-opacity="0.1" stroke="#000000" stroke-width="0.5" fill="#FFFFFF" sketch:type="MSShapeGroup"></path>
        </g>
    </g>
</svg>