<?xml version="1.0" encoding="UTF-8" standalone="no"?>
<svg width="128px" height="128px" viewBox="0 0 128 128" version="1.1" xmlns="http://www.w3.org/2000/svg" xmlns:xlink="http://www.w3.org/1999/xlink" xmlns:sketch="http://www.bohemiancoding.com/sketch/ns">
    <!-- Generator: Sketch 3.3.1 (12002) - http://www.bohemiancoding.com/sketch -->
    <title>taichung</title>
    <desc>Created with Sketch.</desc>
    <defs></defs>
    <g id="cities" stroke="none" stroke-width="1" fill="none" fill-rule="evenodd" sketch:type="MSPage">
        <g id="city" sketch:type="MSArtboardGroup" transform="translate(-384.000000, 0.000000)">
            <g id="grid" sketch:type="MSLayerGroup" transform="translate(14.000000, 14.000000)">
                <circle id="Oval-Copy-3" sketch:type="MSShapeGroup" cx="434" cy="50" r="50"></circle>
            </g>
            <path d="M411.152763,40 L410.51571,40.1608149 L410.424702,40.9993498 L407.114301,45.6400087 L406.420368,47.3515388 L406.511376,48.7529259 L406.465872,48.9367143 L406.010834,49.5340269 L405.817443,50.0509319 L404.81636,50.5104031 L404.440953,51.1536628 L402.745937,52.3138275 L402.791441,52.8192458 L402.973456,53.2442566 L403.01896,54.0253576 L402.700433,54.4044213 L401.824485,54.1172518 L402.836945,54.5882098 L403.01896,55.047681 L402.65493,55.564586 L402.325027,55.8402687 L401.505959,54.7719983 L401.176056,54.9557867 L400.766522,55.4152579 L399.981582,55.8402687 L400.027086,56.4835284 L399.754063,56.9544863 L398.741603,57.5517989 L398.423077,58.0687039 L399.936078,60.1592978 L399.890574,60.7566103 L399.572048,61.2275683 L399.435536,61.7789337 L399.06013,61.0782401 L399.11701,60.4809276 L398.559588,61.0782401 L398.013543,61.032293 L397.877031,60.3430863 L398.195558,59.6883398 L398.150054,59.0450802 L397.695016,59.5045514 L396.875948,61.8708279 L397.467497,62.3417859 L397.695016,62.8472042 L397.922535,63.0309926 L397.968039,62.9390984 L398.605092,63.3526225 L398.605092,64.053316 L398.377573,64.6161682 L396.966956,66.6952752 L396.546046,67.0283919 L396,68.4182922 L396.03411,69.1649328 L397.649494,69.8885999 L398.434435,71.1406589 L398.55957,71.9906805 L398.946352,72.9785436 L399.082864,73.9664066 L400.24321,75.2069788 L399.788172,75.8042913 L399.731293,76.7232336 L400.186331,77.3090594 L400.83476,77.7685306 L401.028151,77.7685306 L401.551444,78.6185522 L402.268129,78.9516688 L402.848302,79.41114 L403.633243,79.6064153 L404.338552,79.9969658 L408.047111,80.8584742 L408.957187,80.8584742 L409.548736,81.3179454 L409.673871,81.6395752 L409.673871,83.6153013 L410.254045,84.3964023 L410.902474,84.9247941 L410.902474,85.970091 L410.583947,86.6937581 L411.107241,89.2553099 L412.017317,89.3242306 L412.59749,89.8526225 L413.894348,89.7147811 L414.292506,89.4505852 L416.362929,91.231036 L419.61645,92.4141743 L420.40139,92.2074122 L422.346677,92.2074122 L423.256753,92.4141743 L423.905182,93 L424.690123,92.9310793 L426.248628,92.4026875 L428.592073,89.8526225 L429.957187,86.234287 L431.128909,85.0511487 L432.744294,84.5916775 L433.199332,84.0058518 L433.074196,81.5821413 L434.43931,78.8253143 L435.030859,78.423277 L435.87268,78.6874729 L436.259462,79.2847854 L437.954478,79.6064153 L438.534651,80.1348071 L438.534651,82.0990464 L438.921434,82.3058084 L439.18308,81.7084959 L439.706374,81.2490247 L440.036276,80.5942783 L440.423059,79.0205895 L441.003232,79.5489814 L441.139743,79.7442566 L442.174955,80.2611617 L443.085031,80.399003 L443.995106,80.2037278 L446.20204,78.2969224 L447.055236,78.1705678 L447.567154,78.630039 L448.42035,78.8253143 L450.297382,78.7563936 L450.945811,78.3658431 L451.924142,77.3779801 L452.640827,75.0806242 L453.16412,74.5522323 L454.074196,74.3569571 L455.632701,74.5522323 L456.212875,74.1616818 L457.7145,74.1616818 L459.136493,73.4380147 L459.591531,72.7143476 L460.308216,72.2548765 L460.763254,71.6690507 L461.411683,71.2785002 L461.866721,70.5548331 L462.071488,69.7622453 L462.719917,69.4406155 L466.553611,69.3716948 L467.076905,68.9122237 L467.531943,68.1885566 L467.782214,67.4648895 L468.692289,67.3959688 L469.147327,66.810143 L469.738877,66.4195925 L470.455561,66.7412224 L470.910599,67.2696142 L472.469104,67.7290854 L472.787631,67.074339 L473.447436,66.6837885 L474.414391,66.6837885 L475.916016,66.0175553 L476.49619,66.4195925 L477.406266,66.7412224 L478.12295,66.4770264 L478.577988,65.6959254 L478.771379,64.9033377 L479.6132,63.5249241 L479.943102,63.5249241 L481.114825,64.3864326 L481.501607,64.9722583 L483.196623,65.3628088 L484.163579,65.3628088 L484.561737,64.7769831 L486.313633,64.9722583 L486.768671,65.4317295 L489.112116,66.0864759 L489.760545,65.5580841 L490.079072,64.9033377 L490.022192,63.9843953 L491.387306,63.3985696 L491.774088,62.801257 L492.75242,62.8701777 L493.264337,62.4107065 L493.469104,61.5606849 L493.139202,59.8491547 L493.59424,59.1254876 L494.43606,58.8038578 L495.027609,58.4133073 L495.676038,56.8970524 L496.199332,56.3112267 L497.166287,56.3112267 L497.814716,55.8517555 L498.33801,55.1970091 L499.12295,53.6118336 L499.384615,50.9239272 L499.703142,50.2002601 L500.544962,49.7407889 L501,49.2123971 L500.544962,48.4312961 L499.964789,48.0407456 L499.578007,47.3859991 L498.793066,46.9839619 L496.19935,47.3170785 L495.539545,47.6501951 L494.697725,47.7765496 L494.117551,48.2360208 L493.662514,48.8218466 L492.684182,48.9596879 L492.035753,48.6265713 L490.534128,46.0650195 L488.782232,46.0650195 L488.065547,45.8008236 L487.098592,44.8244473 L487.417118,42.1939749 L487.223727,41.4128739 L486.893824,40.7466407 L486.438787,40.2297356 L486.302275,40.1493281 L485.676598,40.4824447 L485.437703,40.987863 L484.982665,41.2635457 L482.866739,41.2175986 L482.411701,41.458821 L480.034128,41.3669267 L480.011376,41.665583 L479.362947,41.9986996 L478.646262,42.5845254 L478.122969,43.2507586 L478.054713,44.1697009 L476.826111,46.2028609 L476.826111,47.1792371 L476.04117,47.3859991 L475.062839,47.3859991 L474.41441,46.4670568 L474.744312,45.9386649 L473.76598,45.5481144 L473.049296,45.8697443 L472.787649,46.662332 L472.332611,47.3170785 L471.490791,47.5812744 L469.738895,50.0739055 L469.02221,50.3381014 L467.076923,50.3381014 L466.417118,50.7975726 L466.166847,51.5212397 L465.9052,51.5786736 L465.188516,52.3712614 L465.052004,53.2902037 L464.27844,53.485479 L463.038462,54.5307759 L462.264897,54.7375379 L460.444745,54.5307759 L458.817985,55.1280884 L456.861322,57.6207195 L455.894366,57.6896402 L455.177681,57.2876029 L454.005959,56.1733853 L453.869447,55.254443 L453.221018,54.7949718 L452.254063,53.3591244 L451.662514,53.485479 L450.684182,53.485479 L449.978873,53.1523624 L448.158722,53.0260078 L445.940412,52.23342 L444.188516,52.1759861 L443.403575,52.497616 L442.891658,53.0260078 L442.891658,54.0138708 L443.210184,54.7375379 L443.346696,56.5754226 L443.016793,57.2876029 L442.368364,57.8159948 L441.583424,58.0801907 L437.817985,57.9538362 L437.1013,58.275466 L435.156013,58.275466 L433.267606,57.6896402 L432.095883,56.5754226 L431.709101,55.8517555 L431.117551,55.3922844 L427.02221,54.5996966 L425.793608,53.5543997 L424.883532,53.2902037 L424.360238,52.5665366 L423.06338,51.8428695 L422.540087,51.2570438 L421.766522,50.9928479 L421.311484,50.4070221 L420.981582,50.2691808 L419.878115,50.1428262 L419.423077,49.4880798 L418.251354,48.695492 L415.521127,45.1460772 L415.395991,45.1460772 L415.066089,44.4913307 L413.439328,43.8365843 L412.597508,42.4581708 L412.460997,41.7345037 L411.152763,40 L411.152763,40 Z" id="taichung" fill="#FFFFFF" sketch:type="MSShapeGroup"></path>
        </g>
    </g>
</svg>