<?xml version="1.0" encoding="UTF-8" standalone="no"?>
<svg width="128px" height="128px" viewBox="0 0 128 128" version="1.1" xmlns="http://www.w3.org/2000/svg" xmlns:xlink="http://www.w3.org/1999/xlink" xmlns:sketch="http://www.bohemiancoding.com/sketch/ns">
    <!-- Generator: Sketch 3.3.1 (12002) - http://www.bohemiancoding.com/sketch -->
    <title>tainan</title>
    <desc>Created with Sketch.</desc>
    <defs></defs>
    <g id="cities" stroke="none" stroke-width="1" fill="none" fill-rule="evenodd" sketch:type="MSPage">
        <g id="city" sketch:type="MSArtboardGroup" transform="translate(-512.000000, 0.000000)">
            <g id="grid" sketch:type="MSLayerGroup" transform="translate(14.000000, 14.000000)">
                <circle id="Oval-Copy-4" sketch:type="MSShapeGroup" cx="562" cy="50" r="50"></circle>
            </g>
            <path d="M589.742604,26 L589.631623,26.2203452 L588.61892,26.8813808 L587.162293,26.9915534 L586.274444,26.1101726 L584.817817,26.3305178 L582.459468,27.4460154 L579.088417,27.4460154 L576.410998,29.0022035 L576.286144,29.1123761 L575.620257,30.2278737 L572.817984,30.1039295 L572.928965,31.4397723 L569.793749,31.6738891 L569.557914,33.1199045 L569.003009,34.2216306 L568.212268,34.8964378 L567.102457,34.2216306 L566.200735,35.116783 L566.64466,36.3424532 L566.422698,37.127433 L562.163797,39.234484 L561.830854,40.5703268 L560.374227,42.6911495 L559.028581,43.2420125 L557.003176,42.6911495 L556.44827,41.7959971 L556.44827,43.0216673 L555.324586,42.9114947 L554.311884,42.0163423 L553.867959,40.6804994 L552.18937,40.3499816 L550.968578,39.5512303 L550.621762,39.1243114 L547.431055,38.5596768 L545.696975,41.5618803 L545.974428,42.1265149 L546.418352,42.1816012 L546.140899,43.0078957 L545.572121,43.4072714 L545.46114,44.1784796 L546.695805,44.9083731 L547.209092,45.0185457 L547.93047,44.7982005 L546.973258,46.1891296 L545.46114,46.7399927 L545.072706,47.3046272 L545.183687,48.0758355 L545.51663,48.7506427 L544.406819,49.7972824 L544.226475,50.5271759 L543.893532,51.1331252 L542.825338,50.8576937 L542.547886,51.4223283 L542.214942,52.92343 L542.270433,54.5897907 L540.078556,58.6524054 L539.856594,60.2085935 L539.190707,61.3240911 L539.690122,60.7043702 L540.369881,60.4289387 L541.035768,60.3738524 L541.313221,63.8856041 L541.826508,64.2712082 L542.492395,64.5466397 L542.103961,66.8878076 L540.647334,67.4937569 L540.536353,67.4937569 L538.968745,68.0033052 L537.567608,69.2840617 L536.110981,69.9450973 L536,71.5012853 L536.110981,71.7216306 L536.221962,73.3466765 L536.554906,73.7322806 L537.401137,73.7322806 L537.345646,76.3488799 L537.678589,77.4092912 L538.621929,78.5110173 L538.746783,78.8553066 L539.579141,78.5661036 L540.147919,78.1804994 L540.605716,77.7122659 L540.758315,78.4008447 L540.647334,79.1858245 L542.714357,80.4114947 L543.116664,80.5216673 L543.893532,81.2377892 L545.294668,81.9676827 L547.042621,83.7993022 L547.708507,84.1298201 L550.066856,86.305729 L550.122347,86.5260742 L551.634464,87.9720896 L552.702658,89.5833639 L553.424035,89.418105 L554.436737,88.4816379 L555.047134,88.1373485 L554.603209,89.0875872 L554.214775,89.5833639 L554.214775,90.1479985 L555.671402,90.5336026 L554.936152,91.1533235 L554.103794,91.0982372 L553.645997,90.4785163 L553.257563,90.2581711 L553.590506,91.0982372 L554.103794,91.7592729 L554.325756,92.4891664 L554.103794,96.71704 L553.867959,97.3229893 L554.311884,98.2181418 L554.880662,97.8876239 L555.782383,96.9924715 L556.462143,96.7445832 L557.65519,94.5824458 L556.489888,96.7308116 L560.263246,98.1079692 L561.38693,97.5433346 L562.163797,97.9977965 L563.842387,99.7743298 L565.409995,99.7743298 L565.64583,99.443812 L566.880495,99.994675 L567.768344,100.104848 L568.448103,99.2096952 L576.410998,101 L578.089587,100.889827 L580.89186,98.3283144 L581.668728,97.2128167 L583.014374,96.7721263 L584.581982,96.6619537 L585.705666,97.3229893 L587.051312,97.3229893 L587.731071,94.5411311 L588.396958,94.2106133 L588.854755,93.6459787 L589.076717,92.1999633 L590.755307,88.3026074 L592.100953,87.9720896 L592.544877,86.6362468 L592.655858,85.0800588 L595.125188,84.9698862 L595.236169,83.4136981 L599.273107,80.5216673 L600.840715,78.0703268 L605.446432,74.9579508 L606.445262,73.8424532 L608.123851,72.8371282 L608.359686,71.5012853 L608.470667,71.3911127 L609.025572,71.0605949 L609.247535,69.5044069 L609.816313,68.3889093 L609.927294,66.8327213 L612.396624,63.8305178 L613.173492,63.7203452 L616.766505,58.9278369 L616.877486,57.2614763 L618.667057,55.0304811 L619,53.6946383 L618.00117,52.92343 L617.876316,52.7030848 L617.432392,53.0336026 L616.308708,52.4827396 L613.506435,53.0336026 L612.160789,52.5929122 L610.593181,51.4774146 L608.914591,53.928755 L607.568945,54.2592729 L606.112318,54.1491003 L604.211767,52.8132574 L601.520475,52.0282776 L601.062678,50.9265516 L602.519305,48.805729 L602.186361,47.6902314 L601.298512,46.2442159 L601.062678,45.1287183 L601.631456,44.0269923 L601.173659,42.8013221 L601.062678,41.245134 L601.742437,40.0194638 L602.75514,39.234484 L602.866121,37.8986412 L602.408324,36.672971 L600.840715,36.5627984 L599.162126,36.0119354 L598.718202,35.0066104 L599.828013,34.2354021 L599.717032,32.7893867 L596.248872,32.5552699 L596.248872,31.1092545 L597.372556,30.3380463 L598.038442,29.3327213 L597.136721,28.5477415 L596.137891,29.1123761 L594.792245,28.7818582 L593.668561,27.8867058 L592.211934,27.4460154 L591.421193,26.4406904 L589.742604,26 L589.742604,26 Z M560.485208,74.5172604 L563.287481,75.729159 L563.287481,75.7429086 L560.485208,74.5172383 L560.485208,74.5172604 Z" id="tainan" fill="#FFFFFF" sketch:type="MSShapeGroup"></path>
        </g>
    </g>
</svg>