<?xml version="1.0" encoding="UTF-8" standalone="no"?>
<svg width="128px" height="128px" viewBox="0 0 128 128" version="1.1" xmlns="http://www.w3.org/2000/svg" xmlns:xlink="http://www.w3.org/1999/xlink" xmlns:sketch="http://www.bohemiancoding.com/sketch/ns">
    <!-- Generator: Sketch 3.3.1 (12002) - http://www.bohemiancoding.com/sketch -->
    <title>taipei</title>
    <desc>Created with Sketch.</desc>
    <defs></defs>
    <g id="cities" stroke="none" stroke-width="1" fill="none" fill-rule="evenodd" sketch:type="MSPage">
        <g id="city" sketch:type="MSArtboardGroup">
            <g id="grid" sketch:type="MSLayerGroup" transform="translate(14.000000, 14.000000)">
                <circle id="Oval" sketch:type="MSShapeGroup" cx="50" cy="50" r="50"></circle>
            </g>
            <path d="M35.5567705,37.1733259 L34.0449327,40.4128755 L32.5330948,41.9238595 L32.1013138,42.7869335 L30.589476,44.514288 L30.589476,47.7526288 L28.4317809,49.0472398 L28,51.8528349 L28.8635618,54.6572211 L31.0236758,56.1682051 L37.9345892,57.0336967 L42.2548172,61.1351116 L43.9819408,64.3734524 L44.198436,74.3024302 L40.958265,78.8353821 L38.7993605,80.7779031 L37.7193035,83.1531699 L38.3663701,89.4122699 L39.6605033,92.0051184 L42.2548172,91.7887455 L44.6302169,90.4941344 L46.1420548,88.3352405 L47.6538927,88.1188676 L51.1093494,89.6298516 L53.0505492,91.1408355 L53.9153205,93.5161023 L53.9153205,96.7544432 L55.4271584,99.3460829 L58.234339,101.287395 L61.2580148,101.502559 L62.5533575,106.683421 L67.0888712,109.705389 L79.1835744,111 L81.7754693,109.920553 L85.230926,109.920553 L85.4474212,107.761659 L79.6165648,104.956064 L79.1859933,101.934096 L79.4024885,99.3436653 L77.8906506,94.3791764 L77.8906506,91.5687462 L79.4024885,89.1946882 L81.5626025,87.8988684 L87.6099541,88.3304054 L89.551154,87.0357943 L92.1454678,86.3878844 L100.351724,86.8194214 L101,85.0920645 L99.0563812,84.2289905 L96.2492006,85.0920645 L91.4971917,82.9343794 L85.6663353,78.6178004 L84.5862783,76.2425336 L86.0981162,74.3000127 L85.6663353,71.9259547 L83.9380022,70.1985978 L85.2333449,68.6876138 L88.0393161,62.8600509 L87.3934589,57.247652 L78.1047269,49.2611952 L78.7517935,46.4568089 L80.4801266,44.514288 L79.8342694,42.3566053 L76.3788127,39.3346373 L75.08347,37.3933251 L74.8669748,31.1318076 L71.4115181,27.6795114 L71.4115181,24.4399618 L72.2762894,22.0659038 L72.2762894,18.827563 L66.6595093,19.2591 L64.2841095,14.942521 L62.554567,13 L59.5308912,17.7505336 L57.1554915,18.8299805 L56.074225,21.2052473 L51.5387113,23.796887 L50.4586543,26.6012733 L48.5150355,27.8958843 L45.4913597,28.1122572 L43.11596,29.192913 L39.4440082,33.5082832 L38.3639512,36.315087 L35.5567705,37.1733259 L35.5567705,37.1733259 Z" id="taipei" fill="#FFFFFF" sketch:type="MSShapeGroup"></path>
        </g>
    </g>
</svg>