<?xml version="1.0" encoding="UTF-8" standalone="no"?>
<svg width="128px" height="128px" viewBox="0 0 128 128" version="1.1" xmlns="http://www.w3.org/2000/svg" xmlns:xlink="http://www.w3.org/1999/xlink" xmlns:sketch="http://www.bohemiancoding.com/sketch/ns">
    <!-- Generator: Sketch 3.3.1 (12002) - http://www.bohemiancoding.com/sketch -->
    <title>taitung</title>
    <desc>Created with Sketch.</desc>
    <defs></defs>
    <g id="cities" stroke="none" stroke-width="1" fill="none" fill-rule="evenodd" sketch:type="MSPage">
        <g id="county" sketch:type="MSArtboardGroup">
            <g id="grid" sketch:type="MSLayerGroup" transform="translate(14.000000, 14.000000)">
                <circle id="Oval" sketch:type="MSShapeGroup" cx="50" cy="50" r="50"></circle>
            </g>
            <path d="M98,10.9442035 L97.4068252,12.7534398 L97.4068252,13.2598135 L97.0351658,13.4922778 L96.572574,15.3437562 L96.5395318,16.8796145 L96.0690099,17.8926274 L96.1020521,19.3620674 L95.8046717,20.8400089 L95.39997,21.1136526 L94.904336,21.1136526 L94.4996343,21.2132801 L94.1692117,21.4789536 L93.8718312,22.3174191 L93.6653832,22.6495109 L93.3019182,22.9898386 L93.1367069,23.3551396 L93.1036646,23.7950949 L92.7980897,24.0939776 L92.6989629,25.1734089 L92.4346248,25.5055007 L91.7988915,28.0875812 L92.0301874,28.3864638 L92.1702866,28.7600007 L91.9641029,29.0920925 L91.5675957,29.3992111 L91.1959362,29.3327927 L90.9646404,28.9592558 L90.66726,29.0920925 L90.9315981,29.3660019 L90.9646404,29.7313029 L90.1798204,30.2708857 L90.2625583,32.3798017 L90.7663868,33.3843131 L90.8655136,33.8574776 L90.799429,34.8285141 L90.4277696,35.202051 L90.4608119,36.6382818 L91.2620208,37.4767472 L91.0307249,38.2485287 L90.0643047,38.2817379 L89.733882,38.5556472 L89.1642333,39.6597861 L88.8256161,39.8258321 L87.8261536,39.8590412 L87.5948577,40.1661598 L87.2313928,40.3654149 L87.2313928,40.8715228 L87.0249447,41.2036147 L87.0249447,41.7099883 L86.4962684,42.4737995 L86.124609,43.7856951 L85.8602709,44.1509961 L85.628975,45.6621468 L85.3236644,46.1021021 L85.2575799,46.5338215 L84.9601995,46.7413125 L84.6876669,47.0401951 L84.4233287,47.8119766 L84.1589906,48.2436959 L83.8203734,49.5888007 L83.6221198,49.821265 L83.4899507,50.2280111 L83.4899507,50.7261488 L82.6229216,51.6395342 L82.4907526,52.0048353 L82.0199663,52.0380444 L81.7225859,52.3037179 L81.4912901,52.710464 L81.3178842,52.7768824 L81.2517997,53.6153478 L80.351464,55.5914271 L79.781551,56.1310099 L79.2198324,57.3015672 L79.0546211,58.139767 L78.7493105,58.4136764 L78.3528033,58.5133039 L77.7168057,59.1857235 L77.6837635,59.9909798 L76.8495123,59.7834888 L76.4781172,59.9245614 L75.5777815,60.0573981 L74.0411839,61.3273173 L73.8429303,61.6344358 L73.7768457,62.0661552 L73.9420571,62.4064829 L74.4128433,62.9378299 L74.5119701,63.2781576 L74.0081416,63.2781576 L73.809888,63.6102494 L73.9750993,63.9423413 L74.3137165,64.1163574 L74.5780546,64.41524 L74.4789278,64.8884045 L74.7763083,65.6190065 L74.6441392,66.0589618 L74.0824206,66.5653354 L73.6446767,66.6317538 L73.2812117,66.9970548 L72.9428589,69.1142067 L72.3729459,69.6455536 L71.646016,69.9526722 L71.3404411,70.2183456 L71.1421875,70.5504375 L70.4731477,71.0897546 L70.274894,71.3886373 L69.9775136,71.5961283 L69.5728119,71.7621742 L68.5736138,72.9659407 L67.8715317,73.3726867 L67.46683,73.4723143 L67.2024918,73.7047786 L66.8390269,73.8708245 L66.3354627,73.9452131 L66.0711246,74.2108865 L65.6003384,74.2440957 L65.3690425,74.5429784 L64.7330449,74.9165153 L64.4687068,75.1821887 L63.7666247,75.5142806 L63.6674979,75.9210267 L63.4031597,76.2531185 L62.9323735,76.2863277 L62.6349931,76.560237 L61.5609872,77.0251656 L61.2636068,77.2988093 L60.8258628,77.9962021 L60.594567,78.8346676 L60.2971866,79.1749953 L60.231102,79.6067147 L59.9916117,79.9138332 L59.9585694,80.3787618 L59.7603158,80.7852422 L59.7933581,81.2501708 L59.7436625,81.4082465 L59.6939669,82.7947963 L59.4957133,83.1850707 L59.47906,83.5503717 L58.9585782,84.305947 L58.0252002,85.1444125 L57.7939044,85.4847402 L57.3561604,85.7172045 L57.1579068,86.0492963 L57.0918223,86.4892516 L56.8605264,86.8213434 L56.8274841,87.2942422 L56.6543426,87.7259616 L56.6543426,88.2323352 L56.32392,88.4315903 L56.32392,89.1040099 L55.5557533,90.9140432 L55.5557533,91.4204169 L55.3244574,91.6528812 L55.3244574,92.6573926 L54.7545444,93.770033 L54.7875867,94.3345892 L54.457164,94.7745444 L54.3168005,95.7126375 L54.0855046,96.0115201 L54.01942,96.9496131 L53.7550819,97.2896752 L53.6559551,97.7546037 L53.1521266,98.4270233 L53.0199575,98.8005602 L52.7886617,99.0994428 L51.8468249,101.781151 L51.615529,102.121479 L51.4833599,103.458082 L50.8143201,104.130236 L50.0461534,106.546536 L50.0461534,107.484363 L49.8809421,107.8579 L49.9470266,109.294131 L50.2856438,109.734086 L50.2856438,111.809793 L50.5169397,112.648258 L50.5404658,113.882843 L49.6144893,114.194478 L49.0802619,114.664454 L48.2127041,115 L47.4783727,113.725299 L46.6776925,113.523918 L45.6095021,113.523918 L45.2753787,112.786143 L44.541576,112.517547 L43.9407354,112.114786 L42.8059317,112.181736 L42.672441,111.578391 L42.8728093,110.706185 L43.3404235,110.437855 L42.6060921,110.169259 L42.3391106,109.498434 L41.0708162,108.760924 L41.538166,108.157048 L42.2056198,107.821503 L42.1384779,105.808761 L41.4712885,105.406 L41.1374294,104.73544 L40.4033624,104.73544 L39.4020495,103.661853 L38.4673498,103.191877 L39.7359086,99.3008233 L41.4712885,99.0324931 L41.8051475,98.2944522 L41.6047792,97.4222462 L40.8707122,96.8855858 L40.2035227,95.4761881 L39.1353323,94.8056282 L39.0687191,94.0006376 L38.8012089,93.195647 L39.9362769,92.323441 L39.9362769,91.3170699 L38.8683508,89.1704283 L38.7345957,88.0296264 L38.2669815,87.7610305 L38,86.9560399 L38.1334908,86.0171499 L38.8678221,84.6749675 L38.5336987,83.9371923 L38.9344353,83.3335821 L39.2016812,82.5958069 L39.1348036,81.6566512 L39.4020495,80.9858257 L39.9360125,80.4488996 L40.1366452,79.643909 L40.603995,79.1069829 L40.6708726,78.8386527 L41.739063,77.3623052 L41.8056762,76.4231495 L42.2732904,75.8195394 L42.3401679,75.1489796 L43.2077257,75.2831447 L44.1421611,74.8131683 L45.7445789,74.4776227 L46.5457878,72.8004261 L49.4825845,72.6657296 L50.0168119,72.0623852 L50.0834251,71.1232295 L50.5510393,70.5863034 L50.6845301,67.969154 L51.2187574,67.4324936 L50.9515116,66.8286178 L50.9515116,65.8222467 L50.6842657,64.9505721 L50.0170762,64.6144951 L49.1492541,64.5475454 L48.4149228,63.8769856 L48.2148188,63.4739589 L48.0144505,62.6689683 L48.0144505,61.6625972 L48.1339313,61.4043626 L48.3226688,59.6015024 L47.567719,58.5579371 L46.1519239,58.4630916 L45.3967099,56.18627 L45.4910786,54.8579026 L45.1133394,54.4779896 L44.6412315,53.4341585 L44.6412315,52.0112114 L44.9243376,50.8728006 L47.567719,47.4570368 L47.7567208,46.982544 L47.7567208,45.9389786 L49.4561507,44.705191 L49.0784115,43.5667802 L48.4175662,42.9025965 L48.8894097,41.76392 L49.8333612,40.720089 L49.5502551,34.7424359 L50.4001022,34.172832 L50.9665788,32.8444646 L51.9105304,32.3699718 L51.6274242,31.3264064 L51.6274242,30.2825754 L52.0051634,29.2387443 L51.911059,28.7642515 L51.6279529,28.5745606 L52.3829026,27.6258407 L53.3268541,27.2461933 L55.1206527,25.7276037 L56.4423434,24.0198547 L57.480928,24.0198547 L59.5575684,23.4502507 L60.3127825,22.6914873 L62.5255571,21.742236 L62.7674265,22.4127958 L63.7687394,23.6874972 L63.7021262,24.6938683 L64.703439,27.1093714 L64.903543,27.3104863 L65.2376664,27.9813118 L66.3727344,27.9813118 L67.7745196,28.8535178 L68.7092192,28.9207332 L69.6436546,29.994054 L69.9775136,30.6646138 L70.7115807,31.0004251 L70.9788265,31.0004251 L71.1123173,30.6646138 L72.5143668,29.994054 L73.8498031,30.86626 L74.3171529,31.4698701 L74.651012,32.2076453 L74.651012,33.3481815 L75.6523249,34.7573136 L75.6523249,35.4950888 L76.3197787,35.8978498 L77.1207232,36.16618 L77.5880731,36.7700558 L77.8553189,36.9714363 L79.0567358,37.038386 L79.5909632,37.5083624 L80.058313,38.3803027 L80.1251905,39.3197241 L80.6594179,39.3866738 L81.3268717,38.9169631 L83.9303381,38.5142021 L84.1975839,37.7764269 L84.1975839,34.7573136 L83.9972156,33.8181579 L84.2641972,33.0803827 L85.3990008,32.141227 L86.2002097,30.5976641 L86.2668229,29.8598889 L86.6675595,29.1221136 L86.6675595,28.1157425 L87.2681358,27.6457662 L87.6688724,26.0352536 L88.0029958,25.3646938 L88.6033078,24.9616671 L89.0709219,24.3583227 L89.2044127,22.0100349 L92.4087196,17.1118131 L92.4087196,17.0448634 L91.5408975,16.5751527 L91.0066701,15.9712769 L90.872915,14.7635253 L90.9397926,14.6965756 L92.8755408,11.2077516 L94.0106088,10.2683302 L94.7446758,10 L95.7459887,10 L96.5466689,10.2013805 L97.1475095,10.6710912 L98,10.9442035 L98,10.9442035 Z" id="taitung" stroke-opacity="0.1" stroke="#000000" stroke-width="0.525" fill="#FFFFFF" sketch:type="MSShapeGroup"></path>
        </g>
    </g>
</svg>