<?xml version="1.0" encoding="UTF-8" standalone="no"?>
<svg width="128px" height="128px" viewBox="0 0 128 128" version="1.1" xmlns="http://www.w3.org/2000/svg" xmlns:xlink="http://www.w3.org/1999/xlink" xmlns:sketch="http://www.bohemiancoding.com/sketch/ns">
    <!-- Generator: Sketch 3.3.1 (12002) - http://www.bohemiancoding.com/sketch -->
    <title>taiwan</title>
    <desc>Created with Sketch.</desc>
    <defs></defs>
    <g id="cities" stroke="none" stroke-width="1" fill="none" fill-rule="evenodd" sketch:type="MSPage">
        <g id="taiwan" sketch:type="MSArtboardGroup">
            <g id="grid" sketch:type="MSLayerGroup" transform="translate(14.000000, 14.000000)">
                <circle id="Oval" sketch:type="MSShapeGroup" cx="50" cy="50" r="50"></circle>
            </g>
            <path d="M58.1664297,32.7105531 L59.9239229,32.0228384 L61.1198518,30.1892104 L61.7522715,28.026035 L62.8615067,25.9842864 L63.8943292,24.0636868 L65.0007857,22.0927937 L67.1903582,20.1721941 L70.2568712,18.9759873 L73.1788946,18.4833334 L75.6421636,17.2476699 L76.9122824,18.5361277 L75.9425352,16.3359964 L77.0859477,14.5365457 L79.1463132,13.3219998 L81.0143965,13.7487997 L82.1419707,15.616883 L83.4804442,15.9489311 L83.6885647,17.042328 L84.992583,17.9273265 L86.8790052,18.032915 C86.8790052,18.032915 88.1208745,18.3120763 88.7418091,18.4516569 L90.0091492,18.2804923 L89.4453621,19.792909 L90.1486372,21.4156378 L92.103692,21.8057596 L90.8758087,22.8435837 L88.9263111,24.1451011 L87.7114874,25.7839461 L86.6892238,28.4214362 L87.1635385,30.8872061 L87.6378533,33.7750522 L88.6231609,34.7973158 L88.4125396,36.7468133 L87.4138945,37.4503663 L88.0093582,38.4698513 L86.4627642,39.8083247 L85.7592112,42.306049 L85.7592112,43.6075664 L84.8608752,44.3477975 L84.5235476,45.6837702 L83.2564854,46.5268112 L82.3948275,47.6149287 L82.67686,48.9717412 L81.5306688,50.2074048 L81.4253581,51.7723378 L82.1286332,52.8632339 L81.8996729,53.9407926 L80.9827199,54.3806521 L80.8774093,56.965348 L80.1555172,59.0440526 L80.1555172,60.7512522 L79.39917,61.7365599 L79.3808309,63.8049834 L79.046282,64.2792982 L78.8353828,66.244634 L78.1846241,67.1932635 L78.5008339,68.9529796 L77.1281831,74.1118125 L76.387952,74.6044663 L75.842504,76.8965708 L75.0336403,77.6554188 L75.3498502,79.6101958 L75.7002373,80.4901927 L74.2906306,81.2648791 L73.6081953,83.1460219 L73.0285699,83.5703211 L72.7098592,85.1880484 L71.9351729,85.4356257 L70.841776,87.9753075 L69.4166088,88.4337839 L69.6272301,90.3177055 L69.063443,91.4400003 L67.5879824,92.8309901 L65.8624436,93.7637814 L64.8532396,94.3828635 L64.3789249,95.5104378 L64.3789249,96.6749681 L63.7098271,97.3810218 L62.9379194,99.852349 L62.2001891,101.451737 L61.4966361,103.335381 L60.9145099,104.781944 L61.2148815,107.26633 L60.9856432,108.256917 L61.2648971,110.317283 L60.9645255,110.846893 L61.3332518,111.652978 L61.0145412,112.356531 L61.2254403,113.734461 L60.6799923,114.632797 L59.7447003,115.249378 L60.1845598,117.757661 L58.672421,116.806531 L57.4550965,116.008226 L56.9096484,116.925179 L55.7662359,116.925179 L55.7662359,115.270496 L55.2052274,113.879506 L56.0852244,111.800524 L55.1182558,108.069915 L54.0406972,105.640823 L52.9103443,104.320688 L52.6285896,103.282864 L48.3233566,100.524225 L47.5831255,99.9051432 L47.6884361,97.4785523 L46.8214988,99.9051449 L44.5188354,97.7736444 L43.1303464,95.7054987 L42.9197251,94.2430977 L43.5176895,93.3078057 L41.9710956,90.0223355 L41.5470743,88.1570309 L40.790727,86.3653604 L40.8618604,84.7793096 L38.522241,83.1590816 L37.3946667,82.4555286 L37.0942952,80.5743857 L38.466946,79.9764212 L37.6161248,78.4984598 L38.51196,76.561744 L39.4786507,75.2049315 L39.2496903,73.82978 L40.5142518,72.3568201 L40.3903242,71.2820401 L40.2850136,68.7370788 L39.0888068,68.5420179 L40.1822037,67.1665885 L39.9187881,65.0562074 L40.9382731,62.1214022 L40.8699184,60.9015769 L42.7694004,57.984833 L43.7891632,57.9323166 L45.7731159,53.7140551 L46.1946364,52.233315 L47.6384205,51.1899337 L48.8001721,48.6002363 L48.4839623,47.7174607 L49.7301847,47.1378353 L50.5918426,45.5676228 L50.3809434,44.4058712 L51.4876779,43.1385311 L52.4729855,42.0820902 L53.0526109,40.5118777 L53.9509469,39.1550652 C53.9509469,39.1550652 54.8358515,38.1973797 54.9154576,38.1168387 C54.9950637,38.0362977 55.9445452,36.4309431 55.9445452,36.4309431 L57.0735909,34.3355897 C57.5933541,33.4652826 58.1664297,32.7105531 58.1664297,32.7105531 Z" fill="#FFFFFF" sketch:type="MSShapeGroup"></path>
        </g>
    </g>
</svg>