<?xml version="1.0" encoding="UTF-8" standalone="no"?>
<svg width="128px" height="128px" viewBox="0 0 128 128" version="1.1" xmlns="http://www.w3.org/2000/svg" xmlns:xlink="http://www.w3.org/1999/xlink" xmlns:sketch="http://www.bohemiancoding.com/sketch/ns">
    <!-- Generator: Sketch 3.3.3 (12072) - http://www.bohemiancoding.com/sketch -->
    <title>changhua</title>
    <desc>Created with Sketch.</desc>
    <defs></defs>
    <g id="cities" stroke="none" stroke-width="1" fill="none" fill-rule="evenodd" sketch:type="MSPage">
        <g id="county" sketch:type="MSArtboardGroup" transform="translate(-256.000000, -128.000000)" stroke="#000000" stroke-opacity="0.1" stroke-width="0.690242729" fill="#000000">
            <path d="M285.135288,217.36651 L288.621289,218.618692 L290.712449,218.758742 L293.920697,219.734131 L302.845259,219.316186 L304.378703,218.758742 L312.466691,218.897689 L313.860981,218.201298 L316.650114,219.733028 L317.068125,220.42942 L319.439247,220.707866 L323.901528,222.935988 L327.38753,223.771878 L331.431248,223.632931 L333.104396,223.214434 L349.978346,226 L353.186042,225.024611 L354.302027,224.049773 L355,222.657542 L355,220.847365 L353.884016,220.568919 L352.490277,221.265861 L350.677976,221.265861 L349.283686,220.568919 L345.239416,216.252174 L345.379121,214.999993 L346.077094,213.607761 L345.100263,212.493424 L345.937389,211.101193 L346.216247,209.291016 L346.914221,207.899336 L347.61109,202.607202 L347.332232,201.076575 L347.61109,199.823291 L347.053374,196.75983 L347.891052,195.507097 L349.006484,194.532259 L349.704458,193.140028 L349.843611,191.190352 L349.146189,189.659725 L348.16991,188.545388 L347.891052,188.405889 L348.030205,186.317266 L352.213076,186.317266 L354.419092,185.068945 L351.238453,182.4317 L350.647053,182.825384 L348.675168,183.022227 L347.788344,182.234306 L346.407859,182.135058 L345.618773,178.295256 L346.111882,177.211797 L346.111882,175.637059 L345.126216,174.849138 L344.239392,173.666982 L344.239392,170.713797 L344.042259,170.220864 L343.155435,169.531641 L341.774949,169.531641 L337.633493,168.349485 L336.154165,168.250788 L335.069103,167.660261 L333.885751,167.365274 L332.998375,166.67605 L331.913866,166.183117 L331.12478,164.903367 L330.828804,164.903367 L329.843137,164.214144 L329.152895,163.328629 L329.251737,161.950182 L329.94198,161.064116 L328.166676,159.192737 L327.970095,157.715593 L327.378695,156.238449 L327.182114,154.958699 L325.998209,153.08787 L323.555302,152 L322.716519,152.205664 L322.992616,153.032733 L323.354856,153.515189 L322.509446,153.945816 L320.714815,156.237346 L320.69825,156.306269 L319.231622,158.666721 L318.541379,159.096797 L315.469523,159.165719 L315.607571,159.992787 L316.452981,160.699104 L316.383956,162.714945 L315.814644,163.197401 L315.469523,163.955547 L315.26245,164.937553 L314.77928,165.626776 L314.710256,167.729184 L314.641232,167.935951 L314.072472,168.763019 L314.072472,169.813947 L314.417593,170.50317 L314.279544,171.554098 L313.520277,172.243322 L311.846577,172.880716 L311.432431,173.845629 L310.172876,175.171695 L310.034828,177.118614 L309.689706,177.893852 L308.223079,178.169542 L307.447246,178.789843 L306.54993,178.927687 L305.221351,179.909693 L304.462084,180.185383 L304.255011,181.081373 L302.011446,182.752051 L301.597301,184.42328 L301.597301,185.612053 L301.114131,186.456214 L300.976082,187.352204 L300.269274,187.834661 L299.924152,189.643183 L298.595573,189.729198 L297.560209,189.505339 L296.783824,190.142733 L296.23163,192.847797 L296.438703,193.485191 L298.526549,193.485191 L298.526549,193.967647 L295.886508,197.930958 L295.74846,197.862036 L295.524269,198.981886 L295.041099,199.602188 L294.834026,200.446349 L294.281832,200.997727 L293.575023,203.651514 L292.401611,204.961038 L292.108396,205.977781 L291.073032,207.373321 L290.72791,208.200389 L290.227622,208.768861 L290.089574,209.975277 L289.399331,210.336982 L288.778113,210.888361 L288.001728,211.301895 L287.518558,212.008211 L286.742725,212.421745 L286.742725,213.179891 L287.242461,213.886207 L286.880773,214.161897 L285.845409,214.161897 L285.362239,214.85112 L285.207073,216.86641 L285,217.434881" id="changhua" sketch:type="MSShapeGroup"></path>
        </g>
    </g>
</svg>