<?xml version="1.0" encoding="UTF-8" standalone="no"?>
<svg width="128px" height="128px" viewBox="0 0 128 128" version="1.1" xmlns="http://www.w3.org/2000/svg" xmlns:xlink="http://www.w3.org/1999/xlink" xmlns:sketch="http://www.bohemiancoding.com/sketch/ns">
    <!-- Generator: Sketch 3.3.3 (12072) - http://www.bohemiancoding.com/sketch -->
    <title>chiayi</title>
    <desc>Created with Sketch.</desc>
    <defs></defs>
    <g id="cities" stroke="none" stroke-width="1" fill="none" fill-rule="evenodd" sketch:type="MSPage">
        <g id="county" sketch:type="MSArtboardGroup" transform="translate(-384.000000, 0.000000)" stroke="#000000" stroke-opacity="0.1" stroke-width="0.5" fill="#000000">
            <path d="M405.4552,80.514 L405.3752,79.8524 L404.7252,79.6024 L403.2128,79.6024 L403.0504,79.0024 L403.1128,76.9772 L404.3128,74.202 L404.8752,74.252 L406.3372,73.6396 L406.8496,71.6272 L407.2496,70.9652 L407.1496,69.5528 L406.8996,69.2028 L406.3372,69.7028 L405.8372,69.3028 L405.5252,68.6904 L405.4752,67.9404 L405.8872,66.678 L405.8872,66.016 L405.2752,65.866 L405.3252,65.166 L406.1872,63.4908 L405.5252,63.4908 L404.8752,63.1408 L404.7252,62.3284 L405.0252,61.7284 L405.0252,60.9164 L405.3752,60.4664 L405.5752,59.754 L405.8872,59.204 L405.8872,58.4416 L405.3252,58.1916 L403.05,58.3416 L402.35,58.0916 L402,57.4792 L402.15,53.8416 L402.7764,53.4924 L404.318,53.5444 L406.642,54.4532 L408.1572,54.4532 L408.7636,55.362 L410.2788,55.362 L411.3896,54.8568 L413.9148,55.7656 L415.43,55.9676 L416.3392,55.26 L417.0464,54.3516 L417.1472,52.9372 L416.844,51.7252 L417.6524,50.9168 L418.9656,50.9168 L418.9656,52.23 L420.3796,52.7352 L420.784,51.6244 L422.7032,50.5132 L423.0064,49.0996 L423.714,48.2912 L426.2392,47.2816 L427.3504,47.8876 L428.0576,45.4628 L428.664,44.4532 L430.2804,44.5544 L431.29,44.0492 L431.6944,42.8368 L434.018,42.1292 L434.4224,41.0188 L435.3312,40.3108 L436.0384,39.4024 L437.1496,39.9076 L438.058,40.6152 L439.1692,41.0196 L441.4924,40.1104 L444.5228,40.1104 L446.6448,39 L448.6652,39.5052 L449.2716,41.5256 L450.9888,42.9396 L451.5952,43.8484 L452.6048,44.4548 L454.0192,44.556 L454.928,45.2632 L456.1396,45.6676 L461.696,46.274 L462.8068,45.6676 L463.5144,44.8592 L465.7368,44.9604 L465.5348,46.4756 L466.3432,47.7888 L467.1516,46.9804 L468.4644,46.6768 L469.2728,47.4852 L470.4848,47.384 L471.596,46.98 L473.01,47.0812 L474.1208,47.6872 L475.5348,47.8892 L476.04,46.8792 L476.04,45.4656 L475.7372,44.2536 L475.1308,43.3444 L475.7876,42.3856 L478.3632,42.1328 L483.01,43.85 L484.5252,43.85 L485.838,44.1532 L486.3432,45.1628 L486.4444,48.598 L486.1408,49.9104 L485.0304,50.8196 L485.0304,52.3348 L485.6364,53.3444 L486.5456,54.1528 L486.7476,57.082 L487.7572,59.4056 L488.5656,60.3144 L493.1112,60.8196 L495.3336,59.9108 L499.778,60.3152 L500.8888,60.7196 L504.3044,60.808 L503.818,60.9216 L502.808,61.4268 L500.1824,61.8312 L499.2732,62.4376 L496.748,62.9428 L495.0308,64.3568 L494.424,65.3668 L493.3136,65.872 L492.4044,66.5792 L491.0916,66.7816 L490.1828,67.7912 L489.4752,69.5088 L488.768,70.1152 L488.3636,71.226 L487.656,72.0344 L487.5552,73.4484 L486.4444,73.8524 L484.9292,73.8524 L484.1208,74.6608 L483.5148,75.6708 L481.8984,77.2872 L479.07,77.4892 L478.1616,79.8132 L476.1408,80.8228 L475.7368,81.9336 L473.1108,82.1356 L472.6052,84.762 L469.3728,84.6608 L468.464,83.8524 L465.3328,83.7512 L464.8276,88.398 L465.3328,89.5084 L466.1412,90.5184 L466.1412,92.0336 L465.3328,92.7408 L464.3228,92.2356 L461.7976,92.7408 L460.5856,92.3368 L459.1712,91.3268 L457.656,93.5496 L456.4444,93.8528 L455.1312,93.7516 L453.414,92.5396 L450.9892,91.8324 L450.5848,90.8224 L451.898,88.9032 L451.5948,87.8932 L450.7864,86.5804 L450.584,85.5704 L451.0892,84.5604 L450.6852,83.4496 L450.584,82.0356 L451.1904,80.9244 L452.0992,80.2172 L452.2004,79.0052 L451.7964,77.894 L450.382,77.7932 L448.8668,77.288 L448.4628,76.3788 L449.4724,75.6716 L449.3712,74.3584 L446.24,74.1564 L446.24,72.8432 L447.25,72.136 L447.856,71.2272 L447.0476,70.52 L446.1388,71.0252 L444.9272,70.722 L443.9172,69.9136 L442.604,69.5096 L441.8968,68.6008 L440.3816,68.1964 L440.2804,68.3984 L439.3716,69.0052 L438.0584,69.106 L437.25,68.2976 L435.9372,68.5 L433.8156,69.51 L430.7852,69.51 L428.3608,70.924 L428.2596,71.0252 L427.6528,72.0352 L425.1276,71.934 L425.2284,73.1456 L422.4,73.3476 L422.198,74.6608 L421.6928,75.6708 L420.9852,76.2772 L419.9756,75.6708 L419.1672,76.4792 L419.5712,77.5904 L419.3692,78.298 L415.5308,80.2172 L415.2276,81.4288 L413.9144,83.3488 L412.7024,83.854 L410.884,83.3488 L410.3788,82.5404 L410.3788,83.6448 L409.3688,83.5436 L408.4604,82.7352 L408.056,81.5232 L406.5408,81.22 L405.4552,80.514 L405.4552,80.514 Z M434.5824,56.9916 L434.7844,58.3048 L435.9972,59.5172 L435.1888,61.3356 L439.2292,61.942 L439.6332,63.0528 L440.4416,64.164 L441.4516,64.6692 L442.4612,64.0628 L442.9664,63.0528 L444.7844,61.6384 L445.5928,62.346 L447.4112,62.9524 L447.7144,61.9424 L449.1288,60.2252 L448.3208,59.4168 L448.0172,58.2048 L446.8056,57.9016 L446.3,56.8916 L445.3912,56.2852 L444.2804,56.6896 L443.472,55.982 L442.7644,54.972 L441.7548,54.4668 L440.5424,54.77 L437.7148,56.7908 L436.5032,56.4876 L434.5824,56.9916 L434.5824,56.9916 Z" id="chiayi" sketch:type="MSShapeGroup"></path>
        </g>
    </g>
</svg>