<?xml version="1.0" encoding="UTF-8" standalone="no"?>
<svg width="128px" height="128px" viewBox="0 0 128 128" version="1.1" xmlns="http://www.w3.org/2000/svg" xmlns:xlink="http://www.w3.org/1999/xlink" xmlns:sketch="http://www.bohemiancoding.com/sketch/ns">
    <!-- Generator: Sketch 3.3.3 (12072) - http://www.bohemiancoding.com/sketch -->
    <title>hsinchu city</title>
    <desc>Created with Sketch.</desc>
    <defs></defs>
    <g id="cities" stroke="none" stroke-width="1" fill="none" fill-rule="evenodd" sketch:type="MSPage">
        <g id="small-city" sketch:type="MSArtboardGroup" transform="translate(-128.000000, 0.000000)" fill="#000000">
            <path d="M157,87.0138747 L157.324585,88.6980478 L159.347244,89.7082314 L162.577103,89.7082314 L164.801229,88.8997643 L166.617625,87.4845466 L168.840152,88.2930137 L171.870143,91.9287144 L172.677608,94.5590341 L172.677608,96.9860364 L180.464446,99 L181.561319,98.1995375 L184.792777,94.3605194 L185.398776,88.4979321 L187.418237,83.848846 L190.043697,83.2436964 L191.660225,80.8166941 L194.084218,79.8049095 L195.902213,78.3880909 L196.709678,75.9626896 L198.12474,73.7374038 L206.806985,71.7138347 L205.99952,69.4901499 L207.815916,66.6597145 L210.23991,65.8496465 L213.269901,65.8496465 L224.576007,77.3715035 L227,75.7529684 L227,69.6886646 L221.75068,51.9007871 L218.722287,47.6583359 L213.269901,43.0092498 L207.416181,42.4024992 L207.214715,41.3923156 L206.405651,39.7737804 L204.184723,38.3569618 L201.153133,38.3569618 L188.838096,35.3248099 L185.809703,31.0791568 L185.002239,28.8554721 L182.431143,27 L180.787432,28.2343132 L178.341054,29.2348913 L170.24562,40.3917374 L168.246945,42.192778 L169.246282,47.0451817 L168.846547,48.6461066 L169.646017,49.4945969 L172.693597,49.6947125 L173.093332,52.2962156 L171.894127,54.7472317 L171.294525,60.4000978 L170.045753,62.2011384 L169.845885,68.4543514 L166.847872,72.5046916 L166.048402,74.9557077 L168.246945,76.7567483 L167.04774,78.3576733 L166.048402,81.2089207 L162.40122,84.660515 L159.555106,86.2614399 L157,87.0138747 L157,87.0138747 Z" id="hsinchu-city" sketch:type="MSShapeGroup"></path>
        </g>
    </g>
</svg>