<?xml version="1.0" encoding="UTF-8" standalone="no"?>
<svg width="128px" height="128px" viewBox="0 0 128 128" version="1.1" xmlns="http://www.w3.org/2000/svg" xmlns:xlink="http://www.w3.org/1999/xlink" xmlns:sketch="http://www.bohemiancoding.com/sketch/ns">
    <!-- Generator: Sketch 3.3.3 (12072) - http://www.bohemiancoding.com/sketch -->
    <title>hsinchu</title>
    <desc>Created with Sketch.</desc>
    <defs></defs>
    <g id="cities" stroke="none" stroke-width="1" fill="none" fill-rule="evenodd" sketch:type="MSPage">
        <g id="county" sketch:type="MSArtboardGroup" transform="translate(-512.000000, -128.000000)" stroke="#000000" stroke-opacity="0.1" stroke-width="0.619788539" fill="#000000">
            <path d="M600.060708,231.242561 L599.22077,231.686994 L598.907901,232.374924 L598.281667,232.750069 L595.40089,232.687709 L594.774655,233 L591.957345,232.937641 L591.518038,232.437778 L591.455564,231.375693 L591.581009,230.750617 L591.267644,230.375473 L591.267644,228.500739 L590.829329,227.875168 L590.07765,227.437665 L589.51389,226.812589 L589.200525,226.061805 L588.136472,224.875496 L587.823603,224.125207 L587.071428,223.749568 L586.695588,223.186851 L585.881434,222.749347 L585.631039,222.124271 L585.756484,220.687042 L585.192229,219.936752 L583.376496,219.811539 L582.625313,220.061966 L581.310865,220.937468 L579.181767,220.937468 L578.493058,221.312118 L577.555938,221.312118 L576.929208,220.749896 L573.173289,220.562323 L572.483589,220.812255 L571.732405,220.624682 L570.79231,220.624682 L569.728257,221.562544 L568.037969,222.250474 L566.347682,221.874835 L563.404926,221.874835 L563.404926,220.81275 L562.966612,219.874888 L562.966612,218.874668 L563.342451,218.124378 L564.406504,216.999934 L564.656899,216.249645 L564.594424,215.311784 L563.842745,213.875049 L562.528297,212.812964 L563.530371,211.188163 L564.093635,209.125857 L564.657395,208.438422 L564.71987,207.56292 L565.15868,206.937844 L565.3466,206.125195 L564.657395,205.750051 L564.093635,204.06289 L563.154532,203.812958 L562.464831,202.250516 L562.026516,202.062943 L561.024938,202.312875 L560.272763,202.750379 L559.08376,201.813012 L558.645446,201.062228 L557.830796,200.874656 L557.204562,200.437152 L556.202488,198.875204 L555.325363,198.749991 L554.448238,198.375341 L554.385763,197.499839 L553.822004,196.874268 L552.945375,196.74955 L551.317562,195.687465 L550.879248,194.936681 L550.190043,194.249246 L549.375889,192.812016 L549.250443,191.937009 L548.248369,191.561864 L548.436289,190.936293 L548.8751,190.248858 L549.000545,189.43621 L549.501334,188.810639 L548.812625,188.435494 L549.250939,187.872777 L547.498177,187.997991 L546.871943,188.497853 L546.119768,188.810639 L545.681453,188.247922 L544.24156,188.247922 L543.490377,187.872777 L543,187.274427 L544.24156,185.748113 L544.42948,183.935739 L545.05621,182.498509 L545.870365,182.311432 L546.37165,181.561143 L547.123329,181.247862 L547.687089,180.810359 L547.937483,180.060564 L548.375798,179.372634 L551.068655,178.747063 L550.818261,178.059628 L551.381524,177.184126 L552.133204,176.934194 L553.072803,176.934194 L556.578327,180.496088 L557.330503,179.995731 L557.330503,178.120997 L555.70269,172.622011 L554.763586,171.31049 L553.072803,169.87326 L551.257567,169.685688 L551.195092,169.373397 L550.944202,168.872545 L550.254997,168.435041 L549.315397,168.435041 L545.496508,167.497675 L544.557405,166.185163 L544.306514,165.497728 L543.525085,164.872652 L543.804733,164.129787 L544.811766,162.877655 L545.059681,161.996214 L545.555512,161.563164 L545.865406,159.877488 L548.623713,156.443777 L548.25184,155.686064 L548.065904,154.742758 L550.781569,150.836404 L552.320628,151.249657 L554.44923,150 L555.575757,150.750289 L557.704855,150.124718 L559.520092,150.249931 L560.584145,151.312016 L561.461765,151.374375 L561.52424,152.249383 L562.087999,153.749466 L561.774634,154.499261 L561.71216,156.311635 L563.214527,156.874846 L563.840761,157.562282 L564.780857,157.562282 L565.782435,157.874572 L566.596589,158.499648 L567.536684,158.437289 L568.350839,158.124999 L568.977569,157.687495 L569.666278,158.062144 L569.164993,158.499648 L569.290438,159.438005 L569.666278,160.188294 L575.488819,160.688157 L576.177528,161.188514 L576.427923,163.938255 L575.551294,165.313125 L575.363374,166.125774 L576.865246,167.063635 L577.179107,167.501634 L578.931373,168.875514 L579.808498,169.188795 L580.748097,169.313513 L580.748097,170.001443 L581.750171,170.376093 L585.819455,173.500483 L586.633609,173.500483 L588.574291,172.624981 L589.326466,172.874912 L589.326466,173.813268 L590.390519,174.000841 L591.142199,174.313131 L591.581009,175.500429 L591.643484,176.063146 L591.831404,176.375437 L592.582587,176.812941 L593.083872,177.438511 L593.898522,177.876015 L594.023472,177.876015 L594.274362,178.25116 L595.150991,178.313519 L595.840196,178.563945 L596.46643,179.189516 L597.343555,179.376594 L597.65692,180.126883 L598.283154,180.751959 L598.095234,181.565102 L597.65692,182.190178 L597.406525,182.877613 L597.343555,185.065132 L598.407608,185.253199 L598.407608,187.127437 L598.094739,187.753008 L597.530979,188.31523 L597.530979,190.189963 L598.219688,190.439895 L599.722551,189.940032 L601.161452,190.627467 L602.288476,192.064697 L602.852235,192.5022 L603.227579,193.127276 L603.353025,194.003274 L603.66639,194.62835 L604.605989,194.62835 L605.420639,195.002999 L605.546084,195.941356 L605.294698,196.69115 L605.232223,197.629506 L604.731434,198.129369 L604.793909,200.004102 L605.420639,200.379247 L606.234793,200.50446 L606.985977,200.87911 L606.798553,201.755107 L606.422713,202.442542 L606.422713,204.379635 L607.111422,204.629566 L607.361817,205.379855 L607.738152,205.880213 L608.176467,205.880213 L608.802701,206.818074 L609.554877,207.255578 L611.369617,207.506005 L612.660761,207.153626 L613.37327,207.631218 L613.686635,208.318653 L613.749605,209.19366 L614,209.882085 L613.37327,210.444307 L613.122875,210.56952 L612.872481,210.944665 L612.246246,211.31981 L611.557041,212.070099 L611.368626,212.882747 L611.682487,213.508318 L611.744961,217.132076 L611.368626,218.008074 L610.805362,218.695509 L610.116157,219.195372 L609.301507,220.445029 L608.424878,221.132959 L608.174484,221.75853 L607.485279,221.695676 L605.795487,224.133126 L605.168757,224.50827 L604.229158,224.320698 L603.539953,225.695074 L602.851244,226.070218 L602.287484,227.506953 L601.84917,228.070164 L601.096994,228.69524 L600.47076,229.944898 L600.408285,230.819905 L600.060708,231.242561" id="hsinchu" sketch:type="MSShapeGroup"></path>
        </g>
    </g>
</svg>