<?xml version="1.0" encoding="UTF-8" standalone="no"?>
<svg width="128px" height="128px" viewBox="0 0 128 128" version="1.1" xmlns="http://www.w3.org/2000/svg" xmlns:xlink="http://www.w3.org/1999/xlink" xmlns:sketch="http://www.bohemiancoding.com/sketch/ns">
    <!-- Generator: Sketch 3.3.3 (12072) - http://www.bohemiancoding.com/sketch -->
    <title>kaohsiung</title>
    <desc>Created with Sketch.</desc>
    <defs></defs>
    <g id="cities" stroke="none" stroke-width="1" fill="none" fill-rule="evenodd" sketch:type="MSPage">
        <g id="city" sketch:type="MSArtboardGroup" transform="translate(-640.000000, 0.000000)" fill="#000000">
            <path d="M681.598896,109.86752 L683.644294,111.53151 L684.167758,111.756049 L684.999618,112.513497 L686.626245,113 L686.701025,112.812883 L686.439293,108.462799 L686.701025,107.592782 L686.962757,107.255972 L687.514638,107.388002 L688.251077,106.727555 L688.855603,104.98812 L688.930982,103.929789 L689.46013,102.114909 L689.46013,100.980833 L688.402732,99.6955672 L688.47841,94.2518241 L689.082936,92.4369437 L689.612084,91.7567377 L690.140932,89.7155212 L690.065553,88.3545105 L690.291989,87.9760861 L690.21661,83.4400826 L690.594401,82.6086865 L690.745458,81.6258009 L691.123549,80.8701496 L691.577018,77.9211935 L692.332302,77.5430684 L692.86115,77.7700033 L694.220661,77.8454487 L694.67443,78.525954 L695.807505,78.525954 L696.638168,78.147829 L698.451448,78.6013994 L699.508845,78.525954 L700.188451,77.9960401 L700.943735,77.0137533 L701.019114,76.6353288 L702.227867,75.6527426 L702.605658,75.5012531 L704.569696,74.1402425 L705.626794,74.0644977 L706.457756,73.4594378 L707.364096,73.2328023 L708.270437,73.6109273 L708.799285,74.2156878 L708.799285,75.3497636 L709.630247,75.728188 L710.460611,75.728188 L710.763322,75.4255083 L711.669364,75.1985734 L712.651382,73.7621174 L713.557723,73.5351825 L714.690798,73.5351825 L717.259063,75.1231281 L719.147422,77.3912795 L719.978384,77.8448499 L720.809046,77.3912795 L721.338194,76.7107742 L722.849061,75.9551229 L723.30253,75.274917 L724.284549,75.274917 L724.586662,75.3503624 L725.341647,75.7287868 L725.417325,76.1069118 L726.096931,75.8802763 L727.441785,76.7883153 L727.654461,74.7671576 L726.800167,73.5908684 L725.198068,73.4842868 L724.343476,70.9182459 L724.450262,69.4213138 L724.022817,68.9934907 L723.488584,67.8172014 L723.488584,66.2133884 L723.808944,64.9305177 L726.800167,61.0816059 L727.01404,60.5469018 L727.01404,59.3706126 L728.937097,57.9802621 L728.509651,56.6973913 L727.761846,55.9489253 L728.295779,54.6657551 L729.363945,53.4894659 L729.043585,46.7532716 L730.005263,46.1116866 L730.646282,44.6147545 L731.714448,44.0800504 L731.394088,42.9037612 L731.394088,41.7274719 L731.821534,40.5511827 L731.715046,40.0164786 L731.394686,39.8027167 L732.249279,38.7336078 L733.317145,38.3057846 L735.346989,36.5947913 L736.842601,34.670036 L738.017853,34.670036 L740.367758,34.0281516 L741.22235,33.173104 L743.763095,32.1063902 L744,31.1956567 L743.924621,30.1370264 L739.316941,26.9617341 L738.4106,26.7347992 L738.712714,25.6764682 L739.24216,24.9208169 L740.223581,24.6181373 L740.072524,23.9379313 L740.526292,23.2580248 L741.508012,23.1062359 L741.961481,22.4263293 L741.961481,20.309368 L741.281875,19.8557976 L741.102402,19.3324702 L740.828406,19.251037 L740.450615,17.3610106 L739.695331,16.8313961 L739.544274,16.8313961 L736.59762,16 L736.295506,16.0757448 L735.540522,16.4538698 L733.576784,16.7562501 L732.896879,17.2104193 L731.008519,17.5885443 L729.724387,18.6468753 L729.270918,19.402826 L728.440255,19.780951 L727.76035,20.3102662 L726.77893,20.4614563 L726.099025,21.217407 L725.570176,22.5029723 L725.041029,22.9565427 L724.738616,23.7882381 L724.209469,24.3932981 L724.13409,25.4513296 L723.303427,25.7540093 L722.170352,25.7540093 L721.565826,26.3590692 L721.112656,27.1150199 L719.903902,28.3248404 L717.788808,28.4760306 L717.109501,30.2151662 L715.598336,30.9711169 L715.296222,31.802513 L713.332484,31.9537031 L712.954393,33.9191749 L710.537186,33.8437296 L709.85758,33.2386696 L707.51605,33.1629249 L707.138259,36.6408968 L707.51605,37.4719935 L708.120577,38.2279442 L708.120577,39.3620199 L707.791542,39.6862554 L707.892047,39.8170872 L708.571653,40.3464024 L708.344918,41.2535433 L707.136464,42.765744 L707.060786,43.8998198 L704.643579,47.1508568 L704.114431,47.2266016 L702.452508,49.2678181 L702.37683,50.3258497 L701.998739,51.0818004 L701.847682,52.1401314 L701.469891,52.3670663 L701.394213,52.442811 L701.243156,53.3499519 L696.333063,56.9033692 L695.275666,58.5667601 L692.556046,60.5325313 L692.480667,61.5905628 L690.818444,61.666607 L690.742766,62.7246386 L690.440353,63.6320788 L689.534013,63.8587143 L688.400938,66.5049908 L688.249881,67.4878764 L687.947767,67.8660014 L687.494298,68.0932357 L687.040828,69.9832621 L686.134488,69.9832621 L685.379204,69.5293923 L684.321806,69.6051371 L683.415466,69.9075174 L680.998258,72.4026037 L679.865482,72.4783485 L676.843449,71.4954629 L674.501621,71.268528 L674.048151,71.8735879 L673.443625,71.7978432 L672.612962,71.4194188 L672.461905,71.6463537 L671.404508,71.6463537 L670.271433,70.4365332 L669.742584,70.1341529 L668.987301,70.5125773 L666.460614,69.5581334 L665.966165,69.7563272 L665,70.6562828 L665.359844,71.0772201 L665.584186,72.3310504 L666.490826,74.2210768 L666.490826,74.7824263 L666.686751,74.7824263 L666.761531,74.2959234 L666.948483,73.9124094 L667.51861,73.8749861 L668.154245,75.3907795 L668.079464,75.8772824 L667.51861,75.952129 L667.098044,75.6901659 L666.873702,75.3159329 L666.761531,75.577896 L666.798922,76.1108038 L667.023263,76.7844233 L667.060654,77.3176305 L667.593391,78.3373406 L667.593391,78.7489969 L670.266946,85.0642539 L670.31331,85.5974611 L670.761993,86.6171712 L671.173286,87.1410974 L672.103108,89.1180956 L672.615654,90.2493272 L673.970678,91.9148138 L673.335044,92.6632798 L672.166971,91.4938765 L672.914777,93.3090563 L671.709015,94.4784596 L671.634234,95.7322899 L671.484673,96.2187928 L671.634234,96.752 L672.466093,97.509747 L672.727825,97.9214034 L672.727825,98.4917345 L672.989557,98.7911209 L672.952167,99.3617514 L672.615654,99.5862912 L672.839996,99.9231009 L673.297653,100.147641 L673.671556,101.176931 L674.466025,101.962821 L674.652976,102.383458 L675.036152,102.907385 L675.372665,103.141205 L675.671787,103.478015 L675.868011,103.889671 L676.167134,104.198339 L676.998694,105.554859 L676.204524,105.704552 L676.054963,105.90065 L676.054963,106.087767 L676.541037,106.200036 L677.522158,106.162613 L677.709109,106.200036 L678.700101,107.25717 L679.111395,107.48171 L679.793693,108.239457 L679.980644,108.660394 L681.148717,109.642381 L681.599494,109.869017" id="kaohsiung" sketch:type="MSShapeGroup"></path>
        </g>
    </g>
</svg>