<?xml version="1.0" encoding="UTF-8" standalone="no"?>
<svg width="128px" height="128px" viewBox="0 0 128 128" version="1.1" xmlns="http://www.w3.org/2000/svg" xmlns:xlink="http://www.w3.org/1999/xlink" xmlns:sketch="http://www.bohemiancoding.com/sketch/ns">
    <!-- Generator: Sketch 3.3.3 (12072) - http://www.bohemiancoding.com/sketch -->
    <title>keelung city</title>
    <desc>Created with Sketch.</desc>
    <defs></defs>
    <g id="cities" stroke="none" stroke-width="1" fill="none" fill-rule="evenodd" sketch:type="MSPage">
        <g id="small-city" sketch:type="MSArtboardGroup" transform="translate(-256.000000, 0.000000)" fill="#000000">
            <path d="M355.901139,57.6044612 L356,56.0662657 L354.594859,54.5745614 L355.253931,50.0503008 L352.907636,50.2163409 L349.777045,52.2088221 L346.935129,49.5521805 L344.422747,49.3462907 L343.269372,48.5160902 L343.269372,45.6934085 L341.127389,45.1541103 L340.099237,47.0217293 L338.122022,47.5198496 L337.627719,45.5273684 L335.939177,45.5273684 L336.598249,47.5198496 L338.451558,50.2163409 L336.103945,53.2050627 L332.438188,55.9028822 L330.790509,56.0689223 L333.797194,53.2050627 L332.767724,51.3786216 L332.767724,47.1877694 L330.790509,47.0217293 L328.978062,46.0254887 L326.630449,45.6934085 L323.9533,42.995589 L318.80595,42.995589 L317.323039,41.9993484 L317.664438,40.1954887 L317.098955,39 L314.714434,40.5302256 L312.124282,41.4799749 L310.712551,43.6132581 L307.654458,44.3239098 L306.006779,46.4585213 L300.593164,48.8295739 L297.297806,49.0686717 L294.708973,50.0170927 L292.354769,51.6774937 L286,52.3894737 L286,55.9467168 L287.411731,58.5568672 L290.471142,59.5052882 L292.354769,61.6398997 L292.590717,64.9607018 L296.5926,73.9746867 L299.65201,76.1066416 L301.768948,78.9558897 L304.828359,79.6665414 L306.711986,78.0061404 L306.711986,80.6162907 L308.828924,82.9873434 L318.009792,85.358396 L325.069767,91.5271178 L331.896432,92 L338.017889,88.9182957 L341.313247,88.679198 L342.724979,86.3081454 L343.666133,83.4602256 L337.545994,77.5292732 L337.545994,71.1254386 L336.839469,68.2788471 L339.89888,67.5668672 L343.663497,63.5354135 L346.958855,64.2460652 L349.313059,65.9064662 L350.491479,66.1442356 L352.844365,62.3518797 L354.727992,60.452381 L355.901139,57.6044612 L355.901139,57.6044612 Z" id="keelung-city" sketch:type="MSShapeGroup"></path>
        </g>
    </g>
</svg>