<?xml version="1.0" encoding="UTF-8" standalone="no"?>
<svg width="128px" height="128px" viewBox="0 0 128 128" version="1.1" xmlns="http://www.w3.org/2000/svg" xmlns:xlink="http://www.w3.org/1999/xlink" xmlns:sketch="http://www.bohemiancoding.com/sketch/ns">
    <!-- Generator: Sketch 3.3.3 (12072) - http://www.bohemiancoding.com/sketch -->
    <title>nantou</title>
    <desc>Created with Sketch.</desc>
    <defs></defs>
    <g id="cities" stroke="none" stroke-width="1" fill="none" fill-rule="evenodd" sketch:type="MSPage">
        <g id="county" sketch:type="MSArtboardGroup" transform="translate(0.000000, -128.000000)" stroke="#000000" stroke-opacity="0.1" stroke-width="0.5" fill="#000000">
            <path d="M31.5182663,199.376674 L33.1159087,202.822239 L32.9562077,205.066076 L32.0776941,204.905825 L31.8383007,205.867334 L31.9179931,208.190821 L32.3974123,208.992078 L32.4771047,210.114156 L31.9980017,212.03749 L31.7582921,212.438595 L31.6782835,212.518879 L31.0391633,214.36193 L31.1188557,216.686051 L32.6364895,215.563974 L32.8758828,216.5258 L33.3556183,217.406707 L34.0737984,217.888096 L35.1920216,217.968063 L36.1502276,217.807812 L36.3899372,216.846303 L37.4278355,217.086839 L38.3063491,216.92627 L38.6257511,216.045046 L39.6639656,216.205297 L40.382462,216.84662 L40.412821,217.803369 L42.4592074,217.56791 L46.1329627,218.930206 L47.3308783,218.930206 L48.3687766,219.17106 L48.7681872,219.971999 L48.8481958,222.696909 L48.60817,223.738384 L47.7302889,224.459675 L47.7302889,225.661719 L48.2093919,226.462659 L48.9282044,227.103982 L49.0879054,229.427469 L49.8860942,231.271154 L50.5252144,231.99181 L54.1189611,232.392914 L55.8759882,231.671942 L59.3897263,231.992445 L60.2679237,232.313582 L64.0213714,232.553801 L66.0177919,233.274773 L66.1774929,233.274773 L66.9756816,233.836129 L67.3754085,235.839431 L67.6948105,236 L68.0945373,235.598895 L69.0527433,235.35836 L70.0109492,234.717036 L70.9691552,234.476501 L71.2088648,233.35474 L70.8891466,232.393232 L70.1706502,231.831876 L70.7300781,231.190553 L70.9697877,230.14876 L71.6089079,229.427787 L72.3274042,228.946715 L72.5671138,227.985206 L73.2852939,227.504452 L74.4035171,227.584419 L75.2817145,227.183632 L76.47963,227.183632 L76.8790406,227.02338 L77.6775456,227.504452 L78.6357516,227.744671 L80.1533854,226.462659 L80.1533854,224.05857 L80.393095,223.097379 L81.1112751,222.61599 L80.393095,220.612688 L81.1912837,220.211901 L82.3891993,220.532404 L83.2673966,220.131299 L83.7468158,219.410643 L84.7850304,218.929572 L86.2223393,218.849605 L87.4202549,216.20498 L87.8196655,212.919349 L88.2193924,212.118092 L88.2193924,210.916047 L88.8585126,209.152647 L88.8585126,206.187519 L88.0603238,205.466546 L87.9806315,204.344469 L88.2200248,203.463562 L85.6644927,201.619877 L85.7445013,200.498434 L86.7827159,200.257581 L87.7409219,199.536608 L87.7409219,199.055536 L87.500896,198.094345 L87.660597,196.972268 L88.3794096,196.491196 L88.6988116,195.44972 L88.7788202,194.247676 L89.0985384,193.286167 L89.7376586,192.48491 L89.817351,191.282865 L90.5361636,190.561892 L91.4940533,190.321674 L91.3343523,188.557956 L90.7752407,187.596765 L92.1328573,186.39472 L92.0528487,185.433212 L91.7334467,184.391419 L91.7334467,183.189374 L91.9731563,182.548368 L91.9731563,180.144279 L91.3340361,179.343022 L91.0143179,179.262738 L91.0143179,178.140977 L92.9316785,174.053772 L93.0113709,171.730285 L93.7298672,171.008995 L94.5283722,170.608208 L95.0074752,169.80695 L95.8059801,169.406163 L96.4451003,168.284403 L96.6851262,167.483146 L96.7648186,166.361386 L96.2853994,165.640413 L95.1674924,165.480161 L94.8477742,164.59862 L94.2886626,163.957614 L93.090747,163.556509 L92.8510374,163.235689 L92.771345,161.232387 L93.6492261,159.149118 L94.6074321,158.9089 L95.2465523,158.347227 L96.1250659,157.946439 L97.3229815,156.744395 L98.520897,156.744395 L99,156.023422 L98.4567004,154.234952 L98.0038453,153.982675 L96.478938,153.642815 L96.0836385,153.246153 L94.5590474,153.076065 L94.2206711,153.586013 L92.58255,153.472727 L91.9048485,153.246153 L91.5661559,152.736522 L90.5494457,152 L90.2670437,152 L89.5330516,153.189986 L89.3635472,153.870341 L88.9682477,154.550378 L88.3471532,154.777269 L87.5565542,154.493893 L87.0483572,154.153716 L85.7501936,154.720467 L84.9026715,154.720467 L84.3378676,155.060327 L84.0554657,155.62676 L82.7000628,155.230098 L82.3047633,154.776634 L81.6836687,154.493259 L81.1754717,154.832801 L80.7801722,155.342433 L79.9895733,155.399235 L79.7637782,156.022787 L79.3684787,156.64634 L78.9165723,157.043002 L75.584672,157.099804 L75.0201843,157.383179 L74.8506799,158.063851 L74.4553804,158.687087 L73.891209,159.026947 L73.4959095,159.536578 L72.8741825,159.93324 L72.478883,160.556475 L71.2363776,161.180028 L69.9382141,161.180028 L69.4300171,161.519888 L68.0746142,161.349799 L67.2840152,161.519888 L66.8321089,161.973352 L66.2110143,163.956979 L65.3634922,164.807105 L64.7993208,165.146965 L63.1611997,165.203767 L62.4275238,165.033678 L61.9753012,164.637016 L61.2416254,164.750303 L59.3214186,166.393753 L58.5308196,166.563524 L57.7402206,166.450555 L56.8370404,165.997091 L56.7244591,165.827002 L56.216262,165.373538 L55.8778857,166.733613 L55.5951675,167.300046 L55.1432611,167.696708 L54.9174661,168.20634 L54.5790897,168.035616 L54.5790897,166.335999 L54.0712089,165.882218 L52.6025922,165.598843 L52.2638996,165.088894 L51.5302238,164.862321 L51.0220268,165.202181 L49.8361283,167.582152 L49.9490258,169.678749 L49.5537264,170.188063 L48.1417166,170.584725 L47.1250063,171.60494 L45.9391078,174.721434 L43.9060035,176.931317 L42.5509169,177.384781 L41.8732154,177.4419 L41.3084115,176.931952 L40.5178125,176.76218 L38.8237171,176.76218 L38.1460156,176.931952 L35.2970131,175.884447 L34.0734822,176.61843 L31.677651,176.61843 L31.5979587,177.820475 L31.7576596,177.900759 L32.3167712,178.542082 L32.7164981,179.422989 L32.6368057,180.545066 L32.2367626,181.346324 L31.5979587,181.907362 L31.1185394,182.628335 L31.4379414,184.391419 L31.2782404,185.112709 L31.4379414,185.993616 L31.0385308,189.039345 L30.638804,189.840285 L30.479103,190.882078 L30,191.683335 L30.5591116,192.324658 L30.159701,193.125916 L30.0796924,193.846571 L32.3955149,196.330945 L33.1940199,196.732049 L34.2322344,196.732049 L35.0301069,196.330945 L35.6692271,196.491196 L35.6692271,197.532989 L35.2698165,198.334246 L34.6306963,198.895285 L32.7939768,199.456641 L31.5182663,199.376674 L31.5182663,199.376674 Z" id="nantou" sketch:type="MSShapeGroup"></path>
        </g>
    </g>
</svg>