<?xml version="1.0" encoding="UTF-8" standalone="no"?>
<svg width="128px" height="128px" viewBox="0 0 128 128" version="1.1" xmlns="http://www.w3.org/2000/svg" xmlns:xlink="http://www.w3.org/1999/xlink" xmlns:sketch="http://www.bohemiancoding.com/sketch/ns">
    <!-- Generator: Sketch 3.3.3 (12072) - http://www.bohemiancoding.com/sketch -->
    <title>newtaipeicity</title>
    <desc>Created with Sketch.</desc>
    <defs></defs>
    <g id="cities" stroke="none" stroke-width="1" fill="none" fill-rule="evenodd" sketch:type="MSPage">
        <g id="city" sketch:type="MSArtboardGroup" transform="translate(-128.000000, 0.000000)" fill="#000000">
            <path d="M237.2691,64.7466776 L235.612749,64.4389985 L234.495706,64.5191465 L231.703099,65.5521647 L229.309947,65.7106795 L226.277846,67.8577545 L225.639344,68.5724072 L224.363234,68.5724072 L223.325725,68.1747842 L221.012106,68.0158241 L220.214091,68.6525551 L219.974597,69.6067612 L219.575589,70.4020071 L221.410667,73.0259625 L220.771718,74.9343746 L218.138625,76.6838266 L215.745026,76.5253117 L214.70841,76.6838266 L213.351873,77.7969927 L212.23483,79.2285245 L212.474324,80.2615427 L212.393897,81.2166393 L211.755396,82.0114399 L211.675415,82.965646 L211.755396,83.5222291 L210.638353,83.7608919 L209.840784,84.1585149 L206.489656,83.6820797 L205.452146,83.8405946 L204.574598,84.317475 L203.377574,85.7485614 L201.223469,86.9018016 L200.983975,87.6569736 L200.186853,88.3720715 L199.708312,89.1668722 L198.750336,89.4852377 L198.430862,90.3601863 L197.713274,89.5653857 L196.11769,90.3601863 L191.410471,90.9167694 L192.048973,91.4733525 L191.809926,92.4275586 L190.772863,93.2228045 L189.65582,92.9048842 L188.857805,93.3813194 L187.900276,93.6195369 L187.500821,94.4944855 L187.580802,95.6076517 L187.421735,96.6411152 L186.543739,97.3566584 L186.702806,98.4698246 L187.341755,99.1056652 L187.660782,100.060316 L187.660782,101.253631 L187.021834,103.161597 L185.985218,103.320112 L185.267629,103.876695 L184.789088,104.592239 L183.831112,104.910159 L182.634089,104.989862 L180.000549,106.420948 L179.761055,107.534114 L177.447436,109.045794 L175.372417,109.363714 L174.335355,110 L172.202697,109.878888 L171.542748,109.603268 L171.303701,107.376935 L170.425705,106.740204 L169.787203,105.865256 L168.670161,105.547335 L168.589733,104.752089 L167.472691,104.275654 L167.712185,103.400706 L166.276114,102.049322 L165.398119,99.8229895 L165.398119,99.3461091 L164.999111,98.5508631 L164.839597,97.5173996 L165.318138,96.6428963 L166.754656,95.4500274 L167.233197,94.7344842 L167.950785,94.258049 L167.950785,93.0647349 L166.913276,92.7468146 L166.514268,91.6336484 L166.434288,90.5204823 L165.716699,89.7252363 L164.998664,89.3276134 L163.722554,88.0554871 L163.403527,87.1809837 L162.764579,86.5446979 L162.605512,86.1466297 L162.04699,85.8282641 L159.653391,85.9872243 L158.775842,86.4641047 L157.578819,86.5438074 L156.302262,86.2258871 L155.505141,85.7485614 L154.787106,85.0334635 L154.06907,85.5900466 L152.952028,85.4315317 L153.032455,84.4768804 L155.107473,84.0788122 L155.825062,83.5222291 L154.708019,82.8071311 L154.627592,82.7274284 L154.468972,81.7732224 L155.027493,81.0576791 L153.510549,78.7516441 L151.515957,77.5587752 L151.11695,75.6508083 L151.515957,74.7758597 L152.074479,74.1391286 L153.032455,73.5028429 L152.314866,72.9462598 L151.356891,72.8670023 L150.798369,71.8330936 L151.197824,70.9585902 L151.835878,70.3218592 L152.075372,68.0955268 L151.597278,67.2210234 L151.835878,66.2663721 L152.633894,65.8683039 L157.660587,66.027264 L158.937143,65.1523154 L159.814692,63.5622688 L160.772221,63.2443485 L161.490256,62.7674681 L161.410276,61.8128168 L160.4523,61.0977189 L161.329849,60.7793533 L162.208291,60.2227702 L162.607299,59.5081176 L161.570236,58.7925743 L161.011715,58.1562885 L160.852648,57.122825 L161.252103,56.3275791 L161.252103,56.0096589 L161.012609,54.9761954 L160.214593,54.021544 L159.656072,53.6234758 L157.263366,53.6234758 L154.9493,53.0668927 L154.070858,52.2725373 L154.310352,50.6820455 L150.161208,48.6943759 L147.927122,48.4557131 L147.368601,47.7406152 L146.810079,47.5821003 L146,46.4756131 L146.427157,45.8544664 L147.502199,44.8388135 L152.864005,44.7831552 L153.435931,44.3935471 L155.73972,43.669989 L157.61099,42.431703 L158.281216,42.264728 L159.523367,41.5273668 L160.249445,41.3047335 L161.897307,39.7329429 L162.176567,38.6616317 L162.679237,38.2163653 L163.53087,38.2163653 L166.128218,39.8999178 L167.133556,40.9151254 L167.426668,41.6943417 L167.482521,42.4873613 L168.376155,43.669989 L168.487859,44.3935471 L168.836823,45.1309083 L168.948528,45.8544664 L169.339493,45.5205165 L169.227788,42.1529662 L168.264451,40.1768735 L167.817633,39.6202905 L167.189409,39.1612207 L166.519183,37.9923962 L164.941472,37.2550349 L164.090285,37.1993766 L162.568426,35.7941156 L162.456722,35.2931908 L162.959391,35.3488492 L163.811024,35.1128579 L164.718063,33.3736471 L164.829767,32.5387724 L165.779254,31.5787779 L166.351626,31.2448281 L166.742591,30.6744417 L166.854296,29.8395671 L167.426668,28.7130429 L167.594225,28.0313399 L168.041042,27.5304151 L168.096894,26.7373955 L168.655416,26.2921291 L170.303277,26.5147623 L170.582538,26.459104 L172.160249,23.1472119 L172.900178,22.9245787 L173.514552,22.465509 L175.036411,22.0759008 L175.664189,21.574976 L175.775893,20.7819564 L176.055154,20.5036649 L176.334415,21.2272229 L178.59665,20.8932731 L179.099319,20.5593232 L179.099319,19.7097548 L179.601988,19.3758049 L180.453622,20.2801411 L183.162674,20.2801411 L183.386083,19.5984381 L183.8329,19.0975134 L184.433422,19 L184.629128,19.041855 L185.187649,19.3758049 L185.648318,19.8767297 L186.262691,20.2801411 L187.113878,20.2801411 L187.728251,20.614091 L188.524033,21.6297438 L189.934188,22.0750103 L191.567751,24.3850527 L192.07042,24.8303192 L192.363085,25.3869023 L192.530642,26.1799219 L192.293829,27.8634744 L193.200868,28.7678107 L193.829092,29.0461022 L194.722727,29.0461022 L195.001987,29.6026853 L194.443466,30.1726264 L194.55517,30.7292095 L196.761553,32.9835936 L199.58231,32.8166187 L201.606838,31.0774079 L201.774395,31.5783326 L201.215873,32.0792574 L200.587648,32.4270105 L200.140831,32.9279353 L200.6435,33.3732018 L200.769056,33.7071517 L199.470605,34.3331963 L199.177493,35.001096 L199.414753,35.5710371 L200.140831,36.0719619 L200.824908,36.2945952 L202.126486,37.2269831 L201.46341,37.7221195 L200.585414,38.040485 L200.106873,38.755583 L199.070257,38.9938005 L198.511736,39.7093437 L196.676658,40.5041444 L195.559615,40.5842924 L194.682066,40.9022126 L193.884051,41.4587957 L191.729946,41.6974586 L191.729946,42.8898822 L192.208487,43.7648308 L193.245549,44.0827511 L193.884051,44.7982943 L193.964031,45.9114605 L195.320568,48.9330388 L196.357631,49.6476915 L197.074772,50.6027881 L198.112281,50.8410056 L198.750336,50.2844225 L198.750336,51.1593711 L199.468371,51.9541718 L202.580453,52.7489725 L204.973605,54.81679 L207.287671,54.9753048 L209.362243,53.9422866 L210.479286,53.8621386 L210.958274,53.067338 L211.277301,52.1126867 L209.202729,50.1245719 L209.202729,47.9779422 L208.963235,47.0237361 L210.000298,46.7850733 L211.276408,45.4336895 L212.39345,45.6719071 L213.191466,46.2284902 L213.59092,46.3081929 L214.388042,45.0369571 L215.026991,44.4002261 L215.426445,43.4455747 L215.417062,42.9304014 L216.226248,42.9308467 L216.952326,42.6525551 L217.803959,42.6525551 L217.524698,42.9308467 L217.175734,43.501233 L217.008178,44.2247911 L217.468846,44.7813742 L218.194924,44.7813742 L218.767297,44.2247911 L219.38167,43.8908412 L220.679674,44.2804494 L222.64835,44.3361077 L223.276575,44.6143992 L223.946801,44.3361077 L226.600001,44.906494 L227.451634,44.906494 L228.973494,44.391766 L229.420311,43.9464995 L230.16024,43.7795246 L230.94217,43.8351829 L230.94217,44.6700575 L230.383648,45.0178107 L230.048536,45.5743938 L230.327796,45.9640019 L230.774613,46.3669681 L231.053874,46.9235512 L230.886318,47.5914509 L230.216092,48.0505206 L229.532015,50.068023 L230.104388,51.4176257 L231.960913,53.2824017 L232.072617,53.5606932 L231.458244,54.0059597 L231.737504,54.3399096 L231.737504,56.8725853 L231.905061,57.4981847 L234.111444,59.2930538 L235.912563,59.4600288 L236.667684,58.987601 L237.043011,58.6104603 L237.85309,58.5832991 L238.509465,58.7355802 L238.90043,59.1808467 L239.514803,59.4034799 L240.031324,60.3634744 L240.533993,59.9044047 L241.162218,59.8487464 L242,60.7530826 L241.971851,61.4062885 L241.664887,62.047027 L240.824424,62.1285108 L240.478141,62.7149267 L239.235542,63.2848678 L238.90043,63.7857926 L238.116266,63.8392246 L237.769535,64.5231539 L237.2691,64.7466776 L237.2691,64.7466776 Z M172.169185,41.1586861 L171.610664,42.3511097 L171.052143,42.9076928 L170.893076,43.2260584 L170.334554,43.8623442 L170.334554,45.0556583 L169.536986,45.5320934 L169.377472,46.5655569 L169.696946,47.5990204 L170.494515,48.1556035 L173.048075,48.4735238 L174.643659,49.9843129 L175.28216,51.1776271 L175.362141,54.8350459 L174.165118,56.5047952 L173.367549,57.2198931 L172.968094,58.0948418 L173.207142,60.4008768 L173.685683,61.3550829 L174.643659,61.2753802 L175.521208,60.7984998 L176.079729,60.0036991 L176.63825,59.9239964 L177.914807,60.4805795 L178.632395,61.0371626 L178.951869,61.911666 L178.951869,63.1049801 L179.510391,64.0591862 L180.547007,64.7747294 L181.664049,64.8544321 L182.142591,66.7628442 L183.818155,67.8760104 L188.286326,68.3524455 L189.244302,67.9543773 L190.520412,67.9543773 L190.600392,67.1595767 L188.446733,66.1261132 L188.28722,65.012947 L188.3672,64.0582957 L187.808678,62.2295862 L187.808678,61.196568 L188.3672,60.3216194 L189.165215,59.844739 L191.399301,60.0036991 L192.116889,59.527264 L193.074865,59.2886012 L196.106519,59.4475613 L196.346013,58.8112755 L195.627978,58.49291 L194.591362,58.8112755 L192.835371,58.0160296 L190.682159,56.4264283 L190.282705,55.5514797 L190.841226,54.8363817 L190.682159,53.9618783 L190.043211,53.3251473 L190.521752,52.7685642 L191.558815,50.6223798 L191.319767,48.554117 L187.888212,45.6131319 L188.127706,44.5792232 L188.766208,43.8641252 L188.52716,43.0693246 L187.250157,41.9561584 L186.771616,41.2406152 L186.691636,38.9350253 L185.415526,37.6624538 L185.415526,36.4695849 L185.735,35.5950815 L185.735,34.4017674 L183.659981,34.5602822 L182.781986,32.9702356 L182.143484,32.2551377 L181.026441,34.0041444 L180.148892,34.4022126 L179.749438,35.2771613 L178.073874,36.2313673 L177.674419,37.2652761 L176.956831,37.7417112 L175.839788,37.8218592 L174.961792,38.2194821 L173.605703,39.8095287 L173.206248,40.8429922 L172.169185,41.1586861 L172.169185,41.1586861 Z" id="newtaipeicity" sketch:type="MSShapeGroup"></path>
        </g>
    </g>
</svg>