<?xml version="1.0" encoding="UTF-8" standalone="no"?>
<svg width="128px" height="128px" viewBox="0 0 128 128" version="1.1" xmlns="http://www.w3.org/2000/svg" xmlns:xlink="http://www.w3.org/1999/xlink" xmlns:sketch="http://www.bohemiancoding.com/sketch/ns">
    <!-- Generator: Sketch 3.3.3 (12072) - http://www.bohemiancoding.com/sketch -->
    <title>penghu</title>
    <desc>Created with Sketch.</desc>
    <defs></defs>
    <g id="cities" stroke="none" stroke-width="1" fill="none" fill-rule="evenodd" sketch:type="MSPage">
        <g id="county" sketch:type="MSArtboardGroup" transform="translate(-640.000000, 0.000000)" stroke="#000000" stroke-opacity="0.1" stroke-width="0.719637826" fill="#000000">
            <path d="M726.104108,30.98599 L727.234803,30.5740505 L726.720118,31.3985065 L726.412113,32.7375984 L725.692475,32.4283553 L726.104108,30.98599 Z M730.72994,28.4105026 L732.065587,28.2045328 L731.757582,29.2349586 L730.72994,28.4105026 Z M706.262253,55.9187159 L706.158626,57.3610812 L707.393524,56.8452914 L706.262253,55.9187159 L706.262253,55.9187159 Z M708.421167,59.5246291 L705.954248,60.863721 L705.029082,60.4512045 L705.234611,61.7897195 L708.317539,61.5849036 L710.681981,60.1425383 L710.476453,59.4213557 L709.037177,59.215386 L708.421167,59.5246291 L708.421167,59.5246291 Z M704.412496,33.3560846 L704.052677,34.0253421 L703.949625,34.4897837 L704.412496,35.0055735 L703.537993,35.8294526 L703.743521,36.4479388 L704.359531,36.7566049 L704.822978,37.1691214 L705.027931,37.6324091 L704.513821,37.890304 L704.102189,39.1272765 L704.35838,39.795957 L703.690556,40.0019268 L702.919104,40.0019268 L702.303094,40.4144432 L702.508047,40.9804274 L703.330737,41.1356259 L704.35838,42.4747178 L704.35838,43.2472486 L704.050375,43.8651579 L703.485603,44.2776744 L703.074546,44.7928872 L702.509198,45.2048268 L701.944427,45.3606022 L700.916784,44.4334498 L700.197146,44.6907678 L699.681885,45.1032842 L699.322066,45.6692684 L698.448138,46.4423761 L698.088319,46.957589 L698.602428,47.2668321 L699.37388,47.2668321 L699.733699,46.8029675 L702.047479,46.8029675 L702.458536,46.4423761 L702.973221,46.1850582 L704.46431,46.4423761 L705.132134,46.7510423 L705.903586,46.7510423 L706.57141,46.4423761 L706.315219,45.7725417 L705.903586,45.2573288 L705.698057,44.6907678 L705.646819,43.9695851 L706.520747,43.1451292 L705.852923,41.4973711 L707.960023,39.5911412 L707.755646,39.0747744 L707.190298,38.6628349 L707.087246,37.9930004 L707.447065,36.7566049 L707.138484,36.0873475 L706.778666,35.6234828 L706.624375,35.0055735 L706.829328,34.4395894 L707.394676,34.0789981 L708.936428,34.0789981 L710.273227,33.7184068 L710.837423,33.3578154 L710.941051,32.5841307 L710.529418,32.2235394 L709.912257,32.7889466 L709.295095,32.9435681 L708.575457,32.5829768 L707.34171,31.1931137 L707.496001,30.5232792 L707.291048,29.9572951 L706.675038,30.0086433 L706.211591,30.4205828 L704.927181,32.7901005 L704.412496,33.3560846 L704.412496,33.3560846 Z M712.945098,27.3287287 L712.380326,27.8941358 L712.43214,28.5639703 L714.17827,29.7501715 L714.538088,30.3680807 L714.897907,30.0074894 L715.412017,28.8224421 L715.926702,28.4618508 L717.520843,28.5137759 L717.829424,29.1830334 L717.829424,29.9561412 L718.240481,30.4194289 L718.497248,30.98599 L719.781658,32.3250819 L720.038424,33.0462645 L720.552534,33.1495379 L721.01598,32.5829768 L721.119032,31.810446 L722.403442,31.0892634 L723.174894,30.98599 L723.12308,30.3167325 L722.403442,29.6468981 L722.095437,29.1830334 L722.558308,28.3585774 L721.735618,28.3066523 L720.759214,26.5036957 L720.348156,26.4004224 L719.88471,26.7096655 L718.650387,26.3490742 L718.496097,25.7305879 L717.724645,25.6278915 L717.005007,25.9365577 L716.697002,26.554467 L715.92555,26.7096655 L714.589902,26.554467 L713.972741,26.2458008 L713.818451,25.8852095 L712.945098,27.3287287 L712.945098,27.3287287 Z M719.987186,33.9226457 L719.16392,35.0044196 L720.191563,35.9829202 L720.963015,35.9829202 L721.527787,35.6223289 L721.579601,34.9011463 L722.556005,33.715522 L722.093134,33.4068559 L721.321682,33.4068559 L720.602045,33.5620544 L719.987186,33.9226457 L719.987186,33.9226457 Z M721.888757,36.18889 L721.220933,36.4981331 L721.01598,37.0646942 L721.220933,37.6820265 L721.837519,37.9906927 L722.608395,37.9906927 L723.328033,37.8360711 L723.533561,37.1668136 L723.173742,36.6510238 L722.505918,36.2904325 L721.888757,36.18889 L721.888757,36.18889 Z M717.828273,41.2890935 L716.131654,42.7314588 L715.463831,42.9374286 L714.692379,42.9374286 L715.052198,43.606686 L715.052198,44.3797938 L714.897907,45.1009765 L713.870265,45.9767806 L713.766637,46.7498884 L714.33256,47.0585546 L715.720597,46.4412223 L716.285369,46.0287058 L717.108635,46.0806309 L717.622744,46.4412223 L718.085615,46.9564351 L716.543287,48.6047701 L715.771836,48.7080435 L714.230083,48.4489947 L715.104012,49.4280722 L716.286521,49.9432851 L717.211111,49.8400118 L717.879511,49.4280722 L720.192715,49.4794204 L720.656161,50.0973297 L720.912352,50.7671641 L720.141476,52.0035596 L720.038424,52.4154992 L720.706824,52.8799408 L720.65501,53.4459249 L720.038424,54.0638342 L719.370025,54.012486 L718.907729,53.5999695 L718.290568,53.2913034 L717.519692,53.3945767 L716.594526,55.3521548 L715.720597,56.2793072 L716.080416,56.8972165 L717.57093,57.0518381 L718.39362,56.9485647 L719.421839,56.5879734 L720.296342,56.5366252 L721.220933,57.566474 L721.888757,57.4112755 L721.991809,56.7414411 L722.608395,56.1760339 L722.660209,55.4548512 L722.916976,54.7336686 L722.30039,54.3730773 L722.197338,53.8065162 L722.711447,53.2405321 L723.071266,52.5712746 L725.641812,50.5623483 L726.309636,50.4590749 L727.594621,48.8615112 L727.799574,48.2441788 L728.364346,47.7797372 L731.911297,47.6764639 L732.990754,47.161251 L733.453625,47.5218423 L733.608491,48.2943731 L733.96831,48.9642076 L734.58432,49.3761471 L735.303958,49.2209486 L735.869305,48.9117055 L736.691995,48.9117055 L737,48.4478408 L735.200905,46.5421878 L734.73861,44.8419277 L734.942987,44.2240184 L734.942987,43.4514875 L734.634982,42.7816531 L733.248672,41.2890935 L732.888853,40.1040462 L732.47722,40.5679109 L732.272267,42.0102762 L731.55263,41.9070028 L731.192811,41.1858202 L730.72994,40.6706073 L730.934892,40.2061657 L731.34595,39.8974995 L730.370121,38.9709241 L729.702297,38.7130292 L729.23885,39.1774708 L728.263021,40.9804274 L727.697674,40.8765771 L727.183564,41.0311986 L726.308485,41.9070028 L726.154194,42.5249121 L725.743137,42.6281855 L725.691323,40.310016 L726.256095,39.0724666 L725.382167,39.1763169 L724.91872,39.48556 L721.937117,40.0007729 L721.474246,40.3613642 L721.525484,41.0825468 L721.937117,41.6491079 L721.937117,42.4216387 L721.628536,42.9374286 L720.908898,43.1428214 L720.446027,43.7088055 L720.446027,45.3063693 L720.03497,45.7702339 L719.264094,45.4096426 L718.698747,44.8944297 L718.801799,43.864004 L717.979109,43.7601537 L717.876057,43.0389711 L718.287114,42.3702905 L718.338928,41.9058489 L717.828273,41.2890935 L717.828273,41.2890935 Z M711.91688,48.6549645 L711.608875,49.4280722 L711.044103,49.6853902 L710.838574,50.3546477 L710.890388,51.8489381 L711.764892,52.2608776 L712.021659,52.6733941 L712.535768,53.1366818 L712.741297,52.6214689 L712.329664,52.1062561 L712.997488,51.4883468 L712.586431,51.0244821 L712.43214,49.3761471 L711.91688,48.9642076 L711.91688,48.6549645 Z M713.253103,53.3426516 L713.253103,54.1671075 L715.771836,54.2184557 L716.080416,53.755168 L715.669359,53.2405321 L715.052198,52.7760905 L714.744193,52.3128028 L714.589902,52.8787869 L713.253103,53.3426516 Z M721.958994,12.0933129 L720.868023,13.9141548 L721.086793,14.8615003 L721.813915,15.1528581 L722.467922,14.1328173 L723.195044,13.5501018 L724.140936,13.6954922 L724.868058,13.3314392 L725.52264,12.6748745 L723.123656,11 L722.542188,11.0732722 L721.958994,12.0933129 L721.958994,12.0933129 Z M671.800237,75.2550646 L671,77.0759065 L671.800237,77.5859269 L672.745554,77.3672643 L673.545791,76.8572439 L673.545791,76.128561 L672.237201,75.1079434 L671.800237,75.2550646 L671.800237,75.2550646 Z M701.459678,78.1697963 L701.969182,79.2625322 L701.969182,84.2894637 L701.750412,85.2373861 L700.877635,85.6014391 L701.387139,86.330122 L704.586361,86.4028172 L704.804555,85.8927969 L704.440706,85.0914187 L704.804555,84.3621589 L705.749871,84.0708011 L706.477569,84.8721792 L707.204691,85.3827765 L708.076892,85.0914187 L708.58582,84.5081262 L709.677367,84.5081262 L710.331374,84.0708011 L710.04064,83.1234556 L709.604252,82.3941957 L708.658935,82.7582487 L707.494273,84.0696472 L704.877095,82.5401631 L704.586361,81.738208 L704.586361,79.5527361 L704.003742,79.6987035 L702.913347,79.6260083 L701.459678,78.1697963 L701.459678,78.1697963 Z M707.202388,101.480727 L707.347467,102.574617 L708.292784,102.647312 L707.711316,101.845934 L707.202388,101.480727 L707.202388,101.480727 Z M709.237524,103.083483 L708.946215,104.249491 L708.364172,105.050869 L709.310064,104.759511 L710.327919,103.44869 L709.237524,103.083483 L709.237524,103.083483 Z M731.991321,103.958133 L731.482393,105.051446 L731.918206,105.707434 L731.918206,106.509389 L732.572788,107.165377 L733.009752,107.092105 L733.009752,105.998792 L733.736874,105.197414 L734.100147,104.468731 L733.51868,103.95871 L732.427133,103.884861 L731.991321,103.958133 L731.991321,103.958133 Z M690.773345,111.315927 L688.955827,111.972492 L688.737633,112.846565 L688.955827,113.867183 L689.61041,114.377203 L689.61041,115.470516 L690.628841,116.85461 L690.99269,117 L691.06523,115.979382 L691.938006,115.396667 L692.810783,115.178004 L693.028977,113.065228 L693.756099,112.40924 L692.303007,111.243232 L690.773345,111.315927 L690.773345,111.315927 Z" id="penghu" sketch:type="MSShapeGroup"></path>
        </g>
    </g>
</svg>