<?xml version="1.0" encoding="UTF-8" standalone="no"?>
<svg width="128px" height="128px" viewBox="0 0 128 128" version="1.1" xmlns="http://www.w3.org/2000/svg" xmlns:xlink="http://www.w3.org/1999/xlink" xmlns:sketch="http://www.bohemiancoding.com/sketch/ns">
    <!-- Generator: Sketch 3.3.3 (12072) - http://www.bohemiancoding.com/sketch -->
    <title>taoyuan</title>
    <desc>Created with Sketch.</desc>
    <defs></defs>
    <g id="cities" stroke="none" stroke-width="1" fill="none" fill-rule="evenodd" sketch:type="MSPage">
        <g id="city" sketch:type="MSArtboardGroup" transform="translate(-256.000000, 0.000000)" fill="#000000">
            <path d="M359,95.3747099 L358.703348,96.01381 L357.81176,96.2887211 L355.890582,96.4264488 L355.203826,96.8390875 L354.243237,98.1445067 L353.900403,100.894161 L352.665437,102.543628 L352.459519,103.368905 L352.116685,104.056455 L351.910767,104.882277 L350.05859,107.769115 L349.92113,108.662984 L348.960541,108.662984 L348.205327,109.007575 L347.587573,109.488806 L346.763357,110.544355 L346.352064,110.793681 L345.390932,111 L343.401839,110.725089 L342.578167,110.243859 L341.891411,109.212262 L341.411116,109.212262 L340.99928,108.661895 L340.724904,107.836618 L339.970233,107.561707 L339.970233,105.43101 L340.382069,104.674869 L340.587444,103.711319 L339.764315,103.299225 L338.871641,103.161497 L338.185428,102.748858 L338.11697,100.686753 L338.665723,100.136931 L338.734181,99.10479 L339.009101,98.2800568 L338.871641,97.2479156 L337.97951,96.8358212 L336.949376,96.8358212 L336.606542,96.1482715 L336.469082,95.1847219 L336.057789,94.4971721 L335.439491,94.0159417 L334.205069,92.4350671 L332.627813,91.6789257 L330.981011,92.2287478 L330.22634,91.9538367 L330.22634,89.8917318 L330.844094,89.273318 L331.187472,88.5852239 L331.187472,86.5231189 L330.021509,86.3167995 L330.09051,83.9106475 L330.364887,83.154506 L330.845181,82.4669562 L331.051643,81.5725427 L330.364887,80.8849929 L330.021509,80.0597154 L329.06092,79.8533961 L328.374164,79.1658463 L327.619493,78.8903909 L326.658904,78.8217992 L326.383441,78.4091605 L326.246524,78.4091605 L325.354394,77.92793 L324.805098,77.2398359 L323.981425,76.7586055 L323.775507,76.4151028 L323.707049,75.7961447 L323.226754,74.4901811 L322.403082,74.1466784 L321.237118,73.9403591 L321.237118,72.9082178 L320.413446,72.6333068 L318.286893,73.596312 L317.394219,73.596312 L314.307077,71.1221126 L313.551863,70.7775212 L312.934109,70.1585631 L311.83606,69.7464687 L311.83606,68.9897829 L310.805926,68.8525995 L309.845337,68.5080081 L307.924703,66.996814 L307.581325,66.5144948 L305.935067,65.4834423 L306.140985,64.5895732 L307.102117,63.0772903 L306.827741,60.0527245 L306.072526,59.502358 L299.692325,58.9525359 L299.280489,58.1272585 L299.143029,57.0951172 L299.692325,56.6138868 L298.937654,56.2017924 L298.251441,56.6830228 L297.358767,57.0265255 L296.329177,57.0951172 L295.437046,56.4075674 L294.338997,56.0640647 L293.308864,56.0640647 L292.622651,55.3073789 L290.976393,54.6884208 L291.044851,52.6949075 L291.388772,51.8701744 L290.770475,50.2201638 L290.702016,49.257703 L289.740884,49.1891113 L288.57492,48.0208755 L286.586371,47.8831478 L284.252813,48.5706975 L283.018935,47.7459644 L280.686464,49.1205196 L279,48.6659638 L279.251014,48.233183 L279.930163,47.671929 L281.576965,45.4775401 L281.916539,44.7290199 L282.612532,44.0316714 L283.291681,43.6233876 L284.259333,42.586347 L284.259333,40.5961 L283.767086,39.9156271 L283.835001,38.9460894 L285.481802,36.887795 L286.041421,35.3063761 L286.652656,34.8300451 L287.959883,32.9078454 L290.489578,30.6960364 L292.629171,29.7433743 L293.512065,29.6072798 L294.140142,28.9785228 L294.955122,28.7063337 L296.330264,27.821719 L297.009413,27.0563231 L297.90915,26.5119448 L298.859959,26.2397557 L300.370388,25.0660761 L301.20221,24.7258396 L302.288849,24.7258396 L308.876599,23.0077817 L309.708421,22.3109775 L311.626882,21.4263628 L313.612715,19.4361158 L314.512452,18.8748618 L315.667006,18.8068145 L320.200465,16.952662 L321.236032,16.952662 L321.779351,16.4082837 L323.697812,16 L324.529635,16.2721891 L325.887934,17.3609457 L327.166364,17.4028629 L327.59287,18.4230278 L328.27202,19.2009444 L328.951169,19.3952874 L329.630319,20.2695589 L332.346916,20.5608013 L337.392182,22.9914504 L337.100962,24.9354253 L338.168585,25.9071405 L340.982981,26.5876134 L343.892457,26.5876134 L344.571606,27.0742876 L345.541975,28.2414346 L345.833194,29.5049367 L345.833194,29.8936228 L345.346923,30.8658824 L345.540888,32.12884 L346.220038,32.907301 L347.481082,33.7815725 L346.995355,34.655844 L345.927732,35.3363169 L344.860652,35.7255474 L346.024986,36.5998189 L346.122783,37.766966 L345.249669,38.3499951 L344.085335,38.7386812 L343.018256,40.6826561 L341.465992,41.7523595 L335.353647,41.5580164 L334.383278,42.0446906 L334.092602,43.2118376 L334.674497,44.2809966 L334.383278,47.0028881 L333.607418,47.7808046 L333.121147,48.850508 L333.800296,50.11401 L334.965717,50.2114537 L335.837744,50.8919266 L334.673411,51.6698432 L333.994261,52.4477597 L333.508534,53.5174631 L333.994261,55.8501241 L336.41964,57.3090579 L338.26421,60.1283931 L337.58506,61.0026646 L337.777939,62.1698116 L339.233492,63.1415269 L338.361464,63.8219998 L335.837744,64.308674 L335.74049,65.475821 L337.098789,65.6696197 L337.971904,64.9891468 L338.844475,65.8634184 L339.8143,66.4464475 L341.366564,66.835678 L342.822117,66.7376899 L343.889197,66.1552051 L346.79976,65.9608621 L347.478909,66.3500925 L347.672331,66.8367667 L348.448734,67.6146833 L348.837208,68.6838423 L350.388929,70.2391311 L351.262043,70.7252609 L352.134071,71.6975205 L352.231868,73.0584662 L352.717053,74.419412 L353.978641,74.8080981 L353.978641,76.2664875 L353.105526,76.8495166 L352.524174,77.7243326 L350.776859,79.182722 L350.195507,80.251881 L350.388929,81.515383 L350.874656,82.4876426 L350.874656,83.0701274 L351.942279,85.7920188 L353.688508,87.4447513 L353.397289,88.5139103 L354.755588,89.0969394 L354.852842,90.0691991 L356.211141,90.4578852 L356.988088,91.5275885 L358.055711,92.3055051 L358.346387,95.0273966 L359,95.3747099 L359,95.3747099 Z" id="taoyuan" sketch:type="MSShapeGroup"></path>
        </g>
    </g>
</svg>