<?xml version="1.0" encoding="UTF-8" standalone="no"?>
<svg width="128px" height="128px" viewBox="0 0 128 128" version="1.1" xmlns="http://www.w3.org/2000/svg" xmlns:xlink="http://www.w3.org/1999/xlink" xmlns:sketch="http://www.bohemiancoding.com/sketch/ns">
    <!-- Generator: Sketch 3.3.3 (12072) - http://www.bohemiancoding.com/sketch -->
    <title>yilan</title>
    <desc>Created with Sketch.</desc>
    <defs></defs>
    <g id="cities" stroke="none" stroke-width="1" fill="none" fill-rule="evenodd" sketch:type="MSPage">
        <g id="county" sketch:type="MSArtboardGroup" transform="translate(-128.000000, 0.000000)" stroke="#000000" stroke-opacity="0.1" stroke-width="0.5" fill="#000000">
            <path d="M175.0172,57.8124 L174.8304,58.2752 L174.174,58.4772 L172.7596,58.5784 L172.2544,58.8816 L171.5468,59.8408 L171.2944,61.8612 L170.3852,63.0732 L170.2336,63.6796 L169.9812,64.1848 L169.8296,64.7916 L168.466,66.9128 L168.3648,67.5696 L167.6576,67.5696 L167.1016,67.8228 L166.6468,68.1764 L166.4912,68.4608 L166.1488,68.8292 L166.192,69.0856 L166.6468,69.3892 L166.8992,69.9448 L166.95,70.652 L167.152,71.2084 L166.6468,71.6628 L166.4448,71.764 L166.2428,72.0672 L165.7372,72.3704 L165.1812,72.9768 L165.0296,73.6336 L165.2824,74.1388 L165.3328,77.068 L165.0296,77.776 L164.5752,78.3316 L164.0188,78.7356 L163.362,79.7456 L162.6544,80.3016 L162.4524,80.8072 L161.8968,80.7564 L160.5332,82.7264 L160.028,83.0296 L159.2696,82.878 L158.714,83.9884 L158.1584,84.292 L157.7036,85.4532 L157.3496,85.9084 L156.7432,86.4136 L156.238,87.4236 L156.2772,88.0496 L156,88.4572 L156.5764,89.1324 L156.9336,89.8468 L157.148,90.704 L156.7908,93.562 L157.8624,94.6332 L158.648,94.9192 L160.5764,94.9192 L162.2188,97.7048 L162.9328,98.0628 L164.0048,97.92 L164.5048,97.2776 L165.1472,96.7776 L166.0756,96.6348 L166.79,96.2776 L169.6472,95.92 L170.5048,96.3484 L170.9328,97.0628 L171.5756,97.4912 L172.0856,98.3348 L176.8944,101.4148 L180.1268,101.4148 L181.3388,101.92 L182.9552,102.122 L186.1876,104.3448 L189.5212,104.7488 L190.7328,104.446 L189.5212,103.436 L189.824,102.2244 L191.1372,101.9208 L192.046,101.3144 L192.9548,101.7188 L193.7632,101.0112 L193.46,100.4048 L192.6516,99.6976 L192.7532,98.3844 L193.5616,98.0812 L195.2788,99.5964 L197.198,100.2028 L199.0164,101.6168 L202.6532,103.132 L205.5824,103.334 L208.8148,104.9504 L210.4664,105.15 L210.3764,103.5332 L210.0764,103.0332 L210.1264,101.5708 L211.1388,99.6456 L211.2888,99.0456 L211.9008,98.0332 L212.1008,93.6832 L212.3008,93.0332 L212.6508,92.5708 L212.6508,91.7208 L213.0508,90.3088 L213.7632,89.3464 L213.9632,88.634 L215.0256,87.984 L215.4256,87.5216 L215.938,86.4716 L215.988,85.7596 L217.8004,84.0472 L219.6256,83.2848 L220.3756,83.2848 L220.588,83.1848 L220.0256,82.8848 L219.6256,82.4724 L219.3256,81.9724 L219.3256,81.2104 L218.3132,80.6104 L218.1132,78.6352 L218.8132,78.1852 L219.1632,77.6728 L220.4756,77.4228 L221.588,76.7228 L222.2504,76.5728 L222.4504,75.9108 L222.4004,75.3108 L222.1504,74.5984 L222.1004,73.886 L221.8004,73.436 L221.688,72.0236 L222.0004,71.5736 L221.638,71.0116 L221.9004,70.4116 L222.6504,70.4116 L222.5504,69.8492 L222.1504,69.4992 L222.0504,69.2992 L222.6504,69.0368 L222.1504,69.1492 L221.438,68.8868 L221.388,68.3868 L220.4256,67.5244 L220.588,66.8744 L221.288,66.8244 L221.9004,67.1744 L222.0004,67.8868 L222.7004,67.8368 L223.3124,67.5244 L221.8504,66.0624 L220.638,65.6624 L220.4756,65.3624 L220.2756,65.3 L219.6256,64.4 L219.5756,63.8876 L218.1132,60.25 L218.0632,58.7376 L217.7508,58.2876 L217.9008,58.0376 L217.9008,57.2252 L217.7008,56.5632 L217.9008,52.4752 L216.7388,51.2132 L216.3888,50.6132 L216.3888,49.9508 L215.8388,49.3008 L215.5888,47.9384 L215.6388,47.226 L215.2264,46.826 L215.4264,41.214 L215.6888,40.3516 L215.6888,39.6016 L216.1888,38.4892 L216.0888,37.0268 L216.4888,35.8148 L216.5388,35.1024 L217.5008,33.04 L217.6008,32.3276 L218.1132,31.4656 L218.7132,31.1656 L219.1132,30.0032 L219.4756,29.5532 L220.0256,29.3532 L221.538,27.578 L222.0504,27.328 L223.3124,25.866 L223.4124,24.4536 L223.6124,23.8412 L224.7248,23.1912 L225.3248,23.0412 L225.9372,22.1788 L226.41,21.8008 L226.9004,21.5668 L227.9004,20.1544 L228.0124,19.4044 L228.7124,18.992 L229.4248,18.892 L229.9236,18.69 L230.3748,18.242 L231.0372,18.142 L231.5372,17.8296 L232.2992,17.7796 L233.3804,17.2848 L231.9292,17 L230.9292,17.0716 L228.4292,18 L226.2872,18.142 L223.5728,20.0708 L223.0012,20.7128 L221.8588,20.7128 L220.93,20.3556 L218.8588,20.2128 L218.1444,20.7848 L217.93,21.642 L217.5728,22.3564 L219.2152,24.7136 L218.6436,26.428 L216.2864,28 L214.1436,27.8572 L213.2152,28 L212.0008,29 L211.0008,30.2856 L211.2152,31.2136 L211.1436,32.0716 L210.572,32.7856 L210.5,33.6428 L210.572,34.1428 L209.572,34.3572 L208.858,34.7144 L205.858,34.2864 L204.9292,34.4288 L204.1436,34.8572 L203.072,36.1428 L201.1436,37.1788 L200.9292,37.8572 L200.2152,38.5 L199.7872,39.2136 L198.9292,39.5 L198.6436,40.2856 L198.0012,39.5716 L196.5728,40.2856 L192.3588,40.7856 L192.93,41.2856 L192.716,42.1428 L191.788,42.8572 L190.788,42.5716 L190.0736,43 L189.216,43.2136 L188.8588,44 L188.93,45 L188.788,45.928 L188.002,46.5708 L188.1444,47.5708 L188.716,48.142 L189.002,49 L189.002,50.0716 L188.43,51.7856 L187.502,51.928 L186.8596,52.428 L186.4308,53.0708 L185.5736,53.3564 L184.502,53.428 L182.1444,54.7136 L181.93,55.7136 L179.8588,57.0716 L178.0008,57.3572 L177.0728,57.9288 L175.0172,57.8124 L175.0172,57.8124 Z" id="yilan" sketch:type="MSShapeGroup"></path>
        </g>
    </g>
</svg>