<?xml version="1.0" encoding="UTF-8" standalone="no"?>
<svg width="128px" height="128px" viewBox="0 0 128 128" version="1.1" xmlns="http://www.w3.org/2000/svg" xmlns:xlink="http://www.w3.org/1999/xlink" xmlns:sketch="http://www.bohemiancoding.com/sketch/ns">
    <!-- Generator: Sketch 3.3.3 (12072) - http://www.bohemiancoding.com/sketch -->
    <title>yunlin</title>
    <desc>Created with Sketch.</desc>
    <defs></defs>
    <g id="cities" stroke="none" stroke-width="1" fill="none" fill-rule="evenodd" sketch:type="MSPage">
        <g id="county" sketch:type="MSArtboardGroup" transform="translate(-128.000000, -128.000000)" stroke="#000000" stroke-opacity="0.1" stroke-width="0.661993132" fill="#000000">
            <path d="M241.594331,205.160901 L241.594331,203.562992 L240.391092,202.497192 L238.652433,202.230874 L238.117543,203.69536 L236.646329,203.962206 L234.9082,203.562465 L234.506767,205.160374 L232.902096,205.426692 L231.02945,205.293797 L229.826741,204.493787 L229.023346,203.029828 L228.622443,201.431392 L226.080919,203.296147 L225.947461,199.433742 L227.017771,196.370819 L227.151759,196.237396 L228.088082,194.106324 L228.355527,192.375519 L228.222069,190.510765 L227.419204,189.179174 L227.285746,185.317824 L227.686649,183.719915 L229.157333,183.986233 L229.425308,180.257251 L226.749797,174.531147 L215.782954,172.933238 L213.77685,172.133756 L212.706539,172.000333 L207.223118,172.533497 L199.599605,169.602942 L197.325526,169.336624 L196.924623,168.670565 L194.249641,167.205551 L192.912415,167.87161 L185.155444,167.738715 L181.143766,168.804515 L175.125454,168.671092 L172.04851,167.738188 L170.042935,167.604765 L166.629699,166.44193 L164.557925,166.477791 L163.895932,166.131841 L163.151322,166 L162.886525,166.807392 L161.959734,166.873313 L158.748803,172.592034 L158.682604,172.937984 L157.540798,172.872064 L156.862387,173.267586 L155.803198,174.53642 L155.472202,175.393385 L155.339803,177.387343 L154.794321,177.996447 L154.661922,178.853412 L155.538401,180.122246 L155.406002,181.061479 L154.529524,182.313966 L152.858123,182.379886 L152.659525,183.187279 L152.659525,184.176084 L151.51772,184.785188 L151.51772,186.054022 L151.45152,185.988102 L151.186723,186.119943 L150.988125,186.976907 L150.988125,187.98206 L151.252922,188.707184 L152.262329,188.773105 L152.990522,189.844178 L151.782517,191.310247 L151.054324,192.776842 L150.855726,193.567886 L149.846319,195.232243 L149.316725,197.094361 L148.638844,198.098987 L147.248658,202.021511 L147.381057,205.960383 L147.182459,206.751427 L147.248658,207.492899 L148.175449,207.954341 L148.109249,208.827654 L147.314858,209.157256 L146.173052,210.01422 L146.437849,211.150687 L147.033643,211.480289 L147.844452,211.612129 L147.910651,212.617283 L147.381057,213.276486 L147.381057,215.270445 L148.04305,215.748235 L149.118127,217.214304 L149.846319,217.807587 L149.184326,218.203109 L148.705043,219.076421 L147.778253,219.142342 L147.513456,218.40087 L146.967444,217.939427 L146.173052,218.40087 L145,219.736679 L147.041057,219.805237 L150.118001,221.003405 L152.124105,221.003405 L152.926971,222.201573 L154.933075,222.201573 L156.403758,221.535514 L159.747089,222.733154 L161.753193,223 L162.956961,222.067095 L163.893284,220.869455 L164.026742,219.0047 L163.625309,217.406791 L164.69562,216.340991 L166.434278,216.340991 L166.434278,218.071795 L168.306395,218.738382 L168.841815,217.273896 L171.382809,215.808882 L171.784242,213.945182 L172.721095,212.879382 L176.064425,211.547791 L177.535638,212.347273 L178.471962,209.1504 L179.274827,207.819337 L181.414918,207.952759 L182.751615,207.286173 L183.287035,205.688264 L186.363449,204.755359 L186.898869,203.2914 L188.102108,202.357968 L189.038431,201.160328 L190.509645,201.826387 L191.712354,202.758764 L193.183567,203.292455 L196.259982,202.09376 L200.27166,202.09376 L203.081159,200.629801 L205.756141,201.29586 L206.559006,203.959569 L208.832555,205.823796 L209.635421,207.021437 L210.972117,207.821446 L212.844763,207.954869 L214.048002,208.887246 L215.652144,209.42041 L223.008741,210.219892 L224.479425,209.42041 L225.416278,208.35461 L228.358705,208.488033 L228.09126,210.485683 L229.16157,212.217014 L230.23188,211.151214 L231.97001,210.751473 L233.04032,211.817273 L234.644992,211.683851 L236.116205,211.150687 L237.988322,211.28411 L239.459006,212.083592 L241.331122,212.34991 L242,211.018319 L242,209.154619 L241.599097,207.55671 L240.796232,206.358015 L241.594331,205.160901 L241.594331,205.160901 Z" id="yunlin" sketch:type="MSShapeGroup"></path>
        </g>
    </g>
</svg>