<?xml version="1.0" encoding="UTF-8" standalone="no"?>
<svg width="500px" height="500px" viewBox="0 0 500 500" version="1.1" xmlns="http://www.w3.org/2000/svg" xmlns:xlink="http://www.w3.org/1999/xlink" xmlns:sketch="http://www.bohemiancoding.com/sketch/ns">
    <!-- Generator: Sketch 3.3.2 (12043) - http://www.bohemiancoding.com/sketch -->
    <title>footer-vi</title>
    <desc>Created with Sketch.</desc>
    <defs></defs>
    <g id="footer-design" stroke="none" stroke-width="1" fill="none" fill-rule="evenodd" sketch:type="MSPage">
        <g id="Desktop" sketch:type="MSArtboardGroup" transform="translate(-16.000000, -359.000000)">
            <g id="Logo" sketch:type="MSLayerGroup" transform="translate(16.000000, 359.000000)">
                <g id="VI" sketch:type="MSShapeGroup">
                    <g id="Group" transform="translate(29.000000, 29.000000)">
                        <path d="M135.156,423.436 C138.77,423.436 142.22,421.34 143.776,417.82 C145.826,413.18 143.82,407.784 139.304,405.57 C136.89,404.504 134.496,403.384 132.122,402.22 C132.084,402.202 132.046,402.182 132.008,402.164 C129.958,401.16 127.922,400.126 125.904,399.048 C124.89,398.51 123.894,397.944 122.89,397.39 C121.866,396.822 120.84,396.266 119.826,395.678 C117.86,394.548 115.92,393.378 113.998,392.184 C113.948,392.152 113.894,392.12 113.844,392.088 C111.602,390.692 109.388,389.258 107.208,387.778 C102.934,385.118 97.294,386.28 94.446,390.478 C91.526,394.782 92.648,400.638 96.952,403.558 C99.228,405.104 101.53,406.604 103.854,408.058 C103.918,408.098 103.984,408.136 104.048,408.176 C106.15,409.488 108.272,410.756 110.41,411.992 C111.508,412.624 112.62,413.234 113.73,413.846 C114.842,414.464 115.95,415.086 117.07,415.684 C119.246,416.838 121.438,417.962 123.656,419.046 C123.734,419.084 123.81,419.124 123.886,419.162 C126.35,420.36 128.84,421.518 131.354,422.628 C132.592,423.176 133.884,423.436 135.156,423.436" id="Fill-57" fill="#A7CD6A"></path>
                        <path d="M94.446,51.048 C96.268,53.732 99.232,55.18 102.25,55.18 C104.068,55.18 105.908,54.652 107.528,53.554 C126.37,40.768 147.014,31.376 168.706,25.608 C187.972,20.46 207.982,18.194 228.184,18.956 C233.418,19.146 237.756,15.096 237.952,9.9 C238.144,4.812 234.26,0.524 229.22,0.162 C226.408,0.056 223.588,0 220.764,0 C200.256,0 180.098,2.836 160.724,8.298 C140.812,13.936 121.656,22.374 103.776,33.546 C101.376,35.046 99.012,36.59 96.68,38.172 C92.608,41.152 91.592,46.84 94.446,51.048" id="Fill-58" fill="#50B584"></path>
                        <path d="M347.08,390.478 C344.162,386.176 338.308,385.05 334,387.972 C317.14,399.414 298.834,408.13 279.63,413.972 C258.3,420.49 235.956,423.428 213.342,422.57 C208.098,422.346 203.772,426.43 203.576,431.626 C203.384,436.714 207.27,441.004 212.31,441.364 C215.12,441.47 217.938,441.526 220.764,441.526 C234.532,441.526 248.148,440.258 261.474,437.774 C261.792,437.714 262.11,437.65 262.428,437.588 C264.63,437.168 266.824,436.712 269.01,436.226 C269.698,436.07 270.384,435.91 271.07,435.748 C272.848,435.334 274.62,434.898 276.386,434.44 C277.4,434.174 278.412,433.902 279.424,433.624 C280.818,433.24 282.206,432.84 283.592,432.43 C284.906,432.038 286.22,431.64 287.528,431.224 C288.558,430.896 289.584,430.556 290.61,430.214 C292.212,429.678 293.812,429.134 295.402,428.562 C296.08,428.318 296.752,428.064 297.426,427.814 C299.312,427.114 301.192,426.4 303.058,425.648 C303.372,425.522 303.682,425.39 303.994,425.262 C315.636,420.506 326.926,414.742 337.75,407.98 C340.156,406.476 342.526,404.928 344.864,403.342 C348.922,400.358 349.932,394.682 347.08,390.478" id="Fill-59" fill="#53B475"></path>
                        <path d="M45.772,348.708 C47.59,348.708 49.43,348.18 51.05,347.08 C55.354,344.16 56.474,338.304 53.554,334 C41.452,316.164 32.422,296.702 26.596,276.278 C20.774,255.96 18.148,234.776 18.956,213.342 C19.152,208.144 15.098,203.77 9.9,203.574 C4.792,203.396 0.526,207.268 0.162,212.304 C0.056,215.118 0,217.936 0,220.764 C0,241.598 2.928,262.074 8.566,281.734 C14.202,301.312 22.548,320.15 33.546,337.75 C35.028,340.122 36.552,342.458 38.114,344.762 C39.944,347.322 42.828,348.708 45.772,348.708" id="Fill-60" fill="#81C063"></path>
                        <path d="M23.706,143.776 C24.942,144.322 26.234,144.582 27.506,144.582 C31.052,144.58 34.426,142.558 36.024,139.158 C37.066,136.804 38.156,134.47 39.29,132.154 C39.338,132.052 39.392,131.954 39.442,131.852 C40.418,129.868 41.418,127.894 42.46,125.938 C43.036,124.852 43.64,123.786 44.234,122.712 C44.764,121.762 45.28,120.808 45.826,119.864 C48.32,115.528 50.97,111.296 53.77,107.174 C56.4,102.906 55.238,97.288 51.05,94.446 C46.744,91.526 40.888,92.648 37.968,96.952 C36.416,99.238 34.91,101.55 33.45,103.884 C33.448,103.888 33.446,103.89 33.446,103.892 C32.092,106.054 30.788,108.242 29.516,110.442 C28.92,111.48 28.346,112.53 27.766,113.578 C27.112,114.75 26.456,115.92 25.826,117.102 C24.702,119.22 23.608,121.358 22.552,123.516 C22.486,123.65 22.416,123.782 22.35,123.916 C21.156,126.37 20.004,128.848 18.898,131.354 C16.796,136.112 18.948,141.672 23.706,143.776" id="Fill-61" fill="#53B475"></path>
                        <path d="M297.75,23.706 C295.702,28.346 297.704,33.738 302.216,35.954 C304.634,37.022 307.032,38.142 309.41,39.306 C309.438,39.322 309.468,39.336 309.496,39.35 C311.554,40.36 313.598,41.398 315.624,42.478 C316.636,43.016 317.63,43.58 318.632,44.134 C319.656,44.702 320.684,45.26 321.7,45.846 C323.668,46.98 325.61,48.15 327.534,49.346 C327.584,49.378 327.634,49.406 327.682,49.436 C329.924,50.832 332.136,52.266 334.316,53.746 C338.59,56.406 344.232,55.248 347.08,51.048 C350,46.744 348.88,40.888 344.576,37.968 C342.304,36.426 340.006,34.93 337.688,33.478 C337.596,33.42 337.502,33.366 337.408,33.308 C335.334,32.014 333.238,30.762 331.128,29.54 C330.008,28.896 328.87,28.274 327.736,27.646 C326.648,27.042 325.564,26.432 324.468,25.848 C322.27,24.682 320.056,23.546 317.816,22.452 C317.76,22.426 317.706,22.396 317.652,22.37 C315.184,21.168 312.69,20.01 310.172,18.898 C305.418,16.794 299.854,18.948 297.75,23.706" id="Fill-62" fill="#53B475"></path>
                        <path d="M390.478,94.446 C386.174,97.366 385.052,103.224 387.972,107.528 C399.894,125.096 408.834,144.24 414.668,164.33 C420.676,184.926 423.392,206.428 422.57,228.186 C422.376,233.384 426.43,237.756 431.628,237.952 C431.748,237.958 431.87,237.958 431.988,237.958 C436.898,237.958 440.98,234.168 441.36,229.274 C441.468,226.444 441.526,223.608 441.526,220.764 C441.526,199.734 438.544,179.072 432.804,159.244 C427.17,139.862 418.878,121.212 407.982,103.776 C406.488,101.386 404.952,99.034 403.378,96.712 C400.406,92.614 394.7,91.582 390.478,94.446" id="Fill-63" fill="#54B36C"></path>
                        <path d="M411.982,331.134 C412.634,330 413.262,328.852 413.896,327.708 C414.492,326.632 415.096,325.558 415.674,324.474 C416.844,322.27 417.984,320.05 419.08,317.802 C419.104,317.752 419.13,317.704 419.156,317.654 C420.358,315.186 421.516,312.692 422.63,310.172 C424.73,305.414 422.578,299.854 417.82,297.75 C413.186,295.698 407.788,297.704 405.572,302.218 C404.504,304.636 403.384,307.032 402.218,309.41 C402.206,309.438 402.192,309.462 402.18,309.49 C401.168,311.552 400.128,313.6 399.044,315.63 C398.516,316.628 397.96,317.606 397.414,318.592 C396.836,319.632 396.27,320.678 395.674,321.71 C394.554,323.654 393.398,325.57 392.218,327.472 C392.172,327.546 392.128,327.622 392.082,327.696 C390.69,329.928 389.262,332.134 387.786,334.306 C385.118,338.578 386.274,344.228 390.478,347.08 C392.098,348.18 393.938,348.708 395.756,348.708 C398.774,348.708 401.738,347.26 403.558,344.576 C405.1,342.306 406.594,340.012 408.044,337.696 C408.11,337.588 408.174,337.478 408.242,337.368 C409.526,335.308 410.77,333.228 411.982,331.134" id="Fill-64" fill="#54B36C"></path>
                        <path d="M387.964,107.54 C385.044,103.236 386.174,97.366 390.478,94.446 C394.7,91.582 400.406,92.614 403.378,96.712 C387.574,73.414 367.664,53.594 344.638,38.014 C348.888,40.948 349.986,46.766 347.08,51.048 C344.232,55.248 338.59,56.406 334.316,53.746 C355.356,68.03 373.53,86.202 387.964,107.54" id="Fill-65" fill="#89C693"></path>
                        <path d="M431.988,237.958 C431.87,237.958 431.748,237.958 431.628,237.952 C426.43,237.756 422.368,233.334 422.562,228.138 C421.636,253.9 415.85,278.94 405.572,302.218 C407.788,297.704 413.186,295.698 417.82,297.75 C422.558,299.844 424.708,305.364 422.654,310.108 C433.914,284.714 440.294,257.382 441.36,229.274 C440.98,234.168 436.898,237.958 431.988,237.958" id="Fill-66" fill="#89C693"></path>
                        <path d="M395.756,348.708 C393.938,348.708 392.098,348.18 390.478,347.08 C386.274,344.228 385.118,338.578 387.786,334.306 C373.462,355.408 355.282,373.596 333.862,388.05 C333.93,388.006 333.794,388.096 333.862,388.05 C338.172,385.128 344.162,386.176 347.08,390.478 C349.932,394.682 348.922,400.358 344.864,403.342 C368.144,387.54 387.948,367.642 403.518,344.628 C401.694,347.276 398.752,348.708 395.756,348.708" id="Fill-67" fill="#89C693"></path>
                        <path d="M203.576,431.626 C203.77,426.458 208.052,422.376 213.258,422.554 C187.55,421.61 162.536,415.828 139.304,405.57 C143.82,407.784 145.826,413.18 143.776,417.82 C142.22,421.34 138.77,423.436 135.156,423.436 C133.906,423.436 132.636,423.182 131.42,422.654 C156.83,433.924 184.182,440.304 212.31,441.364 C207.27,441.004 203.384,436.714 203.576,431.626" id="Fill-68" fill="#88C8AB"></path>
                        <path d="M94.446,390.478 C97.294,386.28 102.934,385.118 107.208,387.778 C85.786,373.234 67.336,354.652 52.78,332.806 C53.044,333.202 53.288,333.606 53.554,334 C56.474,338.304 55.354,344.16 51.05,347.08 C49.43,348.18 47.59,348.708 45.772,348.708 C42.828,348.708 39.944,347.322 38.114,344.762 C53.926,368.086 73.85,387.924 96.898,403.518 C92.64,400.584 91.54,394.762 94.446,390.478" id="Fill-69" fill="#E8E979"></path>
                        <path d="M18.956,213.342 L18.936,214.658 C19.718,188.404 25.538,162.854 36.024,139.158 C34.426,142.558 31.052,144.58 27.506,144.582 C26.234,144.582 24.942,144.322 23.706,143.776 C18.972,141.684 16.82,136.17 18.87,131.428 C7.602,156.834 1.222,184.182 0.162,212.304 C0.526,207.268 4.792,203.396 9.9,203.574 C15.098,203.77 19.152,208.144 18.956,213.342" id="Fill-70" fill="#89C693"></path>
                        <path d="M102.25,55.18 C99.232,55.18 96.268,53.732 94.446,51.048 C91.592,46.84 92.608,41.152 96.68,38.172 C73.39,53.978 53.576,73.886 38.002,96.908 C40.93,92.642 46.76,91.536 51.05,94.446 C55.238,97.288 56.4,102.906 53.77,107.174 C68.304,85.774 86.87,67.346 108.692,52.798 C108.306,53.056 107.912,53.294 107.528,53.554 C105.908,54.652 104.068,55.18 102.25,55.18" id="Fill-71" fill="#88C8AB"></path>
                        <path d="M310.138,18.886 C284.73,7.616 257.346,1.222 229.22,0.162 C234.26,0.524 238.144,4.812 237.952,9.9 C237.756,15.096 233.418,19.146 228.184,18.956 L226.864,18.936 C253.066,19.716 278.562,25.51 302.216,35.954 C297.704,33.738 295.702,28.346 297.75,23.706 C299.844,18.968 305.4,16.83 310.138,18.886" id="Fill-72" fill="#88C8AB"></path>
                    </g>
                </g>
            </g>
        </g>
    </g>
</svg>