<?xml version="1.0" encoding="UTF-8" standalone="no"?>
<svg width="180px" height="150px" viewBox="0 0 180 150" version="1.1" xmlns="http://www.w3.org/2000/svg" xmlns:xlink="http://www.w3.org/1999/xlink" xmlns:sketch="http://www.bohemiancoding.com/sketch/ns">
    <!-- Generator: Sketch 3.3.2 (12043) - http://www.bohemiancoding.com/sketch -->
    <title>footer-title</title>
    <desc>Created with Sketch.</desc>
    <defs></defs>
    <g id="footer-design" stroke="none" stroke-width="1" fill="none" fill-rule="evenodd" sketch:type="MSPage">
        <g id="Desktop" sketch:type="MSArtboardGroup" transform="translate(-769.000000, -663.000000)" fill="#FFFFFF">
            <g id="Logo" sketch:type="MSLayerGroup" transform="translate(16.000000, 359.000000)">
                <g id="蔡英文-+-LIGHT-UP-TAIWAN-+-點亮台灣-+-蔡英文-+-LIGHT-UP-TAIWAN-+-點亮台灣" transform="translate(753.000000, 304.000000)" sketch:type="MSShapeGroup">
                    <g id="蔡英文-+-LIGHT-UP-TAIWAN-+-點亮台灣" transform="translate(6.000000, 6.000000)">
                        <g id="蔡英文" transform="translate(104.485477, 119.086294)">
                            <path d="M40.7458299,2.77260914 L36.1526763,2.77260914 L36.1526763,1.15513706 C36.1526763,1.07457868 36.0874606,1.00873096 36.0061162,1.00873096 L34.9963237,1.00873096 C34.9156805,1.00873096 34.8497635,1.07457868 34.8497635,1.15513706 L34.8497635,2.77260914 L30.5371079,2.77260914 L30.5371079,1.15513706 C30.5371079,1.07457868 30.4711909,1.00873096 30.3905477,1.00873096 L29.3807552,1.00873096 C29.300112,1.00873096 29.234195,1.07457868 29.234195,1.15513706 L29.234195,2.77260914 L24.6417427,2.77260914 C24.5610996,2.77260914 24.4951826,2.83775635 24.4951826,2.91901523 L24.4951826,3.92704569 C24.4951826,4.00760406 24.5610996,4.07345178 24.6417427,4.07345178 L29.234195,4.07345178 L29.234195,5.69092386 C29.234195,5.77148223 29.300112,5.83662944 29.3807552,5.83662944 L30.3905477,5.83662944 C30.4711909,5.83662944 30.5371079,5.77148223 30.5371079,5.69092386 L30.5371079,4.07345178 L34.8497635,4.07345178 L34.8497635,5.69092386 C34.8497635,5.77148223 34.9156805,5.83662944 34.9963237,5.83662944 L36.0061162,5.83662944 C36.0874606,5.83662944 36.1526763,5.77148223 36.1526763,5.69092386 L36.1526763,4.07345178 L40.7458299,4.07345178 C40.826473,4.07345178 40.89239,4.00760406 40.89239,3.92704569 L40.89239,2.91901523 C40.89239,2.83775635 40.826473,2.77260914 40.7458299,2.77260914" id="Fill-45"></path>
                            <path d="M40.7458299,11.7650254 L38.0460373,11.7650254 L38.0460373,8.0313198 C38.0460373,7.90662944 37.9457593,7.80575635 37.8209378,7.80575635 L33.3420871,7.80575635 L33.3505021,6.00264975 C33.3505021,5.91158376 33.2768714,5.83803046 33.1857095,5.83732995 L32.213083,5.83592893 C32.1219212,5.83592893 32.0482905,5.90948223 32.0482905,6.00054822 L32.0454855,7.80575635 L27.7138963,7.80575635 C27.5890747,7.80575635 27.4880954,7.90662944 27.4880954,8.0313198 L27.4880954,11.7650254 L24.6417427,11.7650254 C24.5610996,11.7650254 24.4951826,11.8308731 24.4951826,11.9114315 L24.4951826,12.9194619 C24.4951826,13.0000203 24.5610996,13.065868 24.6417427,13.065868 L31.6464772,13.065868 C30.9361162,14.4752893 29.2384025,16.4276041 25.1922199,17.3655838 C25.1129793,17.3844975 25.0610871,17.4615533 25.0793195,17.5407107 C25.1333154,17.7837868 25.2434108,18.2776447 25.2981079,18.5235228 C25.3163402,18.6040812 25.3983859,18.6545178 25.479029,18.6356041 C29.9298299,17.6051574 31.8961203,15.4006599 32.7621577,13.7411574 C33.3652282,14.9712487 35.0994066,17.3746904 39.6911577,18.358203 C39.7710996,18.3750152 39.8517427,18.3231777 39.8678714,18.2433198 L40.0705311,17.2563046 C40.0866598,17.1778477 40.0347676,17.1014924 39.9562282,17.0846802 C35.6968672,16.1691168 34.2859627,13.9562132 33.8806432,13.065868 L40.7458299,13.065868 C40.826473,13.065868 40.89239,13.0000203 40.89239,12.9194619 L40.89239,11.9114315 C40.89239,11.8308731 40.826473,11.7650254 40.7458299,11.7650254 L40.7458299,11.7650254 Z M36.5951618,9.10659898 C36.6772075,9.10659898 36.7438257,9.17314721 36.7438257,9.2551066 L36.7438257,11.7650254 L33.324556,11.7650254 L33.3364772,9.10659898 L36.5951618,9.10659898 L36.5951618,9.10659898 Z M28.7910083,9.2551066 C28.7910083,9.17314721 28.8576266,9.10659898 28.9396722,9.10659898 L32.0433817,9.10659898 L32.0398755,11.7650254 L28.7910083,11.7650254 L28.7910083,9.2551066 L28.7910083,9.2551066 Z" id="Fill-46"></path>
                            <path d="M11.2605892,2.53863959 L11.2605892,0.832903553 L10.039722,0.832903553 L10.039722,2.53863959 L6.4626722,2.53863959 L6.4626722,0.832903553 L5.24250622,0.832903553 L5.24250622,2.53863959 L0.052593361,2.53863959 L0.052593361,3.75752284 L5.24250622,3.75752284 L5.24250622,5.1242132 L6.4626722,5.1242132 L6.4626722,3.75752284 L10.039722,3.75752284 L10.039722,5.1242132 L11.2605892,5.1242132 L11.2605892,3.75752284 L16.4498008,3.75752284 L16.4498008,2.53863959 L11.2605892,2.53863959" id="Fill-47"></path>
                            <path d="M7.99138589,6.91751269 L8.23261411,6.27234518 C8.23261411,6.27234518 8.30414108,6.09511675 8.12041494,6.09511675 L3.92276349,6.09511675 C4.15838174,5.66920812 4.2923195,5.34977665 4.35683402,5.18445685 C4.41293361,5.0415533 4.29442324,5.02193909 4.29442324,5.02193909 L3.32460166,4.7291269 C3.32460166,4.7291269 3.21941494,4.74313706 3.1906639,4.81458883 C3.02306639,5.23979695 2.29938174,6.79352284 0.266473029,8.59873096 C0.175311203,8.67928934 0.249643154,8.75144162 0.249643154,8.75144162 L0.918630705,9.522 C0.918630705,9.522 0.978236515,9.59765482 1.06308714,9.52270051 C1.99924896,8.7031066 2.68015768,7.92274112 3.176639,7.2495533 L6.27053112,7.2495533 C6.37431535,7.2495533 6.44023237,7.3602335 6.38904149,7.45059898 C6.12537344,7.91783756 5.746,8.51396954 5.23829876,9.15493401 L4.21798755,8.12588832 L3.35054772,8.98401015 L4.43397095,10.0775025 C4.22219502,10.300264 3.99639419,10.5237259 3.75306224,10.7450863 L2.65000415,9.6319797 L1.78256432,10.4901015 L2.80848548,11.5261523 C2.02659751,12.1124772 1.11988797,12.6560711 0.0687219917,13.0889848 C0.022439834,13.1078985 3.99194566e-14,13.1604365 0.0182323651,13.2066701 L0.405319502,14.1621624 C0.425655602,14.212599 0.484560166,14.2371168 0.535049793,14.2161015 C6.06015768,11.9415533 7.97245228,6.96794924 7.99138589,6.91751269" id="Fill-48"></path>
                            <path d="M13.0207137,10.5167208 L15.1503942,6.45727919 C15.2366473,6.2926599 15.1167344,6.09511675 14.9309046,6.09511675 L9.01099585,6.09511675 C8.8553195,6.09511675 8.91702905,6.27164467 8.91702905,6.27164467 L9.11828631,6.89229442 C9.49976349,8.0684467 11.1105228,12.0459289 15.820083,13.8665482 L16.261166,12.7296244 C14.7955643,12.2658883 13.3306639,10.9202132 13.0361411,10.6400102 C13.0010788,10.6063858 12.9982739,10.5594518 13.0207137,10.5167208 L13.0207137,10.5167208 Z M11.9555228,9.58014213 C11.3440373,8.81098477 10.9274979,8.06004061 10.6533112,7.46390863 C10.6203527,7.39175635 10.6764523,7.314 10.7556929,7.314 L13.1427303,7.314 C13.2247759,7.314 13.276668,7.40086294 13.2388008,7.47301523 L12.1413527,9.56403046 C12.104888,9.63408122 12.00461,9.6417868 11.9555228,9.58014213 L11.9555228,9.58014213 Z" id="Fill-49"></path>
                            <path d="M6.27754357,10.579066 L6.27754357,11.6032081 C6.27754357,11.6571472 6.32102075,11.7005787 6.3750166,11.7005787 L10.2648216,11.7005787 C10.3188174,11.7005787 10.3622946,11.6571472 10.3622946,11.6032081 L10.3622946,10.579066 C10.3622946,10.5251269 10.3188174,10.4809949 10.2648216,10.4809949 L6.3750166,10.4809949 C6.32102075,10.4809949 6.27754357,10.5251269 6.27754357,10.579066" id="Fill-50"></path>
                            <path d="M12.5340498,14.3386904 C12.5880456,14.3386904 12.6315228,14.2952589 12.6315228,14.2413198 L12.6315228,13.2171777 C12.6315228,13.1632386 12.5880456,13.1198071 12.5340498,13.1198071 L4.22710373,13.1198071 C4.17310788,13.1198071 4.12892946,13.1632386 4.12892946,13.2171777 L4.12892946,14.2413198 C4.12892946,14.2952589 4.17310788,14.3386904 4.22710373,14.3386904 L7.78732365,14.3386904 L7.78732365,17.436335 C7.78732365,17.524599 7.71579668,17.5960508 7.62673859,17.5960508 L6.79295851,17.5960508 C6.70460166,17.5960508 6.63307469,17.668203 6.63307469,17.756467 L6.63307469,18.6552183 C6.63307469,18.7441827 6.70460166,18.8156345 6.79295851,18.8156345 L8.46753112,18.8156345 C8.76626141,18.8156345 9.00748963,18.5739594 9.00748963,18.2755431 L9.00748963,14.3386904 L12.5340498,14.3386904" id="Fill-51"></path>
                            <path d="M15.2450622,17.6934213 L11.6336515,15.3943553 C11.5775519,15.3586294 11.5039212,15.3747411 11.4681577,15.4307817 L10.9408216,16.2573807 C10.9050581,16.3127208 10.921888,16.3876751 10.9779876,16.4227005 L14.5893983,18.7217665 C14.6454979,18.7574924 14.7191286,18.7413807 14.7548921,18.6853401 L15.2822282,17.8587411 C15.3179917,17.803401 15.3011618,17.7291472 15.2450622,17.6934213" id="Fill-52"></path>
                            <path d="M4.72078008,15.2122234 C4.68431535,15.1568832 4.60928216,15.1421726 4.55458506,15.178599 L0.856921162,17.6429848 C0.802224066,17.6801117 0.78679668,17.7543655 0.823962656,17.8097056 L1.36812863,18.6243959 C1.40459336,18.679736 1.47962656,18.6944467 1.53432365,18.6580203 L5.23198755,16.1936345 C5.28668465,16.1565076 5.30211203,16.0822538 5.26494606,16.0269137 L4.72078008,15.2122234" id="Fill-53"></path>
                            <path d="M64.1954564,4.1953401 L48.8557261,4.1953401 C48.772278,4.1953401 48.7042573,4.26258883 48.7042573,4.34594924 L48.7042573,5.38340102 C48.7042573,5.46676142 48.772278,5.53471066 48.8557261,5.53471066 L64.1954564,5.53471066 C64.2789046,5.53471066 64.3462241,5.46676142 64.3462241,5.38340102 L64.3462241,4.34594924 C64.3462241,4.26258883 64.2789046,4.1953401 64.1954564,4.1953401" id="Fill-54"></path>
                            <path d="M56.0063195,2.84966497 L57.0441618,2.84966497 C57.12761,2.84966497 57.1949295,2.78171574 57.1949295,2.69835533 L57.1949295,0.655675127 C57.1949295,0.572314721 57.12761,0.50506599 57.0441618,0.50506599 L56.0063195,0.50506599 C55.9228714,0.50506599 55.8548506,0.572314721 55.8548506,0.655675127 L55.8548506,2.69835533 C55.8548506,2.78171574 55.9228714,2.84966497 56.0063195,2.84966497" id="Fill-55"></path>
                            <path d="M64.0643237,16.6944975 C61.550361,15.6052081 59.3442448,14.1292386 57.457195,12.2855025 C58.7054108,10.9146091 59.8070664,9.37559391 60.7509419,7.66985787 C60.7923154,7.59560406 60.7649668,7.50243655 60.6906349,7.46180711 L59.7797178,6.96584772 C59.7067884,6.92591878 59.617029,6.95323858 59.5763568,7.02539086 C58.6998008,8.60853807 57.6794896,10.0382741 56.5252407,11.316 C55.3709917,10.0382741 54.3506805,8.60853807 53.4741245,7.02539086 C53.4341535,6.95323858 53.3436929,6.92591878 53.2714647,6.96584772 L52.3598465,7.46180711 C52.2862158,7.50243655 52.2588672,7.59560406 52.2995394,7.66985787 C53.2441162,9.37559391 54.3450705,10.9146091 55.5939876,12.2855025 C53.7062365,14.1292386 51.5001203,15.6052081 48.9861577,16.6944975 C48.9104232,16.7274213 48.8746598,16.8142843 48.9076183,16.8906396 L49.3143402,17.844731 C49.3472988,17.9217868 49.4384606,17.9582132 49.5155975,17.9245888 C52.1831328,16.7687513 54.523888,15.2038173 56.5252407,13.2501015 C58.5272946,15.2038173 60.8680498,16.7687513 63.5355851,17.9245888 C63.612722,17.9582132 63.7031826,17.9217868 63.7361411,17.844731 L64.1435643,16.8906396 C64.1758216,16.8142843 64.1400581,16.7274213 64.0643237,16.6944975" id="Fill-56"></path>
                        </g>
                        <g id="LIGHT-UP-TAIWAN" transform="translate(0.000000, 60.944162)">
                            <path d="M0.440381743,10.2442234 L0.440381743,0.464436548 L2.3519751,0.464436548 L2.3519751,8.54058883 L6.79295851,8.54058883 L6.79295851,10.2442234 L0.440381743,10.2442234" id="Fill-32"></path>
                            <path d="M12.4758465,0.464436548 L14.3874398,0.464436548 L14.3874398,10.2435228 L12.4758465,10.2435228 L12.4758465,0.464436548 Z" id="Fill-33"></path>
                            <path d="M26.8331328,9.21377665 C26.0491411,10.024264 25.1136805,10.3261827 24.0688257,10.3261827 C22.9966224,10.3261827 22.1165602,9.94160406 21.4293402,9.2551066 C20.4391826,8.26598985 20.4665311,7.04360406 20.4665311,5.3539797 C20.4665311,3.66435533 20.4391826,2.44196954 21.4293402,1.4535533 C22.1165602,0.76635533 22.9692739,0.38177665 24.0688257,0.38177665 C26.3380539,0.38177665 27.4930041,1.86545178 27.7538672,3.51374619 L25.8289502,3.51374619 C25.6087593,2.59327919 25.0449585,2.08541117 24.0688257,2.08541117 C23.5463983,2.08541117 23.1200415,2.29136041 22.8451535,2.60728934 C22.474195,3.01918782 22.3781245,3.47241624 22.3781245,5.3539797 C22.3781245,7.23624365 22.474195,7.70278173 22.8451535,8.1146802 C23.1200415,8.43060914 23.5463983,8.62324873 24.0688257,8.62324873 C24.6466515,8.62324873 25.1136805,8.41729949 25.4306432,8.07335025 C25.7462033,7.71679188 25.8703237,7.2768731 25.8703237,6.76900508 L25.8703237,6.39773604 L24.0688257,6.39773604 L24.0688257,4.80478173 L27.7678921,4.80478173 L27.7678921,6.23311675 C27.7678921,7.64744162 27.5203527,8.49925888 26.8331328,9.21377665" id="Fill-34"></path>
                            <path d="M39.0600373,10.2442234 L39.0600373,6.15045685 L35.7466556,6.15045685 L35.7466556,10.2442234 L33.8357635,10.2442234 L33.8357635,0.464436548 L35.7466556,0.464436548 L35.7466556,4.46153299 L39.0600373,4.46153299 L39.0600373,0.464436548 L40.9716307,0.464436548 L40.9716307,10.2442234 L39.0600373,10.2442234" id="Fill-35"></path>
                            <path d="M51.1228506,2.16737056 L51.1228506,10.2442234 L49.2119585,10.2442234 L49.2119585,2.16737056 L46.6545187,2.16737056 L46.6545187,0.464436548 L53.6809917,0.464436548 L53.6809917,2.16737056 L51.1228506,2.16737056" id="Fill-36"></path>
                            <path d="M70.1314938,10.3261827 C68.1245311,10.3261827 66.5291992,8.96649746 66.5291992,6.89229442 L66.5291992,0.464436548 L68.4400913,0.464436548 L68.4400913,6.82364467 C68.4400913,7.95006091 69.0999627,8.62324873 70.1314938,8.62324873 C71.1630249,8.62324873 71.8362199,7.95006091 71.8362199,6.82364467 L71.8362199,0.464436548 L73.7344896,0.464436548 L73.7344896,6.89229442 C73.7344896,8.96649746 72.1391577,10.3261827 70.1314938,10.3261827" id="Fill-37"></path>
                            <path d="M83.789639,6.56305584 L81.9060954,6.56305584 L81.9060954,10.2442234 L79.9945021,10.2442234 L79.9945021,0.464436548 L83.789639,0.464436548 C85.8113278,0.464436548 87.0209751,1.85214213 87.0209751,3.51374619 C87.0209751,5.17535025 85.8113278,6.56305584 83.789639,6.56305584 L83.789639,6.56305584 Z M83.6935685,2.16737056 L81.9060954,2.16737056 L81.9060954,4.84611168 L83.6935685,4.84611168 C84.5596058,4.84611168 85.110083,4.31022335 85.110083,3.51374619 C85.110083,2.71656853 84.5596058,2.16737056 83.6935685,2.16737056 L83.6935685,2.16737056 Z" id="Fill-38"></path>
                            <path d="M103.81649,2.16737056 L103.81649,10.2442234 L101.904896,10.2442234 L101.904896,2.16737056 L99.3474564,2.16737056 L99.3474564,0.464436548 L106.373228,0.464436548 L106.373228,2.16737056 L103.81649,2.16737056" id="Fill-39"></path>
                            <path d="M116.798635,10.2442234 L116.220809,8.51326904 L112.741934,8.51326904 L112.151485,10.2442234 L110.157145,10.2442234 L113.718768,0.464436548 L115.217328,0.464436548 L118.791573,10.2442234 L116.798635,10.2442234 L116.798635,10.2442234 Z M114.516083,3.3491269 L113.278386,6.90630457 L115.712407,6.90630457 L114.516083,3.3491269 L114.516083,3.3491269 Z" id="Fill-40"></path>
                            <path d="M124.130851,0.464436548 L126.042444,0.464436548 L126.042444,10.2435228 L124.130851,10.2435228 L124.130851,0.464436548 Z" id="Fill-41"></path>
                            <path d="M140.798739,10.2442234 L139.204108,10.2442234 L137.40261,4.31022335 L135.601112,10.2442234 L134.006481,10.2442234 L131.393643,0.464436548 L133.387983,0.464436548 L134.899867,6.63170558 L136.688041,0.464436548 L138.11788,0.464436548 L139.905353,6.63170558 L141.43056,0.464436548 L143.4249,0.464436548 L140.798739,10.2442234" id="Fill-42"></path>
                            <path d="M154.125195,10.2442234 L153.548071,8.51326904 L150.069195,8.51326904 L149.478046,10.2442234 L147.483705,10.2442234 L151.046029,0.464436548 L152.543888,0.464436548 L156.118834,10.2442234 L154.125195,10.2442234 L154.125195,10.2442234 Z M151.842643,3.3491269 L150.605647,6.90630457 L153.038967,6.90630457 L151.842643,3.3491269 L151.842643,3.3491269 Z" id="Fill-43"></path>
                            <path d="M167.246888,10.2442234 L163.369705,4.2415736 L163.369705,10.2442234 L161.458112,10.2442234 L161.458112,0.464436548 L163.163539,0.464436548 L167.040722,6.45307614 L167.040722,0.464436548 L168.952315,0.464436548 L168.952315,10.2442234 L167.246888,10.2442234" id="Fill-44"></path>
                        </g>
                        <g id="點亮台灣" transform="translate(129.029046, 0.000000)">
                            <path d="M0.264369295,13.112802 L0.379373444,14.0038477 L9.74169295,12.7975736 L9.6266888,11.9065279 L5.75792116,12.4052893 L5.75792116,10.7450863 L9.52290456,10.7450863 L9.52290456,9.84633503 L5.75792116,9.84633503 L5.75792116,8.0502335 L9.35390456,8.0502335 L9.35390456,1.70713706 L1.26224066,1.70713706 L1.26224066,8.0502335 L4.85892531,8.0502335 L4.85892531,9.84633503 L1.09394191,9.84633503 L1.09394191,10.7450863 L4.85892531,10.7450863 L4.85892531,12.5208731 L0.264369295,13.112802 L0.264369295,13.112802 Z M5.75792116,2.60518782 L8.45490871,2.60518782 L8.45490871,7.15218274 L5.75792116,7.15218274 L5.75792116,2.60518782 Z M2.16123651,2.60518782 L4.85822407,2.60518782 L4.85822407,7.15218274 L2.16123651,7.15218274 L2.16123651,2.60518782 Z" id="Fill-1"></path>
                            <path d="M3.47466805,3.60691371 L2.63597925,3.93124873 L3.49851037,6.15115736 L4.33649793,5.82682234 L3.47466805,3.60691371" id="Fill-2"></path>
                            <path d="M7.1183361,6.15115736 L7.98016598,3.93124873 L7.14147718,3.60691371 L6.2796473,5.82682234 L7.1183361,6.15115736" id="Fill-3"></path>
                            <path d="M0.0546970954,18.8807817 L0.830273859,19.3347107 C1.97190041,17.389401 2.16754772,15.2787716 2.16895021,15.2577563 L1.27275934,15.1870051 C1.27135685,15.2052183 1.07781328,17.1365178 0.0546970954,18.8807817" id="Fill-4"></path>
                            <path d="M3.56021992,15.4041624 C3.8119668,16.2608832 4.00200415,17.521797 4.08124481,18.8625685 L4.97883817,18.8093299 C4.89539004,17.4041117 4.69273029,16.0703452 4.42345228,15.1512792 L3.56021992,15.4041624" id="Fill-5"></path>
                            <path d="M5.91570124,15.1400711 C6.20882158,16.0171066 6.46828216,17.3186497 6.59310373,18.5368325 L7.48719087,18.4457665 C7.3546556,17.1470254 7.08607884,15.8048528 6.76841494,14.855665 L5.91570124,15.1400711" id="Fill-6"></path>
                            <path d="M8.3420083,14.7589949 C8.60217012,15.504335 8.9366639,16.5410863 9.21155187,17.9589137 L10.0944191,17.7879898 C9.8083112,16.3134213 9.46119502,15.2367411 9.19121577,14.4626802 L8.3420083,14.7589949" id="Fill-7"></path>
                            <path d="M17.3936763,5.66500508 L17.3936763,4.76625381 L14.0220913,4.76625381 L14.0220913,1.65109645 L13.1230954,1.65109645 L13.1230954,10.7163655 L11.0810705,10.7163655 L11.0810705,17.5372081 L16.9722282,17.5372081 L16.9722282,10.7163655 L14.0220913,10.7163655 L14.0220913,5.66500508 L17.3936763,5.66500508 L17.3936763,5.66500508 Z M11.9800664,11.6151168 L16.0732324,11.6151168 L16.0732324,16.6391574 L11.9800664,16.6391574 L11.9800664,11.6151168 Z" id="Fill-8"></path>
                            <path d="M38.0081701,2.70886294 L31.2923485,2.70886294 L31.2923485,0.640964467 L30.3926515,0.640964467 L30.3926515,2.70886294 L23.6768299,2.70886294 L23.6768299,3.60691371 L38.0081701,3.60691371 L38.0081701,2.70886294" id="Fill-9"></path>
                            <path d="M27.0203651,8.69610152 L34.7571992,8.69610152 L34.7571992,4.89794924 L27.0203651,4.89794924 L27.0203651,8.69610152 Z M27.919361,5.796 L33.8575021,5.796 L33.8575021,7.79805076 L27.919361,7.79805076 L27.919361,5.796 Z" id="Fill-10"></path>
                            <path d="M23.9804689,11.0491066 L37.9050871,11.0491066 L37.9050871,12.8802335 L38.804083,12.8802335 L38.804083,10.1510558 L23.081473,10.1510558 L23.081473,12.8802335 L23.9804689,12.8802335 L23.9804689,11.0491066" id="Fill-11"></path>
                            <path d="M22.5015436,18.3154721 L22.7006971,19.1918071 C28.3877925,17.8993706 29.0862324,13.9078782 29.1226971,12.2511777 L28.2237012,12.2315635 C28.1837303,14.0269645 27.3885187,17.2051675 22.5015436,18.3154721" id="Fill-12"></path>
                            <path d="M38.6631328,16.0255127 L38.2276598,17.200264 C38.1666515,17.3613807 38.0109751,17.4699594 37.8384689,17.4699594 L33.8126224,17.4699594 C33.5412407,17.4699594 33.3203485,17.248599 33.3203485,16.976802 L33.3203485,12.186731 L32.4213527,12.186731 L32.4213527,16.976802 C32.4213527,17.7438579 33.0454606,18.3680102 33.8126224,18.3680102 L37.8384689,18.3680102 C38.3826349,18.3680102 38.8770124,18.0261624 39.0698548,17.5147919 L39.506029,16.3372386 L38.6631328,16.0255127" id="Fill-13"></path>
                            <path d="M15.6658091,37.4351269 C14.2871618,35.3118883 12.6518589,33.1942538 11.867166,32.3732589 L11.2164108,32.9932081 C11.5565145,33.349066 12.0691245,33.9697157 12.6483527,34.7248629 L3.75516598,35.8456751 L7.18214938,29.3750863 L6.38693776,28.9554822 L2.66543154,35.9836751 L0.172506224,36.2975025 L0.284705394,37.1885482 L13.2689544,35.5514619 C13.8103154,36.2890964 14.3790249,37.1030863 14.9112697,37.9233807 L15.6658091,37.4351269" id="Fill-14"></path>
                            <path d="M2.70119502,47.380934 L3.60019087,47.380934 L3.60019087,46.1648528 L12.1224191,46.1648528 L12.1224191,47.380934 L13.0221162,47.380934 L13.0221162,40.0459188 L2.70119502,40.0459188 L2.70119502,47.380934 L2.70119502,47.380934 Z M3.60019087,40.9439695 L12.1224191,40.9439695 L12.1224191,45.2661015 L3.60019087,45.2661015 L3.60019087,40.9439695 Z" id="Fill-15"></path>
                            <path d="M22.6396888,29.9845279 L24.9502905,32.3298274 L25.5828133,31.7084772 L23.2722116,29.3624772 L22.6396888,29.9845279" id="Fill-16"></path>
                            <path d="M24.9355643,36.3815635 L22.6249627,34.0355635 L21.9924398,34.6576142 L24.3037427,37.0036142 L24.9355643,36.3815635" id="Fill-17"></path>
                            <path d="M24.1263278,40.2133401 C23.7721992,41.582132 23.1796473,43.8734924 21.8760332,47.2261218 L22.7035021,47.5469543 C24.0253485,44.1466904 24.6501577,41.7320406 24.9860539,40.4347005 C25.0603859,40.1474924 25.1220954,39.9079188 25.1760913,39.7166802 L24.3219751,39.4764061 C24.2665768,39.6725482 24.2027635,39.9177259 24.1263278,40.2133401" id="Fill-18"></path>
                            <path d="M25.7553195,39.1513706 L26.4053734,39.2942741 C26.6816639,38.041066 26.8695975,36.7717462 26.8717012,36.7591371 L26.2132324,36.662467 C26.2111286,36.6750761 26.0267012,37.9205787 25.7553195,39.1513706" id="Fill-19"></path>
                            <path d="M27.7419461,36.8123756 L27.7650871,36.9980102 C27.813473,37.3699797 27.9144523,38.1440406 27.9474108,39.0736142 L28.6135934,39.0490964 C28.5778299,38.089401 28.4747469,37.2943249 28.4256598,36.9118477 L28.4032199,36.7381218 L27.7419461,36.8123756" id="Fill-20"></path>
                            <path d="M29.2762697,36.6932893 C29.3982863,36.9917056 29.7720498,38.2890457 29.8491867,38.9608325 L30.5111618,38.8844772 C30.4242075,38.134934 30.0322116,36.7829543 29.8926639,36.4418071 L29.2762697,36.6932893" id="Fill-21"></path>
                            <path d="M35.4374066,36.6680711 C35.1877635,38.1118173 35.0033361,38.735269 34.8925394,39.0035635 L35.5075311,39.2571472 C35.6898548,38.8151269 35.8812946,38.0053401 36.0930705,36.7815533 L36.1099004,36.6883858 L35.4563402,36.5573909 L35.4374066,36.6680711" id="Fill-22"></path>
                            <path d="M37.1694813,39.004264 L37.8349627,38.9797462 C37.8146266,38.4438579 37.7199585,37.6382741 37.5530622,36.5847107 L36.8959959,36.6883858 C37.0586846,37.7160305 37.151249,38.4949949 37.1694813,39.004264" id="Fill-23"></path>
                            <path d="M39.107722,36.3927716 L38.4759004,36.6036244 C38.6245643,37.0470457 38.872805,37.7895838 39.133668,38.914599 L39.7816183,38.7646904 C39.5137427,37.6088528 39.2598921,36.847401 39.107722,36.3927716" id="Fill-24"></path>
                            <path d="M26.2868631,36.0467208 L29.5792075,35.3146904 L29.8765353,36.0425178 L30.4929295,35.7910355 L29.6612531,33.7588629 L29.0448589,34.0103452 L29.3232531,34.6905381 L27.2531784,35.1507716 C28.8548216,33.2467919 30.0244979,31.2601523 30.079195,31.1669848 L29.5055768,30.8307411 C29.4992656,30.8412487 29.2447137,31.2720609 28.8225643,31.9123249 L27.03439,32.2765888 C27.8120705,30.7494822 28.5203278,29.2006599 28.5280415,29.1831472 L27.922166,28.9078477 C27.913751,28.9260609 27.0561286,30.8027208 26.1971037,32.4524162 L26.2055187,32.4566193 L26.3359502,33.0975838 L28.2875145,32.7003959 C27.7124938,33.5220914 26.974083,34.5007005 26.1627427,35.3875431 L26.1676515,35.3924467 L26.1424066,35.3980508 L26.2868631,36.0467208" id="Fill-25"></path>
                            <path d="M35.4942075,36.0467208 L38.7865519,35.3146904 L39.0845809,36.0425178 L39.7009751,35.7910355 L38.8692988,33.7588629 L38.2529046,34.0103452 L38.5312988,34.6905381 L36.4605228,35.1507716 C38.062166,33.2467919 39.2325436,31.2601523 39.2872407,31.1669848 L38.7129212,30.8307411 C38.70661,30.8412487 38.4527593,31.2720609 38.0299087,31.9123249 L36.2417344,32.2765888 C37.0194149,30.7494822 37.7276722,29.2006599 37.7353859,29.1831472 L37.1302116,28.9078477 C37.1210954,28.9260609 36.2641743,30.8027208 35.4044481,32.4524162 L35.4128631,32.4566193 L35.5439959,33.0975838 L37.4955602,32.7003959 C36.9205394,33.5220914 36.1821286,34.5007005 35.3700871,35.3875431 L35.3749959,35.3924467 L35.3504523,35.3980508 L35.4942075,36.0467208" id="Fill-26"></path>
                            <path d="M35.1590124,30.542132 L33.1478423,30.542132 L33.1478423,28.8518071 L32.482361,28.8518071 L32.482361,30.542132 L30.4992407,30.542132 L30.4992407,31.2069137 L35.1590124,31.2069137 L35.1590124,30.542132" id="Fill-27"></path>
                            <path d="M31.1787469,32.1483959 L34.4654813,32.1483959 L34.4654813,32.8131777 L31.1787469,32.8131777 L31.1787469,32.1483959 Z" id="Fill-28"></path>
                            <path d="M31.1787469,33.7140305 L34.4654813,33.7140305 L34.4654813,34.3788122 L31.1787469,34.3788122 L31.1787469,33.7140305 Z" id="Fill-29"></path>
                            <path d="M31.2902448,38.728264 L34.3687095,38.728264 L34.3687095,35.7083756 L31.2902448,35.7083756 L31.2902448,38.728264 Z M31.9557261,36.3738579 L33.7032282,36.3738579 L33.7032282,38.0641827 L31.9557261,38.0641827 L31.9557261,36.3738579 Z" id="Fill-30"></path>
                            <path d="M38.3251328,43.9484467 L28.1753154,43.9484467 L28.4495021,42.7856041 C28.460722,42.7393706 28.5020954,42.7071472 28.5490788,42.7071472 L37.9913402,42.7071472 L37.9913402,39.8616853 L27.1017095,39.8616853 L27.1017095,40.6154315 L37.2360996,40.6154315 L37.2360996,41.953401 L27.9523195,41.953401 C27.9046349,41.953401 27.8639627,41.9863249 27.8527427,42.0325584 L27.2475685,44.5922132 C27.2342448,44.6482538 27.2770207,44.7014924 27.3338216,44.7014924 L37.8419751,44.7014924 L37.3581162,46.7259594 C37.3286639,46.7490761 37.309029,46.7644873 37.2788755,46.7883046 L33.6892033,46.7883046 L33.6892033,47.5413503 L37.2788755,47.5413503 C37.6659627,47.5413503 38.0025602,47.2765584 38.0923195,46.9003858 L38.666639,44.4997462 C38.6995975,44.3659492 38.7185311,44.209736 38.6336805,44.1018579 C38.6336805,44.1018579 38.563556,43.9484467 38.3251328,43.9484467" id="Fill-31"></path>
                        </g>
                    </g>
                </g>
            </g>
        </g>
    </g>
</svg>