<?xml version="1.0" encoding="UTF-8" standalone="no"?>
<svg width="256px" height="256px" viewBox="0 0 256 256" version="1.1" xmlns="http://www.w3.org/2000/svg" xmlns:xlink="http://www.w3.org/1999/xlink" xmlns:sketch="http://www.bohemiancoding.com/sketch/ns">
    <!-- Generator: Sketch 3.3.2 (12043) - http://www.bohemiancoding.com/sketch -->
    <title>logo-donate-256</title>
    <desc>Created with Sketch.</desc>
    <defs></defs>
    <g id="跨站" stroke="none" stroke-width="1" fill="none" fill-rule="evenodd" sketch:type="MSPage">
        <g id="logo-donate" sketch:type="MSLayerGroup">
            <g id="logo2" transform="translate(28.000000, 29.000000)" sketch:type="MSShapeGroup">
                <circle id="Oval-17" opacity="0.9" fill="#55B36C" cx="189" cy="102" r="10"></circle>
                <circle id="Oval-17" opacity="0.7" fill="#55B36C" cx="113" cy="5" r="5"></circle>
                <circle id="Oval-17" fill="#55B36C" cx="62.5" cy="16.5" r="3.5"></circle>
                <circle id="Oval-17" opacity="0.6" fill="#55B36C" cx="26" cy="45" r="5"></circle>
                <circle id="Oval-17" fill="#55B36C" cx="13" cy="93" r="5"></circle>
                <circle id="Oval-17" fill="#55B36C" cx="47.5" cy="184.5" r="3.5"></circle>
                <circle id="Oval-17" opacity="0.7" fill="#88C8AB" cx="126.5" cy="174.5" r="3.5"></circle>
                <circle id="Oval-17" fill="#88C8AB" cx="4.5" cy="126.5" r="3.5"></circle>
                <circle id="Oval-17" fill="#E7E879" cx="127.5" cy="14.5" r="4.5"></circle>
                <circle id="Oval-17" opacity="0.3" fill="#55B36C" cx="82" cy="187" r="6"></circle>
                <circle id="Oval-17" fill="#55B36C" cx="190.5" cy="60.5" r="3.5"></circle>
                <circle id="Oval-17" fill="#A7CD6B" cx="108" cy="187" r="11"></circle>
                <circle id="Oval-17" fill="#A7CD6B" cx="147" cy="19" r="6"></circle>
                <circle id="Oval-17" fill="#A7CD6B" cx="184" cy="143" r="5"></circle>
                <circle id="Oval-17" fill="#A7CD6B" cx="45" cy="170" r="5"></circle>
                <circle id="Oval-17" fill="#E7E879" cx="11.5" cy="111.5" r="5.5"></circle>
                <circle id="Oval-17" fill="#88C8AB" cx="18" cy="132" r="7"></circle>
                <circle id="Oval-17" opacity="0.2" fill="#81BF63" cx="16" cy="65" r="8"></circle>
                <circle id="Oval-17" opacity="0.8" fill="#E7E879" cx="169" cy="153" r="9"></circle>
                <circle id="Oval-17" fill="#E7E879" cx="63.5" cy="180.5" r="4.5"></circle>
                <circle id="Oval-17" fill="#88C8AB" cx="29" cy="153" r="8"></circle>
                <circle id="Oval-17" fill="#88C8AB" cx="194.5" cy="123.5" r="4.5"></circle>
                <circle id="Oval-17" fill="#88C8AB" cx="103" cy="16" r="3"></circle>
                <circle id="Oval-17" fill="#88C8AB" cx="182" cy="38" r="3"></circle>
                <circle id="Oval-17" fill="#A7CD6B" cx="138" cy="187" r="3"></circle>
                <circle id="Oval-17" opacity="0.3" fill="#55B36C" cx="161" cy="171" r="4"></circle>
                <circle id="Oval-17" fill="#E7E879" cx="4.5" cy="79.5" r="4.5"></circle>
                <circle id="Oval-17" fill="#E7E879" cx="146" cy="175" r="7"></circle>
                <circle id="Oval-17" fill="#88C8AB" cx="191" cy="78" r="6"></circle>
                <circle id="Oval-17" fill="#E7E879" cx="180.5" cy="50.5" r="4.5"></circle>
                <circle id="Oval-17" opacity="0.6" fill="#55B36C" cx="43.5" cy="28.5" r="11.5"></circle>
                <circle id="Oval-17" fill="#E7E879" cx="164.5" cy="35.5" r="11.5"></circle>
                <circle id="Oval-17" opacity="0.9" fill="#E7E879" cx="83.5" cy="10.5" r="9.5"></circle>
            </g>
        </g>
    </g>
</svg>