<?xml version="1.0" encoding="UTF-8" standalone="no"?>
<svg width="256px" height="256px" viewBox="0 0 256 256" version="1.1" xmlns="http://www.w3.org/2000/svg" xmlns:xlink="http://www.w3.org/1999/xlink" xmlns:sketch="http://www.bohemiancoding.com/sketch/ns">
    <!-- Generator: Sketch 3.3.2 (12043) - http://www.bohemiancoding.com/sketch -->
    <title>logo-melody-256</title>
    <desc>Created with Sketch.</desc>
    <defs></defs>
    <g id="跨站" stroke="none" stroke-width="1" fill="none" fill-rule="evenodd" sketch:type="MSPage">
        <g id="logo-melody" sketch:type="MSLayerGroup">
            <g id="logo-copy" transform="translate(38.000000, 59.000000)" sketch:type="MSShapeGroup">
                <rect id="Rectangle-30" fill="#E7E879" x="48" y="64" width="94" height="10" rx="6"></rect>
                <rect id="Rectangle-30" fill="#88C8AB" x="0" y="96" width="73" height="10" rx="6"></rect>
                <rect id="Rectangle-30" fill="#E7E879" x="136" y="96" width="43" height="10" rx="6"></rect>
                <rect id="Rectangle-30" fill="#81BF63" x="98" y="96" width="39" height="10" rx="6"></rect>
                <rect id="Rectangle-30" fill="#E7E879" x="31" y="0" width="73" height="10" rx="6"></rect>
                <rect id="Rectangle-30" fill="#E7E879" x="27" y="128" width="29" height="10" rx="6"></rect>
                <rect id="Rectangle-30-Copy-2" fill="#E7E879" x="114" y="128" width="29" height="10" rx="6"></rect>
                <rect id="Rectangle-30-Copy-5" fill="#88C8AB" x="75" y="0" width="43" height="10" rx="6"></rect>
                <rect id="Rectangle-30-Copy" fill="#81BF63" x="0" y="32" width="29" height="10" rx="6"></rect>
                <rect id="Rectangle-30-Copy-8" fill="#55B36C" x="67" y="32" width="113" height="10" rx="6"></rect>
                <circle id="Oval-2" fill="#88C8AB" cx="66" cy="133" r="5"></circle>
                <circle id="Oval-2-Copy" fill="#88C8AB" cx="153" cy="133" r="5"></circle>
            </g>
        </g>
    </g>
</svg>