<?xml version="1.0" encoding="UTF-8" standalone="no"?>
<svg width="256px" height="256px" viewBox="0 0 256 256" version="1.1" xmlns="http://www.w3.org/2000/svg" xmlns:xlink="http://www.w3.org/1999/xlink" xmlns:sketch="http://www.bohemiancoding.com/sketch/ns">
    <!-- Generator: Sketch 3.3.2 (12043) - http://www.bohemiancoding.com/sketch -->
    <title>logo-hope-256</title>
    <desc>Created with Sketch.</desc>
    <defs></defs>
    <g id="跨站" stroke="none" stroke-width="1" fill="none" fill-rule="evenodd" sketch:type="MSPage">
        <g id="logo-hope" sketch:type="MSLayerGroup">
            <g id="logo-copy-2" transform="translate(43.000000, 45.000000)" sketch:type="MSShapeGroup">
                <path d="M70,82 C92.6436747,82 111,63.6436747 111,41 C111,18.3563253 92.6436747,0 70,0 C47.3563253,0 29,18.3563253 29,41 C29,63.6436747 47.3563253,82 70,82 L70,82 Z M70.5,74 C52.5507456,74 38,59.4492544 38,41.5 C38,23.5507456 52.5507456,9 70.5,9 C88.4492544,9 103,23.5507456 103,41.5 C103,59.4492544 88.4492544,74 70.5,74 L70.5,74 Z" id="Shape" fill="#E7E879"></path>
                <circle id="Oval-53" fill="#E7E879" cx="112" cy="85" r="6"></circle>
                <path d="M152,121.00335 L152,75.9966502 C152,73.7893612 150.209139,72 148,72 C145.790861,72 144,73.7893612 144,75.9966502 L144,121.00335 C144,123.210639 145.790861,125 148,125 C150.209139,125 152,123.210639 152,121.00335 L152,121.00335 Z" id="Shape" fill="#88C8AB"></path>
                <path d="M116,121.949075 L116,101.050925 C116,98.8136609 114.209139,97 112,97 C109.790861,97 108,98.8136609 108,101.050925 L108,121.949075 C108,124.186339 109.790861,126 112,126 C114.209139,126 116,124.186339 116,121.949075 L116,121.949075 Z" id="Shape" fill="#81BF63"></path>
                <path d="M74,121.97715 L74,49.0228498 C74,46.8010912 72.209139,45 70,45 C67.790861,45 66,46.8010912 66,49.0228498 L66,121.97715 C66,124.198909 67.790861,126 70,126 C72.209139,126 74,124.198909 74,121.97715 L74,121.97715 Z" id="Shape" fill="#81BF63"></path>
                <path d="M28,121.948538 L28,93.0514616 C28,90.8139012 26.209139,89 24,89 C21.790861,89 20,90.8139012 20,93.0514616 L20,121.948538 C20,124.186099 21.790861,126 24,126 C26.209139,126 28,124.186099 28,121.948538 L28,121.948538 Z" id="Shape" fill="#88C8AB"></path>
                <g id="Shape-Copy-+-Shape-Copy-2-+-Shape" transform="translate(0.000000, 121.000000)">
                    <path d="M63,10 L135,10 C137.761424,10 140,7.76142375 140,5 C140,2.23857625 137.761424,0 135,0 L63,0 C60.2385763,0 58,2.23857625 58,5 C58,7.76142375 60.2385763,10 63,10 L63,10 Z" id="Shape-Copy" fill="#E7E879"></path>
                    <path d="M164,10 C166.761424,10 169,7.76142375 169,5 C169,2.23857625 166.761424,0 164,0 L128,0 C125.238576,0 123,2.23857625 123,5 C123,7.76142375 125.238576,10 128,10 L164,10 Z" id="Shape-Copy-2" fill="#81BF63"></path>
                    <path d="M5,10 L77,10 C79.7614237,10 82,7.76142375 82,5 C82,2.23857625 79.7614237,0 77,0 L5,0 C2.23857625,0 0,2.23857625 0,5 C0,7.76142375 2.23857625,10 5,10 L5,10 Z" id="Shape" fill="#55B36C"></path>
                </g>
                <g id="Shape-Copy-3-+-Shape-Copy-4" transform="translate(36.000000, 149.000000)">
                    <path d="M94,10 C96.7614237,10 99,7.76142375 99,5 C99,2.23857625 96.7614237,0 94,0 L33,0 C30.2385763,0 28,2.23857625 28,5 C28,7.76142375 30.2385763,10 33,10 L94,10 Z" id="Shape-Copy-3" fill="#55B36C"></path>
                    <path d="M12,10 C14.7614237,10 17,7.76142375 17,5 C17,2.23857625 14.7614237,0 12,0 L5,0 C2.23857625,0 0,2.23857625 0,5 C0,7.76142375 2.23857625,10 5,10 L12,10 Z" id="Shape-Copy-4" fill="#E7E879"></path>
                </g>
                <path d="M24,105 C33.3888407,105 41,97.3888407 41,88 C41,78.6111593 33.3888407,71 24,71 C14.6111593,71 7,78.6111593 7,88 C7,97.3888407 14.6111593,105 24,105 L24,105 Z M14,88 C14,82.4771525 18.4771525,78 24,78 C29.5228475,78 34,82.4771525 34,88 C34,93.5228475 29.5228475,98 24,98 C18.4771525,98 14,93.5228475 14,88 Z" id="Shape" fill="#53B375"></path>
                <path d="M148,89 C160.150264,89 170,79.1502645 170,67 C170,54.8497355 160.150264,45 148,45 C135.849736,45 126,54.8497355 126,67 C126,79.1502645 135.849736,89 148,89 L148,89 Z M148,82 C139.715729,82 133,75.2842712 133,67 C133,58.7157288 139.715729,52 148,52 C156.284271,52 163,58.7157288 163,67 C163,75.2842712 156.284271,82 148,82 L148,82 Z" id="Shape" fill="#81BF63"></path>
            </g>
        </g>
    </g>
</svg>