<?xml version="1.0" encoding="UTF-8" standalone="no"?>
<svg width="256px" height="256px" viewBox="0 0 256 256" version="1.1" xmlns="http://www.w3.org/2000/svg" xmlns:xlink="http://www.w3.org/1999/xlink" xmlns:sketch="http://www.bohemiancoding.com/sketch/ns">
    <!-- Generator: Sketch 3.3.2 (12043) - http://www.bohemiancoding.com/sketch -->
    <title>logo-main-256</title>
    <desc>Created with Sketch.</desc>
    <defs></defs>
    <g id="跨站" stroke="none" stroke-width="1" fill="none" fill-rule="evenodd" sketch:type="MSPage">
        <g id="logo-main" sketch:type="MSLayerGroup">
            <g id="logo" transform="translate(38.000000, 38.000000)" sketch:type="MSShapeGroup">
                <path d="M55.1927273,172.141818 C56.6618182,172.141818 58.0618182,171.290909 58.6927273,169.861818 C59.5254545,167.978182 58.7109091,165.785455 56.8781818,164.887273 C55.8963636,164.452727 54.9254545,163.998182 53.96,163.527273 C53.9454545,163.52 53.9309091,163.510909 53.9145455,163.503636 C53.0818182,163.094545 52.2545455,162.674545 51.4363636,162.238182 C51.0236364,162.02 50.6181818,161.789091 50.2109091,161.563636 C49.7963636,161.334545 49.3781818,161.107273 48.9672727,160.869091 C48.1690909,160.410909 47.3818182,159.934545 46.6,159.449091 C46.58,159.436364 46.5581818,159.425455 46.5381818,159.410909 C45.6272727,158.845455 44.7272727,158.261818 43.8418182,157.661818 C42.1072727,156.581818 39.8163636,157.052727 38.66,158.758182 C37.4745455,160.505455 37.9290909,162.883636 39.6781818,164.069091 C40.6018182,164.698182 41.5363636,165.307273 42.48,165.896364 C42.5072727,165.912727 42.5327273,165.929091 42.5581818,165.945455 C43.4127273,166.478182 44.2745455,166.992727 45.1436364,167.494545 C45.5890909,167.750909 46.0418182,167.998182 46.4909091,168.247273 C46.9436364,168.498182 47.3927273,168.750909 47.8490909,168.994545 C48.7309091,169.463636 49.6218182,169.92 50.5218182,170.36 C50.5545455,170.374545 50.5854545,170.390909 50.6163636,170.407273 C51.6163636,170.892727 52.6272727,171.363636 53.6490909,171.814545 C54.1509091,172.036364 54.6763636,172.141818 55.1927273,172.141818" id="Fill-57" fill="#A7CD6A"></path>
                <path d="M38.66,20.9072727 C39.4,21.9981818 40.6036364,22.5854545 41.8290909,22.5854545 C42.5672727,22.5854545 43.3145455,22.3709091 43.9727273,21.9254545 C51.6254545,16.7327273 60.0090909,12.9181818 68.8181818,10.5745455 C76.6418182,8.48545455 84.7690909,7.56545455 92.9745455,7.87454545 C95.1,7.95090909 96.8618182,6.30727273 96.9418182,4.19636364 C97.0181818,2.12909091 95.4418182,0.389090909 93.3945455,0.241818182 C92.2527273,0.198181818 91.1072727,0.174545455 89.96,0.174545455 C81.6327273,0.174545455 73.4454545,1.32727273 65.5763636,3.54545455 C57.4909091,5.83454545 49.7109091,9.26181818 42.4490909,13.8 C41.4745455,14.4090909 40.5145455,15.0363636 39.5672727,15.6781818 C37.9127273,16.8890909 37.5,19.1981818 38.66,20.9072727" id="Fill-58" fill="#50B584"></path>
                <path d="M141.26,158.758182 C140.074545,157.010909 137.698182,156.552727 135.947273,157.74 C129.1,162.387273 121.667273,165.927273 113.867273,168.298182 C105.203636,170.945455 96.1309091,172.14 86.9454545,171.790909 C84.8163636,171.7 83.06,173.358182 82.98,175.469091 C82.9018182,177.534545 84.48,179.276364 86.5272727,179.423636 C87.6690909,179.467273 88.8127273,179.489091 89.96,179.489091 C95.5527273,179.489091 101.081818,178.974545 106.494545,177.965455 C106.623636,177.941818 106.750909,177.914545 106.88,177.890909 C107.774545,177.72 108.665455,177.534545 109.554545,177.336364 C109.834545,177.274545 110.112727,177.207273 110.390909,177.143636 C111.112727,176.974545 111.832727,176.796364 112.549091,176.610909 C112.961818,176.503636 113.372727,176.392727 113.783636,176.28 C114.349091,176.123636 114.912727,175.961818 115.476364,175.794545 C116.010909,175.636364 116.543636,175.474545 117.074545,175.305455 C117.492727,175.172727 117.909091,175.034545 118.327273,174.896364 C118.976364,174.678182 119.627273,174.456364 120.272727,174.223636 C120.547273,174.125455 120.821818,174.021818 121.094545,173.92 C121.86,173.636364 122.623636,173.345455 123.381818,173.04 C123.509091,172.989091 123.634545,172.936364 123.761818,172.883636 C128.489091,170.952727 133.076364,168.612727 137.470909,165.865455 C138.447273,165.254545 139.410909,164.625455 140.36,163.981818 C142.007273,162.770909 142.418182,160.463636 141.26,158.758182" id="Fill-59" fill="#53B475"></path>
                <path d="M18.8909091,141.792727 C19.6309091,141.792727 20.3781818,141.58 21.0363636,141.132727 C22.7836364,139.947273 23.2381818,137.567273 22.0527273,135.82 C17.1363636,128.576364 13.4709091,120.672727 11.1036364,112.378182 C8.74,104.127273 7.67272727,95.5236364 8.00181818,86.8181818 C8.08181818,84.7072727 6.43454545,82.9309091 4.32363636,82.8509091 C2.24909091,82.7781818 0.516363636,84.3509091 0.369090909,86.3963636 C0.325454545,87.54 0.303636364,88.6836364 0.303636364,89.8327273 C0.303636364,98.2945455 1.49272727,106.609091 3.78181818,114.594545 C6.07090909,122.545455 9.46,130.194545 13.9272727,137.343636 C14.5290909,138.307273 15.1472727,139.256364 15.7818182,140.190909 C16.5254545,141.230909 17.6963636,141.792727 18.8909091,141.792727" id="Fill-60" fill="#81C063"></path>
                <path d="M9.93090909,58.5654545 C10.4327273,58.7872727 10.9581818,58.8927273 11.4745455,58.8927273 C12.9145455,58.8927273 14.2854545,58.0709091 14.9327273,56.6909091 C15.3563636,55.7345455 15.7981818,54.7872727 16.26,53.8454545 C16.28,53.8054545 16.3018182,53.7654545 16.3218182,53.7236364 C16.7181818,52.9181818 17.1236364,52.1163636 17.5472727,51.3218182 C17.78,50.88 18.0272727,50.4472727 18.2672727,50.0127273 C18.4836364,49.6254545 18.6927273,49.2381818 18.9145455,48.8545455 C19.9272727,47.0945455 21.0036364,45.3745455 22.14,43.7018182 C23.2090909,41.9672727 22.7363636,39.6872727 21.0363636,38.5327273 C19.2872727,37.3454545 16.9090909,37.8018182 15.7236364,39.5490909 C15.0927273,40.4781818 14.4818182,41.4163636 13.8872727,42.3654545 C13.8872727,42.3672727 13.8872727,42.3672727 13.8854545,42.3690909 C13.3363636,43.2472727 12.8072727,44.1345455 12.2909091,45.0290909 C12.0472727,45.4490909 11.8145455,45.8763636 11.58,46.3018182 C11.3145455,46.7781818 11.0472727,47.2527273 10.7909091,47.7327273 C10.3345455,48.5945455 9.89090909,49.4618182 9.46181818,50.3381818 C9.43454545,50.3927273 9.40727273,50.4454545 9.38,50.5 C8.89454545,51.4963636 8.42727273,52.5036364 7.97818182,53.5218182 C7.12363636,55.4545455 7.99818182,57.7127273 9.93090909,58.5654545" id="Fill-61" fill="#53B475"></path>
                <path d="M121.225455,9.80363636 C120.394545,11.6872727 121.207273,13.8781818 123.04,14.7763636 C124.021818,15.2109091 124.994545,15.6654545 125.961818,16.1381818 C125.972727,16.1454545 125.985455,16.1509091 125.996364,16.1563636 C126.832727,16.5672727 127.661818,16.9872727 128.485455,17.4272727 C128.896364,17.6454545 129.3,17.8745455 129.707273,18.0981818 C130.121818,18.3309091 130.54,18.5563636 130.952727,18.7945455 C131.752727,19.2545455 132.54,19.7309091 133.321818,20.2163636 C133.341818,20.2290909 133.361818,20.24 133.381818,20.2527273 C134.292727,20.82 135.190909,21.4018182 136.076364,22.0036364 C137.812727,23.0836364 140.103636,22.6127273 141.26,20.9072727 C142.447273,19.16 141.990909,16.78 140.243636,15.5945455 C139.32,14.9690909 138.387273,14.36 137.445455,13.7709091 C137.409091,13.7490909 137.369091,13.7254545 137.332727,13.7018182 C136.489091,13.1763636 135.638182,12.6690909 134.781818,12.1727273 C134.327273,11.9109091 133.865455,11.6581818 133.403636,11.4036364 C132.961818,11.1581818 132.521818,10.9109091 132.076364,10.6727273 C131.185455,10.2 130.285455,9.73818182 129.374545,9.29454545 C129.352727,9.28363636 129.330909,9.27090909 129.309091,9.26 C128.305455,8.77272727 127.294545,8.30181818 126.270909,7.85090909 C124.34,6.99636364 122.08,7.87090909 121.225455,9.80363636" id="Fill-62" fill="#53B475"></path>
                <path d="M158.885455,38.5327273 C157.136364,39.7181818 156.681818,42.0963636 157.867273,43.8454545 C162.709091,50.98 166.34,58.7545455 168.709091,66.9127273 C171.149091,75.2781818 172.252727,84.0109091 171.918182,92.8472727 C171.84,94.9581818 173.485455,96.7327273 175.596364,96.8127273 C175.645455,96.8145455 175.694545,96.8163636 175.743636,96.8163636 C177.738182,96.8163636 179.394545,95.2763636 179.549091,93.2890909 C179.592727,92.14 179.616364,90.9872727 179.616364,89.8327273 C179.616364,81.2927273 178.405455,72.9 176.074545,64.8490909 C173.785455,56.9763636 170.418182,49.4018182 165.992727,42.3218182 C165.387273,41.3509091 164.763636,40.3945455 164.123636,39.4527273 C162.916364,37.7890909 160.6,37.3690909 158.885455,38.5327273" id="Fill-63" fill="#54B36C"></path>
                <path d="M167.618182,134.656364 C167.883636,134.196364 168.138182,133.730909 168.394545,133.265455 C168.638182,132.827273 168.883636,132.392727 169.118182,131.950909 C169.592727,131.056364 170.056364,130.154545 170.501818,129.241818 C170.510909,129.221818 170.521818,129.201818 170.530909,129.181818 C171.02,128.18 171.490909,127.167273 171.941818,126.143636 C172.796364,124.210909 171.921818,121.952727 169.989091,121.098182 C168.107273,120.265455 165.914545,121.08 165.014545,122.912727 C164.581818,123.894545 164.125455,124.869091 163.652727,125.834545 C163.647273,125.845455 163.641818,125.854545 163.636364,125.865455 C163.227273,126.703636 162.803636,127.536364 162.363636,128.36 C162.149091,128.765455 161.923636,129.161818 161.701818,129.563636 C161.467273,129.985455 161.238182,130.410909 160.994545,130.829091 C160.54,131.618182 160.070909,132.396364 159.590909,133.169091 C159.572727,133.2 159.554545,133.230909 159.536364,133.26 C158.970909,134.167273 158.390909,135.061818 157.792727,135.945455 C156.707273,137.68 157.178182,139.974545 158.885455,141.132727 C159.543636,141.58 160.289091,141.792727 161.029091,141.792727 C162.254545,141.792727 163.458182,141.205455 164.198182,140.116364 C164.823636,139.194545 165.429091,138.261818 166.018182,137.321818 C166.045455,137.278182 166.072727,137.232727 166.1,137.189091 C166.62,136.352727 167.125455,135.507273 167.618182,134.656364" id="Fill-64" fill="#54B36C"></path>
                <path d="M157.863636,43.8509091 C156.678182,42.1018182 157.136364,39.7181818 158.885455,38.5327273 C160.6,37.3690909 162.916364,37.7890909 164.123636,39.4527273 C157.705455,29.9909091 149.62,21.9418182 140.267273,15.6145455 C141.994545,16.8054545 142.44,19.1672727 141.26,20.9072727 C140.103636,22.6127273 137.812727,23.0836364 136.076364,22.0036364 C144.621818,27.8036364 152.001818,35.1836364 157.863636,43.8509091" id="Fill-65" fill="#89C693"></path>
                <path d="M175.743636,96.8163636 C175.694545,96.8163636 175.645455,96.8145455 175.596364,96.8127273 C173.485455,96.7327273 171.836364,94.9381818 171.914545,92.8272727 C171.538182,103.290909 169.189091,113.46 165.014545,122.912727 C165.914545,121.08 168.107273,120.265455 169.989091,121.098182 C171.912727,121.949091 172.787273,124.190909 171.952727,126.116364 C176.525455,115.805455 179.116364,104.703636 179.549091,93.2890909 C179.394545,95.2763636 177.738182,96.8163636 175.743636,96.8163636" id="Fill-66" fill="#89C693"></path>
                <path d="M161.029091,141.792727 C160.289091,141.792727 159.543636,141.58 158.885455,141.132727 C157.178182,139.974545 156.707273,137.68 157.792727,135.945455 C151.974545,144.514545 144.590909,151.901818 135.892727,157.770909 C135.92,157.752727 135.865455,157.790909 135.892727,157.770909 C137.641818,156.583636 140.074545,157.010909 141.26,158.758182 C142.418182,160.463636 142.007273,162.770909 140.36,163.981818 C149.814545,157.565455 157.858182,149.483636 164.181818,140.136364 C163.44,141.212727 162.245455,141.792727 161.029091,141.792727" id="Fill-67" fill="#89C693"></path>
                <path d="M82.98,175.469091 C83.0581818,173.369091 84.7981818,171.712727 86.9127273,171.783636 C76.4709091,171.401818 66.3127273,169.052727 56.8781818,164.887273 C58.7109091,165.785455 59.5254545,167.978182 58.6927273,169.861818 C58.0618182,171.290909 56.6618182,172.141818 55.1927273,172.141818 C54.6854545,172.141818 54.1690909,172.04 53.6745455,171.825455 C63.9945455,176.401818 75.1036364,178.992727 86.5272727,179.423636 C84.48,179.276364 82.9018182,177.534545 82.98,175.469091" id="Fill-68" fill="#88C8AB"></path>
                <path d="M38.66,158.758182 C39.8163636,157.052727 42.1072727,156.581818 43.8418182,157.661818 C35.1418182,151.754545 27.6490909,144.207273 21.7381818,135.336364 C21.8454545,135.496364 21.9454545,135.66 22.0527273,135.82 C23.2381818,137.567273 22.7836364,139.947273 21.0363636,141.132727 C20.3781818,141.58 19.6309091,141.792727 18.8909091,141.792727 C17.6963636,141.792727 16.5254545,141.230909 15.7818182,140.190909 C22.2036364,149.663636 30.2945455,157.72 39.6545455,164.052727 C37.9254545,162.861818 37.48,160.498182 38.66,158.758182" id="Fill-69" fill="#E8E979"></path>
                <path d="M8.00181818,86.8181818 L7.99272727,87.3527273 C8.31090909,76.6909091 10.6745455,66.3145455 14.9327273,56.6909091 C14.2854545,58.0709091 12.9145455,58.8927273 11.4745455,58.8927273 C10.9581818,58.8927273 10.4327273,58.7872727 9.93090909,58.5654545 C8.00727273,57.7163636 7.13454545,55.4763636 7.96727273,53.5509091 C3.39090909,63.8690909 0.8,74.9763636 0.369090909,86.3963636 C0.516363636,84.3509091 2.24909091,82.7781818 4.32363636,82.8509091 C6.43454545,82.9309091 8.08181818,84.7072727 8.00181818,86.8181818" id="Fill-70" fill="#89C693"></path>
                <path d="M41.8290909,22.5854545 C40.6036364,22.5854545 39.4,21.9981818 38.66,20.9072727 C37.5,19.1981818 37.9127273,16.8890909 39.5672727,15.6781818 C30.1090909,22.0963636 22.0618182,30.1818182 15.7363636,39.5327273 C16.9254545,37.8 19.2927273,37.3509091 21.0363636,38.5327273 C22.7363636,39.6872727 23.2090909,41.9672727 22.14,43.7018182 C28.0436364,35.0109091 35.5836364,27.5254545 44.4454545,21.6181818 C44.2890909,21.7236364 44.1290909,21.82 43.9727273,21.9254545 C43.3145455,22.3709091 42.5672727,22.5854545 41.8290909,22.5854545" id="Fill-71" fill="#88C8AB"></path>
                <path d="M126.258182,7.84545455 C115.938182,3.26909091 104.816364,0.672727273 93.3945455,0.241818182 C95.4418182,0.389090909 97.0181818,2.12909091 96.9418182,4.19636364 C96.8618182,6.30727273 95.1,7.95090909 92.9745455,7.87454545 L92.4381818,7.86545455 C103.078182,8.18181818 113.434545,10.5363636 123.04,14.7763636 C121.207273,13.8781818 120.394545,11.6872727 121.225455,9.80363636 C122.076364,7.88 124.332727,7.01090909 126.258182,7.84545455" id="Fill-72" fill="#88C8AB"></path>
            </g>
        </g>
    </g>
</svg>