<?xml version="1.0" encoding="UTF-8" standalone="no"?>
<svg width="32px" height="10px" viewBox="0 0 32 10" version="1.1" xmlns="http://www.w3.org/2000/svg" xmlns:xlink="http://www.w3.org/1999/xlink" xmlns:sketch="http://www.bohemiancoding.com/sketch/ns">
    <!-- Generator: Sketch 3.3.3 (12072) - http://www.bohemiancoding.com/sketch -->
    <title>down</title>
    <desc>Created with Sketch.</desc>
    <defs></defs>
    <g id="Page-1" stroke="none" stroke-width="1" fill="none" fill-rule="evenodd" sketch:type="MSPage">
        <g id="down" sketch:type="MSLayerGroup" transform="translate(10.000000, 0.000000)">
            <g id="Page-1" sketch:type="MSShapeGroup">
                <g id="mask-2" fill="#FFFFFF">
                    <path d="M1.031,2.609 C0.462,1.66 0.902,0.89 2.008,0.89 L9.992,0.89 C11.101,0.89 11.539,1.659 10.969,2.609 L7.031,9.172 C6.462,10.121 5.539,10.121 4.969,9.172 L1.031,2.609 L1.031,2.609 Z" id="path-1"></path>
                </g>
                <g id="path-1" fill="#D7D7D7">
                    <path d="M1.031,2.609 C0.462,1.66 0.902,0.89 2.008,0.89 L9.992,0.89 C11.101,0.89 11.539,1.659 10.969,2.609 L7.031,9.172 C6.462,10.121 5.539,10.121 4.969,9.172 L1.031,2.609 L1.031,2.609 Z"></path>
                </g>
            </g>
        </g>
    </g>
</svg>