<?xml version="1.0" encoding="UTF-8" standalone="no"?>
<svg width="222px" height="48px" viewBox="0 0 222 48" version="1.1" xmlns="http://www.w3.org/2000/svg" xmlns:xlink="http://www.w3.org/1999/xlink" xmlns:sketch="http://www.bohemiancoding.com/sketch/ns">
    <!-- Generator: Sketch 3.4.3 (16618) - http://www.bohemiancoding.com/sketch -->
    <title>logo</title>
    <desc>Created with Sketch.</desc>
    <defs></defs>
    <g id="Page-1" stroke="none" stroke-width="1" fill="none" fill-rule="evenodd" sketch:type="MSPage">
        <g id="guideline-logo" sketch:type="MSArtboardGroup" transform="translate(-39.000000, -228.000000)">
            <g id="logo" sketch:type="MSLayerGroup" transform="translate(43.000000, 232.000000)">
                <path d="M20.333,40 C17.707,40 15.154,39.499 12.745,38.51 L13.504,36.66 C15.671,37.549 17.969,38 20.333,38 C30.258,38 38.333,29.925 38.333,20 C38.333,10.075 30.258,2 20.333,2 C10.408,2 2.333,10.075 2.333,20 L0.333,20 C0.333,8.972 9.305,0 20.333,0 C31.361,0 40.333,8.972 40.333,20 C40.333,31.028 31.361,40 20.333,40" id="Fill-1" fill="#56B879" sketch:type="MSShapeGroup"></path>
                <path d="M9.781,34.584 C5.117,31.204 2.333,25.752 2.333,20 C2.333,19.447 1.885,19 1.333,19 C0.781,19 0.333,19.447 0.333,20 C0.333,26.391 3.426,32.448 8.607,36.203 L9.781,34.584" id="Fill-2" fill="#9ED16B" sketch:type="MSShapeGroup"></path>
                <path d="M13.124,38.585 C12.998,38.585 12.869,38.562 12.745,38.51 C11.283,37.91 9.891,37.134 8.607,36.203 C8.16,35.879 8.06,35.254 8.384,34.807 C8.71,34.359 9.335,34.26 9.781,34.584 C10.936,35.422 12.189,36.12 13.504,36.66 C14.015,36.869 14.259,37.453 14.05,37.965 C13.891,38.352 13.518,38.585 13.124,38.585" id="Fill-3" fill="#F0ED1F" sketch:type="MSShapeGroup"></path>
                <g id="點亮台灣---設計規範-+-WEB-DESIGN-GUIDELINE-+-Rectangle-1" transform="translate(57.000000, 4.000000)" sketch:type="MSShapeGroup">
                    <path d="M13.75,9.075 L13.75,16.17 L12.895,16.17 L12.895,15.27 L8.83,15.27 L8.83,16.17 L7.975,16.17 L7.975,9.075 L10.21,9.075 L10.21,2.4 L11.05,2.4 L11.05,5.04 L14.365,5.04 L14.365,5.895 L11.05,5.895 L11.05,9.075 L13.75,9.075 Z M8.83,9.93 L8.83,14.415 L12.895,14.415 L12.895,9.93 L8.83,9.93 Z M2.095,6.78 C2.04499975,6.179997 1.93500085,5.49500385 1.765,4.725 L2.455,4.65 C2.64500095,5.6300049 2.75499985,6.31499805 2.785,6.705 L2.095,6.78 Z M4.645,6.57 C4.83500095,6.0099972 5.01499915,5.3500038 5.185,4.59 L5.83,4.77 C5.6099989,5.7500049 5.4400006,6.42499815 5.32,6.795 L4.645,6.57 Z M6.895,2.955 L6.895,8.385 L4.165,8.385 L4.165,9.585 L6.925,9.585 L6.925,10.365 L4.165,10.365 L4.165,11.97 C5.165005,11.9099997 6.13999525,11.8300005 7.09,11.73 L7.15,12.495 C5.0699896,12.7750014 2.79501235,12.9399997 0.325,12.99 L0.31,12.165 C1.36000525,12.1249998 2.37999505,12.0800002 3.37,12.03 L3.37,10.365 L0.595,10.365 L0.595,9.585 L3.37,9.585 L3.37,8.385 L0.715,8.385 L0.715,2.955 L6.895,2.955 Z M3.37,7.59 L3.37,3.75 L1.45,3.75 L1.45,7.59 L3.37,7.59 Z M4.165,3.75 L4.165,7.59 L6.16,7.59 L6.16,3.75 L4.165,3.75 Z M0.22,16.185 C0.5600017,15.3449958 0.7999993,14.4750045 0.94,13.575 L1.75,13.71 C1.61999935,14.6300046 1.39000165,15.5199957 1.06,16.38 L0.22,16.185 Z M4.09,13.56 L4.81,13.38 C5.20000195,14.190004 5.50999885,14.9699962 5.74,15.72 L4.93,15.915 C4.7499991,15.1749963 4.4700019,14.3900041 4.09,13.56 L4.09,13.56 Z M5.8,13.23 L6.505,13.005 C6.9450022,13.7850039 7.3049986,14.5499962 7.585,15.3 L6.835,15.51 C6.5949988,14.7999964 6.25000225,14.040004 5.8,13.23 L5.8,13.23 Z M2.38,13.68 L3.13,13.605 C3.40000135,14.4850044 3.58999945,15.3299959 3.7,16.14 L2.86,16.185 C2.7999997,15.4249962 2.6400013,14.5900045 2.38,13.68 L2.38,13.68 Z M29.3725,5.475 L29.3725,8.55 L20.2525,8.55 L20.2525,5.475 L29.3725,5.475 Z M28.5175,6.27 L21.1075,6.27 L21.1075,7.77 L28.5175,7.77 L28.5175,6.27 Z M18.4375,9.75 L31.1275,9.75 L31.1275,12.3 L30.2725,12.3 L30.2725,10.545 L19.2925,10.545 L19.2925,12.3 L18.4375,12.3 L18.4375,9.75 Z M30.6925,14.535 L30.6925,13.305 L31.5325,13.53 L31.5325,14.4 C31.5325,15.4300051 31.0575048,15.945 30.1075,15.945 L27.7225,15.945 C26.7724953,15.945 26.2975,15.4650048 26.2975,14.505 L26.2975,11.49 L27.1375,11.49 L27.1375,14.58 C27.1375,14.9600019 27.3274981,15.15 27.7075,15.15 L30.0775,15.15 C30.4875021,15.15 30.6925,14.945002 30.6925,14.535 L30.6925,14.535 Z M22.0225,11.49 L22.8625,11.49 L22.8625,12.3 C22.8524999,14.4400107 21.2625158,15.7199979 18.0925,16.14 L17.7475,15.315 C20.5875142,14.9649982 22.0124999,13.9600083 22.0225,12.3 L22.0225,11.49 Z M31.5625,4.395 L17.9725,4.395 L17.9725,3.6 L24.4525,3.6 C24.3824996,3.2199981 24.2825007,2.830002 24.1525,2.43 L25.0225,2.355 C25.1325006,2.78500215 25.2224997,3.199998 25.2925,3.6 L31.5625,3.6 L31.5625,4.395 Z M37.285,9.81 L47.215,9.81 L47.215,16.17 L46.36,16.17 L46.36,15.24 L38.14,15.24 L38.14,16.17 L37.285,16.17 L37.285,9.81 Z M46.36,10.605 L38.14,10.605 L38.14,14.445 L46.36,14.445 L46.36,10.605 Z M37.015,7.17 C38.4350071,5.8299933 39.8399931,4.2300093 41.23,2.37 L41.95,2.79 C40.6999938,4.4700084 39.3450073,6.0299928 37.885,7.47 C40.4650129,7.31999925 43.3649839,7.1850006 46.585,7.065 C45.9249967,6.2249958 45.190004,5.3850042 44.38,4.545 L45.07,4.11 C46.5500074,5.6700078 47.8299946,7.2299922 48.91,8.79 L48.16,9.24 C47.8599985,8.7799977 47.5450017,8.32500225 47.215,7.875 C43.2249801,7.98500055 39.5900164,8.18499855 36.31,8.475 L36.175,7.575 C36.4850016,7.5349998 36.7649988,7.40000115 37.015,7.17 L37.015,7.17 Z M59.4025,4.455 L62.4625,4.455 L62.4625,5.07 L59.4025,5.07 L59.4025,4.455 Z M59.4625,5.865 L62.4625,5.865 L62.4625,6.48 L59.4625,6.48 L59.4625,5.865 Z M62.3725,7.26 L62.3725,9.405 L59.5225,9.405 L59.5225,7.26 L62.3725,7.26 Z M61.7575,7.875 L60.1375,7.875 L60.1375,8.79 L61.7575,8.79 L61.7575,7.875 Z M62.7475,3.66 L59.2375,3.66 L59.2375,3.045 L60.5425,3.045 C60.4624996,2.7649986 60.3675006,2.47000155 60.2575,2.16 L61.1275,2.04 C61.2275005,2.3800017 61.3124996,2.71499835 61.3825,3.045 L62.7475,3.045 L62.7475,3.66 Z M54.5575,4.755 C54.0574975,4.26499755 53.4525035,3.73500285 52.7425,3.165 L53.2825,2.565 C54.2025046,3.31500375 54.8174984,3.85499835 55.1275,4.185 L54.5575,4.755 Z M54.4825,8.79 C54.0024976,8.25999735 53.4175035,7.69000305 52.7275,7.08 L53.2975,6.51 C54.1875045,7.32000405 54.7824985,7.89999825 55.0825,8.25 L54.4825,8.79 Z M52.9825,16.11 C53.4725024,14.4599917 53.9224979,12.530011 54.3325,10.32 L55.0975,10.53 C54.5374972,13.3500141 54.0925017,15.2899947 53.7625,16.35 L52.9825,16.11 Z M56.4175,10.11 L65.4775,10.11 L65.4775,12.42 L57.8125,12.42 L57.6475,13.395 L65.8825,13.395 L65.8825,14.58 C65.8825,15.6000051 65.3725051,16.11 64.3525,16.11 L60.5875,16.11 L60.3475,15.315 L64.2625,15.315 C64.7825026,15.315 65.0425,15.0600025 65.0425,14.55 L65.0425,14.055 L56.7175,14.055 L57.0625,11.745 L64.6225,11.745 L64.6225,10.785 L56.4175,10.785 L56.4175,10.11 Z M66.3925,3.18 C65.6924965,4.27000545 64.8975044,5.35999455 64.0075,6.45 C64.5075025,6.37999965 65.057497,6.32000025 65.6575,6.27 C65.5474994,5.95999845 65.4325006,5.6450016 65.3125,5.325 L65.9275,5.205 C66.2375016,5.93500365 66.4874991,6.63499665 66.6775,7.305 L65.9725,7.44 C65.9224998,7.2599991 65.8775002,7.08500085 65.8375,6.915 C64.7974948,7.0350006 63.8475043,7.16999925 62.9875,7.32 L62.7325,6.615 C63.0025014,6.54499965 63.2274991,6.39500115 63.4075,6.165 C63.7275016,5.764998 64.0524984,5.34000225 64.3825,4.89 C63.8724975,4.94000025 63.4025022,4.99999965 62.9725,5.07 L62.7325,4.365 C62.9925013,4.3049997 63.1824994,4.18000095 63.3025,3.99 C63.6625018,3.4499973 64.0074984,2.8400034 64.3375,2.16 L65.0275,2.355 C64.6974984,2.9950032 64.3275021,3.6249969 63.9175,4.245 C64.2175015,4.21499985 64.5424983,4.1900001 64.8925,4.17 C65.1725014,3.7499979 65.4574986,3.3100023 65.7475,2.85 L66.3925,3.18 Z M63.0925,7.725 L63.7225,7.755 C63.6924999,8.3950032 63.5925009,8.99999715 63.4225,9.57 L62.7325,9.45 C62.932501,8.95999755 63.0524998,8.3850033 63.0925,7.725 L63.0925,7.725 Z M64.5325,9.48 C64.5124999,8.879997 64.4525005,8.3100027 64.3525,7.77 L64.9225,7.695 C65.0525006,8.26500285 65.1324999,8.84499705 65.1625,9.435 L64.5325,9.48 Z M66.0025,9.33 C65.9324996,8.7499971 65.8175008,8.2000026 65.6575,7.68 L66.2125,7.545 C66.402501,8.09500275 66.5424996,8.65499715 66.6325,9.225 L66.0025,9.33 Z M58.9675,3.105 C58.3074967,4.1850054 57.5575042,5.2649946 56.7175,6.345 C57.1875024,6.2849997 57.6874974,6.2250003 58.2175,6.165 C58.1374996,5.8649985 58.0375006,5.5650015 57.9175,5.265 L58.5475,5.16 C58.8375015,5.8800036 59.0674991,6.5799966 59.2375,7.26 L58.5175,7.365 C58.4774998,7.1849991 58.4375002,6.995001 58.3975,6.795 C57.4174951,6.9150006 56.522504,7.04999925 55.7125,7.2 L55.4725,6.525 C55.7325013,6.4449996 55.9524991,6.2850012 56.1325,6.045 C56.4125014,5.6649981 56.6974985,5.27000205 56.9875,4.86 C56.4974976,4.93000035 56.0375021,5.00999955 55.6075,5.1 L55.3525,4.395 C55.3525,4.38499995 55.3674999,4.38 55.3975,4.38 C55.607501,4.30999965 55.7824993,4.18000095 55.9225,3.99 C56.2825018,3.4499973 56.6224984,2.8400034 56.9425,2.16 L57.6325,2.355 C57.3224984,2.98500315 56.962502,3.6099969 56.5525,4.23 C56.8325014,4.1899998 57.1424983,4.15500015 57.4825,4.125 C57.7525014,3.71499795 58.0274986,3.27500235 58.3075,2.805 L58.9675,3.105 Z M55.5925,7.725 L56.2225,7.755 C56.1924999,8.3950032 56.0925009,8.99999715 55.9225,9.57 L55.2325,9.45 C55.432501,8.95999755 55.5524998,8.3850033 55.5925,7.725 L55.5925,7.725 Z M56.9725,9.465 C56.9725,8.87499705 56.9325004,8.3100027 56.8525,7.77 L57.4375,7.71 C57.5375005,8.28000285 57.5925,8.85999705 57.6025,9.45 L56.9725,9.465 Z M58.3825,9.195 C58.3224997,8.6749974 58.2275006,8.17000245 58.0975,7.68 L58.6525,7.56 C58.8125008,8.07000255 58.9324996,8.5849974 59.0125,9.105 L58.3825,9.195 Z M95.9575,8.73 L103.0825,8.73 L103.0825,9.585 C102.412497,11.2850085 101.517506,12.6749946 100.3975,13.755 C101.297505,14.4250033 102.547492,14.954998 104.1475,15.345 L103.7575,16.215 C102.027491,15.7249975 100.697505,15.1000038 99.7675,14.34 L99.7525,14.325 C98.6724946,15.1950043 97.4125072,15.824998 95.9725,16.215 L95.4625,15.405 C96.8425069,15.0349981 98.0524948,14.4600039 99.0925,13.68 C98.3724964,12.9099961 97.6375038,11.8400068 96.8875,10.47 L97.5475,10.155 C98.2875037,11.4450064 99.0124965,12.4499964 99.7225,13.17 C100.752505,12.2199952 101.562497,11.0250072 102.1525,9.585 L95.9575,9.585 L95.9575,8.73 Z M97.1275,2.985 L102.0175,2.985 L102.0175,6.765 C102.0175,6.9050007 102.087499,6.975 102.2275,6.975 L103.8625,6.975 L103.8625,7.815 L101.9875,7.815 C101.447497,7.815 101.1775,7.5450027 101.1775,7.005 L101.1775,3.84 L97.9825,3.84 L97.9825,4.86 C97.9825,6.3800076 97.4125057,7.49499645 96.2725,8.205 L95.6275,7.605 C96.627505,6.99499695 97.1275,6.0800061 97.1275,4.86 L97.1275,2.985 Z M90.5725,6.705 L95.1325,6.705 L95.1325,7.5 L90.5725,7.5 L90.5725,6.705 Z M90.5725,9 L95.1325,9 L95.1325,9.78 L90.5725,9.78 L90.5725,9 Z M94.9975,11.31 L94.9975,15.99 L94.1425,15.99 L94.1425,15.03 L91.5925,15.03 L91.5925,16.11 L90.7375,16.11 L90.7375,11.31 L94.9975,11.31 Z M94.1425,12.165 L91.5925,12.165 L91.5925,14.175 L94.1425,14.175 L94.1425,12.165 Z M95.4925,5.13 L90.1525,5.13 L90.1525,4.275 L92.5825,4.275 C92.5024996,3.74499735 92.367501,3.19500285 92.1775,2.625 L93.0475,2.535 C93.2075008,3.12500295 93.3374995,3.70499715 93.4375,4.275 L95.4925,4.275 L95.4925,5.13 Z M114.04,6.795 L117.385,6.795 L117.385,2.4 L118.225,2.4 L118.225,6.795 L121.54,6.795 L121.54,7.65 L118.225,7.65 L118.225,16.23 L117.385,16.23 L117.385,7.65 L114.04,7.65 L114.04,6.795 Z M108.175,6.705 L113.155,6.705 L113.155,7.5 L108.175,7.5 L108.175,6.705 Z M108.175,8.94 L113.155,8.94 L113.155,9.72 L108.175,9.72 L108.175,8.94 Z M113.245,11.25 L113.245,16.11 L112.405,16.11 L112.405,15.09 L108.91,15.09 L108.91,16.23 L108.07,16.23 L108.07,11.25 L113.245,11.25 Z M112.405,12.105 L108.91,12.105 L108.91,14.235 L112.405,14.235 L112.405,12.105 Z M113.74,5.13 L107.59,5.13 L107.59,4.275 L110.155,4.275 C110.085,3.70499715 109.965001,3.10500315 109.795,2.475 L110.65,2.43 C110.810001,3.0700032 110.93,3.68499705 111.01,4.275 L113.74,4.275 L113.74,5.13 Z M125.0275,15.57 C126.437507,13.9299918 127.197499,11.8150129 127.3075,9.225 L125.1475,9.225 L125.1475,8.385 L127.3225,8.385 L127.3225,5.475 L125.3275,5.475 L125.3275,4.635 L127.3225,4.635 L127.3225,2.4 L128.1625,2.4 L128.1625,4.635 L130.1275,4.635 L130.1275,5.475 L128.1625,5.475 L128.1625,8.385 L130.3075,8.385 L130.3075,9.225 L128.1475,9.225 C128.1175,9.77500275 128.0675,10.3049974 127.9975,10.815 C128.907505,11.6450041 129.702497,12.4649959 130.3825,13.275 L129.7525,13.92 C129.292498,13.2799968 128.652504,12.560004 127.8325,11.76 C127.442498,13.4700085 126.732505,14.9449938 125.7025,16.185 L125.0275,15.57 Z M137.9575,2.835 L137.9575,11.655 L136.1425,11.655 L136.1425,14.955 C136.1425,15.165001 136.242499,15.27 136.4425,15.27 L137.9425,15.27 C138.142501,15.27 138.2425,15.165001 138.2425,14.955 L138.2425,13.185 L139.0375,13.425 L139.0375,14.865 C139.0375,15.6550039 138.642504,16.05 137.8525,16.05 L136.4725,16.05 C135.682496,16.05 135.2875,15.6550039 135.2875,14.865 L135.2875,11.655 L133.5025,11.655 L133.5025,12.18 C133.5025,13.9700089 132.207513,15.2849958 129.6175,16.125 L129.1975,15.36 C131.497512,14.6599965 132.6475,13.6000071 132.6475,12.18 L132.6475,11.655 L131.1325,11.655 L131.1325,2.835 L137.9575,2.835 Z M131.9725,8.175 L137.1025,8.175 L137.1025,6.33 L131.9725,6.33 L131.9725,8.175 Z M137.1025,8.97 L131.9725,8.97 L131.9725,10.875 L137.1025,10.875 L137.1025,8.97 Z M131.9725,5.535 L137.1025,5.535 L137.1025,3.63 L131.9725,3.63 L131.9725,5.535 Z M149.35,8.61 L149.35,12.975 L146.665,12.975 L146.665,13.92 L149.8,13.92 L149.8,14.7 L146.665,14.7 L146.665,16.17 L145.81,16.17 L145.81,14.7 L142.585,14.7 L142.585,13.92 L145.81,13.92 L145.81,12.975 L143.05,12.975 L143.05,8.61 L145.81,8.61 L145.81,7.68 L142.705,7.68 L142.705,6.885 L145.81,6.885 L145.81,5.97 L146.665,5.97 L146.665,6.885 L149.62,6.885 L149.62,7.68 L146.665,7.68 L146.665,8.61 L149.35,8.61 Z M148.51,11.22 L146.665,11.22 L146.665,12.24 L148.51,12.24 L148.51,11.22 Z M146.665,10.485 L148.51,10.485 L148.51,9.345 L146.665,9.345 L146.665,10.485 Z M145.81,11.22 L143.905,11.22 L143.905,12.24 L145.81,12.24 L145.81,11.22 Z M143.905,10.485 L145.81,10.485 L145.81,9.345 L143.905,9.345 L143.905,10.485 Z M150.67,6.735 L155.68,6.735 L155.68,10.785 C155.68,11.7350047 155.200005,12.21 154.24,12.21 L153.07,12.21 L152.845,11.37 L154.315,11.37 C154.665002,11.37 154.84,11.2000017 154.84,10.86 L154.84,7.59 L151.525,7.59 L151.525,14.76 C151.525,15.0400014 151.659999,15.18 151.93,15.18 L155.02,15.18 C155.360002,15.18 155.53,15.0100017 155.53,14.67 L155.53,13.245 L156.385,13.47 L156.385,14.685 C156.385,15.5750044 155.975004,16.02 155.155,16.02 L151.9,16.02 C151.079996,16.02 150.67,15.5750044 150.67,14.685 L150.67,6.735 Z M145.33,3.48 L149.38,3.48 L149.38,4.275 L147.325,4.275 C147.565001,4.7950026 147.769999,5.2949976 147.94,5.775 L147.07,5.925 C146.949999,5.47499775 146.745001,4.92500325 146.455,4.275 L144.82,4.275 C144.369998,4.94500335 143.845003,5.55499725 143.245,6.105 L142.495,5.7 C143.575005,4.72999515 144.414997,3.63000615 145.015,2.4 L145.885,2.4 C145.704999,2.77000185 145.520001,3.12999825 145.33,3.48 L145.33,3.48 Z M151.63,3.48 L156.295,3.48 L156.295,4.275 L153.625,4.275 C153.935002,4.82500275 154.184999,5.3599974 154.375,5.88 L153.52,6.075 C153.359999,5.56499745 153.100002,4.96500345 152.74,4.275 L151.195,4.275 C150.804998,4.9550034 150.350003,5.57999715 149.83,6.15 L149.05,5.79 C150.010005,4.75999485 150.739998,3.62000625 151.24,2.37 L152.095,2.37 C151.944999,2.7500019 151.790001,3.1199982 151.63,3.48 L151.63,3.48 Z" id="點亮台灣---設計規範" fill="#000000"></path>
                    <path d="M8.49,24.06 L7.35,24.06 L6.11,29.15 L4.68,24.06 L3.81,24.06 L2.38,29.15 L1.14,24.06 L0,24.06 L1.86,31.18 L2.8,31.18 L4.24,26.19 L5.69,31.18 L6.63,31.18 L8.49,24.06 Z M15.8383252,31.18 L15.8383252,30.21 L12.3683252,30.21 L12.3683252,28.07 L15.3283252,28.07 L15.3283252,27.11 L12.3683252,27.11 L12.3683252,25.03 L15.8383252,25.03 L15.8383252,24.06 L11.2883252,24.06 L11.2883252,31.18 L15.8383252,31.18 Z M24.1066505,29.17 C24.1066505,28.27 23.5866505,27.74 23.0366505,27.52 C23.5166505,27.33 23.9966505,26.78 23.9966505,26.01 C23.9966505,24.81 23.1666505,24.06 21.8466505,24.06 L19.0766505,24.06 L19.0766505,31.18 L21.9566505,31.18 C23.2166505,31.18 24.1066505,30.48 24.1066505,29.17 L24.1066505,29.17 Z M23.0266505,29.12 C23.0266505,29.75 22.6066505,30.21 21.8566505,30.21 L20.1566505,30.21 L20.1566505,28.04 L21.8566505,28.04 C22.6066505,28.04 23.0266505,28.49 23.0266505,29.12 L23.0266505,29.12 Z M22.9166505,26.05 C22.9166505,26.71 22.4466505,27.07 21.7566505,27.07 L20.1566505,27.07 L20.1566505,25.03 L21.7566505,25.03 C22.4466505,25.03 22.9166505,25.39 22.9166505,26.05 L22.9166505,26.05 Z M36.6833009,27.62 C36.6833009,26.48 36.6633009,25.6 36.1433009,24.96 C35.6433009,24.34 35.0133009,24.06 34.1233009,24.06 L31.6233009,24.06 L31.6233009,31.18 L34.1233009,31.18 C35.0133009,31.18 35.6433009,30.9 36.1433009,30.28 C36.6633009,29.64 36.6833009,28.76 36.6833009,27.62 L36.6833009,27.62 Z M35.6033009,27.62 C35.6033009,28.68 35.5733009,29.34 35.2233009,29.73 C34.9233009,30.08 34.5133009,30.22 34.0033009,30.22 L32.7033009,30.22 L32.7033009,25.02 L34.0033009,25.02 C34.5133009,25.02 34.9233009,25.16 35.2233009,25.51 C35.5733009,25.9 35.6033009,26.56 35.6033009,27.62 L35.6033009,27.62 Z M44.5916261,31.18 L44.5916261,30.21 L41.1216261,30.21 L41.1216261,28.07 L44.0816261,28.07 L44.0816261,27.11 L41.1216261,27.11 L41.1216261,25.03 L44.5916261,25.03 L44.5916261,24.06 L40.0416261,24.06 L40.0416261,31.18 L44.5916261,31.18 Z M52.2799514,29.15 C52.2799514,28.53 52.0799514,28.04 51.6999514,27.69 C51.3899514,27.41 51.0299514,27.26 50.3799514,27.16 L49.5299514,27.03 C49.1399514,26.97 48.9299514,26.87 48.7499514,26.71 C48.5599514,26.55 48.4899514,26.31 48.4899514,26.05 C48.4899514,25.4 48.9399514,24.94 49.7799514,24.94 C50.3899514,24.94 50.9099514,25.07 51.3499514,25.49 L52.0299514,24.81 C51.4199514,24.24 50.7699514,24 49.8199514,24 C48.3399514,24 47.4399514,24.84 47.4399514,26.08 C47.4399514,26.67 47.6199514,27.13 47.9699514,27.45 C48.2799514,27.75 48.7299514,27.93 49.3099514,28.02 L50.1499514,28.14 C50.5099514,28.19 50.7499514,28.28 50.9299514,28.44 C51.1299514,28.61 51.2099514,28.86 51.2099514,29.18 C51.2099514,29.88 50.6799514,30.28 49.7399514,30.28 C49.0199514,30.28 48.4299514,30.11 47.9099514,29.59 L47.1999514,30.3 C47.8899514,30.99 48.6499514,31.24 49.7199514,31.24 C51.2199514,31.24 52.2799514,30.46 52.2799514,29.15 L52.2799514,29.15 Z M56.5682766,31.18 L56.5682766,24.06 L55.4882766,24.06 L55.4882766,31.18 L56.5682766,31.18 Z M65.0866018,28.42 L65.0866018,27.33 L62.4866018,27.33 L62.4866018,28.25 L64.0066018,28.25 L64.0066018,28.65 C64.0066018,29.11 63.9166018,29.47 63.6566018,29.77 C63.3766018,30.1 62.9566018,30.28 62.4866018,30.28 C62.0566018,30.28 61.6966018,30.12 61.4266018,29.84 C61.0766018,29.46 61.0066018,29.03 61.0066018,27.62 C61.0066018,26.21 61.0766018,25.78 61.4266018,25.4 C61.6966018,25.12 62.0566018,24.96 62.4866018,24.96 C63.2866018,24.96 63.8066018,25.42 63.9866018,26.2 L65.0666018,26.2 C64.8766018,24.99 63.9866018,24 62.4866018,24 C61.7066018,24 61.1066018,24.26 60.6466018,24.72 C59.9566018,25.42 59.9266018,26.13 59.9266018,27.62 C59.9266018,29.11 59.9566018,29.82 60.6466018,30.52 C61.1066018,30.98 61.7066018,31.24 62.4866018,31.24 C63.2366018,31.24 63.9166018,30.99 64.4466018,30.43 C64.9166018,29.92 65.0866018,29.35 65.0866018,28.42 L65.0866018,28.42 Z M73.794927,31.18 L73.794927,24.06 L72.714927,24.06 L72.714927,29.06 L69.424927,24.06 L68.434927,24.06 L68.434927,31.18 L69.514927,31.18 L69.514927,26.17 L72.804927,31.18 L73.794927,31.18 Z M86.4715775,28.42 L86.4715775,27.33 L83.8715775,27.33 L83.8715775,28.25 L85.3915775,28.25 L85.3915775,28.65 C85.3915775,29.11 85.3015775,29.47 85.0415775,29.77 C84.7615775,30.1 84.3415775,30.28 83.8715775,30.28 C83.4415775,30.28 83.0815775,30.12 82.8115775,29.84 C82.4615775,29.46 82.3915775,29.03 82.3915775,27.62 C82.3915775,26.21 82.4615775,25.78 82.8115775,25.4 C83.0815775,25.12 83.4415775,24.96 83.8715775,24.96 C84.6715775,24.96 85.1915775,25.42 85.3715775,26.2 L86.4515775,26.2 C86.2615775,24.99 85.3715775,24 83.8715775,24 C83.0915775,24 82.4915775,24.26 82.0315775,24.72 C81.3415775,25.42 81.3115775,26.13 81.3115775,27.62 C81.3115775,29.11 81.3415775,29.82 82.0315775,30.52 C82.4915775,30.98 83.0915775,31.24 83.8715775,31.24 C84.6215775,31.24 85.3015775,30.99 85.8315775,30.43 C86.3015775,29.92 86.4715775,29.35 86.4715775,28.42 L86.4715775,28.42 Z M94.8199027,28.78 L94.8199027,24.06 L93.7399027,24.06 L93.7399027,28.73 C93.7399027,29.68 93.1499027,30.27 92.2599027,30.27 C91.3699027,30.27 90.7899027,29.68 90.7899027,28.73 L90.7899027,24.06 L89.7099027,24.06 L89.7099027,28.78 C89.7099027,30.25 90.8099027,31.24 92.2599027,31.24 C93.7099027,31.24 94.8199027,30.25 94.8199027,28.78 L94.8199027,28.78 Z M99.408228,31.18 L99.408228,24.06 L98.328228,24.06 L98.328228,31.18 L99.408228,31.18 Z M108.086553,27.62 C108.086553,26.48 108.066553,25.6 107.546553,24.96 C107.046553,24.34 106.416553,24.06 105.526553,24.06 L103.026553,24.06 L103.026553,31.18 L105.526553,31.18 C106.416553,31.18 107.046553,30.9 107.546553,30.28 C108.066553,29.64 108.086553,28.76 108.086553,27.62 L108.086553,27.62 Z M107.006553,27.62 C107.006553,28.68 106.976553,29.34 106.626553,29.73 C106.326553,30.08 105.916553,30.22 105.406553,30.22 L104.106553,30.22 L104.106553,25.02 L105.406553,25.02 C105.916553,25.02 106.326553,25.16 106.626553,25.51 C106.976553,25.9 107.006553,26.56 107.006553,27.62 L107.006553,27.62 Z M115.994878,31.18 L115.994878,30.21 L112.524878,30.21 L112.524878,28.07 L115.484878,28.07 L115.484878,27.11 L112.524878,27.11 L112.524878,25.03 L115.994878,25.03 L115.994878,24.06 L111.444878,24.06 L111.444878,31.18 L115.994878,31.18 Z M123.743204,31.18 L123.743204,30.21 L120.313204,30.21 L120.313204,24.06 L119.233204,24.06 L119.233204,31.18 L123.743204,31.18 Z M127.811529,31.18 L127.811529,24.06 L126.731529,24.06 L126.731529,31.18 L127.811529,31.18 Z M136.789854,31.18 L136.789854,24.06 L135.709854,24.06 L135.709854,29.06 L132.419854,24.06 L131.429854,24.06 L131.429854,31.18 L132.509854,31.18 L132.509854,26.17 L135.799854,31.18 L136.789854,31.18 Z M144.958179,31.18 L144.958179,30.21 L141.488179,30.21 L141.488179,28.07 L144.448179,28.07 L144.448179,27.11 L141.488179,27.11 L141.488179,25.03 L144.958179,25.03 L144.958179,24.06 L140.408179,24.06 L140.408179,31.18 L144.958179,31.18 Z" id="WEB-DESIGN-GUIDELINE" fill="#000000"></path>
                    <rect id="Rectangle-1" fill="#C8E5CD" x="78" y="0" width="1" height="20"></rect>
                </g>
            </g>
        </g>
    </g>
</svg>