<?xml version="1.0" encoding="UTF-8" standalone="no"?>
<svg width="32px" height="32px" viewBox="0 0 32 32" version="1.1" xmlns="http://www.w3.org/2000/svg" xmlns:xlink="http://www.w3.org/1999/xlink" xmlns:sketch="http://www.bohemiancoding.com/sketch/ns">
    <!-- Generator: Sketch 3.3.2 (12043) - http://www.bohemiancoding.com/sketch -->
    <title>icon-share-twitter</title>
    <desc>Created with Sketch.</desc>
    <defs></defs>
    <g id="Page-1" stroke="none" stroke-width="1" fill="none" fill-rule="evenodd" sketch:type="MSPage">
        <path d="M16,4 C9.372625,4 4,9.372625 4,16 C4,22.627375 9.372625,28 16,28 C22.627375,28 28,22.627375 28,16 C28,9.372625 22.627375,4 16,4 L16,4 Z M21.964375,12.941125 C21.970375,13.073125 21.973375,13.205875 21.973375,13.339375 C21.973375,17.405875 18.878125,22.09525 13.2175,22.09525 C11.47975,22.09525 9.862,21.585625 8.5,20.712625 C8.74075,20.741125 8.985625,20.75575 9.23425,20.75575 C10.676125,20.75575 12.002875,20.26375 13.05625,19.438375 C11.709625,19.413625 10.573,18.52375 10.1815,17.30125 C10.369375,17.33725 10.562125,17.35675 10.7605,17.35675 C11.041,17.35675 11.31325,17.318875 11.57125,17.24875 C10.1635,16.966 9.102625,15.722125 9.102625,14.231125 C9.102625,14.218 9.102625,14.20525 9.103,14.1925 C9.51775,14.423125 9.9925,14.5615 10.496875,14.57725 C9.671125,14.02525 9.12775,13.083625 9.12775,12.015625 C9.12775,11.451625 9.279625,10.922875 9.544375,10.468375 C11.062375,12.33025 13.329625,13.555375 15.8875,13.683625 C15.835,13.45825 15.808,13.2235 15.808,12.982375 C15.808,11.282875 17.186125,9.905125 18.88525,9.905125 C19.77025,9.905125 20.570125,10.279 21.1315,10.87675 C21.832375,10.73875 22.49125,10.482625 23.085625,10.130125 C22.85575,10.848625 22.367875,11.452 21.732625,11.832625 C22.355125,11.758375 22.948375,11.593 23.5,11.348125 C23.0875,11.965 22.565875,12.50725 21.964375,12.941125 L21.964375,12.941125 Z" id="Shape" fill="#55ACEE" sketch:type="MSShapeGroup"></path>
    </g>
</svg>