<?xml version="1.0" encoding="UTF-8" standalone="no"?>
<svg width="32px" height="32px" viewBox="0 0 32 32" version="1.1" xmlns="http://www.w3.org/2000/svg" xmlns:xlink="http://www.w3.org/1999/xlink" xmlns:sketch="http://www.bohemiancoding.com/sketch/ns">
    <!-- Generator: Sketch 3.3.2 (12043) - http://www.bohemiancoding.com/sketch -->
    <title>icon-share-facebook</title>
    <desc>Created with Sketch.</desc>
    <defs></defs>
    <g id="Page-1" stroke="none" stroke-width="1" fill="none" fill-rule="evenodd" sketch:type="MSPage">
        <path d="M16,4 C9.372625,4 4,9.372625 4,16 C4,22.627375 9.372625,28 16,28 L16,19 L13,19 L13,16 L16,16 L16,13.75 C16,11.678875 17.678875,10 19.75,10 L23.5,10 L23.5,13 L19.75,13 C19.335625,13 19,13.335625 19,13.75 L19,16 L23.125,16 L22.375,19 L19,19 L19,27.622 C24.17575,26.29 28,21.591625 28,16 C28,9.372625 22.627375,4 16,4 L16,4 Z" id="Shape" fill="#45619D" sketch:type="MSShapeGroup"></path>
    </g>
</svg>