<?xml version="1.0" encoding="UTF-8" standalone="no"?>
<svg width="221px" height="48px" viewBox="0 0 221 48" version="1.1" xmlns="http://www.w3.org/2000/svg" xmlns:xlink="http://www.w3.org/1999/xlink" xmlns:sketch="http://www.bohemiancoding.com/sketch/ns">
    <!-- Generator: Sketch 3.4.2 (15855) - http://www.bohemiancoding.com/sketch -->
    <title>guideline logo</title>
    <desc>Created with Sketch.</desc>
    <defs></defs>
    <g id="Page-1" stroke="none" stroke-width="1" fill="none" fill-rule="evenodd" sketch:type="MSPage">
        <g id="guideline-logo" sketch:type="MSArtboardGroup" transform="translate(-39.000000, -271.000000)">
            <g id="logo" sketch:type="MSLayerGroup" transform="translate(39.000000, 271.618761)">
                <path d="M23.2932692,47.3812388 C20.234863,47.3812388 17.2614772,46.7877888 14.4558029,45.6162877 L15.3397825,43.4249054 C17.8636082,44.4779534 20.5400048,45.0121769 23.2932692,45.0121769 C34.8525541,45.0121769 44.2572115,35.4470893 44.2572115,23.6906194 C44.2572115,11.9341495 34.8525541,2.36906194 23.2932692,2.36906194 C11.7339844,2.36906194 2.32932692,11.9341495 2.32932692,23.6906194 L-3.55271368e-14,23.6906194 C-3.55271368e-14,10.6276119 10.4493606,0 23.2932692,0 C36.1371779,0 46.5865385,10.6276119 46.5865385,23.6906194 C46.5865385,36.7536269 36.1371779,47.3812388 23.2932692,47.3812388" id="Fill-1" fill="#56B879" sketch:type="MSShapeGroup"></path>
                <path d="M11.0037404,40.4597306 C5.57175,36.456016 2.32932692,29.9979531 2.32932692,23.184531 C2.32932692,22.5294853 1.80755769,22 1.16466346,22 C0.521769231,22 3.10862447e-14,22.5294853 3.10862447e-14,23.184531 C3.10862447e-14,30.7548684 3.60230409,37.9295725 9.63642548,42.3774863 L11.0037404,40.4597306" id="Fill-2" fill="#9ED16B" sketch:type="MSShapeGroup"></path>
                <path d="M14.6501011,45.3575526 C14.4801468,45.3575526 14.3061459,45.326 14.1388893,45.2546636 C12.1668799,44.4315518 10.2892896,43.3669939 8.55737432,42.0897987 C7.95444121,41.6453183 7.81955685,40.7879102 8.25658219,40.1746919 C8.69630522,39.5601018 9.53933249,39.4242883 10.1409168,39.8687687 C11.6988312,41.0183815 13.3889323,41.9759349 15.1626617,42.7167355 C15.8519208,43.0034528 16.1810386,43.804615 15.8991303,44.5070037 C15.6846641,45.0379108 15.1815455,45.3575526 14.6501011,45.3575526" id="Fill-3" fill="#F0ED1F" sketch:type="MSShapeGroup"></path>
                <path d="M77.86,15.075 L77.86,22.17 L77.005,22.17 L77.005,21.27 L72.94,21.27 L72.94,22.17 L72.085,22.17 L72.085,15.075 L74.32,15.075 L74.32,8.4 L75.16,8.4 L75.16,11.04 L78.475,11.04 L78.475,11.895 L75.16,11.895 L75.16,15.075 L77.86,15.075 Z M72.94,15.93 L72.94,20.415 L77.005,20.415 L77.005,15.93 L72.94,15.93 Z M66.205,12.78 C66.1549998,12.179997 66.0450008,11.4950039 65.875,10.725 L66.565,10.65 C66.7550009,11.6300049 66.8649999,12.3149981 66.895,12.705 L66.205,12.78 Z M68.755,12.57 C68.9450009,12.0099972 69.1249991,11.3500038 69.295,10.59 L69.94,10.77 C69.7199989,11.7500049 69.5500006,12.4249982 69.43,12.795 L68.755,12.57 Z M71.005,8.955 L71.005,14.385 L68.275,14.385 L68.275,15.585 L71.035,15.585 L71.035,16.365 L68.275,16.365 L68.275,17.97 C69.275005,17.9099997 70.2499952,17.8300005 71.2,17.73 L71.26,18.495 C69.1799896,18.7750014 66.9050123,18.9399998 64.435,18.99 L64.42,18.165 C65.4700052,18.1249998 66.4899951,18.0800003 67.48,18.03 L67.48,16.365 L64.705,16.365 L64.705,15.585 L67.48,15.585 L67.48,14.385 L64.825,14.385 L64.825,8.955 L71.005,8.955 Z M67.48,13.59 L67.48,9.75 L65.56,9.75 L65.56,13.59 L67.48,13.59 Z M68.275,9.75 L68.275,13.59 L70.27,13.59 L70.27,9.75 L68.275,9.75 Z M64.33,22.185 C64.6700017,21.3449958 64.9099993,20.4750045 65.05,19.575 L65.86,19.71 C65.7299993,20.6300046 65.5000017,21.5199957 65.17,22.38 L64.33,22.185 Z M68.2,19.56 L68.92,19.38 C69.310002,20.1900041 69.6199989,20.9699963 69.85,21.72 L69.04,21.915 C68.8599991,21.1749963 68.5800019,20.3900042 68.2,19.56 L68.2,19.56 Z M69.91,19.23 L70.615,19.005 C71.0550022,19.7850039 71.4149986,20.5499963 71.695,21.3 L70.945,21.51 C70.7049988,20.7999965 70.3600022,20.0400041 69.91,19.23 L69.91,19.23 Z M66.49,19.68 L67.24,19.605 C67.5100013,20.4850044 67.6999995,21.329996 67.81,22.14 L66.97,22.185 C66.9099997,21.4249962 66.7500013,20.5900046 66.49,19.68 L66.49,19.68 Z M93.4825,11.475 L93.4825,14.55 L84.3625,14.55 L84.3625,11.475 L93.4825,11.475 Z M92.6275,12.27 L85.2175,12.27 L85.2175,13.77 L92.6275,13.77 L92.6275,12.27 Z M82.5475,15.75 L95.2375,15.75 L95.2375,18.3 L94.3825,18.3 L94.3825,16.545 L83.4025,16.545 L83.4025,18.3 L82.5475,18.3 L82.5475,15.75 Z M94.8025,20.535 L94.8025,19.305 L95.6425,19.53 L95.6425,20.4 C95.6425,21.4300052 95.1675048,21.945 94.2175,21.945 L91.8325,21.945 C90.8824953,21.945 90.4075,21.4650048 90.4075,20.505 L90.4075,17.49 L91.2475,17.49 L91.2475,20.58 C91.2475,20.9600019 91.4374981,21.15 91.8175,21.15 L94.1875,21.15 C94.5975021,21.15 94.8025,20.9450021 94.8025,20.535 L94.8025,20.535 Z M86.1325,17.49 L86.9725,17.49 L86.9725,18.3 C86.9624999,20.4400107 85.3725158,21.7199979 82.2025,22.14 L81.8575,21.315 C84.6975142,20.9649983 86.1224999,19.9600083 86.1325,18.3 L86.1325,17.49 Z M95.6725,10.395 L82.0825,10.395 L82.0825,9.6 L88.5625,9.6 C88.4924996,9.2199981 88.3925007,8.830002 88.2625,8.43 L89.1325,8.355 C89.2425006,8.78500215 89.3324997,9.199998 89.4025,9.6 L95.6725,9.6 L95.6725,10.395 Z M101.395,15.81 L111.325,15.81 L111.325,22.17 L110.47,22.17 L110.47,21.24 L102.25,21.24 L102.25,22.17 L101.395,22.17 L101.395,15.81 Z M110.47,16.605 L102.25,16.605 L102.25,20.445 L110.47,20.445 L110.47,16.605 Z M101.125,13.17 C102.545007,11.8299933 103.949993,10.2300093 105.34,8.37 L106.06,8.79 C104.809994,10.4700084 103.455007,12.0299928 101.995,13.47 C104.575013,13.3199993 107.474984,13.1850006 110.695,13.065 C110.034997,12.2249958 109.300004,11.3850042 108.49,10.545 L109.18,10.11 C110.660007,11.6700078 111.939995,13.2299922 113.02,14.79 L112.27,15.24 C111.969999,14.7799977 111.655002,14.3250023 111.325,13.875 C107.33498,13.9850006 103.700016,14.1849986 100.42,14.475 L100.285,13.575 C100.595002,13.5349998 100.874999,13.4000012 101.125,13.17 L101.125,13.17 Z M123.5125,10.455 L126.5725,10.455 L126.5725,11.07 L123.5125,11.07 L123.5125,10.455 Z M123.5725,11.865 L126.5725,11.865 L126.5725,12.48 L123.5725,12.48 L123.5725,11.865 Z M126.4825,13.26 L126.4825,15.405 L123.6325,15.405 L123.6325,13.26 L126.4825,13.26 Z M125.8675,13.875 L124.2475,13.875 L124.2475,14.79 L125.8675,14.79 L125.8675,13.875 Z M126.8575,9.66 L123.3475,9.66 L123.3475,9.045 L124.6525,9.045 C124.5725,8.7649986 124.477501,8.47000155 124.3675,8.16 L125.2375,8.04 C125.337501,8.3800017 125.4225,8.71499835 125.4925,9.045 L126.8575,9.045 L126.8575,9.66 Z M118.6675,10.755 C118.167497,10.2649976 117.562504,9.73500285 116.8525,9.165 L117.3925,8.565 C118.312505,9.31500375 118.927498,9.85499835 119.2375,10.185 L118.6675,10.755 Z M118.5925,14.79 C118.112498,14.2599974 117.527503,13.6900031 116.8375,13.08 L117.4075,12.51 C118.297504,13.3200041 118.892499,13.8999983 119.1925,14.25 L118.5925,14.79 Z M117.0925,22.11 C117.582502,20.4599918 118.032498,18.5300111 118.4425,16.32 L119.2075,16.53 C118.647497,19.3500141 118.202502,21.2899947 117.8725,22.35 L117.0925,22.11 Z M120.5275,16.11 L129.5875,16.11 L129.5875,18.42 L121.9225,18.42 L121.7575,19.395 L129.9925,19.395 L129.9925,20.58 C129.9925,21.6000051 129.482505,22.11 128.4625,22.11 L124.6975,22.11 L124.4575,21.315 L128.3725,21.315 C128.892503,21.315 129.1525,21.0600026 129.1525,20.55 L129.1525,20.055 L120.8275,20.055 L121.1725,17.745 L128.7325,17.745 L128.7325,16.785 L120.5275,16.785 L120.5275,16.11 Z M130.5025,9.18 C129.802497,10.2700055 129.007504,11.3599946 128.1175,12.45 C128.617503,12.3799997 129.167497,12.3200003 129.7675,12.27 C129.657499,11.9599985 129.542501,11.6450016 129.4225,11.325 L130.0375,11.205 C130.347502,11.9350037 130.597499,12.6349967 130.7875,13.305 L130.0825,13.44 C130.0325,13.2599991 129.9875,13.0850009 129.9475,12.915 C128.907495,13.0350006 127.957504,13.1699993 127.0975,13.32 L126.8425,12.615 C127.112501,12.5449997 127.337499,12.3950012 127.5175,12.165 C127.837502,11.764998 128.162498,11.3400023 128.4925,10.89 C127.982497,10.9400003 127.512502,10.9999997 127.0825,11.07 L126.8425,10.365 C127.102501,10.3049997 127.292499,10.180001 127.4125,9.99 C127.772502,9.4499973 128.117498,8.8400034 128.4475,8.16 L129.1375,8.355 C128.807498,8.9950032 128.437502,9.6249969 128.0275,10.245 C128.327501,10.2149999 128.652498,10.1900001 129.0025,10.17 C129.282501,9.7499979 129.567499,9.3100023 129.8575,8.85 L130.5025,9.18 Z M127.2025,13.725 L127.8325,13.755 C127.8025,14.3950032 127.702501,14.9999972 127.5325,15.57 L126.8425,15.45 C127.042501,14.9599976 127.1625,14.3850033 127.2025,13.725 L127.2025,13.725 Z M128.6425,15.48 C128.6225,14.879997 128.5625,14.3100027 128.4625,13.77 L129.0325,13.695 C129.162501,14.2650029 129.2425,14.8449971 129.2725,15.435 L128.6425,15.48 Z M130.1125,15.33 C130.0425,14.7499971 129.927501,14.2000026 129.7675,13.68 L130.3225,13.545 C130.512501,14.0950028 130.6525,14.6549972 130.7425,15.225 L130.1125,15.33 Z M123.0775,9.105 C122.417497,10.1850054 121.667504,11.2649946 120.8275,12.345 C121.297502,12.2849997 121.797497,12.2250003 122.3275,12.165 C122.2475,11.8649985 122.147501,11.5650015 122.0275,11.265 L122.6575,11.16 C122.947501,11.8800036 123.177499,12.5799966 123.3475,13.26 L122.6275,13.365 C122.5875,13.1849991 122.5475,12.995001 122.5075,12.795 C121.527495,12.9150006 120.632504,13.0499993 119.8225,13.2 L119.5825,12.525 C119.842501,12.4449996 120.062499,12.2850012 120.2425,12.045 C120.522501,11.6649981 120.807499,11.2700021 121.0975,10.86 C120.607498,10.9300004 120.147502,11.0099996 119.7175,11.1 L119.4625,10.395 C119.4625,10.385 119.4775,10.38 119.5075,10.38 C119.717501,10.3099997 119.892499,10.180001 120.0325,9.99 C120.392502,9.4499973 120.732498,8.8400034 121.0525,8.16 L121.7425,8.355 C121.432498,8.98500315 121.072502,9.6099969 120.6625,10.23 C120.942501,10.1899998 121.252498,10.1550002 121.5925,10.125 C121.862501,9.71499795 122.137499,9.27500235 122.4175,8.805 L123.0775,9.105 Z M119.7025,13.725 L120.3325,13.755 C120.3025,14.3950032 120.202501,14.9999972 120.0325,15.57 L119.3425,15.45 C119.542501,14.9599976 119.6625,14.3850033 119.7025,13.725 L119.7025,13.725 Z M121.0825,15.465 C121.0825,14.8749971 121.0425,14.3100027 120.9625,13.77 L121.5475,13.71 C121.6475,14.2800029 121.7025,14.8599971 121.7125,15.45 L121.0825,15.465 Z M122.4925,15.195 C122.4325,14.6749974 122.337501,14.1700025 122.2075,13.68 L122.7625,13.56 C122.922501,14.0700026 123.0425,14.5849974 123.1225,15.105 L122.4925,15.195 Z M160.0675,14.73 L167.1925,14.73 L167.1925,15.585 C166.522497,17.2850085 165.627506,18.6749946 164.5075,19.755 C165.407505,20.4250034 166.657492,20.9549981 168.2575,21.345 L167.8675,22.215 C166.137491,21.7249976 164.807505,21.1000038 163.8775,20.34 L163.8625,20.325 C162.782495,21.1950044 161.522507,21.8249981 160.0825,22.215 L159.5725,21.405 C160.952507,21.0349982 162.162495,20.4600039 163.2025,19.68 C162.482496,18.9099962 161.747504,17.8400069 160.9975,16.47 L161.6575,16.155 C162.397504,17.4450065 163.122496,18.4499964 163.8325,19.17 C164.862505,18.2199953 165.672497,17.0250072 166.2625,15.585 L160.0675,15.585 L160.0675,14.73 Z M161.2375,8.985 L166.1275,8.985 L166.1275,12.765 C166.1275,12.9050007 166.197499,12.975 166.3375,12.975 L167.9725,12.975 L167.9725,13.815 L166.0975,13.815 C165.557497,13.815 165.2875,13.5450027 165.2875,13.005 L165.2875,9.84 L162.0925,9.84 L162.0925,10.86 C162.0925,12.3800076 161.522506,13.4949965 160.3825,14.205 L159.7375,13.605 C160.737505,12.994997 161.2375,12.0800061 161.2375,10.86 L161.2375,8.985 Z M154.6825,12.705 L159.2425,12.705 L159.2425,13.5 L154.6825,13.5 L154.6825,12.705 Z M154.6825,15 L159.2425,15 L159.2425,15.78 L154.6825,15.78 L154.6825,15 Z M159.1075,17.31 L159.1075,21.99 L158.2525,21.99 L158.2525,21.03 L155.7025,21.03 L155.7025,22.11 L154.8475,22.11 L154.8475,17.31 L159.1075,17.31 Z M158.2525,18.165 L155.7025,18.165 L155.7025,20.175 L158.2525,20.175 L158.2525,18.165 Z M159.6025,11.13 L154.2625,11.13 L154.2625,10.275 L156.6925,10.275 C156.6125,9.74499735 156.477501,9.19500285 156.2875,8.625 L157.1575,8.535 C157.317501,9.12500295 157.4475,9.70499715 157.5475,10.275 L159.6025,10.275 L159.6025,11.13 Z M178.15,12.795 L181.495,12.795 L181.495,8.4 L182.335,8.4 L182.335,12.795 L185.65,12.795 L185.65,13.65 L182.335,13.65 L182.335,22.23 L181.495,22.23 L181.495,13.65 L178.15,13.65 L178.15,12.795 Z M172.285,12.705 L177.265,12.705 L177.265,13.5 L172.285,13.5 L172.285,12.705 Z M172.285,14.94 L177.265,14.94 L177.265,15.72 L172.285,15.72 L172.285,14.94 Z M177.355,17.25 L177.355,22.11 L176.515,22.11 L176.515,21.09 L173.02,21.09 L173.02,22.23 L172.18,22.23 L172.18,17.25 L177.355,17.25 Z M176.515,18.105 L173.02,18.105 L173.02,20.235 L176.515,20.235 L176.515,18.105 Z M177.85,11.13 L171.7,11.13 L171.7,10.275 L174.265,10.275 C174.195,9.70499715 174.075001,9.10500315 173.905,8.475 L174.76,8.43 C174.920001,9.0700032 175.04,9.68499705 175.12,10.275 L177.85,10.275 L177.85,11.13 Z M189.1375,21.57 C190.547507,19.9299918 191.307499,17.815013 191.4175,15.225 L189.2575,15.225 L189.2575,14.385 L191.4325,14.385 L191.4325,11.475 L189.4375,11.475 L189.4375,10.635 L191.4325,10.635 L191.4325,8.4 L192.2725,8.4 L192.2725,10.635 L194.2375,10.635 L194.2375,11.475 L192.2725,11.475 L192.2725,14.385 L194.4175,14.385 L194.4175,15.225 L192.2575,15.225 C192.2275,15.7750028 192.1775,16.3049975 192.1075,16.815 C193.017505,17.6450042 193.812497,18.464996 194.4925,19.275 L193.8625,19.92 C193.402498,19.2799968 192.762504,18.560004 191.9425,17.76 C191.552498,19.4700086 190.842505,20.9449938 189.8125,22.185 L189.1375,21.57 Z M202.0675,8.835 L202.0675,17.655 L200.2525,17.655 L200.2525,20.955 C200.2525,21.1650011 200.352499,21.27 200.5525,21.27 L202.0525,21.27 C202.252501,21.27 202.3525,21.1650011 202.3525,20.955 L202.3525,19.185 L203.1475,19.425 L203.1475,20.865 C203.1475,21.655004 202.752504,22.05 201.9625,22.05 L200.5825,22.05 C199.792496,22.05 199.3975,21.655004 199.3975,20.865 L199.3975,17.655 L197.6125,17.655 L197.6125,18.18 C197.6125,19.970009 196.317513,21.2849958 193.7275,22.125 L193.3075,21.36 C195.607511,20.6599965 196.7575,19.6000071 196.7575,18.18 L196.7575,17.655 L195.2425,17.655 L195.2425,8.835 L202.0675,8.835 Z M196.0825,14.175 L201.2125,14.175 L201.2125,12.33 L196.0825,12.33 L196.0825,14.175 Z M201.2125,14.97 L196.0825,14.97 L196.0825,16.875 L201.2125,16.875 L201.2125,14.97 Z M196.0825,11.535 L201.2125,11.535 L201.2125,9.63 L196.0825,9.63 L196.0825,11.535 Z M213.46,14.61 L213.46,18.975 L210.775,18.975 L210.775,19.92 L213.91,19.92 L213.91,20.7 L210.775,20.7 L210.775,22.17 L209.92,22.17 L209.92,20.7 L206.695,20.7 L206.695,19.92 L209.92,19.92 L209.92,18.975 L207.16,18.975 L207.16,14.61 L209.92,14.61 L209.92,13.68 L206.815,13.68 L206.815,12.885 L209.92,12.885 L209.92,11.97 L210.775,11.97 L210.775,12.885 L213.73,12.885 L213.73,13.68 L210.775,13.68 L210.775,14.61 L213.46,14.61 Z M212.62,17.22 L210.775,17.22 L210.775,18.24 L212.62,18.24 L212.62,17.22 Z M210.775,16.485 L212.62,16.485 L212.62,15.345 L210.775,15.345 L210.775,16.485 Z M209.92,17.22 L208.015,17.22 L208.015,18.24 L209.92,18.24 L209.92,17.22 Z M208.015,16.485 L209.92,16.485 L209.92,15.345 L208.015,15.345 L208.015,16.485 Z M214.78,12.735 L219.79,12.735 L219.79,16.785 C219.79,17.7350048 219.310005,18.21 218.35,18.21 L217.18,18.21 L216.955,17.37 L218.425,17.37 C218.775002,17.37 218.95,17.2000017 218.95,16.86 L218.95,13.59 L215.635,13.59 L215.635,20.76 C215.635,21.0400014 215.769999,21.18 216.04,21.18 L219.13,21.18 C219.470002,21.18 219.64,21.0100017 219.64,20.67 L219.64,19.245 L220.495,19.47 L220.495,20.685 C220.495,21.5750045 220.085004,22.02 219.265,22.02 L216.01,22.02 C215.189996,22.02 214.78,21.5750045 214.78,20.685 L214.78,12.735 Z M209.44,9.48 L213.49,9.48 L213.49,10.275 L211.435,10.275 C211.675001,10.7950026 211.879999,11.2949976 212.05,11.775 L211.18,11.925 C211.059999,11.4749978 210.855001,10.9250033 210.565,10.275 L208.93,10.275 C208.479998,10.9450034 207.955003,11.5549973 207.355,12.105 L206.605,11.7 C207.685005,10.7299952 208.524997,9.63000615 209.125,8.4 L209.995,8.4 C209.814999,8.77000185 209.630001,9.12999825 209.44,9.48 L209.44,9.48 Z M215.74,9.48 L220.405,9.48 L220.405,10.275 L217.735,10.275 C218.045002,10.8250028 218.294999,11.3599974 218.485,11.88 L217.63,12.075 C217.469999,11.5649975 217.210002,10.9650035 216.85,10.275 L215.305,10.275 C214.914998,10.9550034 214.460003,11.5799972 213.94,12.15 L213.16,11.79 C214.120005,10.7599949 214.849998,9.62000625 215.35,8.37 L216.205,8.37 C216.054999,8.7500019 215.900001,9.1199982 215.74,9.48 L215.74,9.48 Z" id="點亮台灣---設計規範" fill="#414141" sketch:type="MSShapeGroup"></path>
                <path d="M72.6,33.88 L71.46,33.88 L70.22,38.97 L68.79,33.88 L67.92,33.88 L66.49,38.97 L65.25,33.88 L64.11,33.88 L65.97,41 L66.91,41 L68.35,36.01 L69.8,41 L70.74,41 L72.6,33.88 Z M79.9483252,41 L79.9483252,40.03 L76.4783252,40.03 L76.4783252,37.89 L79.4383252,37.89 L79.4383252,36.93 L76.4783252,36.93 L76.4783252,34.85 L79.9483252,34.85 L79.9483252,33.88 L75.3983252,33.88 L75.3983252,41 L79.9483252,41 Z M88.2166505,38.99 C88.2166505,38.09 87.6966505,37.56 87.1466505,37.34 C87.6266505,37.15 88.1066505,36.6 88.1066505,35.83 C88.1066505,34.63 87.2766505,33.88 85.9566505,33.88 L83.1866505,33.88 L83.1866505,41 L86.0666505,41 C87.3266505,41 88.2166505,40.3 88.2166505,38.99 L88.2166505,38.99 Z M87.1366505,38.94 C87.1366505,39.57 86.7166505,40.03 85.9666505,40.03 L84.2666505,40.03 L84.2666505,37.86 L85.9666505,37.86 C86.7166505,37.86 87.1366505,38.31 87.1366505,38.94 L87.1366505,38.94 Z M87.0266505,35.87 C87.0266505,36.53 86.5566505,36.89 85.8666505,36.89 L84.2666505,36.89 L84.2666505,34.85 L85.8666505,34.85 C86.5566505,34.85 87.0266505,35.21 87.0266505,35.87 L87.0266505,35.87 Z M100.793301,37.44 C100.793301,36.3 100.773301,35.42 100.253301,34.78 C99.7533009,34.16 99.1233009,33.88 98.2333009,33.88 L95.7333009,33.88 L95.7333009,41 L98.2333009,41 C99.1233009,41 99.7533009,40.72 100.253301,40.1 C100.773301,39.46 100.793301,38.58 100.793301,37.44 L100.793301,37.44 Z M99.7133009,37.44 C99.7133009,38.5 99.6833009,39.16 99.3333009,39.55 C99.0333009,39.9 98.6233009,40.04 98.1133009,40.04 L96.8133009,40.04 L96.8133009,34.84 L98.1133009,34.84 C98.6233009,34.84 99.0333009,34.98 99.3333009,35.33 C99.6833009,35.72 99.7133009,36.38 99.7133009,37.44 L99.7133009,37.44 Z M108.701626,41 L108.701626,40.03 L105.231626,40.03 L105.231626,37.89 L108.191626,37.89 L108.191626,36.93 L105.231626,36.93 L105.231626,34.85 L108.701626,34.85 L108.701626,33.88 L104.151626,33.88 L104.151626,41 L108.701626,41 Z M116.389951,38.97 C116.389951,38.35 116.189951,37.86 115.809951,37.51 C115.499951,37.23 115.139951,37.08 114.489951,36.98 L113.639951,36.85 C113.249951,36.79 113.039951,36.69 112.859951,36.53 C112.669951,36.37 112.599951,36.13 112.599951,35.87 C112.599951,35.22 113.049951,34.76 113.889951,34.76 C114.499951,34.76 115.019951,34.89 115.459951,35.31 L116.139951,34.63 C115.529951,34.06 114.879951,33.82 113.929951,33.82 C112.449951,33.82 111.549951,34.66 111.549951,35.9 C111.549951,36.49 111.729951,36.95 112.079951,37.27 C112.389951,37.57 112.839951,37.75 113.419951,37.84 L114.259951,37.96 C114.619951,38.01 114.859951,38.1 115.039951,38.26 C115.239951,38.43 115.319951,38.68 115.319951,39 C115.319951,39.7 114.789951,40.1 113.849951,40.1 C113.129951,40.1 112.539951,39.93 112.019951,39.41 L111.309951,40.12 C111.999951,40.81 112.759951,41.06 113.829951,41.06 C115.329951,41.06 116.389951,40.28 116.389951,38.97 L116.389951,38.97 Z M120.678277,41 L120.678277,33.88 L119.598277,33.88 L119.598277,41 L120.678277,41 Z M129.196602,38.24 L129.196602,37.15 L126.596602,37.15 L126.596602,38.07 L128.116602,38.07 L128.116602,38.47 C128.116602,38.93 128.026602,39.29 127.766602,39.59 C127.486602,39.92 127.066602,40.1 126.596602,40.1 C126.166602,40.1 125.806602,39.94 125.536602,39.66 C125.186602,39.28 125.116602,38.85 125.116602,37.44 C125.116602,36.03 125.186602,35.6 125.536602,35.22 C125.806602,34.94 126.166602,34.78 126.596602,34.78 C127.396602,34.78 127.916602,35.24 128.096602,36.02 L129.176602,36.02 C128.986602,34.81 128.096602,33.82 126.596602,33.82 C125.816602,33.82 125.216602,34.08 124.756602,34.54 C124.066602,35.24 124.036602,35.95 124.036602,37.44 C124.036602,38.93 124.066602,39.64 124.756602,40.34 C125.216602,40.8 125.816602,41.06 126.596602,41.06 C127.346602,41.06 128.026602,40.81 128.556602,40.25 C129.026602,39.74 129.196602,39.17 129.196602,38.24 L129.196602,38.24 Z M137.904927,41 L137.904927,33.88 L136.824927,33.88 L136.824927,38.88 L133.534927,33.88 L132.544927,33.88 L132.544927,41 L133.624927,41 L133.624927,35.99 L136.914927,41 L137.904927,41 Z M150.581578,38.24 L150.581578,37.15 L147.981578,37.15 L147.981578,38.07 L149.501578,38.07 L149.501578,38.47 C149.501578,38.93 149.411578,39.29 149.151578,39.59 C148.871578,39.92 148.451578,40.1 147.981578,40.1 C147.551578,40.1 147.191578,39.94 146.921578,39.66 C146.571578,39.28 146.501578,38.85 146.501578,37.44 C146.501578,36.03 146.571578,35.6 146.921578,35.22 C147.191578,34.94 147.551578,34.78 147.981578,34.78 C148.781578,34.78 149.301578,35.24 149.481578,36.02 L150.561578,36.02 C150.371578,34.81 149.481578,33.82 147.981578,33.82 C147.201578,33.82 146.601578,34.08 146.141578,34.54 C145.451578,35.24 145.421578,35.95 145.421578,37.44 C145.421578,38.93 145.451578,39.64 146.141578,40.34 C146.601578,40.8 147.201578,41.06 147.981578,41.06 C148.731578,41.06 149.411578,40.81 149.941578,40.25 C150.411578,39.74 150.581578,39.17 150.581578,38.24 L150.581578,38.24 Z M158.929903,38.6 L158.929903,33.88 L157.849903,33.88 L157.849903,38.55 C157.849903,39.5 157.259903,40.09 156.369903,40.09 C155.479903,40.09 154.899903,39.5 154.899903,38.55 L154.899903,33.88 L153.819903,33.88 L153.819903,38.6 C153.819903,40.07 154.919903,41.06 156.369903,41.06 C157.819903,41.06 158.929903,40.07 158.929903,38.6 L158.929903,38.6 Z M163.518228,41 L163.518228,33.88 L162.438228,33.88 L162.438228,41 L163.518228,41 Z M172.196553,37.44 C172.196553,36.3 172.176553,35.42 171.656553,34.78 C171.156553,34.16 170.526553,33.88 169.636553,33.88 L167.136553,33.88 L167.136553,41 L169.636553,41 C170.526553,41 171.156553,40.72 171.656553,40.1 C172.176553,39.46 172.196553,38.58 172.196553,37.44 L172.196553,37.44 Z M171.116553,37.44 C171.116553,38.5 171.086553,39.16 170.736553,39.55 C170.436553,39.9 170.026553,40.04 169.516553,40.04 L168.216553,40.04 L168.216553,34.84 L169.516553,34.84 C170.026553,34.84 170.436553,34.98 170.736553,35.33 C171.086553,35.72 171.116553,36.38 171.116553,37.44 L171.116553,37.44 Z M180.104878,41 L180.104878,40.03 L176.634878,40.03 L176.634878,37.89 L179.594878,37.89 L179.594878,36.93 L176.634878,36.93 L176.634878,34.85 L180.104878,34.85 L180.104878,33.88 L175.554878,33.88 L175.554878,41 L180.104878,41 Z M187.853204,41 L187.853204,40.03 L184.423204,40.03 L184.423204,33.88 L183.343204,33.88 L183.343204,41 L187.853204,41 Z M191.921529,41 L191.921529,33.88 L190.841529,33.88 L190.841529,41 L191.921529,41 Z M200.899854,41 L200.899854,33.88 L199.819854,33.88 L199.819854,38.88 L196.529854,33.88 L195.539854,33.88 L195.539854,41 L196.619854,41 L196.619854,35.99 L199.909854,41 L200.899854,41 Z M209.068179,41 L209.068179,40.03 L205.598179,40.03 L205.598179,37.89 L208.558179,37.89 L208.558179,36.93 L205.598179,36.93 L205.598179,34.85 L209.068179,34.85 L209.068179,33.88 L204.518179,33.88 L204.518179,41 L209.068179,41 Z" id="WEB-DESIGN-GUIDELINE" fill="#585858" sketch:type="MSShapeGroup"></path>
                <rect id="Rectangle-1" fill="#C8E5CD" sketch:type="MSShapeGroup" x="142" y="6" width="1.16466346" height="20.1370265"></rect>
            </g>
        </g>
    </g>
</svg>